<svg width="7" height="10" viewBox="0 0 7 10" fill="none" xmlns="http://www.w3.org/2000/svg">
<path d="M1.10845 0.792969C0.991626 0.792969 0.879588 0.839376 0.796982 0.921982C0.714376 1.00459 0.667969 1.11663 0.667969 1.23345V7.86961C0.667969 8.11303 0.865025 8.31009 1.10845 8.31009C1.21857 8.31009 1.3113 8.27531 1.38664 8.21736L2.49364 7.31901L3.45574 9.41708C3.53108 9.57357 3.68757 9.6663 3.85565 9.6663C3.9194 9.6663 3.98315 9.6663 4.04691 9.61993L5.64654 8.87807C5.86678 8.77375 5.9711 8.50714 5.85519 8.2927L4.88729 6.18884L6.28408 5.92803C6.37681 5.89905 6.46375 5.85848 6.53329 5.77734C6.68978 5.59187 6.6666 5.31947 6.46375 5.15139L1.39824 0.891497L1.39244 0.897293C1.3171 0.833539 1.21857 0.792969 1.10845 0.792969Z" fill="currentColor"/>
</svg>
