<svg width="10" height="16" viewBox="0 0 10 16" fill="none" xmlns="http://www.w3.org/2000/svg">
<path fill-rule="evenodd" clip-rule="evenodd" d="M9.70721 10.2932C9.89468 10.4807 10 10.735 10 11.0002C10 11.2654 9.89468 11.5197 9.70721 11.7072L5.70721 15.7072C5.51969 15.8947 5.26538 16 5.00021 16C4.73505 16 4.48074 15.8947 4.29321 15.7072L0.293214 11.7072C0.111056 11.5186 0.0102619 11.266 0.0125403 11.0038C0.0148187 10.7416 0.119988 10.4908 0.305396 10.3054C0.490803 10.12 0.741617 10.0148 1.00381 10.0125C1.26601 10.0103 1.51861 10.1111 1.70721 10.2932L4.00021 12.5862L4.00021 1.00021C4.00021 0.734996 4.10557 0.480642 4.29311 0.293106C4.48064 0.105569 4.735 0.000213163 5.00022 0.000213186C5.26543 0.000213209 5.51979 0.105569 5.70732 0.293106C5.89486 0.480642 6.00021 0.734996 6.00021 1.00021L6.00021 12.5862L8.29321 10.2932C8.48074 10.1057 8.73505 10.0004 9.00021 10.0004C9.26538 10.0004 9.51969 10.1057 9.70721 10.2932Z" fill="currentColor"/>
</svg>
