<svg width="10" height="16" viewBox="0 0 10 16" fill="none" xmlns="http://www.w3.org/2000/svg">
<path fill-rule="evenodd" clip-rule="evenodd" d="M0.292787 5.70679C0.105316 5.51926 0 5.26495 0 4.99979C0 4.73462 0.105316 4.48031 0.292787 4.29279L4.29279 0.292786C4.48031 0.105315 4.73462 0 4.99979 0C5.26495 0 5.51926 0.105315 5.70679 0.292786L9.70679 4.29279C9.88894 4.48139 9.98974 4.73399 9.98746 4.99619C9.98518 5.25838 9.88001 5.5092 9.6946 5.6946C9.5092 5.88001 9.25838 5.98518 8.99619 5.98746C8.73399 5.98974 8.48139 5.88894 8.29279 5.70679L5.99979 3.41379V14.9998C5.99979 15.265 5.89443 15.5194 5.70689 15.7069C5.51936 15.8944 5.265 15.9998 4.99979 15.9998C4.73457 15.9998 4.48022 15.8944 4.29268 15.7069C4.10514 15.5194 3.99979 15.265 3.99979 14.9998V3.41379L1.70679 5.70679C1.51926 5.89426 1.26495 5.99957 0.999786 5.99957C0.734622 5.99957 0.480314 5.89426 0.292787 5.70679Z" fill="currentColor"/>
</svg>
