<svg width="16" height="17" viewBox="0 0 16 17" fill="none" xmlns="http://www.w3.org/2000/svg">
<path fill-rule="evenodd" clip-rule="evenodd" d="M12.243 3.75709C11.442 2.95651 10.4307 2.399 9.3261 2.149C8.22152 1.89901 7.06874 1.96673 6.00103 2.34435C4.93332 2.72198 3.99429 3.39407 3.29249 4.28294C2.5907 5.17181 2.1548 6.24115 2.03519 7.36733C1.91559 8.49352 2.11716 9.63056 2.6166 10.647C3.11604 11.6635 3.89296 12.5178 4.85754 13.1112C5.82212 13.7047 6.93496 14.0131 8.06741 14.0006C9.19986 13.9882 10.3057 13.6556 11.257 13.0411C11.3671 12.9656 11.4913 12.9129 11.6221 12.8861C11.7529 12.8594 11.8878 12.8591 12.0187 12.8853C12.1496 12.9115 12.274 12.9636 12.3844 13.0387C12.4949 13.1137 12.5892 13.2101 12.6618 13.3222C12.7344 13.4342 12.7838 13.5597 12.8071 13.6912C12.8305 13.8226 12.8272 13.9575 12.7976 14.0877C12.768 14.2179 12.7126 14.3408 12.6347 14.4493C12.5568 14.5577 12.4579 14.6495 12.344 14.7191C10.8507 15.6847 9.07827 16.1252 7.30667 15.9711C5.53508 15.817 3.86533 15.077 2.56121 13.868C1.2571 12.6591 0.392976 11.0501 0.105349 9.29518C-0.182278 7.5403 0.122993 5.73962 0.972934 4.17759C1.82288 2.61557 3.16903 1.38126 4.79874 0.66966C6.42844 -0.0419391 8.24879 -0.19026 9.9722 0.24813C11.6956 0.686519 13.2238 1.68663 14.3154 3.09045C15.407 4.49428 15.9998 6.2218 16 8.00009C16.0002 8.55731 15.8452 9.10357 15.5524 9.57764C15.2595 10.0517 14.8405 10.4349 14.3421 10.6841C13.8437 10.9334 13.2858 11.039 12.7308 10.989C12.1759 10.939 11.6458 10.7354 11.2 10.4011C10.6302 11.1609 9.80854 11.6931 8.88216 11.9026C7.95579 12.1121 6.98511 11.9851 6.14381 11.5443C5.3025 11.1036 4.64547 10.3779 4.29028 9.49703C3.93508 8.6162 3.90489 7.63771 4.20512 6.73665C4.50535 5.83559 5.1164 5.07076 5.92893 4.57901C6.74147 4.08725 7.70248 3.90066 8.64 4.05262C9.57752 4.20458 10.4304 4.68517 11.046 5.40841C11.6616 6.13164 11.9998 7.05033 12 8.00009C12 8.26531 12.1054 8.51966 12.2929 8.7072C12.4804 8.89473 12.7348 9.00009 13 9.00009C13.2652 9.00009 13.5196 8.89473 13.7071 8.7072C13.8947 8.51966 14 8.26531 14 8.00009C14 6.46309 13.414 4.93009 12.243 3.75709ZM10 8.00009C10 7.46966 9.7893 6.96095 9.41422 6.58588C9.03915 6.2108 8.53044 6.00009 8.00001 6.00009C7.46958 6.00009 6.96087 6.2108 6.5858 6.58588C6.21073 6.96095 6.00001 7.46966 6.00001 8.00009C6.00001 8.53052 6.21073 9.03923 6.5858 9.4143C6.96087 9.78938 7.46958 10.0001 8.00001 10.0001C8.53044 10.0001 9.03915 9.78938 9.41422 9.4143C9.7893 9.03923 10 8.53052 10 8.00009Z" fill='currentColor'/>
</svg>
