<svg width="20" height="20" viewBox="0 0 20 20" fill="none" xmlns="http://www.w3.org/2000/svg">
<path fill-rule="evenodd" clip-rule="evenodd" d="M11.3261 4.14876C12.4307 4.39876 13.442 4.95627 14.243 5.75684C15.414 6.92984 16 8.46284 16 9.99984C16 10.2651 15.8947 10.5194 15.7071 10.707C15.5196 10.8945 15.2652 10.9998 15 10.9998C14.7348 10.9998 14.4804 10.8945 14.2929 10.707C14.1054 10.5194 14 10.2651 14 9.99984C13.9998 9.05009 13.6616 8.1314 13.046 7.40816C12.4304 6.68493 11.5775 6.20433 10.64 6.05237C9.70248 5.90041 8.74147 6.08701 7.92893 6.57876C7.1164 7.07052 6.50535 7.83535 6.20512 8.73641C5.90489 9.63746 5.93508 10.616 6.29028 11.4968C6.64547 12.3776 7.3025 13.1033 8.14381 13.5441C8.98511 13.9848 9.95579 14.1118 10.8822 13.9024C11.8085 13.6929 12.6302 13.1607 13.2 12.4008C13.6458 12.7352 14.1759 12.9388 14.7308 12.9887C14.9887 13.012 15.2472 13.0016 15.5 12.9589V11.5H17.5986C17.8615 11.0443 18.0002 10.527 18 9.99984C17.9998 8.22155 17.407 6.49404 16.3154 5.09021C15.2238 3.68638 13.6956 2.68628 11.9722 2.24789C10.2488 1.8095 8.42844 1.95782 6.79874 2.66942C5.16903 3.38102 3.82287 4.61533 2.97293 6.17735C2.12299 7.73937 1.81772 9.54006 2.10535 11.2949C2.39298 13.0498 3.2571 14.6588 4.56121 15.8678C5.86533 17.0768 7.53508 17.8168 9.30667 17.9709C11.0783 18.125 12.8507 17.6845 14.344 16.7188C14.4579 16.6492 14.5568 16.5575 14.6347 16.449C14.7126 16.3406 14.768 16.2176 14.7976 16.0874C14.8272 15.9572 14.8305 15.8224 14.8071 15.6909C14.7838 15.5595 14.7344 15.434 14.6618 15.3219C14.5892 15.2098 14.4949 15.1134 14.3844 15.0384C14.274 14.9634 14.1496 14.9112 14.0187 14.885C13.8878 14.8588 13.7529 14.8591 13.6221 14.8859C13.4913 14.9126 13.3671 14.9653 13.257 15.0408C12.3057 15.6553 11.1999 15.988 10.0674 16.0004C8.93496 16.0128 7.82212 15.7045 6.85754 15.111C5.89296 14.5175 5.11604 13.6632 4.6166 12.6468C4.11716 11.6303 3.91559 10.4933 4.03519 9.36709C4.1548 8.2409 4.5907 7.17156 5.29249 6.28269C5.99429 5.39383 6.93332 4.72173 8.00103 4.34411C9.06874 3.96649 10.2215 3.89876 11.3261 4.14876ZM11.4142 8.58563C11.7893 8.9607 12 9.46941 12 9.99984C12 10.5303 11.7893 11.039 11.4142 11.4141C11.0392 11.7891 10.5304 11.9998 10 11.9998C9.46958 11.9998 8.96087 11.7891 8.5858 11.4141C8.21073 11.039 8.00001 10.5303 8.00001 9.99984C8.00001 9.46941 8.21073 8.9607 8.5858 8.58563C8.96087 8.21056 9.46958 7.99984 10 7.99984C10.5304 7.99984 11.0392 8.21056 11.4142 8.58563Z" fill="currentColor"/>
<path d="M18.4 14.9091H20L17.4545 20V16.3636H16V12H19.6364L18.4 14.9091Z" fill="currentColor"/>
</svg>
