<svg width="24" height="24" viewBox="0 0 24 24" fill="none" xmlns="http://www.w3.org/2000/svg">
<path fill-rule="evenodd" clip-rule="evenodd" d="M13.5912 4.97968C14.9167 5.27968 16.1303 5.9487 17.0915 6.90938C18.4967 8.31698 19.1999 10.1566 19.1999 12.001C19.1999 12.3192 19.0735 12.6245 18.8484 12.8495C18.6234 13.0746 18.3182 13.201 17.9999 13.201C17.6817 13.201 17.3764 13.0746 17.1514 12.8495C16.9263 12.6245 16.7999 12.3192 16.7999 12.001C16.7996 10.8613 16.3938 9.75885 15.6551 8.89097C14.9164 8.02308 13.8929 7.44637 12.7679 7.26402C11.6429 7.08167 10.4897 7.30558 9.51462 7.89569C8.53958 8.48579 7.80632 9.40359 7.44605 10.4849C7.08577 11.5661 7.122 12.7403 7.54823 13.7973C7.97447 14.8543 8.76291 15.7252 9.77247 16.2541C10.782 16.783 11.9468 16.9354 13.0585 16.684C14.1701 16.4327 15.1561 15.794 15.8399 14.8822C16.3748 15.2834 17.0109 15.5277 17.6769 15.5877C17.9863 15.6155 18.2965 15.6031 18.5999 15.5518V13.8012H21.1182C21.4337 13.2543 21.6001 12.6336 21.5999 12.001C21.5996 9.86704 20.8883 7.79402 19.5784 6.10942C18.2685 4.42483 16.4346 3.2247 14.3665 2.69863C12.2985 2.17257 10.114 2.35055 8.15839 3.20447C6.20274 4.05839 4.58735 5.53956 3.56742 7.41399C2.54749 9.28842 2.18117 11.4492 2.52632 13.5551C2.87147 15.6609 3.90843 17.5918 5.47336 19.0425C7.03829 20.4933 9.04199 21.3813 11.1679 21.5662C13.2938 21.7512 15.4208 21.2225 17.2127 20.0638C17.3494 19.9802 17.468 19.8701 17.5615 19.74C17.655 19.6099 17.7215 19.4623 17.757 19.3061C17.7926 19.1498 17.7965 18.9881 17.7685 18.8303C17.7405 18.6725 17.6812 18.5219 17.5941 18.3875C17.5069 18.253 17.3938 18.1373 17.2612 18.0473C17.1287 17.9572 16.9795 17.8946 16.8223 17.8632C16.6652 17.8318 16.5034 17.8321 16.3464 17.8642C16.1894 17.8963 16.0405 17.9596 15.9083 18.0502C14.7667 18.7875 13.4397 19.1867 12.0808 19.2016C10.7219 19.2165 9.38644 18.8465 8.22895 18.1344C7.07146 17.4222 6.13915 16.397 5.53982 15.1773C4.94049 13.9576 4.69861 12.5931 4.84213 11.2417C4.98566 9.89025 5.50874 8.60705 6.35089 7.54041C7.19305 6.47376 8.31989 5.66725 9.60114 5.2141C10.8824 4.76096 12.2657 4.67969 13.5912 4.97968ZM13.697 10.3039C14.1471 10.754 14.3999 11.3645 14.3999 12.001C14.3999 12.6375 14.1471 13.248 13.697 13.698C13.2469 14.1481 12.6364 14.401 11.9999 14.401C11.3634 14.401 10.7529 14.1481 10.3029 13.698C9.85277 13.248 9.59992 12.6375 9.59992 12.001C9.59992 11.3645 9.85277 10.754 10.3029 10.3039C10.7529 9.85384 11.3634 9.60098 11.9999 9.60098C12.6364 9.60098 13.2469 9.85384 13.697 10.3039Z" fill="url(#paint0_linear_2349_89383)"/>
<path d="M22.0802 17.8893H24.0002L20.9456 23.9984V19.6348H19.2002V14.3984H23.5638L22.0802 17.8893Z" fill="url(#paint1_linear_2349_89383)"/>
<defs>
<linearGradient id="paint0_linear_2349_89383" x1="-0.4801" y1="2.40234" x2="28.7905" y2="11.0817" gradientUnits="userSpaceOnUse">
<stop stop-color="#A282E8"/>
<stop offset="0.484375" stop-color="#7E8EE7"/>
<stop offset="1" stop-color="#4499E9"/>
</linearGradient>
<linearGradient id="paint1_linear_2349_89383" x1="18.4802" y1="14.3984" x2="26.27" y2="15.5534" gradientUnits="userSpaceOnUse">
<stop stop-color="#A282E8"/>
<stop offset="0.484375" stop-color="#7E8EE7"/>
<stop offset="1" stop-color="#4499E9"/>
</linearGradient>
</defs>
</svg>
