<svg width="20" height="20" viewBox="0 0 20 20" fill="none" xmlns="http://www.w3.org/2000/svg">
<path fill-rule="evenodd" clip-rule="evenodd" d="M10.0426 10.3647L11.3491 11.3434L12.0452 10.6473C12.047 10.6959 12.0479 10.7445 12.0479 10.7932C12.0479 11.0528 12.1511 11.3018 12.3346 11.4854C12.5182 11.669 12.7672 11.7721 13.0268 11.7721C13.2865 11.7721 13.5355 11.669 13.7191 11.4854C13.9026 11.3018 14.0058 11.0528 14.0058 10.7932C14.0058 10.1783 13.91 9.56398 13.7184 8.97413L15.2229 7.46963C15.7076 8.50344 15.9635 9.63736 15.9636 10.7932C15.9638 11.3387 15.8121 11.8734 15.5254 12.3375C15.2388 12.8016 14.8285 13.1767 14.3407 13.4207C13.8528 13.6647 13.3066 13.7681 12.7634 13.7191C12.2201 13.6702 11.7012 13.4709 11.2648 13.1436C10.7069 13.8874 9.90263 14.4084 8.99578 14.6135C8.08892 14.8185 7.1387 14.6942 6.31512 14.2627C5.49155 13.8313 4.84836 13.1209 4.50065 12.2586C4.15294 11.3963 4.12339 10.4385 4.41729 9.55639C4.71119 8.67432 5.30936 7.9256 6.10478 7.44421C6.90019 6.96282 7.84095 6.78016 8.75871 6.92891C9.14775 6.99197 9.5219 7.11283 9.86977 7.28509L8.58029 8.57457L8.51916 8.87396C8.3927 8.84846 8.26313 8.83535 8.13221 8.83535C7.61296 8.83535 7.11497 9.04162 6.7478 9.40879C6.38063 9.77596 6.17436 10.2739 6.17436 10.7932C6.17436 11.3125 6.38063 11.8104 6.7478 12.1776C7.11497 12.5448 7.61296 12.7511 8.13221 12.7511C8.65147 12.7511 9.14946 12.5448 9.51662 12.1776C9.88379 11.8104 10.0901 11.3125 10.0901 10.7932C10.0901 10.6479 10.0739 10.5043 10.0426 10.3647ZM12.7127 4.44214C11.9202 3.8707 11.0224 3.4487 10.0628 3.2046C8.37575 2.77545 6.59376 2.92064 4.9984 3.61724C3.40303 4.31385 2.08524 5.52215 1.25321 7.05126C0.421182 8.58036 0.122344 10.3431 0.40391 12.061C0.685476 13.7789 1.53139 15.354 2.80802 16.5375C4.08466 17.721 5.71922 18.4454 7.45349 18.5963C9.18775 18.7471 10.9229 18.3159 12.3847 17.3706C12.4962 17.3024 12.593 17.2126 12.6692 17.1065C12.7455 17.0003 12.7997 16.8799 12.8287 16.7525C12.8577 16.625 12.8609 16.4931 12.838 16.3644C12.8152 16.2357 12.7668 16.1128 12.6958 16.0031C12.6247 15.8934 12.5324 15.799 12.4242 15.7256C12.3161 15.6521 12.1944 15.6011 12.0662 15.5754C11.938 15.5498 11.806 15.5501 11.678 15.5763C11.5499 15.6025 11.4284 15.6541 11.3206 15.728C10.3893 16.3295 9.30678 16.6551 8.19819 16.6673C7.0896 16.6795 6.00021 16.3776 5.05596 15.7967C4.11171 15.2157 3.35116 14.3794 2.86224 13.3843C2.37332 12.3893 2.176 11.2762 2.29309 10.1738C2.41017 9.07132 2.83688 8.02452 3.52389 7.15438C4.2109 6.28425 5.13014 5.62631 6.17535 5.25665C7.22056 4.88698 8.34905 4.82068 9.43036 5.06541C10.0991 5.21678 10.733 5.4833 11.3048 5.85005L12.7127 4.44214Z" fill="#394759"/>
<path d="M18.334 1.68718L10.8238 9.19741" stroke="#394759" stroke-width="1.95785"/>
<path d="M12.1293 1.55483L18.3311 1.55483L18.3311 7.92383" stroke="#394759" stroke-width="1.95785"/>
</svg>
