<svg width="20" height="20" viewBox="0 0 20 20" fill="none" xmlns="http://www.w3.org/2000/svg">
<path fill-rule="evenodd" clip-rule="evenodd" d="M14.2375 10.0986H16.1936C16.2467 10.4738 16.2738 10.8542 16.2738 11.237C16.274 11.7892 16.1244 12.3305 15.8419 12.8003C15.5593 13.27 15.1549 13.6497 14.674 13.8967C14.1932 14.1438 13.6548 14.2484 13.1193 14.1988C12.5838 14.1493 12.0723 13.9475 11.6422 13.6162C11.0923 14.3692 10.2995 14.8966 9.4056 15.1042C8.51172 15.3117 7.57508 15.1859 6.76329 14.7491C5.95149 14.3124 5.3175 13.5932 4.97476 12.7204C4.63202 11.8475 4.6029 10.8779 4.89259 9.98499C5.18229 9.09209 5.77191 8.33418 6.55595 7.84688C7.33999 7.35958 8.26729 7.17467 9.17193 7.32526C9.32167 7.35018 9.46917 7.38403 9.61376 7.42641V8.26521V9.58039C9.30144 9.36976 8.93367 9.25509 8.55439 9.25509C8.04256 9.25509 7.55169 9.4639 7.18977 9.83558C6.82786 10.2073 6.62453 10.7114 6.62453 11.237C6.62453 11.7626 6.82786 12.2667 7.18977 12.6384C7.55169 13.0101 8.04256 13.2189 8.55439 13.2189C9.06622 13.2189 9.55708 13.0101 9.919 12.6384C10.2809 12.2667 10.4842 11.7626 10.4842 11.237C10.4842 10.8268 10.3604 10.4298 10.1341 10.0986H11.4471H12.2512C12.3583 10.4652 12.414 10.8484 12.4141 11.237C12.4141 11.4998 12.5158 11.7518 12.6967 11.9377C12.8777 12.1235 13.1231 12.2279 13.379 12.2279C13.6349 12.2279 13.8804 12.1235 14.0613 11.9377C14.2423 11.7518 14.3439 11.4998 14.3439 11.237C14.3439 10.8554 14.3085 10.4741 14.2375 10.0986ZM9.61376 5.39229C8.61573 5.20181 7.58502 5.28396 6.62552 5.63246C5.59525 6.00667 4.68915 6.67267 4.01197 7.55349C3.33479 8.43431 2.91418 9.49397 2.79877 10.61C2.68336 11.7259 2.87786 12.8527 3.35979 13.8599C3.84171 14.8672 4.59139 15.7138 5.52213 16.3019C6.45288 16.8899 7.52669 17.1955 8.61942 17.1832C9.71216 17.1709 10.7792 16.8412 11.6972 16.2323C11.8034 16.1575 11.9232 16.1053 12.0494 16.0788C12.1757 16.0523 12.3058 16.052 12.4321 16.0779C12.5585 16.1039 12.6785 16.1556 12.785 16.2299C12.8916 16.3043 12.9826 16.3998 13.0527 16.5109C13.1227 16.6219 13.1704 16.7462 13.1929 16.8765C13.2154 17.0068 13.2123 17.1404 13.1837 17.2694C13.1551 17.3985 13.1017 17.5203 13.0265 17.6278C12.9513 17.7352 12.856 17.8261 12.746 17.8951C11.3051 18.852 9.59483 19.2886 7.88537 19.1358C6.1759 18.9831 4.56472 18.2498 3.30635 17.0518C2.04797 15.8538 1.21415 14.2593 0.936615 12.5203C0.659076 10.7814 0.95364 8.99698 1.77377 7.4491C2.5939 5.90122 3.89285 4.67809 5.46539 3.97293C6.77409 3.38609 8.2102 3.18583 9.61376 3.38555V5.39229Z" fill="currentColor"/>
<path d="M11.4473 8.24772L18.4146 1.09249" stroke="currentColor" stroke-width="1.83336"/>
<path d="M17.2566 8.24722H11.4492V2.2832" stroke="currentColor" stroke-width="1.83336"/>
<ellipse cx="4" cy="4" rx="3" ry="3" fill="#F77272"/>
</svg>
