<svg width="20" height="20" viewBox="0 0 20 20" fill="none" xmlns="http://www.w3.org/2000/svg">
<path d="M17.4 13.9091H19L16.4545 19V15.3636H15V11H18.6364L17.4 13.9091Z" fill="url(#paint0_linear_13902_108746)"/>
<path d="M7.73597 18.2502C7.87744 18.3065 8.0189 18.3346 8.16036 18.3346C8.38669 18.3346 8.61303 18.2502 8.81108 18.1094L11.5837 15.7445H12.999C12.999 14.5015 12.999 10.0015 12.999 9.00146C13.999 9.00146 16.3038 9.00146 18.3327 9.00146C18.3327 7.98795 18.3327 5.66572 18.3327 5.66572C18.3327 3.46977 15.8275 1.66797 13.6207 1.66797H6.37795C4.17116 1.66797 1.66602 3.46977 1.66602 5.66572C1.66602 5.66572 1.66602 7.75604 1.66602 8.77425C1.66602 9.79246 1.66602 11.7468 1.66602 11.7468C1.66602 13.9146 4.17116 15.7445 6.37795 15.7445H7.17013V17.3774C7.17013 17.7716 7.39647 18.1094 7.73597 18.2502Z" fill="url(#paint1_linear_13902_108746)"/>
<defs>
<linearGradient id="paint0_linear_13902_108746" x1="14.4" y1="11" x2="20.8915" y2="11.9624" gradientUnits="userSpaceOnUse">
<stop stop-color="#A282E8"/>
<stop offset="0.484375" stop-color="#7E8EE7"/>
<stop offset="1" stop-color="#4499E9"/>
</linearGradient>
<linearGradient id="paint1_linear_13902_108746" x1="-0.833985" y1="1.66797" x2="24.5745" y2="9.20213" gradientUnits="userSpaceOnUse">
<stop stop-color="#A282E8"/>
<stop offset="0.484375" stop-color="#7E8EE7"/>
<stop offset="1" stop-color="#4499E9"/>
</linearGradient>
</defs>
</svg>
