<svg width="20" height="20" viewBox="0 0 20 20" fill="none" xmlns="http://www.w3.org/2000/svg">
<path d="M17.4 13.9091H19L16.4545 19V15.3636H15V11H18.6364L17.4 13.9091Z" fill="currentColor"/>
<path d="M7.73695 18.2487C7.87841 18.305 8.01987 18.3332 8.16133 18.3332C8.38767 18.3332 8.61401 18.2487 8.81205 18.1079L11.5847 15.7431H13C13 15.0801 13 13.4907 13 11.9999C13 10.3431 14.3431 9 15.9999 9C16.7603 9 17.5667 9 18.3337 9C18.3337 7.98649 18.3337 5.66425 18.3337 5.66425C18.3337 3.46831 15.8285 1.6665 13.6217 1.6665H6.37893C4.17214 1.6665 1.66699 3.46831 1.66699 5.66425C1.66699 5.66425 1.66699 7.75458 1.66699 8.77279C1.66699 9.79099 1.66699 11.7453 1.66699 11.7453C1.66699 13.9131 4.17214 15.7431 6.37893 15.7431H7.17111V17.376C7.17111 17.7701 7.39745 18.1079 7.73695 18.2487Z" fill="currentColor"/>
</svg>
