<svg width="12" height="12" viewBox="0 0 12 12" fill="none" xmlns="http://www.w3.org/2000/svg">
<path d="M5.99935 0.167969C2.77935 0.167969 0.166016 2.7813 0.166016 6.0013C0.166016 9.2213 2.77935 11.8346 5.99935 11.8346C9.21935 11.8346 11.8327 9.2213 11.8327 6.0013C11.8327 2.7813 9.21935 0.167969 5.99935 0.167969ZM5.99935 6.58464C5.67852 6.58464 5.41602 6.32214 5.41602 6.0013V3.66797C5.41602 3.34714 5.67852 3.08464 5.99935 3.08464C6.32018 3.08464 6.58268 3.34714 6.58268 3.66797V6.0013C6.58268 6.32214 6.32018 6.58464 5.99935 6.58464ZM6.58268 8.91797H5.41602V7.7513H6.58268V8.91797Z" fill="url(#paint0_linear_2379_76458)"/>
<defs>
<linearGradient id="paint0_linear_2379_76458" x1="17.666" y1="6.0013" x2="5.99935" y2="-5.66537" gradientUnits="userSpaceOnUse">
<stop stop-color="#FF8888"/>
<stop offset="1" stop-color="#F05F5F"/>
</linearGradient>
</defs>
</svg>
