<svg width="35" height="35" viewBox="0 0 35 35" fill="none" xmlns="http://www.w3.org/2000/svg">
<circle cx="17.5" cy="17.5" r="17.5" fill="#0077B7"/>
<rect width="35" height="35" rx="10" fill="#567191"/>
<path fill-rule="evenodd" clip-rule="evenodd" d="M14 13V12C14 11.2044 14.3161 10.4413 14.8787 9.87868C15.4413 9.31607 16.2044 9 17 9H19C19.7957 9 20.5587 9.31607 21.1213 9.87868C21.6839 10.4413 22 11.2044 22 12V13H24C24.5304 13 25.0391 13.2107 25.4142 13.5858C25.7893 13.9609 26 14.4696 26 15V18.57C23.4396 19.5187 20.7305 20.003 18 20C15.2695 20.003 12.5604 19.5188 10 18.57V15C10 14.4696 10.2107 13.9609 10.5858 13.5858C10.9609 13.2107 11.4696 13 12 13H14ZM16 12C16 11.7348 16.1054 11.4804 16.2929 11.2929C16.4804 11.1054 16.7348 11 17 11H19C19.2652 11 19.5196 11.1054 19.7071 11.2929C19.8946 11.4804 20 11.7348 20 12V13H16V12ZM17 17C17 16.7348 17.1054 16.4804 17.2929 16.2929C17.4804 16.1054 17.7348 16 18 16H18.01C18.2752 16 18.5296 16.1054 18.7171 16.2929C18.9046 16.4804 19.01 16.7348 19.01 17C19.01 17.2652 18.9046 17.5196 18.7171 17.7071C18.5296 17.8946 18.2752 18 18.01 18H18C17.7348 18 17.4804 17.8946 17.2929 17.7071C17.1054 17.5196 17 17.2652 17 17Z" fill="white"/>
<path d="M10 20.6934V23.0014C10 23.5318 10.2107 24.0405 10.5858 24.4156C10.9609 24.7906 11.4696 25.0014 12 25.0014H24C24.5304 25.0014 25.0391 24.7906 25.4142 24.4156C25.7893 24.0405 26 23.5318 26 23.0014V20.6934C23.4224 21.5621 20.7201 22.0039 18 22.0014C15.204 22.0014 12.513 21.5414 10 20.6934Z" fill="white"/>
</svg>
