<svg width="15" height="15" viewBox="0 0 15 15" fill="none" xmlns="http://www.w3.org/2000/svg">
<path fill-rule="evenodd" clip-rule="evenodd" d="M4.5 4.5V3.75C4.5 3.15326 4.73705 2.58097 5.15901 2.15901C5.58097 1.73705 6.15326 1.5 6.75 1.5H8.25C8.84674 1.5 9.41903 1.73705 9.84099 2.15901C10.2629 2.58097 10.5 3.15326 10.5 3.75V4.5H12C12.3978 4.5 12.7794 4.65804 13.0607 4.93934C13.342 5.22064 13.5 5.60218 13.5 6V8.6775C11.5797 9.38905 9.54787 9.75224 7.5 9.75C5.45212 9.75228 3.42027 9.38908 1.5 8.6775V6C1.5 5.60218 1.65804 5.22064 1.93934 4.93934C2.22064 4.65804 2.60218 4.5 3 4.5H4.5ZM6 3.75C6 3.55109 6.07902 3.36032 6.21967 3.21967C6.36032 3.07902 6.55109 3 6.75 3H8.25C8.44891 3 8.63968 3.07902 8.78033 3.21967C8.92098 3.36032 9 3.55109 9 3.75V4.5H6V3.75ZM6.75 7.5C6.75 7.30109 6.82902 7.11032 6.96967 6.96967C7.11032 6.82902 7.30109 6.75 7.5 6.75H7.5075C7.70641 6.75 7.89718 6.82902 8.03783 6.96967C8.17848 7.11032 8.2575 7.30109 8.2575 7.5C8.2575 7.69891 8.17848 7.88968 8.03783 8.03033C7.89718 8.17098 7.70641 8.25 7.5075 8.25H7.5C7.30109 8.25 7.11032 8.17098 6.96967 8.03033C6.82902 7.88968 6.75 7.69891 6.75 7.5Z" fill="#567191"/>
<path d="M1.5 10.2695V12.0005C1.5 12.3984 1.65804 12.7799 1.93934 13.0612C2.22064 13.3425 2.60218 13.5005 3 13.5005H12C12.3978 13.5005 12.7794 13.3425 13.0607 13.0612C13.342 12.7799 13.5 12.3984 13.5 12.0005V10.2695C11.5668 10.9211 9.54008 11.2525 7.5 11.2505C5.403 11.2505 3.38475 10.9055 1.5 10.2695Z" fill="#567191"/>
</svg>
