<svg width="49" height="48" viewBox="0 0 49 48" fill="none" xmlns="http://www.w3.org/2000/svg">
<circle cx="24.5" cy="24" r="24" fill="#0077B7"/>
<rect x="0.5" width="48" height="48" rx="10" fill="#567191"/>
<g clip-path="url(#clip0_12822_82730)">
<path fill-rule="evenodd" clip-rule="evenodd" d="M19.7006 17.8275V16.4561C19.7006 15.3649 20.134 14.3184 20.9056 13.5468C21.6772 12.7753 22.7237 12.3418 23.8148 12.3418H26.5577C27.6489 12.3418 28.6954 12.7753 29.4669 13.5468C30.2385 14.3184 30.672 15.3649 30.672 16.4561V17.8275H33.4148C34.1423 17.8275 34.84 18.1165 35.3543 18.6309C35.8687 19.1453 36.1577 19.8429 36.1577 20.5704V24.6836C35.3699 24.248 34.4639 24 33.5 24C31.2606 24 29.3339 25.3383 28.4759 27.2588C27.3848 27.3722 26.2868 27.4287 25.1863 27.4275C21.4416 27.4317 17.7262 26.7675 14.2148 25.4664V20.5704C14.2148 19.8429 14.5038 19.1453 15.0182 18.6309C15.5326 18.1165 16.2303 17.8275 16.9577 17.8275H19.7006ZM28.0279 30.0574C27.0839 30.135 26.1359 30.1736 25.1863 30.1727C21.3518 30.1727 17.6612 29.5419 14.2148 28.3789V31.5442C14.2148 32.2716 14.5038 32.9693 15.0182 33.4837C15.5326 33.998 16.2303 34.287 16.9577 34.287H30.7898C29.2767 33.4285 28.2106 31.8732 28.0279 30.0574ZM22.4434 16.4561C22.4434 16.0924 22.5879 15.7435 22.8451 15.4863C23.1023 15.2291 23.4511 15.0847 23.8148 15.0847H26.5577C26.9214 15.0847 27.2703 15.2291 27.5274 15.4863C27.7846 15.7435 27.9291 16.0924 27.9291 16.4561V17.8275H22.4434V16.4561ZM23.8148 23.3132C23.8148 22.9495 23.9593 22.6007 24.2165 22.3435C24.4737 22.0863 24.8225 21.9418 25.1863 21.9418H25.2C25.5637 21.9418 25.9125 22.0863 26.1697 22.3435C26.4269 22.6007 26.5714 22.9495 26.5714 23.3132C26.5714 23.677 26.4269 24.0258 26.1697 24.283C25.9125 24.5402 25.5637 24.6847 25.2 24.6847H25.1863C24.8225 24.6847 24.4737 24.5402 24.2165 24.283C23.9593 24.0258 23.8148 23.677 23.8148 23.3132Z" fill="white"/>
<path fill-rule="evenodd" clip-rule="evenodd" d="M33.3731 27.1248C32.7767 27.1248 32.2047 27.3617 31.783 27.7834C31.3613 28.2052 31.1244 28.7771 31.1244 29.3735C31.1244 29.9699 31.3613 30.5419 31.783 30.9636C32.2047 31.3854 32.7767 31.6223 33.3731 31.6223C33.9695 31.6223 34.5415 31.3854 34.9632 30.9636C35.3849 30.5419 35.6218 29.9699 35.6218 29.3735C35.6218 28.7771 35.3849 28.2052 34.9632 27.7834C34.5415 27.3617 33.9695 27.1248 33.3731 27.1248ZM30 29.3735C29.9999 28.8427 30.1252 28.3193 30.3655 27.8459C30.6059 27.3726 30.9545 26.9627 31.3832 26.6495C31.8118 26.3363 32.3084 26.1287 32.8324 26.0436C33.3564 25.9585 33.8931 25.9983 34.3988 26.1597C34.9045 26.3212 35.365 26.5997 35.7428 26.9726C36.1206 27.3456 36.405 27.8024 36.573 28.306C36.7409 28.8096 36.7876 29.3458 36.7093 29.8708C36.631 30.3959 36.4298 30.895 36.1222 31.3277L38.8302 34.0357C38.9326 34.1418 38.9893 34.2838 38.988 34.4312C38.9867 34.5786 38.9276 34.7196 38.8234 34.8238C38.7192 34.9281 38.5782 34.9872 38.4307 34.9885C38.2833 34.9897 38.1413 34.9331 38.0353 34.8307L35.3278 32.1232C34.8232 32.482 34.2295 32.695 33.6119 32.7388C32.9942 32.7827 32.3764 32.6556 31.8261 32.3717C31.2759 32.0877 30.8144 31.6577 30.4923 31.1289C30.1702 30.6 29.9999 29.9927 30 29.3735Z" fill="white"/>
</g>
<defs>
<clipPath id="clip0_12822_82730">
<rect width="27.4286" height="27.4286" fill="white" transform="translate(11.4717 9.59961)"/>
</clipPath>
</defs>
</svg>
