<svg width="16" height="15" viewBox="0 0 16 15" fill="none" xmlns="http://www.w3.org/2000/svg">
<path d="M12.5 9.75H11V11.25H12.5V9.75ZM12.5 6.75H11V8.25H12.5V6.75ZM14 12.75H8V11.25H9.5V9.75H8V8.25H9.5V6.75H8V5.25H14V12.75ZM6.5 3.75H5V2.25H6.5V3.75ZM6.5 6.75H5V5.25H6.5V6.75ZM6.5 9.75H5V8.25H6.5V9.75ZM6.5 12.75H5V11.25H6.5V12.75ZM3.5 3.75H2V2.25H3.5V3.75ZM3.5 6.75H2V5.25H3.5V6.75ZM3.5 9.75H2V8.25H3.5V9.75ZM3.5 12.75H2V11.25H3.5V12.75ZM8 3.75V0.75H0.5V14.25H15.5V3.75H8Z" fill="currentColor"/>
</svg>
