<svg width="44" height="38" viewBox="0 0 44 38" fill="none" xmlns="http://www.w3.org/2000/svg">
<path d="M13.9004 0.0996094C13.1843 0.0996094 12.4976 0.384073 11.9912 0.890421C11.4849 1.39677 11.2004 2.08353 11.2004 2.79961C11.2004 3.51569 11.4849 4.20245 11.9912 4.7088C12.4976 5.21515 13.1843 5.49961 13.9004 5.49961H30.1004C30.8165 5.49961 31.5032 5.21515 32.0096 4.7088C32.5159 4.20245 32.8004 3.51569 32.8004 2.79961C32.8004 2.08353 32.5159 1.39677 32.0096 0.890421C31.5032 0.384073 30.8165 0.0996094 30.1004 0.0996094H13.9004ZM5.80039 10.8996C5.80039 10.1835 6.08485 9.49677 6.5912 8.99042C7.09755 8.48407 7.78431 8.19961 8.50039 8.19961H35.5004C36.2165 8.19961 36.9032 8.48407 37.4096 8.99042C37.9159 9.49677 38.2004 10.1835 38.2004 10.8996C38.2004 11.6157 37.9159 12.3025 37.4096 12.8088C36.9032 13.3151 36.2165 13.5996 35.5004 13.5996H8.50039C7.78431 13.5996 7.09755 13.3151 6.5912 12.8088C6.08485 12.3025 5.80039 11.6157 5.80039 10.8996ZM0.400391 21.6996C0.400391 20.2674 0.969317 18.8939 1.98201 17.8812C2.99471 16.8685 4.36822 16.2996 5.80039 16.2996H38.2004C39.6326 16.2996 41.0061 16.8685 42.0188 17.8812C43.0315 18.8939 43.6004 20.2674 43.6004 21.6996V32.4996C43.6004 33.9318 43.0315 35.3053 42.0188 36.318C41.0061 37.3307 39.6326 37.8996 38.2004 37.8996H5.80039C4.36822 37.8996 2.99471 37.3307 1.98201 36.318C0.969317 35.3053 0.400391 33.9318 0.400391 32.4996V21.6996Z" fill="url(#paint0_linear_2855_87098)"/>
<defs>
<linearGradient id="paint0_linear_2855_87098" x1="-6.07961" y1="0.0996091" x2="58.1891" y2="21.8791" gradientUnits="userSpaceOnUse">
<stop stop-color="#A282E8"/>
<stop offset="0.484375" stop-color="#7E8EE7"/>
<stop offset="1" stop-color="#4499E9"/>
</linearGradient>
</defs>
</svg>
