<svg width="20" height="18" viewBox="0 0 20 18" fill="none" xmlns="http://www.w3.org/2000/svg">
<path d="M6.25 0.25C5.91848 0.25 5.60054 0.381696 5.36612 0.616116C5.1317 0.850537 5 1.16848 5 1.5C5 1.83152 5.1317 2.14946 5.36612 2.38388C5.60054 2.6183 5.91848 2.75 6.25 2.75H13.75C14.0815 2.75 14.3995 2.6183 14.6339 2.38388C14.8683 2.14946 15 1.83152 15 1.5C15 1.16848 14.8683 0.850537 14.6339 0.616116C14.3995 0.381696 14.0815 0.25 13.75 0.25H6.25ZM2.5 5.25C2.5 4.91848 2.6317 4.60054 2.86612 4.36612C3.10054 4.1317 3.41848 4 3.75 4H16.25C16.5815 4 16.8995 4.1317 17.1339 4.36612C17.3683 4.60054 17.5 4.91848 17.5 5.25C17.5 5.58152 17.3683 5.89946 17.1339 6.13388C16.8995 6.3683 16.5815 6.5 16.25 6.5H3.75C3.41848 6.5 3.10054 6.3683 2.86612 6.13388C2.6317 5.89946 2.5 5.58152 2.5 5.25ZM0 10.25C0 9.58696 0.263392 8.95107 0.732233 8.48223C1.20107 8.01339 1.83696 7.75 2.5 7.75H17.5C18.163 7.75 18.7989 8.01339 19.2678 8.48223C19.7366 8.95107 20 9.58696 20 10.25V15.25C20 15.913 19.7366 16.5489 19.2678 17.0178C18.7989 17.4866 18.163 17.75 17.5 17.75H2.5C1.83696 17.75 1.20107 17.4866 0.732233 17.0178C0.263392 16.5489 0 15.913 0 15.25V10.25Z" fill="currentColor"/>
</svg>
