<svg width="114" height="107" viewBox="0 0 114 107" fill="none" xmlns="http://www.w3.org/2000/svg">
<g filter="url(#filter0_d_3006_92825)">
<rect x="16" y="14.7637" width="82.7619" height="75.2381" rx="12.5397" fill="white"/>
</g>
<rect x="30" y="42.3496" width="11.2857" height="11.2857" rx="3.3617" fill="#DCE2E4"/>
<rect x="44.4209" y="42.3496" width="11.2857" height="11.2857" rx="3.3617" fill="#EDF1F2"/>
<rect x="58.8408" y="42.3496" width="11.2857" height="11.2857" rx="3.3617" fill="#EDF1F2"/>
<rect x="73.2617" y="42.3496" width="11.2857" height="11.2857" rx="3.3617" fill="#EDF1F2"/>
<rect x="30" y="56.7695" width="11.2857" height="11.2857" rx="3.3617" fill="#EDF1F2"/>
<rect x="44.4209" y="56.7695" width="11.2857" height="11.2857" rx="3.3617" fill="#EDF1F2"/>
<rect x="58.8408" y="56.7695" width="11.2857" height="11.2857" rx="3.3617" fill="#EDF1F2"/>
<rect x="73.2617" y="56.7695" width="11.2857" height="11.2857" rx="3.3617" fill="#EDF1F2"/>
<rect x="30" y="71.1914" width="11.2857" height="11.2857" rx="3.3617" fill="#EDF1F2"/>
<rect x="44.4209" y="71.1914" width="11.2857" height="11.2857" rx="3.3617" fill="#EDF1F2"/>
<rect x="58.8408" y="71.1914" width="11.2857" height="11.2857" rx="3.3617" fill="#EDF1F2"/>
<rect x="73.2617" y="71.1914" width="11.2857" height="11.2857" rx="3.3617" fill="#EDF1F2"/>
<path d="M16 27.3033C16 20.3779 21.6142 14.7637 28.5397 14.7637H86.2222C93.1477 14.7637 98.7619 20.3779 98.7619 27.3034V34.2002H16V27.3033Z" fill="#DCE2E4"/>
<rect x="32" y="22.2852" width="11.2857" height="5.01587" rx="2.50794" transform="rotate(-90 32 22.2852)" fill="#EBEEEF"/>
<rect x="77.1426" y="22.2852" width="11.2857" height="5.01587" rx="2.50794" transform="rotate(-90 77.1426 22.2852)" fill="#EBEEEF"/>
<defs>
<filter id="filter0_d_3006_92825" x="0.95238" y="0.97002" width="112.857" height="105.334" filterUnits="userSpaceOnUse" color-interpolation-filters="sRGB">
<feFlood flood-opacity="0" result="BackgroundImageFix"/>
<feColorMatrix in="SourceAlpha" type="matrix" values="0 0 0 0 0 0 0 0 0 0 0 0 0 0 0 0 0 0 127 0" result="hardAlpha"/>
<feOffset dy="1.25397"/>
<feGaussianBlur stdDeviation="7.52381"/>
<feColorMatrix type="matrix" values="0 0 0 0 0.505882 0 0 0 0 0.576471 0 0 0 0 0.658824 0 0 0 0.363035 0"/>
<feBlend mode="normal" in2="BackgroundImageFix" result="effect1_dropShadow_3006_92825"/>
<feBlend mode="normal" in="SourceGraphic" in2="effect1_dropShadow_3006_92825" result="shape"/>
</filter>
</defs>
</svg>
