<svg width="16" height="16" viewBox="0 0 16 16" fill="none" xmlns="http://www.w3.org/2000/svg">
<path fill-rule="evenodd" clip-rule="evenodd" d="M4 0.000976562C3.73478 0.000976563 3.48043 0.106333 3.29289 0.29387C3.10536 0.481406 3 0.73576 3 1.00098V2.00098H2C1.46957 2.00098 0.960859 2.21169 0.585786 2.58676C0.210714 2.96184 0 3.47054 0 4.00098V14.001C0 14.5314 0.210714 15.0401 0.585786 15.4152C0.960859 15.7903 1.46957 16.001 2 16.001H14C14.5304 16.001 15.0391 15.7903 15.4142 15.4152C15.7893 15.0401 16 14.5314 16 14.001V4.00098C16 3.47054 15.7893 2.96184 15.4142 2.58676C15.0391 2.21169 14.5304 2.00098 14 2.00098H13V1.00098C13 0.73576 12.8946 0.481406 12.7071 0.29387C12.5196 0.106333 12.2652 0.000976563 12 0.000976562C11.7348 0.000976563 11.4804 0.106333 11.2929 0.29387C11.1054 0.481406 11 0.73576 11 1.00098V2.00098H5V1.00098C5 0.73576 4.89464 0.481406 4.70711 0.29387C4.51957 0.106333 4.26522 0.000976563 4 0.000976562ZM4 5.00098C3.73478 5.00098 3.48043 5.10633 3.29289 5.29387C3.10536 5.48141 3 5.73576 3 6.00098C3 6.26619 3.10536 6.52055 3.29289 6.70808C3.48043 6.89562 3.73478 7.00098 4 7.00098H12C12.2652 7.00098 12.5196 6.89562 12.7071 6.70808C12.8946 6.52055 13 6.26619 13 6.00098C13 5.73576 12.8946 5.48141 12.7071 5.29387C12.5196 5.10633 12.2652 5.00098 12 5.00098H4Z" fill="currentColor"/>
</svg>
