<svg width="14" height="14" viewBox="0 0 14 14" fill="none" xmlns="http://www.w3.org/2000/svg">
<path fill-rule="evenodd" clip-rule="evenodd" d="M13.75 3.9375C13.75 6.00857 12.0711 7.6875 10 7.6875C7.92893 7.6875 6.25 6.00857 6.25 3.9375C6.25 1.86643 7.92893 0.1875 10 0.1875C12.0711 0.1875 13.75 1.86643 13.75 3.9375ZM9.99998 1.52583C10.2963 1.52583 10.5364 1.76601 10.5364 2.06229V3.71508L11.7051 4.88378C11.9146 5.09328 11.9146 5.43295 11.7051 5.64245C11.4956 5.85195 11.156 5.85195 10.9465 5.64245L9.62065 4.31662C9.52004 4.21602 9.46352 4.07957 9.46352 3.93729V2.06229C9.46352 1.76601 9.7037 1.52583 9.99998 1.52583ZM0.764425 2.29378C-0.48633 4.37692 0.59485 7.74952 3.45147 10.6061C6.33871 13.4934 9.75303 14.5669 11.8304 13.2522C11.8325 13.2508 11.8356 13.2485 11.8397 13.2452L11.9757 13.1219L13.1501 11.9917L10.4314 9.27287L9.89722 9.78994L9.30542 10.3557L9.1749 10.4721C7.98167 11.054 6.33197 10.3001 5.04475 9.01287C3.74263 7.71075 2.98624 6.03773 3.60625 4.84149L3.6364 4.80715L4.78474 3.62627L2.06595 0.907471L1.05086 1.94893L0.846551 2.16535L0.764425 2.29378Z" fill="url(#paint0_linear_23226_7289)"/>
<defs>
<linearGradient id="paint0_linear_23226_7289" x1="-1.775" y1="0.1875" x2="18.8351" y2="6.24495" gradientUnits="userSpaceOnUse">
<stop stop-color="#A282E8"/>
<stop offset="0.484375" stop-color="#7E8EE7"/>
<stop offset="1" stop-color="#4499E9"/>
</linearGradient>
</defs>
</svg>
