<svg width="16" height="16" viewBox="0 0 16 16" fill="none" xmlns="http://www.w3.org/2000/svg">
<path fill-rule="evenodd" clip-rule="evenodd" d="M15.4999 4.59635C15.4999 6.89754 13.6345 8.76302 11.3333 8.76302C9.03209 8.76302 7.16661 6.89754 7.16661 4.59635C7.16661 2.29517 9.03209 0.429688 11.3333 0.429688C13.6345 0.429688 15.4999 2.29517 15.4999 4.59635ZM11.3332 1.97633C11.6295 1.97633 11.8697 2.21651 11.8697 2.51279V4.37391L13.1857 5.68993C13.3952 5.89943 13.3952 6.23909 13.1857 6.44859C12.9762 6.65809 12.6366 6.65809 12.4271 6.44859L10.9539 4.97545C10.8533 4.87485 10.7968 4.7384 10.7968 4.59612V2.51279C10.7968 2.21651 11.037 1.97633 11.3332 1.97633ZM1.07152 2.77C-0.318206 5.0846 0.883106 8.83193 4.05713 12.006C7.26517 15.214 11.0589 16.4068 13.367 14.946C13.3693 14.9445 13.3728 14.9419 13.3773 14.9383L13.5285 14.8012L14.8334 13.5454L11.8126 10.5245L11.2191 11.0991L10.5615 11.7276L10.4165 11.857C9.09068 12.5036 7.25769 11.6659 5.82743 10.2357C4.38064 8.78886 3.54021 6.92995 4.22911 5.60079L4.2626 5.56263L5.53854 4.25054L2.51766 1.22966L1.38978 2.38683L1.16277 2.6273L1.07152 2.77Z" fill="currentColor"/>
</svg>
