<svg width="20" height="20" viewBox="0 0 20 20" fill="none" xmlns="http://www.w3.org/2000/svg">
<rect opacity="0.01" width="20" height="20" fill="white"/>
<path fill-rule="evenodd" clip-rule="evenodd" d="M5.38322 14.6175C1.32347 10.5577 -0.213078 5.76468 1.56446 2.80418L1.68118 2.62165L1.97153 2.31408L3.41415 0.833984L7.27803 4.69786L5.64603 6.37609L5.60319 6.4249C4.72204 8.12497 5.797 10.5026 7.64753 12.3532C9.47691 14.1825 11.8214 15.254 13.5172 14.427L13.7027 14.2615L14.5437 13.4575L15.3028 12.7227L19.1667 16.5865L17.4977 18.1928L17.3043 18.3681C17.2985 18.3727 17.2941 18.376 17.2911 18.3779C14.3388 20.2464 9.48648 18.7207 5.38322 14.6175Z" fill="currentColor"/>
</svg>
