<svg width="14" height="14" viewBox="0 0 14 14" fill="none" xmlns="http://www.w3.org/2000/svg">
<path d="M7.66634 7.00004C7.66634 7.36823 7.36786 7.66671 6.99967 7.66671C6.63148 7.66671 6.33301 7.36823 6.33301 7.00004V4.33337C6.33301 3.96518 6.63148 3.66671 6.99967 3.66671C7.36786 3.66671 7.66634 3.96518 7.66634 4.33337V7.00004ZM7.66634 9.66671C7.66634 10.0349 7.36786 10.3334 6.99967 10.3334C6.63148 10.3334 6.33301 10.0349 6.33301 9.66671C6.33301 9.29852 6.63148 9.00004 6.99967 9.00004C7.36786 9.00004 7.66634 9.29852 7.66634 9.66671ZM6.99967 0.333374C6.1242 0.333374 5.25729 0.505812 4.44845 0.840844C3.63961 1.17588 2.90469 1.66694 2.28563 2.286C1.03539 3.53624 0.333008 5.23193 0.333008 7.00004C0.333008 8.76815 1.03539 10.4638 2.28563 11.7141C2.90469 12.3331 3.63961 12.8242 4.44845 13.1592C5.25729 13.4943 6.1242 13.6667 6.99967 13.6667C8.76778 13.6667 10.4635 12.9643 11.7137 11.7141C12.964 10.4638 13.6663 8.76815 13.6663 7.00004C13.6663 6.12456 13.4939 5.25765 13.1589 4.44882C12.8238 3.63998 12.3328 2.90505 11.7137 2.286C11.0947 1.66694 10.3597 1.17588 9.5509 0.840844C8.74206 0.505812 7.87515 0.333374 6.99967 0.333374Z" fill="currentColor"/>
</svg>
