<svg width="24" height="24" viewBox="0 0 24 24" fill="none" xmlns="http://www.w3.org/2000/svg">
<path fill-rule="evenodd" clip-rule="evenodd" d="M21.6004 11.9996C21.6004 16.6388 17.3023 20.3996 12.0004 20.3996C10.2104 20.3996 8.53488 19.971 7.10051 19.2246L2.40039 20.3996L4.00635 16.6524C2.99175 15.3204 2.40039 13.7204 2.40039 11.9996C2.40039 7.36042 6.69846 3.59961 12.0004 3.59961C17.3023 3.59961 21.6004 7.36042 21.6004 11.9996ZM11.8884 9.47424C11.5796 9.47424 11.3087 9.64105 11.1626 9.89351C10.9311 10.2938 10.4189 10.4306 10.0186 10.199C9.61829 9.96747 9.48151 9.45526 9.71306 9.05498C10.1461 8.30634 10.9576 7.79961 11.8884 7.79961C13.2758 7.79961 14.4004 8.92425 14.4004 10.3116C14.4004 11.4053 13.7014 12.3357 12.7258 12.6806V12.8235C12.7258 13.2859 12.3509 13.6608 11.8884 13.6608C11.426 13.6608 11.0511 13.2859 11.0511 12.8235V11.9862C11.0511 11.5238 11.426 11.1489 11.8884 11.1489C12.3509 11.1489 12.7258 10.774 12.7258 10.3116C12.7258 9.84912 12.3509 9.47424 11.8884 9.47424ZM11.8884 16.1728C12.3509 16.1728 12.7257 15.7979 12.7257 15.3355C12.7257 14.873 12.3509 14.4981 11.8884 14.4981C11.426 14.4981 11.0511 14.873 11.0511 15.3355C11.0511 15.7979 11.426 16.1728 11.8884 16.1728Z" fill="white"/>
</svg>
