<svg width="13" height="16" viewBox="0 0 13 16" fill="none" xmlns="http://www.w3.org/2000/svg">
<path d="M5.84 5.79333C5.70562 5.79333 5.57675 5.84671 5.48173 5.94173C5.38671 6.03675 5.33333 6.16562 5.33333 6.3V13.9333C5.33333 14.2133 5.56 14.44 5.84 14.44C5.96667 14.44 6.07333 14.4 6.16 14.3333L7.43333 13.3L8.54 15.7133C8.62667 15.8933 8.80667 16 9 16C9.07333 16 9.14667 16 9.22 15.9467L11.06 15.0933C11.3133 14.9733 11.4333 14.6667 11.3 14.42L10.1867 12L11.7933 11.7C11.9 11.6667 12 11.62 12.08 11.5267C12.26 11.3133 12.2333 11 12 10.8067L6.17333 5.90667L6.16667 5.91333C6.08 5.84 5.96667 5.79333 5.84 5.79333ZM8.66667 6.66667V5.33333H12V6.66667H8.66667ZM7.88667 3.17333L9.77333 1.28667L10.7133 2.22667L8.82667 4.11333L7.88667 3.17333ZM5.33333 0H6.66667V3.33333H5.33333V0ZM1.28667 9.77333L3.17333 7.88667L4.11333 8.82667L2.22667 10.7133L1.28667 9.77333ZM1.28667 2.22667L2.22667 1.28667L4.11333 3.17333L3.17333 4.11333L1.28667 2.22667ZM3.33333 6.66667H0V5.33333H3.33333V6.66667Z" fill="currentColor"/>
</svg>
