<svg width="18" height="18" viewBox="0 0 18 18" fill="none" xmlns="http://www.w3.org/2000/svg">
<path d="M8.63268 13.8699C5.98268 13.7449 3.87435 11.5616 3.87435 8.87826C3.87435 6.11992 6.11601 3.87826 8.87435 3.87826C11.5577 3.87826 13.741 5.98659 13.866 8.63659L12.116 8.11159C11.7743 6.63659 10.4493 5.54492 8.87435 5.54492C7.03268 5.54492 5.54102 7.03659 5.54102 8.87826C5.54102 10.4533 6.63268 11.7783 8.10768 12.1199L8.63268 13.8699ZM17.2077 8.87826C17.2077 9.12826 17.1993 9.37825 17.1743 9.62825L15.5327 9.13659C15.541 9.05326 15.541 8.96159 15.541 8.87826C15.541 5.19492 12.5577 2.21159 8.87435 2.21159C5.19102 2.21159 2.20768 5.19492 2.20768 8.87826C2.20768 12.5616 5.19102 15.5449 8.87435 15.5449C8.95768 15.5449 9.04935 15.5449 9.13268 15.5366L9.62435 17.1783C9.37435 17.2033 9.12435 17.2116 8.87435 17.2116C4.27435 17.2116 0.541016 13.4783 0.541016 8.87826C0.541016 4.27826 4.27435 0.544922 8.87435 0.544922C13.4743 0.544922 17.2077 4.27826 17.2077 8.87826ZM14.066 12.4283L15.9577 11.7949C16.341 11.6699 16.3327 11.1199 15.9493 11.0033L9.61602 9.10326C9.29935 9.01159 8.99935 9.30326 9.09935 9.61992L10.9993 15.9533C11.116 16.3449 11.666 16.3533 11.791 15.9616L12.4243 14.0699L15.6827 17.3283C15.8493 17.4949 16.1077 17.4949 16.2743 17.3283L17.3327 16.2699C17.4993 16.1033 17.4993 15.8449 17.3327 15.6783L14.066 12.4283Z" fill="url(#paint0_linear_1068_5321)"/>
<defs>
<linearGradient id="paint0_linear_1852_84950" x1="-1.99648" y1="0.544922" x2="23.7911" y2="8.19526" gradientUnits="userSpaceOnUse">
<stop stop-color="#A282E8"/>
<stop offset="0.484375" stop-color="#7E8EE7"/>
<stop offset="1" stop-color="#4499E9"/>
</linearGradient>
</defs>
</svg>
