<svg width="18" height="16" viewBox="0 0 18 16" fill="none" xmlns="http://www.w3.org/2000/svg">
<path d="M14.0013 10.7C14.0013 10.5895 13.9118 10.5 13.8013 10.5H12.5346C12.4242 10.5 12.3346 10.5895 12.3346 10.7V11.9667C12.3346 12.0771 12.4242 12.1667 12.5346 12.1667H13.8013C13.9118 12.1667 14.0013 12.0771 14.0013 11.9667V10.7ZM14.0013 7.36667C14.0013 7.25621 13.9118 7.16667 13.8013 7.16667H12.5346C12.4242 7.16667 12.3346 7.25621 12.3346 7.36667V8.63333C12.3346 8.74379 12.4242 8.83333 12.5346 8.83333H13.8013C13.9118 8.83333 14.0013 8.74379 14.0013 8.63333V7.36667ZM15.668 13.4333C15.668 13.6542 15.4889 13.8333 15.268 13.8333H9.2013C9.09085 13.8333 9.0013 13.7438 9.0013 13.6333V12.3667C9.0013 12.2562 9.09085 12.1667 9.2013 12.1667H10.468C10.5784 12.1667 10.668 12.0771 10.668 11.9667V10.7C10.668 10.5895 10.5784 10.5 10.468 10.5H9.2013C9.09085 10.5 9.0013 10.4105 9.0013 10.3V9.03333C9.0013 8.92288 9.09085 8.83333 9.2013 8.83333H10.468C10.5784 8.83333 10.668 8.74379 10.668 8.63333V7.36667C10.668 7.25621 10.5784 7.16667 10.468 7.16667H9.2013C9.09085 7.16667 9.0013 7.07712 9.0013 6.96667V5.7C9.0013 5.58954 9.09085 5.5 9.2013 5.5H15.268C15.4889 5.5 15.668 5.67909 15.668 5.9V13.4333ZM7.33464 3.63333C7.33464 3.74379 7.24509 3.83333 7.13464 3.83333H5.86797C5.75751 3.83333 5.66797 3.74379 5.66797 3.63333V2.36667C5.66797 2.25621 5.75751 2.16667 5.86797 2.16667H7.13464C7.24509 2.16667 7.33464 2.25621 7.33464 2.36667V3.63333ZM7.33464 6.96667C7.33464 7.07712 7.24509 7.16667 7.13464 7.16667H5.86797C5.75751 7.16667 5.66797 7.07712 5.66797 6.96667V5.7C5.66797 5.58954 5.75751 5.5 5.86797 5.5H7.13464C7.24509 5.5 7.33464 5.58954 7.33464 5.7V6.96667ZM7.33464 10.3C7.33464 10.4105 7.24509 10.5 7.13464 10.5H5.86797C5.75751 10.5 5.66797 10.4105 5.66797 10.3V9.03333C5.66797 8.92288 5.75751 8.83333 5.86797 8.83333H7.13464C7.24509 8.83333 7.33464 8.92288 7.33464 9.03333V10.3ZM7.33464 13.6333C7.33464 13.7438 7.24509 13.8333 7.13464 13.8333H5.86797C5.75751 13.8333 5.66797 13.7438 5.66797 13.6333V12.3667C5.66797 12.2562 5.75751 12.1667 5.86797 12.1667H7.13464C7.24509 12.1667 7.33464 12.2562 7.33464 12.3667V13.6333ZM4.0013 3.63333C4.0013 3.74379 3.91176 3.83333 3.8013 3.83333H2.53464C2.42418 3.83333 2.33464 3.74379 2.33464 3.63333V2.36667C2.33464 2.25621 2.42418 2.16667 2.53464 2.16667H3.8013C3.91176 2.16667 4.0013 2.25621 4.0013 2.36667V3.63333ZM4.0013 6.96667C4.0013 7.07712 3.91176 7.16667 3.8013 7.16667H2.53464C2.42418 7.16667 2.33464 7.07712 2.33464 6.96667V5.7C2.33464 5.58954 2.42418 5.5 2.53464 5.5H3.8013C3.91176 5.5 4.0013 5.58954 4.0013 5.7V6.96667ZM4.0013 10.3C4.0013 10.4105 3.91176 10.5 3.8013 10.5H2.53464C2.42418 10.5 2.33464 10.4105 2.33464 10.3V9.03333C2.33464 8.92288 2.42418 8.83333 2.53464 8.83333H3.8013C3.91176 8.83333 4.0013 8.92288 4.0013 9.03333V10.3ZM4.0013 13.6333C4.0013 13.7438 3.91176 13.8333 3.8013 13.8333H2.53464C2.42418 13.8333 2.33464 13.7438 2.33464 13.6333V12.3667C2.33464 12.2562 2.42418 12.1667 2.53464 12.1667H3.8013C3.91176 12.1667 4.0013 12.2562 4.0013 12.3667V13.6333ZM9.0013 3.83333V1.5C9.0013 0.947715 8.55359 0.5 8.0013 0.5H1.66797C1.11568 0.5 0.667969 0.947715 0.667969 1.5V14.5C0.667969 15.0523 1.11568 15.5 1.66797 15.5H16.3346C16.8869 15.5 17.3346 15.0523 17.3346 14.5V4.83333C17.3346 4.28105 16.8869 3.83333 16.3346 3.83333H9.0013Z" fill="url(#paint0_linear_7774_35052)"/>
<defs>
<linearGradient id="paint0_linear_7774_35052" x1="-1.83203" y1="0.5" x2="23.1037" y2="8.71555" gradientUnits="userSpaceOnUse">
<stop stop-color="#A282E8"/>
<stop offset="0.484375" stop-color="#7E8EE7"/>
<stop offset="1" stop-color="#4499E9"/>
</linearGradient>
</defs>
</svg>
