<svg width="20" height="20" viewBox="0 0 20 20" fill="none" xmlns="http://www.w3.org/2000/svg">
<path d="M15.0013 12.7C15.0013 12.5895 14.9118 12.5 14.8013 12.5H13.5346C13.4242 12.5 13.3346 12.5895 13.3346 12.7V13.9667C13.3346 14.0771 13.4242 14.1667 13.5346 14.1667H14.8013C14.9118 14.1667 15.0013 14.0771 15.0013 13.9667V12.7ZM15.0013 9.36667C15.0013 9.25621 14.9118 9.16667 14.8013 9.16667H13.5346C13.4242 9.16667 13.3346 9.25621 13.3346 9.36667V10.6333C13.3346 10.7438 13.4242 10.8333 13.5346 10.8333H14.8013C14.9118 10.8333 15.0013 10.7438 15.0013 10.6333V9.36667ZM16.668 15.4333C16.668 15.6542 16.4889 15.8333 16.268 15.8333H10.2013C10.0908 15.8333 10.0013 15.7438 10.0013 15.6333V14.3667C10.0013 14.2562 10.0908 14.1667 10.2013 14.1667H11.468C11.5784 14.1667 11.668 14.0771 11.668 13.9667V12.7C11.668 12.5895 11.5784 12.5 11.468 12.5H10.2013C10.0908 12.5 10.0013 12.4105 10.0013 12.3V11.0333C10.0013 10.9229 10.0908 10.8333 10.2013 10.8333H11.468C11.5784 10.8333 11.668 10.7438 11.668 10.6333V9.36667C11.668 9.25621 11.5784 9.16667 11.468 9.16667H10.2013C10.0908 9.16667 10.0013 9.07712 10.0013 8.96667V7.7C10.0013 7.58954 10.0908 7.5 10.2013 7.5H16.268C16.4889 7.5 16.668 7.67909 16.668 7.9V15.4333ZM8.33464 5.63333C8.33464 5.74379 8.24509 5.83333 8.13464 5.83333H6.86797C6.75751 5.83333 6.66797 5.74379 6.66797 5.63333V4.36667C6.66797 4.25621 6.75751 4.16667 6.86797 4.16667H8.13464C8.24509 4.16667 8.33464 4.25621 8.33464 4.36667V5.63333ZM8.33464 8.96667C8.33464 9.07712 8.24509 9.16667 8.13464 9.16667H6.86797C6.75751 9.16667 6.66797 9.07712 6.66797 8.96667V7.7C6.66797 7.58954 6.75751 7.5 6.86797 7.5H8.13464C8.24509 7.5 8.33464 7.58954 8.33464 7.7V8.96667ZM8.33464 12.3C8.33464 12.4105 8.24509 12.5 8.13464 12.5H6.86797C6.75751 12.5 6.66797 12.4105 6.66797 12.3V11.0333C6.66797 10.9229 6.75751 10.8333 6.86797 10.8333H8.13464C8.24509 10.8333 8.33464 10.9229 8.33464 11.0333V12.3ZM8.33464 15.6333C8.33464 15.7438 8.24509 15.8333 8.13464 15.8333H6.86797C6.75751 15.8333 6.66797 15.7438 6.66797 15.6333V14.3667C6.66797 14.2562 6.75751 14.1667 6.86797 14.1667H8.13464C8.24509 14.1667 8.33464 14.2562 8.33464 14.3667V15.6333ZM5.0013 5.63333C5.0013 5.74379 4.91176 5.83333 4.8013 5.83333H3.53464C3.42418 5.83333 3.33464 5.74379 3.33464 5.63333V4.36667C3.33464 4.25621 3.42418 4.16667 3.53464 4.16667H4.8013C4.91176 4.16667 5.0013 4.25621 5.0013 4.36667V5.63333ZM5.0013 8.96667C5.0013 9.07712 4.91176 9.16667 4.8013 9.16667H3.53464C3.42418 9.16667 3.33464 9.07712 3.33464 8.96667V7.7C3.33464 7.58954 3.42418 7.5 3.53464 7.5H4.8013C4.91176 7.5 5.0013 7.58954 5.0013 7.7V8.96667ZM5.0013 12.3C5.0013 12.4105 4.91176 12.5 4.8013 12.5H3.53464C3.42418 12.5 3.33464 12.4105 3.33464 12.3V11.0333C3.33464 10.9229 3.42418 10.8333 3.53464 10.8333H4.8013C4.91176 10.8333 5.0013 10.9229 5.0013 11.0333V12.3ZM5.0013 15.6333C5.0013 15.7438 4.91176 15.8333 4.8013 15.8333H3.53464C3.42418 15.8333 3.33464 15.7438 3.33464 15.6333V14.3667C3.33464 14.2562 3.42418 14.1667 3.53464 14.1667H4.8013C4.91176 14.1667 5.0013 14.2562 5.0013 14.3667V15.6333ZM10.0013 5.83333V3.5C10.0013 2.94771 9.55359 2.5 9.0013 2.5H2.66797C2.11568 2.5 1.66797 2.94772 1.66797 3.5V16.5C1.66797 17.0523 2.11568 17.5 2.66797 17.5H17.3346C17.8869 17.5 18.3346 17.0523 18.3346 16.5V6.83333C18.3346 6.28105 17.8869 5.83333 17.3346 5.83333H10.0013Z" fill="currentColor"/>
</svg>
