<svg width="20" height="20" viewBox="0 0 20 20" fill="none" xmlns="http://www.w3.org/2000/svg">
<path d="M15.0013 9.1665H12.3513C12.0013 8.19984 11.0846 7.49984 10.0013 7.49984C8.91797 7.49984 8.0013 8.19984 7.6513 9.1665H5.0013C4.7263 9.1665 3.33464 9.08317 3.33464 7.49984V6.6665C3.33464 5.1415 4.61797 4.99984 5.0013 4.99984H13.4846C13.8346 5.9665 14.7513 6.6665 15.8346 6.6665C16.4977 6.6665 17.1336 6.40311 17.6024 5.93427C18.0712 5.46543 18.3346 4.82955 18.3346 4.1665C18.3346 3.50346 18.0712 2.86758 17.6024 2.39874C17.1336 1.9299 16.4977 1.6665 15.8346 1.6665C14.7513 1.6665 13.8346 2.3665 13.4846 3.33317H5.0013C3.65964 3.33317 1.66797 4.2165 1.66797 6.6665V7.49984C1.66797 9.94984 3.65964 10.8332 5.0013 10.8332H7.6513C8.0013 11.7998 8.91797 12.4998 10.0013 12.4998C11.0846 12.4998 12.0013 11.7998 12.3513 10.8332H15.0013C15.2763 10.8332 16.668 10.9165 16.668 12.4998V13.3332C16.668 14.8582 15.3846 14.9998 15.0013 14.9998H6.51797C6.16797 14.0332 5.2513 13.3332 4.16797 13.3332C3.50493 13.3332 2.86904 13.5966 2.4002 14.0654C1.93136 14.5342 1.66797 15.1701 1.66797 15.8332C1.66797 16.4962 1.93136 17.1321 2.4002 17.6009C2.86904 18.0698 3.50493 18.3332 4.16797 18.3332C5.2513 18.3332 6.16797 17.6332 6.51797 16.6665H15.0013C16.343 16.6665 18.3346 15.7748 18.3346 13.3332V12.4998C18.3346 10.0582 16.343 9.1665 15.0013 9.1665ZM15.8346 3.33317C16.0556 3.33317 16.2676 3.42097 16.4239 3.57725C16.5802 3.73353 16.668 3.94549 16.668 4.1665C16.668 4.38752 16.5802 4.59948 16.4239 4.75576C16.2676 4.91204 16.0556 4.99984 15.8346 4.99984C15.6136 4.99984 15.4017 4.91204 15.2454 4.75576C15.0891 4.59948 15.0013 4.38752 15.0013 4.1665C15.0013 3.94549 15.0891 3.73353 15.2454 3.57725C15.4017 3.42097 15.6136 3.33317 15.8346 3.33317ZM4.16797 16.6665C3.94696 16.6665 3.73499 16.5787 3.57871 16.4224C3.42243 16.2661 3.33464 16.0542 3.33464 15.8332C3.33464 15.6122 3.42243 15.4002 3.57871 15.2439C3.73499 15.0876 3.94696 14.9998 4.16797 14.9998C4.38898 14.9998 4.60094 15.0876 4.75722 15.2439C4.9135 15.4002 5.0013 15.6122 5.0013 15.8332C5.0013 16.0542 4.9135 16.2661 4.75722 16.4224C4.60094 16.5787 4.38898 16.6665 4.16797 16.6665Z" fill="currentColor"/>
</svg>
