<svg width="40" height="40" viewBox="0 0 40 40" fill="none" xmlns="http://www.w3.org/2000/svg">
<path d="M32 18H25.64C24.8 15.68 22.6 14 20 14C17.4 14 15.2 15.68 14.36 18H8C7.34 18 4 17.8 4 14V12C4 8.34 7.08 8 8 8H28.36C29.2 10.32 31.4 12 34 12C35.5913 12 37.1174 11.3679 38.2426 10.2426C39.3679 9.11742 40 7.5913 40 6C40 4.4087 39.3679 2.88258 38.2426 1.75736C37.1174 0.632141 35.5913 0 34 0C31.4 0 29.2 1.68 28.36 4H8C4.78 4 0 6.12 0 12V14C0 19.88 4.78 22 8 22H14.36C15.2 24.32 17.4 26 20 26C22.6 26 24.8 24.32 25.64 22H32C32.66 22 36 22.2 36 26V28C36 31.66 32.92 32 32 32H11.64C10.8 29.68 8.6 28 6 28C4.4087 28 2.88258 28.6321 1.75736 29.7574C0.632141 30.8826 0 32.4087 0 34C0 35.5913 0.632141 37.1174 1.75736 38.2426C2.88258 39.3679 4.4087 40 6 40C8.6 40 10.8 38.32 11.64 36H32C35.22 36 40 33.86 40 28V26C40 20.14 35.22 18 32 18ZM34 4C34.5304 4 35.0391 4.21071 35.4142 4.58579C35.7893 4.96086 36 5.46957 36 6C36 6.53043 35.7893 7.03914 35.4142 7.41421C35.0391 7.78929 34.5304 8 34 8C33.4696 8 32.9609 7.78929 32.5858 7.41421C32.2107 7.03914 32 6.53043 32 6C32 5.46957 32.2107 4.96086 32.5858 4.58579C32.9609 4.21071 33.4696 4 34 4V4ZM6 36C5.46957 36 4.96086 35.7893 4.58579 35.4142C4.21071 35.0391 4 34.5304 4 34C4 33.4696 4.21071 32.9609 4.58579 32.5858C4.96086 32.2107 5.46957 32 6 32C6.53043 32 7.03914 32.2107 7.41421 32.5858C7.78929 32.9609 8 33.4696 8 34C8 34.5304 7.78929 35.0391 7.41421 35.4142C7.03914 35.7893 6.53043 36 6 36Z" fill="url(#paint0_linear_8470_138352)"/>
<defs>
<linearGradient id="paint0_linear_8470_138352" x1="-6" y1="-2.704e-07" x2="54.9803" y2="18.082" gradientUnits="userSpaceOnUse">
<stop stop-color="#A282E8"/>
<stop offset="0.484375" stop-color="#7E8EE7"/>
<stop offset="1" stop-color="#4499E9"/>
</linearGradient>
</defs>
</svg>
