<svg width="20" height="20" viewBox="0 0 20 20" fill="none" xmlns="http://www.w3.org/2000/svg">
<path d="M13.3334 1.53203C13.3334 1.14543 13.02 0.832031 12.6334 0.832031H3.33341C2.41675 0.832031 1.66675 1.58203 1.66675 2.4987V13.4654C1.66675 13.852 1.98015 14.1654 2.36675 14.1654H2.63342C3.02001 14.1654 3.33341 13.852 3.33341 13.4654V2.4987H12.6334C13.02 2.4987 13.3334 2.1853 13.3334 1.7987V1.53203ZM15.8334 4.16536H6.66675C5.75008 4.16536 5.00008 4.91536 5.00008 5.83203V17.4987C5.00008 18.4154 5.75008 19.1654 6.66675 19.1654H15.8334C16.7501 19.1654 17.5001 18.4154 17.5001 17.4987V5.83203C17.5001 4.91536 16.7501 4.16536 15.8334 4.16536ZM15.8334 17.4987H6.66675V5.83203H15.8334V17.4987Z" fill="currentColor"/>
<rect x="6" y="5" width="10" height="13" fill="currentColor"/>
</svg>
