<svg width="14" height="14" viewBox="0 0 14 14" fill="none" xmlns="http://www.w3.org/2000/svg">
<path d="M11.4797 8.8406C11.713 8.27393 11.8397 7.66727 11.8397 7.0006C11.8397 6.5206 11.7663 6.0606 11.6397 5.63393C11.2063 5.73393 10.753 5.78727 10.2797 5.78727C8.23967 5.78727 6.43301 4.7806 5.33301 3.22727C4.73967 4.66727 3.60634 5.8406 2.17967 6.4806C2.15301 6.64727 2.15301 6.82727 2.15301 7.0006C2.15301 8.28602 2.66364 9.51878 3.57256 10.4277C4.48149 11.3366 5.71426 11.8473 6.99967 11.8473C7.69967 11.8473 8.37301 11.6939 8.97968 11.4206C9.35967 12.1473 9.53301 12.5073 9.51967 12.5073C8.42634 12.8739 7.57967 13.0539 6.99967 13.0539C5.38634 13.0539 3.84634 12.4206 2.71301 11.2806C2.01967 10.5873 1.50634 9.7406 1.21967 8.8206H0.333008V5.78727H1.05967C1.61967 3.02727 4.06634 0.947266 6.99967 0.947266C8.59968 0.947266 10.1397 1.5806 11.2797 2.7206C12.1263 3.5606 12.693 4.63393 12.9263 5.78727H13.6663V8.7806V8.79393V8.8206H13.6263L11.253 11.0006L7.71967 10.6006V9.48727H10.9397L11.4797 8.8406ZM5.17968 6.84727C5.37967 6.84727 5.57301 6.92727 5.71301 7.07393C5.85301 7.21393 5.93301 7.40727 5.93301 7.60727C5.93301 7.80727 5.85301 8.0006 5.71301 8.1406C5.57301 8.2806 5.37967 8.3606 5.17968 8.3606C4.75968 8.3606 4.41967 8.02727 4.41967 7.60727C4.41967 7.18727 4.75968 6.84727 5.17968 6.84727ZM8.81301 6.84727C9.23301 6.84727 9.56634 7.18727 9.56634 7.60727C9.56634 8.02727 9.23301 8.3606 8.81301 8.3606C8.39301 8.3606 8.05301 8.02727 8.05301 7.60727C8.05301 7.4057 8.13308 7.21239 8.27561 7.06986C8.41813 6.92734 8.61144 6.84727 8.81301 6.84727Z" fill="currentColor"/>
</svg>
