<svg width="20" height="20" viewBox="0 0 20 20" fill="none" xmlns="http://www.w3.org/2000/svg">
<path d="M17.9104 15.0138C17.8843 14.9879 17.8564 14.9638 17.8311 14.9372L11.7691 8.56029C11.566 8.34662 11.5075 8.03707 11.5825 7.75194C12.0032 6.15125 11.6013 4.36879 10.3769 3.08079C9.23023 1.87451 7.61843 1.45105 6.14518 1.7707C5.6339 1.88164 5.51533 2.50214 5.87579 2.88133L7.6804 4.77968C7.96359 5.07757 7.96359 5.54515 7.6804 5.84305L6.61831 6.96031C6.31651 7.27779 5.81128 7.28069 5.50585 6.9667L3.7292 5.14023C3.35426 4.75477 2.71294 4.86795 2.60278 5.39428C2.27834 6.94433 2.72735 8.64034 3.8743 9.84687C5.08169 11.117 6.74616 11.5457 8.25128 11.133C8.55856 11.0487 8.89596 11.1144 9.11549 11.3453L15.1832 17.7282C15.466 18.0257 15.89 18.0257 16.1728 17.7282L17.7984 16.0181C18.1337 15.736 18.1509 15.2531 17.9104 15.0138Z" fill="url(#paint0_linear_1124_37947)"/>
<defs>
<linearGradient id="paint0_linear_1124_37947" x1="0.164043" y1="1.66797" x2="24.0702" y2="8.44744" gradientUnits="userSpaceOnUse">
<stop stop-color="#A282E8"/>
<stop offset="0.484375" stop-color="#7E8EE7"/>
<stop offset="1" stop-color="#4499E9"/>
</linearGradient>
</defs>
</svg>
