<svg width="17" height="17" viewBox="0 0 17 17" fill="none" xmlns="http://www.w3.org/2000/svg">
<path d="M15.9104 14.0118C15.8843 13.9859 15.8564 13.9619 15.8311 13.9353L9.76908 7.55834C9.56596 7.34467 9.50752 7.03512 9.58247 6.74999C10.0032 5.14929 9.60133 3.36684 8.37694 2.07883C7.23023 0.872558 5.61843 0.449094 4.14518 0.76875C3.6339 0.879686 3.51533 1.50018 3.87579 1.87937L5.6804 3.77773C5.96359 4.07562 5.96359 4.5432 5.6804 4.84109L4.61831 5.95835C4.31651 6.27583 3.81128 6.27873 3.50585 5.96474L1.7292 4.13827C1.35426 3.75282 0.712944 3.86599 0.602778 4.39232C0.278337 5.94238 0.727346 7.63838 1.8743 8.84492C3.08169 10.115 4.74616 10.5437 6.25128 10.131C6.55856 10.0468 6.89596 10.1124 7.11549 10.3433L13.1832 16.7263C13.466 17.0237 13.89 17.0237 14.1728 16.7263L15.7984 15.0162C16.1337 14.734 16.1509 14.2511 15.9104 14.0118Z" fill="currentColor"/>
</svg>
