<svg width="19" height="20" viewBox="0 0 19 20" fill="none" xmlns="http://www.w3.org/2000/svg">
<path d="M14.68 9.32C12.92 7.56 10.07 7.57 8.32 9.33C6.56 11.09 6.56 13.94 8.32 15.69C9.81 17.17 12.11 17.43 13.89 16.32L17 19.39L18.39 18L15.3 14.89C16.43 13.12 16.17 10.8 14.68 9.32ZM13.27 14.27C12.29 15.25 10.71 15.24 9.73 14.27C8.76 13.29 8.76 11.71 9.74 10.73C10.71 9.76 12.29 9.76 13.27 10.73C14.24 11.71 14.24 13.29 13.27 14.27ZM6.9 17.1C6.25 16.44 5.74 15.65 5.42 14.78C2.27 14.25 0 12.76 0 11V14C0 16.21 3.58 18 8 18C7.6 17.74 7.23 17.44 6.9 17.1ZM0 6V9C0 10.68 2.07 12.12 5 12.7C5 12.63 5 12.57 5 12.5C5 11.57 5.2 10.65 5.58 9.81C2.34 9.3 0 7.79 0 6ZM8 0C3.58 0 0 1.79 0 4C0 6 3 7.68 6.85 8H6.9C8.1 6.74 9.76 6 11.5 6C12.41 6 13.31 6.19 14.14 6.56C15.17 6.09 15.87 5.12 16 4C16 1.79 12.42 0 8 0Z" fill="url(#paint0_linear_2585_66834)"/>
<defs>
<linearGradient id="paint0_linear_2585_66834" x1="-2.7585" y1="-1.31077e-07" x2="25.5068" y2="7.94901" gradientUnits="userSpaceOnUse">
<stop stop-color="#A282E8"/>
<stop offset="0.484375" stop-color="#7E8EE7"/>
<stop offset="1" stop-color="#4499E9"/>
</linearGradient>
</defs>
</svg>
