<svg width="14" height="15" viewBox="0 0 14 15" fill="none" xmlns="http://www.w3.org/2000/svg">
<path d="M11.01 7.24C9.69 5.92 7.5525 5.9275 6.24 7.2475C4.92 8.5675 4.92 10.705 6.24 12.0175C7.3575 13.1275 9.0825 13.3225 10.4175 12.49L12.75 14.7925L13.7925 13.75L11.475 11.4175C12.3225 10.09 12.1275 8.35 11.01 7.24ZM9.9525 10.9525C9.2175 11.6875 8.0325 11.68 7.2975 10.9525C6.57 10.2175 6.57 9.0325 7.305 8.2975C8.0325 7.57 9.2175 7.57 9.9525 8.2975C10.68 9.0325 10.68 10.2175 9.9525 10.9525ZM5.175 13.075C4.6875 12.58 4.305 11.9875 4.065 11.335C1.7025 10.9375 0 9.82 0 8.5V10.75C0 12.4075 2.685 13.75 6 13.75C5.7 13.555 5.4225 13.33 5.175 13.075ZM0 4.75V7C0 8.26 1.5525 9.34 3.75 9.775C3.75 9.7225 3.75 9.6775 3.75 9.625C3.75 8.9275 3.9 8.2375 4.185 7.6075C1.755 7.225 0 6.0925 0 4.75ZM6 0.25C2.685 0.25 0 1.5925 0 3.25C0 4.75 2.25 6.01 5.1375 6.25H5.175C6.075 5.305 7.32 4.75 8.625 4.75C9.3075 4.75 9.9825 4.8925 10.605 5.17C11.3775 4.8175 11.9025 4.09 12 3.25C12 1.5925 9.315 0.25 6 0.25Z" fill="currentColor"/>
</svg>
