<svg width="17" height="18" viewBox="0 0 17 18" fill="none" xmlns="http://www.w3.org/2000/svg">
<path fill-rule="evenodd" clip-rule="evenodd" d="M3.29289 0.292893C3.48043 0.105357 3.73478 0 4 0C4.26522 0 4.51957 0.105357 4.70711 0.292893C4.89464 0.48043 5 0.734784 5 1V2H11V1C11 0.734784 11.1054 0.48043 11.2929 0.292893C11.4804 0.105357 11.7348 0 12 0C12.2652 0 12.5196 0.105357 12.7071 0.292893C12.8946 0.48043 13 0.734784 13 1V2H14C14.5304 2 15.0391 2.21071 15.4142 2.58579C15.7893 2.96086 16 3.46957 16 4V9.25716C15.0491 8.47182 13.8296 8 12.5 8C9.46243 8 7 10.4624 7 13.5C7 14.4002 7.21628 15.2499 7.59971 16H2C1.46957 16 0.960859 15.7893 0.585786 15.4142C0.210714 15.0391 0 14.5304 0 14V4C0 3.46957 0.210714 2.96086 0.585786 2.58579C0.960859 2.21071 1.46957 2 2 2H3V1C3 0.734784 3.10536 0.48043 3.29289 0.292893ZM3.29289 5.29289C3.48043 5.10536 3.73478 5 4 5H12C12.2652 5 12.5196 5.10536 12.7071 5.29289C12.8946 5.48043 13 5.73478 13 6C13 6.26522 12.8946 6.51957 12.7071 6.70711C12.5196 6.89464 12.2652 7 12 7H4C3.73478 7 3.48043 6.89464 3.29289 6.70711C3.10536 6.51957 3 6.26522 3 6C3 5.73478 3.10536 5.48043 3.29289 5.29289Z" fill="#567191"/>
<path fill-rule="evenodd" clip-rule="evenodd" d="M12.5 18C14.9853 18 17 15.9853 17 13.5C17 11.0147 14.9853 9 12.5 9C10.0147 9 8 11.0147 8 13.5C8 15.9853 10.0147 18 12.5 18ZM13.0625 11.483V12.9599C13.0625 13.1256 13.1283 13.2846 13.2456 13.4018L14.294 14.4503C14.4059 14.5621 14.4688 14.7139 14.4688 14.8721C14.4688 15.2016 14.2016 15.4688 13.8721 15.4688C13.7139 15.4688 13.5621 15.4059 13.4503 15.294L12.1206 13.9643C12.0033 13.8471 11.9375 13.6881 11.9375 13.5224V11.483C11.9375 11.3338 12.045 11.1425 12.1505 11.037C12.3702 10.8173 12.6781 10.8656 12.8977 11.0852C13.0032 11.1907 13.0625 11.3338 13.0625 11.483Z" fill="currentColor"/>
</svg>
