<svg width="20" height="20" viewBox="0 0 20 20" fill="none" xmlns="http://www.w3.org/2000/svg">
<g clip-path="url(#clip0_12635_81206)">
<path d="M14.1243 4.49935V15.041C14.1243 17.0668 12.4835 18.7077 10.4577 18.7077C8.43185 18.7077 6.79102 17.0668 6.79102 15.041V3.58268C6.79102 2.31768 7.81768 1.29102 9.08268 1.29102C10.3477 1.29102 11.3743 2.31768 11.3743 3.58268V13.2077C11.3743 13.7118 10.9618 14.1243 10.4577 14.1243C9.95352 14.1243 9.54102 13.7118 9.54102 13.2077V4.49935H8.16602V13.2077C8.16602 14.4727 9.19268 15.4993 10.4577 15.4993C11.7227 15.4993 12.7493 14.4727 12.7493 13.2077V3.58268C12.7493 1.55685 11.1085 -0.0839844 9.08268 -0.0839844C7.05685 -0.0839844 5.41602 1.55685 5.41602 3.58268V15.041C5.41602 17.8277 7.67102 20.0827 10.4577 20.0827C13.2443 20.0827 15.4993 17.8277 15.4993 15.041V4.49935H14.1243Z" fill="#8193A8"/>
</g>
<defs>
<clipPath id="clip0_12635_81206">
<rect width="20" height="20" rx="2" fill="currentColor"/>
</clipPath>
</defs>
</svg>
