<svg width="30" height="40" viewBox="0 0 30 40" fill="none" xmlns="http://www.w3.org/2000/svg">
<path d="M0 -0.416748L29.1667 9.99984V24.3018C29.1667 25.4543 28.025 26.259 26.9396 25.8715L20.8333 23.6913V15.5933C20.8333 13.8574 19.7571 12.3034 18.1322 11.6928L15.2931 10.6261C14.7482 10.4214 14.1667 10.8242 14.1667 11.4062V21.3094L0 16.2499V-0.416748Z" fill="url(#paint0_linear_25102_150952)"/>
<g filter="url(#filter0_f_25102_150952)">
<path d="M29.1667 13.0833C29.1667 14.833 28.0735 16.3994 26.43 16.9999L7.5 23.9166V40.5833L29.1667 32.6666V13.0833Z" fill="black" fill-opacity="0.24"/>
</g>
<g filter="url(#filter1_f_25102_150952)">
<path d="M29.1667 13.7498C29.1667 15.4995 28.0735 17.0659 26.43 17.6664L7.5 24.5831V41.2498L29.1667 33.3331V13.7498Z" fill="black" fill-opacity="0.32"/>
</g>
<path d="M29.1667 12.9165C29.1667 14.6663 28.0735 16.2326 26.43 16.8331L7.5 23.7499V40.4165L29.1667 32.4998V12.9165Z" fill="url(#paint1_linear_25102_150952)"/>
<path opacity="0.5" d="M29.1667 12.9165C29.1667 14.6663 28.0735 16.2326 26.43 16.8331L7.5 23.7499V40.4165L29.1667 32.4998V12.9165Z" fill="url(#paint2_linear_25102_150952)"/>
<path opacity="0.5" d="M20.8335 18.8833L14.1631 21.3235L14.1631 31.0978C14.1631 31.68 14.7451 32.0828 15.29 31.8776L18.1347 30.8069C19.7585 30.1957 20.8335 28.6423 20.8335 26.9073V18.8833Z" fill="#8193a8"/>
<defs>
<filter id="filter0_f_25102_150952" x="6.7" y="12.2833" width="23.267" height="29.1" filterUnits="userSpaceOnUse" color-interpolation-filters="sRGB">
<feFlood flood-opacity="0" result="BackgroundImageFix"/>
<feBlend mode="normal" in="SourceGraphic" in2="BackgroundImageFix" result="shape"/>
<feGaussianBlur stdDeviation="0.4" result="effect1_foregroundBlur_25102_150952"/>
</filter>
<filter id="filter1_f_25102_150952" x="-0.5" y="5.74976" width="37.667" height="43.5" filterUnits="userSpaceOnUse" color-interpolation-filters="sRGB">
<feFlood flood-opacity="0" result="BackgroundImageFix"/>
<feBlend mode="normal" in="SourceGraphic" in2="BackgroundImageFix" result="shape"/>
<feGaussianBlur stdDeviation="4" result="effect1_foregroundBlur_25102_150952"/>
</filter>
<linearGradient id="paint0_linear_25102_150952" x1="10.8521" y1="-0.416748" x2="18.6077" y2="19.8846" gradientUnits="userSpaceOnUse">
<stop stop-color="#8193a8"/>
<stop offset="1" stop-color="#8193a8"/>
</linearGradient>
<linearGradient id="paint1_linear_25102_150952" x1="21.724" y1="38.955" x2="21.724" y2="14.7562" gradientUnits="userSpaceOnUse">
<stop stop-color="#8193a8"/>
<stop offset="1" stop-color="#8193a8"/>
</linearGradient>
<linearGradient id="paint2_linear_25102_150952" x1="29.1667" y1="23.6607" x2="20.8652" y2="23.6607" gradientUnits="userSpaceOnUse">
<stop stop-color="#8193a8"/>
<stop offset="0.287843" stop-color="#8193a8" stop-opacity="0.523646"/>
<stop offset="1" stop-color="#8193a8" stop-opacity="0"/>
</linearGradient>
</defs>
</svg>
