<svg width="18" height="18" viewBox="0 0 18 18" fill="none" xmlns="http://www.w3.org/2000/svg">
<path d="M9.0013 0.666504C4.39297 0.666504 0.667969 4.3915 0.667969 8.99984C0.667969 13.6082 4.39297 17.3332 9.0013 17.3332C13.6096 17.3332 17.3346 13.6082 17.3346 8.99984C17.3346 4.3915 13.6096 0.666504 9.0013 0.666504ZM11.5846 4.8915C11.7013 4.8915 11.818 4.93317 11.918 5.02484L12.9763 6.08317C13.168 6.2665 13.168 6.55817 12.9763 6.73317L12.143 7.5665L10.4346 5.85817L11.268 5.02484C11.3513 4.93317 11.468 4.8915 11.5846 4.8915ZM9.94297 6.3415L11.6596 8.05817L6.60963 13.1082H4.89297V11.3915L9.94297 6.3415Z" fill="url(#paint0_linear_10042_146304)" fill-opacity="0.88"/>
<defs>
<linearGradient id="paint0_linear_10042_146304" x1="-1.83203" y1="0.666504" x2="23.5764" y2="8.20067" gradientUnits="userSpaceOnUse">
<stop stop-color="#A282E8"/>
<stop offset="0.484375" stop-color="#7E8EE7"/>
<stop offset="1" stop-color="#4499E9"/>
</linearGradient>
</defs>
</svg>
