<svg width="15" height="15" viewBox="0 0 15 15" fill="none" xmlns="http://www.w3.org/2000/svg">
<path d="M1.50195 4.413L7.4997 7.4115L13.4975 4.413C13.4753 4.03083 13.3078 3.67162 13.0293 3.40892C12.7509 3.14622 12.3825 2.99993 11.9997 3H2.9997C2.61689 2.99993 2.24854 3.14622 1.97009 3.40892C1.69163 3.67162 1.52416 4.03083 1.50195 4.413Z" fill="currentColor"/>
<path d="M13.5 6.08789L7.5 9.08789L1.5 6.08789V10.4994C1.5 10.8972 1.65804 11.2787 1.93934 11.5601C2.22064 11.8414 2.60218 11.9994 3 11.9994H12C12.3978 11.9994 12.7794 11.8414 13.0607 11.5601C13.342 11.2787 13.5 10.8972 13.5 10.4994V6.08789Z" fill="currentColor"/>
</svg>
