<svg width="38" height="40" viewBox="0 0 38 40" fill="none" xmlns="http://www.w3.org/2000/svg">
<path d="M20.8346 21.8449H17.168V9.98066H20.8346V21.8449ZM20.8346 29.7545H17.168V25.7997H20.8346V29.7545ZM19.0013 0.09375C16.5937 0.09375 14.2097 0.605215 11.9854 1.59894C9.76114 2.59267 7.74009 4.0492 6.03768 5.88537C2.59951 9.59367 0.667969 14.6232 0.667969 19.8676C0.667969 25.1119 2.59951 30.1414 6.03768 33.8498C7.74009 35.6859 9.76114 37.1425 11.9854 38.1362C14.2097 39.1299 16.5937 39.6414 19.0013 39.6414C23.8636 39.6414 28.5268 37.5581 31.9649 33.8498C35.4031 30.1414 37.3346 25.1119 37.3346 19.8676C37.3346 17.2708 36.8604 14.6995 35.9391 12.3005C35.0178 9.90138 33.6673 7.72153 31.9649 5.88537C30.2625 4.0492 28.2415 2.59267 26.0172 1.59894C23.7929 0.605215 21.4089 0.09375 19.0013 0.09375Z" fill="url(#paint0_linear_12268_81210)"/>
<defs>
<linearGradient id="paint0_linear_12268_81210" x1="55.668" y1="19.8676" x2="16.2332" y2="-16.6945" gradientUnits="userSpaceOnUse">
<stop stop-color="#FF8888"/>
<stop offset="1" stop-color="#F05F5F"/>
</linearGradient>
</defs>
</svg>
