<svg width="48" height="48" viewBox="0 0 48 48" fill="none" xmlns="http://www.w3.org/2000/svg">
<path fill-rule="evenodd" clip-rule="evenodd" d="M43.2001 23.9998C43.2001 34.6037 34.6039 43.1998 24 43.1998C13.3962 43.1998 4.80005 34.6037 4.80005 23.9998C4.80005 13.3959 13.3962 4.7998 24 4.7998C34.6039 4.7998 43.2001 13.3959 43.2001 23.9998ZM26.4001 33.5998C26.4001 34.9253 25.3255 35.9998 24 35.9998C22.6746 35.9998 21.6 34.9253 21.6 33.5998C21.6 32.2743 22.6746 31.1998 24 31.1998C25.3255 31.1998 26.4001 32.2743 26.4001 33.5998ZM24 11.9998C22.6746 11.9998 21.6 13.0743 21.6 14.3998V23.9998C21.6 25.3253 22.6746 26.3998 24 26.3998C25.3255 26.3998 26.4 25.3253 26.4 23.9998V14.3998C26.4 13.0743 25.3255 11.9998 24 11.9998Z" fill="currentColor"/>
</svg>
