<svg width="43" height="40" viewBox="0 0 43 40" fill="none" xmlns="http://www.w3.org/2000/svg">
<g clip-path="url(#clip0_21197_10675691874569238)">
<path d="M27 19L10 16V38.167C10 39.1793 10.8207 40 11.833 40H41.167C42.1793 40 43 39.1793 43 38.167V30L27 19Z" fill="#185C37"/>
<path d="M27 0H11.833C10.8207 0 10 0.820657 10 1.833V10L27 20L36 23L43 20V10L27 0Z" fill="#21A366"/>
<path d="M10 10H27V20H10V10Z" fill="#107C41"/>
<path opacity="0.1" d="M22.167 8H10V33H22.167C23.178 32.9967 23.9967 32.178 24 31.167V9.833C23.9967 8.82203 23.178 8.00329 22.167 8Z" fill="black"/>
<path opacity="0.2" d="M21.167 9H10V34H21.167C22.178 33.9967 22.9967 33.178 23 32.167V10.833C22.9967 9.82203 22.178 9.00329 21.167 9Z" fill="black"/>
<path opacity="0.2" d="M21.167 9H10V32H21.167C22.178 31.9967 22.9967 31.178 23 30.167V10.833C22.9967 9.82203 22.178 9.00329 21.167 9Z" fill="black"/>
<path opacity="0.2" d="M20.167 9H10V32H20.167C21.178 31.9967 21.9967 31.178 22 30.167V10.833C21.9967 9.82203 21.178 9.00329 20.167 9Z" fill="black"/>
<path d="M1.833 9H20.167C21.1793 9 22 9.82066 22 10.833V29.167C22 30.1793 21.1793 31 20.167 31H1.833C0.820657 31 0 30.1793 0 29.167V10.833C0 9.82066 0.820657 9 1.833 9Z" fill="url(#paint0_linear_21197_1067562903579283)"/>
<path d="M5.67676 25.958L9.53276 19.983L5.99976 14.041H8.84175L10.7698 17.841C10.9478 18.202 11.0698 18.47 11.1358 18.647H11.1608C11.2874 18.359 11.4208 18.0793 11.5608 17.808L13.6218 14.043H16.2307L12.6077 19.95L16.3228 25.958H13.5468L11.3198 21.787C11.2149 21.6096 11.1258 21.4232 11.0538 21.23H11.0208C10.9555 21.4192 10.869 21.6004 10.7628 21.77L8.46977 25.958H5.67676Z" fill="white"/>
<path d="M41.167 0H27V10H43V1.833C43 0.820657 42.1793 0 41.167 0Z" fill="#33C481"/>
<path d="M27 20H43V30H27V20Z" fill="#107C41"/>
</g>
<defs>
<linearGradient id="paint0_linear_21197_1067562903579283" x1="3.82184" y1="7.56773" x2="18.1782" y2="32.4323" gradientUnits="userSpaceOnUse">
<stop stop-color="#18884F"/>
<stop offset="0.5" stop-color="#117E43"/>
<stop offset="1" stop-color="#0B6631"/>
</linearGradient>
<clipPath id="clip0_21197_10675691874569238">
<rect width="43" height="40" fill="white"/>
</clipPath>
</defs>
</svg>
