<svg width="10" height="16" viewBox="0 0 10 16" fill="none" xmlns="http://www.w3.org/2000/svg">
<path d="M0.275391 1.24219C0.275391 0.827974 0.611177 0.492188 1.02539 0.492188V0.492188C1.4396 0.492188 1.77539 0.827974 1.77539 1.24219V14.7422C1.77539 15.1564 1.4396 15.4922 1.02539 15.4922V15.4922C0.611177 15.4922 0.275391 15.1564 0.275391 14.7422V1.24219ZM8.97215 4.54639C9.30514 4.74347 9.29769 5.22786 8.95879 5.4146L3.11669 8.63372C2.78346 8.81733 2.37539 8.57627 2.37539 8.1958V1.51911C2.37539 1.13181 2.79675 0.891562 3.13005 1.08882L8.97215 4.54639Z" fill="url(#paint0_linear_20189_22759)"/>
<defs>
<linearGradient id="paint0_linear_20189_22759" x1="-1.14211" y1="0.492187" x2="14.0027" y2="3.32137" gradientUnits="userSpaceOnUse">
<stop stop-color="#A282E8"/>
<stop offset="0.484375" stop-color="#7E8EE7"/>
<stop offset="1" stop-color="#4499E9"/>
</linearGradient>
</defs>
</svg>