<svg
	width="14"
	height="14"
	viewBox="0 0 14 14"
	fill="none"
	xmlns="http://www.w3.org/2000/svg"
>
	<circle cx="7" cy="7" r="7" fill="#00A1E0" />
	<rect width="14" height="14" rx="5" fill="currentColor" />
	<path
		d="M10.4974 7.08223C10.4974 6.84179 10.4761 6.61353 10.4396 6.39136H7.00049V7.76397H8.96962C8.88136 8.2144 8.62266 8.59484 8.23918 8.85353V9.76657H9.41397C10.1018 9.13049 10.4974 8.1931 10.4974 7.08223Z"
		fill="white"
	/>
	<path
		d="M6.9998 10.6522C7.98589 10.6522 8.81067 10.3235 9.41328 9.76659L8.2385 8.85354C7.9098 9.07267 7.49284 9.20659 6.9998 9.20659C6.04719 9.20659 5.24067 8.56441 4.95154 7.69702H3.74023V8.63746C4.3398 9.8305 5.57241 10.6522 6.9998 10.6522Z"
		fill="white"
	/>
	<path
		d="M4.95206 7.69702C4.87597 7.47789 4.83641 7.24354 4.83641 7.00006C4.83641 6.75658 4.87901 6.52224 4.95206 6.30311V5.36267H3.74075C3.49119 5.85571 3.34814 6.40963 3.34814 7.00006C3.34814 7.5905 3.49119 8.14441 3.74075 8.63745L4.95206 7.69702Z"
		fill="white"
	/>
	<path
		d="M6.9998 4.79355C7.5385 4.79355 8.01937 4.97921 8.3998 5.34138L9.44067 4.30051C8.81067 3.71007 7.98589 3.3479 6.9998 3.3479C5.57241 3.3479 4.3398 4.16964 3.74023 5.36268L4.95154 6.30312C5.24067 5.43573 6.04719 4.79355 6.9998 4.79355Z"
		fill="white"
	/>
</svg>
