<svg width="20" height="26" viewBox="0 0 20 26" fill="none" xmlns="http://www.w3.org/2000/svg">
<mask id="mask0_17057_120119" style="mask-type:alpha" maskUnits="userSpaceOnUse" x="0" y="0" width="19" height="26">
<path d="M11.8035 0.37207H2.04539C1.09828 0.37207 0.323372 1.14698 0.323372 2.09409V23.9063C0.323372 24.8534 1.09828 25.6283 2.04539 25.6283H16.9695C17.9166 25.6283 18.6915 24.8534 18.6915 23.9063V7.26013L11.8035 0.37207Z" fill="white"/>
</mask>
<g mask="url(#mask0_17057_120119)">
<path d="M11.8035 0.37207H2.04539C1.09828 0.37207 0.323372 1.14698 0.323372 2.09409V23.9063C0.323372 24.8534 1.09828 25.6283 2.04539 25.6283H16.9695C17.9166 25.6283 18.6915 24.8534 18.6915 23.9063V7.26013L14.6735 4.39009L11.8035 0.37207Z" fill="#0F9D58"/>
</g>
<mask id="mask1_17057_120119" style="mask-type:alpha" maskUnits="userSpaceOnUse" x="0" y="0" width="19" height="26">
<path d="M11.8035 0.37207H2.04539C1.09828 0.37207 0.323372 1.14698 0.323372 2.09409V23.9063C0.323372 24.8534 1.09828 25.6283 2.04539 25.6283H16.9695C17.9166 25.6283 18.6915 24.8534 18.6915 23.9063V7.26013L11.8035 0.37207Z" fill="white"/>
</mask>
<g mask="url(#mask1_17057_120119)">
<path d="M4.9154 12.7129V21.036H14.0995V12.7129H4.9154ZM8.93344 19.888H6.06343V18.4529H8.93344V19.888ZM8.93344 17.5919H6.06343V16.1569H8.93344V17.5919ZM8.93344 15.2959H6.06343V13.8609H8.93344V15.2959ZM12.9515 19.888H10.0814V18.4529H12.9515V19.888ZM12.9515 17.5919H10.0814V16.1569H12.9515V17.5919ZM12.9515 15.2959H10.0814V13.8609H12.9515V15.2959Z" fill="#F1F1F1"/>
</g>
<mask id="mask2_17057_120119" style="mask-type:alpha" maskUnits="userSpaceOnUse" x="0" y="0" width="19" height="26">
<path d="M11.8035 0.37207H2.04539C1.09828 0.37207 0.323372 1.14698 0.323372 2.09409V23.9063C0.323372 24.8534 1.09828 25.6283 2.04539 25.6283H16.9695C17.9166 25.6283 18.6915 24.8534 18.6915 23.9063V7.26013L11.8035 0.37207Z" fill="white"/>
</mask>
<g mask="url(#mask2_17057_120119)">
<path d="M12.3072 6.75684L18.6915 13.1398V7.26053L12.3072 6.75684Z" fill="url(#paint0_linear_17057_120119)"/>
</g>
<mask id="mask3_17057_120119" style="mask-type:alpha" maskUnits="userSpaceOnUse" x="0" y="0" width="19" height="26">
<path d="M11.8035 0.37207H2.04539C1.09828 0.37207 0.323372 1.14698 0.323372 2.09409V23.9063C0.323372 24.8534 1.09828 25.6283 2.04539 25.6283H16.9695C17.9166 25.6283 18.6915 24.8534 18.6915 23.9063V7.26013L11.8035 0.37207Z" fill="white"/>
</mask>
<g mask="url(#mask3_17057_120119)">
<path d="M11.8035 0.37207V5.53812C11.8035 6.48952 12.5741 7.26013 13.5255 7.26013H18.6915L11.8035 0.37207Z" fill="#87CEAC"/>
</g>
<mask id="mask4_17057_120119" style="mask-type:alpha" maskUnits="userSpaceOnUse" x="0" y="0" width="19" height="26">
<path d="M11.8035 0.37207H2.04539C1.09828 0.37207 0.323372 1.14698 0.323372 2.09409V23.9063C0.323372 24.8534 1.09828 25.6283 2.04539 25.6283H16.9695C17.9166 25.6283 18.6915 24.8534 18.6915 23.9063V7.26013L11.8035 0.37207Z" fill="white"/>
</mask>
<g mask="url(#mask4_17057_120119)">
<path d="M2.04539 0.37207C1.09828 0.37207 0.323372 1.14698 0.323372 2.09409V2.23759C0.323372 1.29048 1.09828 0.515572 2.04539 0.515572H11.8035V0.37207H2.04539Z" fill="white" fill-opacity="0.2"/>
</g>
<mask id="mask5_17057_120119" style="mask-type:alpha" maskUnits="userSpaceOnUse" x="0" y="0" width="19" height="26">
<path d="M11.8035 0.37207H2.04539C1.09828 0.37207 0.323372 1.14698 0.323372 2.09409V23.9063C0.323372 24.8534 1.09828 25.6283 2.04539 25.6283H16.9695C17.9166 25.6283 18.6915 24.8534 18.6915 23.9063V7.26013L11.8035 0.37207Z" fill="white"/>
</mask>
<g mask="url(#mask5_17057_120119)">
<path d="M16.9695 25.4847H2.04539C1.09828 25.4847 0.323376 24.7098 0.323376 23.7627V23.9062C0.323376 24.8533 1.09828 25.6282 2.04539 25.6282H16.9695C17.9166 25.6282 18.6915 24.8533 18.6915 23.9062V23.7627C18.6915 24.7098 17.9166 25.4847 16.9695 25.4847Z" fill="#263238" fill-opacity="0.2"/>
</g>
<mask id="mask6_17057_120119" style="mask-type:alpha" maskUnits="userSpaceOnUse" x="0" y="0" width="19" height="26">
<path d="M11.8035 0.37207H2.04539C1.09828 0.37207 0.323372 1.14698 0.323372 2.09409V23.9063C0.323372 24.8534 1.09828 25.6283 2.04539 25.6283H16.9695C17.9166 25.6283 18.6915 24.8534 18.6915 23.9063V7.26013L11.8035 0.37207Z" fill="white"/>
</mask>
<g mask="url(#mask6_17057_120119)">
<path d="M13.5255 7.26009C12.5741 7.26009 11.8035 6.48948 11.8035 5.53809V5.68158C11.8035 6.633 12.5741 7.40359 13.5255 7.40359H18.6915V7.26009H13.5255Z" fill="#263238" fill-opacity="0.1"/>
</g>
<path d="M11.8035 0.37207H2.04539C1.09828 0.37207 0.323372 1.14698 0.323372 2.09409V23.9063C0.323372 24.8534 1.09828 25.6283 2.04539 25.6283H16.9695C17.9166 25.6283 18.6915 24.8534 18.6915 23.9063V7.26013L11.8035 0.37207Z" fill="url(#paint1_radial_17057_120119)"/>
<defs>
<linearGradient id="paint0_linear_17057_120119" x1="15.4997" y1="7.30489" x2="15.4997" y2="13.1407" gradientUnits="userSpaceOnUse">
<stop stop-color="#263238" stop-opacity="0.2"/>
<stop offset="1" stop-color="#263238" stop-opacity="0.02"/>
</linearGradient>
<radialGradient id="paint1_radial_17057_120119" cx="0" cy="0" r="1" gradientUnits="userSpaceOnUse" gradientTransform="translate(0.905285 0.87409) scale(29.6184 29.6184)">
<stop stop-color="white" stop-opacity="0.1"/>
<stop offset="1" stop-color="white" stop-opacity="0"/>
</radialGradient>
</defs>
</svg>
