<svg width="28" height="28" viewBox="0 0 28 28" fill="none" xmlns="http://www.w3.org/2000/svg">
<rect width="28" height="28" rx="10" fill="currentColor"/>
<path d="M20.9943 14.164C20.9943 13.6831 20.9517 13.2266 20.8787 12.7822H14.0004V15.5274H17.9387C17.7622 16.4283 17.2448 17.1892 16.4778 17.7066V19.5327H18.8274C20.203 18.2605 20.9943 16.3857 20.9943 14.164Z" fill="white"/>
<path d="M13.9986 21.304C15.9708 21.304 17.6204 20.6466 18.8256 19.5327L16.476 17.7066C15.8186 18.1449 14.9847 18.4127 13.9986 18.4127C12.0934 18.4127 10.4804 17.1283 9.9021 15.3936H7.47949V17.2744C8.67862 19.6605 11.1438 21.304 13.9986 21.304Z" fill="white"/>
<path d="M9.90546 15.3933C9.75328 14.955 9.67415 14.4863 9.67415 13.9994C9.67415 13.5124 9.75937 13.0437 9.90546 12.6055V10.7246H7.48285C6.98372 11.7107 6.69763 12.8185 6.69763 13.9994C6.69763 15.1803 6.98372 16.2881 7.48285 17.2742L9.90546 15.3933Z" fill="white"/>
<path d="M13.9986 9.58662C15.076 9.58662 16.0378 9.95792 16.7986 10.6823L18.8804 8.60053C17.6204 7.41966 15.9708 6.69531 13.9986 6.69531C11.1438 6.69531 8.67862 8.33879 7.47949 10.7249L9.9021 12.6058C10.4804 10.871 12.0934 9.58662 13.9986 9.58662Z" fill="white"/>
</svg>
