<svg width="13" height="13" viewBox="0 0 13 13" fill="none" xmlns="http://www.w3.org/2000/svg">
<path d="M7.0308 0.71959C6.89016 0.578986 6.69943 0.5 6.50055 0.5C6.30168 0.5 6.11095 0.578986 5.9703 0.71959L0.7203 5.96959C0.583681 6.11104 0.508085 6.30049 0.509794 6.49714C0.511503 6.69379 0.59038 6.8819 0.729436 7.02095C0.868492 7.16001 1.0566 7.23889 1.25325 7.2406C1.4499 7.2423 1.63935 7.16671 1.7808 7.03009L2.00055 6.81034V11.7498C2.00055 11.9488 2.07957 12.1395 2.22022 12.2802C2.36087 12.4208 2.55164 12.4998 2.75055 12.4998H4.25055C4.44946 12.4998 4.64023 12.4208 4.78088 12.2802C4.92153 12.1395 5.00055 11.9488 5.00055 11.7498V10.2498C5.00055 10.0509 5.07957 9.86016 5.22022 9.71951C5.36087 9.57886 5.55164 9.49984 5.75055 9.49984H7.25055C7.44946 9.49984 7.64023 9.57886 7.78088 9.71951C7.92153 9.86016 8.00055 10.0509 8.00055 10.2498V11.7498C8.00055 11.9488 8.07957 12.1395 8.22022 12.2802C8.36088 12.4208 8.55164 12.4998 8.75055 12.4998H10.2506C10.4495 12.4998 10.6402 12.4208 10.7809 12.2802C10.9215 12.1395 11.0006 11.9488 11.0006 11.7498V6.81034L11.2203 7.03009C11.3618 7.16671 11.5512 7.2423 11.7479 7.2406C11.9445 7.23889 12.1326 7.16001 12.2717 7.02095C12.4107 6.8819 12.4896 6.69379 12.4913 6.49714C12.493 6.30049 12.4174 6.11104 12.2808 5.96959L7.0308 0.71959Z" fill="currentColor"/>
</svg>
