<svg width="18" height="18" viewBox="0 0 18 18" fill="none" xmlns="http://www.w3.org/2000/svg">
<path d="M11.1 0C10.4925 0 10 0.492487 10 1.1V4.9C10 5.50751 10.4925 6 11.1 6H16.9C17.5075 6 18 5.50751 18 4.9V1.1C18 0.492487 17.5075 0 16.9 0H11.1ZM10 16.9C10 17.5075 10.4925 18 11.1 18H16.9C17.5075 18 18 17.5075 18 16.9V9.1C18 8.49249 17.5075 8 16.9 8H11.1C10.4925 8 10 8.49249 10 9.1V16.9ZM0 16.9C0 17.5075 0.492487 18 1.1 18H6.9C7.50751 18 8 17.5075 8 16.9V13.1C8 12.4925 7.50751 12 6.9 12H1.1C0.492487 12 0 12.4925 0 13.1V16.9ZM0 8.9C0 9.50751 0.492487 10 1.1 10H6.9C7.50751 10 8 9.50751 8 8.9V1.1C8 0.492487 7.50751 0 6.9 0H1.1C0.492487 0 0 0.492487 0 1.1V8.9Z" fill="currentColor"/>
</svg>
