<svg width="34" height="34" viewBox="0 0 34 34" fill="none" xmlns="http://www.w3.org/2000/svg">
<rect width="34" height="34" rx="10" fill="url(#paint0_linear_22330_283146)" fill-opacity="0.2"/>
<path d="M22.6718 16.2C22.4418 15.9 22.1618 15.64 21.9018 15.38C21.2318 14.78 20.4718 14.35 19.8318 13.72C18.3418 12.26 18.0118 9.85 18.9618 8C18.0118 8.23 17.1818 8.75 16.4718 9.32C13.8818 11.4 12.8618 15.07 14.0818 18.22C14.1218 18.32 14.1618 18.42 14.1618 18.55C14.1618 18.77 14.0118 18.97 13.8118 19.05C13.5818 19.15 13.3418 19.09 13.1518 18.93C13.0918 18.88 13.0518 18.83 13.0118 18.76C11.8818 17.33 11.7018 15.28 12.4618 13.64C10.7918 15 9.88182 17.3 10.0118 19.47C10.0718 19.97 10.1318 20.47 10.3018 20.97C10.4418 21.57 10.7118 22.17 11.0118 22.7C12.0918 24.43 13.9618 25.67 15.9718 25.92C18.1118 26.19 20.4018 25.8 22.0418 24.32C23.8718 22.66 24.5118 20 23.5718 17.72L23.4418 17.46C23.2318 17 22.6718 16.2 22.6718 16.2Z" fill="#FFD338"/>
<path d="M22.6596 16.2C22.4296 15.9 22.1496 15.64 21.8896 15.38C21.2196 14.78 20.4596 14.35 19.8196 13.72C18.3296 12.26 17.9996 9.85 18.9496 8C17.9996 8.23 17.1696 8.75 16.4596 9.32C13.8696 11.4 12.8496 15.07 14.0696 18.22C14.1096 18.32 14.1496 18.42 14.1496 18.55C14.1496 18.77 13.9996 18.97 13.7996 19.05C13.5696 19.15 13.3296 19.09 13.1396 18.93C13.0796 18.88 13.0396 18.83 12.9996 18.76C11.8696 17.33 11.6896 15.28 12.4496 13.64C10.7796 15 9.86956 17.3 9.99956 19.47C10.0596 19.97 10.1196 20.47 10.2896 20.97C10.4296 21.57 10.6996 22.17 10.9996 22.7C12.0796 24.43 13.9496 25.67 15.9596 25.92C18.0996 26.19 20.3896 25.8 22.0296 24.32C23.8596 22.66 24.4996 20 23.5596 17.72L23.4296 17.46C23.2196 17 22.6596 16.2 22.6596 16.2ZM19.4996 22.5C19.2196 22.74 18.7596 23 18.3996 23.1C17.2796 23.5 15.55 22.94 14.89 22.28C16.08 22 16.79 21.12 17 20.23C17.17 19.43 16.85 18.77 16.72 18C16.5512 17 17.23 15.69 17.5 15C17.69 15.38 17.8989 16.828 18.3996 17.72C18.9843 18.7617 20.1096 18.44 20.3696 19.8C20.4096 19.94 20.4296 20.08 20.4296 20.23C20.4596 21.05 20.0996 21.95 19.4996 22.5Z" fill="#FF8148"/>
<defs>
<linearGradient id="paint0_linear_22330_283146" x1="0" y1="0" x2="34" y2="34" gradientUnits="userSpaceOnUse">
<stop stop-color="#FFCF4F"/>
<stop offset="1" stop-color="#FF9B4A"/>
</linearGradient>
</defs>
</svg>
