<svg width="85" height="28" viewBox="0 0 85 28" fill="none" xmlns="http://www.w3.org/2000/svg">
<rect x="0.5" width="84" height="28" rx="10" fill="url(#paint0_linear_22413_128060)" fill-opacity="0.2"/>
<path d="M18.7546 13.4C18.5821 13.175 18.3721 12.98 18.1771 12.785C17.6746 12.335 17.1046 12.0125 16.6246 11.54C15.5071 10.445 15.2596 8.6375 15.9721 7.25C15.2596 7.4225 14.6371 7.8125 14.1046 8.24C12.1621 9.8 11.3971 12.5525 12.3121 14.915C12.3421 14.99 12.3721 15.065 12.3721 15.1625C12.3721 15.3275 12.2596 15.4775 12.1096 15.5375C11.9371 15.6125 11.7571 15.5675 11.6146 15.4475C11.5696 15.41 11.5396 15.3725 11.5096 15.32C10.6621 14.2475 10.5271 12.71 11.0971 11.48C9.8446 12.5 9.1621 14.225 9.2596 15.8525C9.3046 16.2275 9.3496 16.6025 9.4771 16.9775C9.5821 17.4275 9.7846 17.8775 10.0096 18.275C10.8196 19.5725 12.2221 20.5025 13.7296 20.69C15.3346 20.8925 17.0521 20.6 18.2821 19.49C19.6546 18.245 20.1346 16.25 19.4296 14.54L19.3321 14.345C19.1746 14 18.7546 13.4 18.7546 13.4Z" fill="#FFD338"/>
<path d="M18.7454 13.4C18.5729 13.175 18.3629 12.98 18.1679 12.785C17.6654 12.335 17.0954 12.0125 16.6154 11.54C15.4979 10.445 15.2504 8.6375 15.9629 7.25C15.2504 7.4225 14.6279 7.8125 14.0954 8.24C12.1529 9.8 11.3879 12.5525 12.3029 14.915C12.3329 14.99 12.3629 15.065 12.3629 15.1625C12.3629 15.3275 12.2504 15.4775 12.1004 15.5375C11.9279 15.6125 11.7479 15.5675 11.6054 15.4475C11.5604 15.41 11.5304 15.3725 11.5004 15.32C10.6529 14.2475 10.5179 12.71 11.0879 11.48C9.8354 12.5 9.1529 14.225 9.2504 15.8525C9.2954 16.2275 9.3404 16.6025 9.4679 16.9775C9.5729 17.4275 9.7754 17.8775 10.0004 18.275C10.8104 19.5725 12.2129 20.5025 13.7204 20.69C15.3254 20.8925 17.0429 20.6 18.2729 19.49C19.6454 18.245 20.1254 16.25 19.4204 14.54L19.3229 14.345C19.1654 14 18.7454 13.4 18.7454 13.4ZM16.3754 18.125C16.1654 18.305 15.8204 18.5 15.5504 18.575C14.7104 18.875 13.4132 18.455 12.9182 17.96C13.8107 17.75 14.3432 17.09 14.5007 16.4225C14.6282 15.8225 14.3882 15.3275 14.2907 14.75C14.1641 14 14.6732 13.0175 14.8757 12.5C15.0182 12.785 15.1749 13.871 15.5504 14.54C15.989 15.3212 16.8329 15.08 17.0279 16.1C17.0579 16.205 17.0729 16.31 17.0729 16.4225C17.0954 17.0375 16.8254 17.7125 16.3754 18.125Z" fill="#FF8148"/>
<path d="M35.3867 19H33.9805V15.1387H30.0312V19H28.6309V10.4336H30.0312V13.9375H33.9805V10.4336H35.3867V19ZM43.2441 15.748C43.2441 16.8066 42.9727 17.6328 42.4297 18.2266C41.8867 18.8203 41.1309 19.1172 40.1621 19.1172C39.5566 19.1172 39.0215 18.9805 38.5566 18.707C38.0918 18.4336 37.7344 18.041 37.4844 17.5293C37.2344 17.0176 37.1094 16.4238 37.1094 15.748C37.1094 14.6973 37.3789 13.877 37.918 13.2871C38.457 12.6973 39.2168 12.4023 40.1973 12.4023C41.1348 12.4023 41.877 12.7051 42.4238 13.3105C42.9707 13.9121 43.2441 14.7246 43.2441 15.748ZM38.5273 15.748C38.5273 17.2441 39.0801 17.9922 40.1855 17.9922C41.2793 17.9922 41.8262 17.2441 41.8262 15.748C41.8262 14.2676 41.2754 13.5273 40.1738 13.5273C39.5957 13.5273 39.1758 13.7188 38.9141 14.1016C38.6562 14.4844 38.5273 15.0332 38.5273 15.748ZM47.2461 18.0039C47.582 18.0039 47.918 17.9512 48.2539 17.8457V18.8828C48.1016 18.9492 47.9043 19.0039 47.6621 19.0469C47.4238 19.0938 47.1758 19.1172 46.918 19.1172C45.6133 19.1172 44.9609 18.4297 44.9609 17.0547V13.5625H44.0762V12.9531L45.0254 12.4492L45.4941 11.0781H46.3438V12.5195H48.1895V13.5625H46.3438V17.0312C46.3438 17.3633 46.4258 17.6094 46.5898 17.7695C46.7578 17.9258 46.9766 18.0039 47.2461 18.0039ZM54.0488 19H52.6719V9.88281H54.0488V19ZM58.8535 19.1172C57.8457 19.1172 57.0566 18.8242 56.4863 18.2383C55.9199 17.6484 55.6367 16.8379 55.6367 15.8066C55.6367 14.748 55.9004 13.916 56.4277 13.3105C56.9551 12.7051 57.6797 12.4023 58.6016 12.4023C59.457 12.4023 60.1328 12.6621 60.6289 13.1816C61.125 13.7012 61.373 14.416 61.373 15.3262V16.0703H57.0547C57.0742 16.6992 57.2441 17.1836 57.5645 17.5234C57.8848 17.8594 58.3359 18.0273 58.918 18.0273C59.3008 18.0273 59.6562 17.9922 59.9844 17.9219C60.3164 17.8477 60.6719 17.7266 61.0508 17.5586V18.6777C60.7148 18.8379 60.375 18.9512 60.0312 19.0176C59.6875 19.084 59.2949 19.1172 58.8535 19.1172ZM58.6016 13.4453C58.1641 13.4453 57.8125 13.584 57.5469 13.8613C57.2852 14.1387 57.1289 14.543 57.0781 15.0742H60.0195C60.0117 14.5391 59.8828 14.1348 59.6328 13.8613C59.3828 13.584 59.0391 13.4453 58.6016 13.4453ZM66.9922 19L66.7168 18.0977H66.6699C66.3574 18.4922 66.043 18.7617 65.7266 18.9062C65.4102 19.0469 65.0039 19.1172 64.5078 19.1172C63.8711 19.1172 63.373 18.9453 63.0137 18.6016C62.6582 18.2578 62.4805 17.7715 62.4805 17.1426C62.4805 16.4746 62.7285 15.9707 63.2246 15.6309C63.7207 15.291 64.4766 15.1055 65.4922 15.0742L66.6113 15.0391V14.6934C66.6113 14.2793 66.5137 13.9707 66.3184 13.7676C66.127 13.5605 65.8281 13.457 65.4219 13.457C65.0898 13.457 64.7715 13.5059 64.4668 13.6035C64.1621 13.7012 63.8691 13.8164 63.5879 13.9492L63.1426 12.9648C63.4941 12.7812 63.8789 12.6426 64.2969 12.5488C64.7148 12.4512 65.1094 12.4023 65.4805 12.4023C66.3047 12.4023 66.9258 12.582 67.3438 12.9414C67.7656 13.3008 67.9766 13.8652 67.9766 14.6348V19H66.9922ZM64.9414 18.0625C65.4414 18.0625 65.8418 17.9238 66.1426 17.6465C66.4473 17.3652 66.5996 16.9727 66.5996 16.4688V15.9062L65.7676 15.9414C65.1191 15.9648 64.6465 16.0742 64.3496 16.2695C64.0566 16.4609 63.9102 16.7559 63.9102 17.1543C63.9102 17.4434 63.9961 17.668 64.168 17.8281C64.3398 17.9844 64.5977 18.0625 64.9414 18.0625ZM72.084 19.1172C71.2754 19.1172 70.6445 18.8242 70.1914 18.2383C69.7383 17.6523 69.5117 16.8301 69.5117 15.7715C69.5117 14.709 69.7402 13.8828 70.1973 13.293C70.6582 12.6992 71.2949 12.4023 72.1074 12.4023C72.959 12.4023 73.6074 12.7168 74.0527 13.3457H74.123C74.0566 12.8809 74.0234 12.5137 74.0234 12.2441V9.88281H75.4062V19H74.3281L74.0879 18.1504H74.0234C73.582 18.7949 72.9355 19.1172 72.084 19.1172ZM72.4531 18.0039C73.0195 18.0039 73.4316 17.8457 73.6895 17.5293C73.9473 17.209 74.0801 16.6914 74.0879 15.9766V15.7832C74.0879 14.9668 73.9551 14.3867 73.6895 14.043C73.4238 13.6992 73.0078 13.5273 72.4414 13.5273C71.957 13.5273 71.584 13.7246 71.3223 14.1191C71.0605 14.5098 70.9297 15.0684 70.9297 15.7949C70.9297 16.5137 71.0566 17.0625 71.3105 17.4414C71.5645 17.8164 71.9453 18.0039 72.4531 18.0039Z" fill="#FF8148"/>
<defs>
<linearGradient id="paint0_linear_22413_128060" x1="0.5" y1="0" x2="17.3" y2="50.4" gradientUnits="userSpaceOnUse">
<stop stop-color="#FFCF4F"/>
<stop offset="1" stop-color="#FF9B4A"/>
</linearGradient>
</defs>
</svg>