<svg width="40" height="40" viewBox="0 0 40 40" fill="none" xmlns="http://www.w3.org/2000/svg">
<rect width="40" height="40" rx="10" fill="currentColor"/>
<g clip-path="url(#clip0_14053_101137)">
<path d="M25.5197 16.4485V13.8649C25.8611 13.7053 26.1502 13.4521 26.3533 13.1346C26.5564 12.8171 26.6651 12.4485 26.6668 12.0716V12.0123C26.6668 10.9135 25.7761 10.0227 24.6773 10.0227H24.6179C23.5191 10.0227 22.6283 10.9135 22.6283 12.0123V12.0716C22.6301 12.4485 22.7388 12.8171 22.9419 13.1346C23.145 13.4521 23.4341 13.7053 23.7755 13.8649V16.4485C22.7942 16.5988 21.8701 17.0057 21.0966 17.628L14.0108 12.1089C14.0613 11.9265 14.0877 11.7389 14.0907 11.5507C14.0915 11.1073 13.9609 10.6736 13.7152 10.3044C13.4695 9.93527 13.1199 9.64728 12.7106 9.47686C12.3012 9.30644 11.8505 9.26125 11.4155 9.34702C10.9804 9.43278 10.5806 9.64564 10.2666 9.95868C9.9525 10.2717 9.73835 10.6708 9.65117 11.1056C9.564 11.5404 9.60772 11.9912 9.77681 12.4011C9.9459 12.811 10.2328 13.1616 10.6011 13.4084C10.9695 13.6553 11.4027 13.7874 11.8461 13.7879C12.2341 13.7861 12.6147 13.6825 12.9501 13.4876L19.9275 18.9171C18.6447 20.855 18.6791 23.3806 20.014 25.283L17.8918 27.4058C17.7202 27.3509 17.5415 27.3218 17.3614 27.3193C16.3451 27.3202 15.5217 28.1444 15.522 29.1608C15.5222 30.177 16.3461 31.0008 17.3624 31.0011C18.3787 31.0014 19.2029 30.178 19.2038 29.1617C19.2014 28.9816 19.1723 28.8029 19.1173 28.6314L21.2167 26.5312C23.0926 27.9753 25.669 28.0997 27.6753 26.8431C29.6816 25.5864 30.694 23.2139 30.2133 20.896C29.7326 18.5779 27.8602 16.8038 25.5197 16.4484V16.4485ZM24.6495 24.9459C24.2616 24.9564 23.8756 24.889 23.5142 24.7478C23.1528 24.6066 22.8234 24.3944 22.5454 24.1237C22.2674 23.8531 22.0464 23.5295 21.8955 23.172C21.7446 22.8146 21.6669 22.4305 21.6669 22.0425C21.6669 21.6545 21.7446 21.2705 21.8955 20.913C22.0464 20.5555 22.2674 20.2319 22.5454 19.9613C22.8234 19.6907 23.1528 19.4785 23.5142 19.3373C23.8756 19.196 24.2616 19.1287 24.6495 19.1391C26.2125 19.1938 27.4515 20.4764 27.4524 22.0404C27.4531 23.6043 26.2154 24.8881 24.6524 24.9444" fill="white"/>
</g>
<defs>
<clipPath id="clip0_14053_101137">
<rect width="22" height="22" fill="white" transform="translate(9 9)"/>
</clipPath>
</defs>
</svg>
