<svg width="46" height="48" viewBox="0 0 46 48" fill="none" xmlns="http://www.w3.org/2000/svg">
<path d="M35.0439 16.2484V10.6113C35.7889 10.2632 36.4196 9.71059 36.8627 9.01791C37.3058 8.32523 37.543 7.52095 37.5468 6.69868V6.56934C37.5468 4.17189 35.6033 2.22837 33.2061 2.22837H33.0765C30.6791 2.22837 28.7356 4.17189 28.7356 6.56934V6.69868C28.7393 7.52095 28.9766 8.32523 29.4197 9.01791C29.8628 9.71059 30.4935 10.2632 31.2385 10.6113V16.2484C29.0975 16.5762 27.0811 17.464 25.3936 18.8218L9.93366 6.78007C10.0439 6.38212 10.1014 5.9729 10.1079 5.56214C10.1098 4.5947 9.82471 3.64842 9.28873 2.84302C8.75275 2.03761 7.98994 1.40926 7.0968 1.03743C6.20366 0.66561 5.22031 0.567025 4.27113 0.754147C3.32195 0.94127 2.44959 1.40569 1.76439 2.08867C1.0792 2.77165 0.611945 3.6425 0.421746 4.59107C0.231546 5.53963 0.326941 6.5233 0.695866 7.41764C1.06479 8.31199 1.69067 9.07683 2.49433 9.61542C3.298 10.154 4.24334 10.4421 5.21079 10.4434C6.05713 10.4394 6.88761 10.2135 7.61932 9.78811L22.8429 21.6344C20.0441 25.8624 20.119 31.3728 23.0315 35.5235L18.4012 40.155C18.0268 40.0354 17.6371 39.9718 17.2441 39.9665C15.0266 39.9684 13.2302 41.7667 13.2308 43.9842C13.2313 46.2015 15.0289 47.9989 17.2462 47.9994C19.4637 48 21.262 46.2036 21.2639 43.9861C21.2587 43.5932 21.1951 43.2033 21.0751 42.8291L25.6557 38.2469C29.7485 41.3976 35.3697 41.6691 39.7471 38.9274C44.1244 36.1855 46.3335 31.0092 45.2846 25.9518C44.2358 20.8942 40.1506 17.0234 35.0439 16.2482V16.2484ZM33.1453 34.7881C32.2991 34.8109 31.4569 34.6639 30.6684 34.3558C29.8799 34.0477 29.1612 33.5847 28.5546 32.9942C27.948 32.4037 27.4659 31.6977 27.1367 30.9178C26.8074 30.1379 26.6378 29.2999 26.6378 28.4534C26.6378 27.6069 26.8074 26.7689 27.1367 25.989C27.4659 25.2091 27.948 24.5031 28.5546 23.9126C29.1612 23.3221 29.8799 22.8591 30.6684 22.551C31.4569 22.2429 32.2991 22.0959 33.1453 22.1187C36.5555 22.2381 39.2588 25.0363 39.2607 28.4488C39.2623 31.8609 36.5618 34.662 33.1516 34.7849" fill="#FF7A59"/>
</svg>
