<svg width="18" height="18" viewBox="0 0 18 18" fill="none" xmlns="http://www.w3.org/2000/svg">
<g opacity="0.48">
<path fill-rule="evenodd" clip-rule="evenodd" d="M16.1998 8.9998C16.1998 12.9763 12.9763 16.1998 8.9998 16.1998C5.02335 16.1998 1.7998 12.9763 1.7998 8.9998C1.7998 5.02335 5.02335 1.7998 8.9998 1.7998C12.9763 1.7998 16.1998 5.02335 16.1998 8.9998ZM9.89981 5.3998C9.89981 5.89686 9.49686 6.2998 8.9998 6.2998C8.50275 6.2998 8.0998 5.89686 8.0998 5.3998C8.0998 4.90275 8.50275 4.4998 8.9998 4.4998C9.49686 4.4998 9.89981 4.90275 9.89981 5.3998ZM8.0998 8.0998C7.60275 8.0998 7.1998 8.50275 7.1998 8.9998C7.1998 9.49686 7.60275 9.89981 8.0998 9.89981V12.5998C8.0998 13.0969 8.50275 13.4998 8.9998 13.4998H9.89981C10.3969 13.4998 10.7998 13.0969 10.7998 12.5998C10.7998 12.1027 10.3969 11.6998 9.89981 11.6998V8.9998C9.89981 8.50275 9.49686 8.0998 8.9998 8.0998H8.0998Z" fill="currentColor"/>
</g>
</svg>
