<svg width="19" height="16" viewBox="0 0 19 16" fill="none" xmlns="http://www.w3.org/2000/svg">
<path d="M12.6508 3.29844C12.6508 4.13387 12.3189 4.93508 11.7282 5.52582C11.1374 6.11656 10.3362 6.44844 9.50078 6.44844C8.66535 6.44844 7.86414 6.11656 7.2734 5.52582C6.68266 4.93508 6.35078 4.13387 6.35078 3.29844C6.35078 2.463 6.68266 1.66179 7.2734 1.07105C7.86414 0.480312 8.66535 0.148438 9.50078 0.148438C10.3362 0.148438 11.1374 0.480312 11.7282 1.07105C12.3189 1.66179 12.6508 2.463 12.6508 3.29844ZM17.9008 5.39844C17.9008 5.95539 17.6795 6.48953 17.2857 6.88336C16.8919 7.27719 16.3577 7.49844 15.8008 7.49844C15.2438 7.49844 14.7097 7.27719 14.3159 6.88336C13.922 6.48953 13.7008 5.95539 13.7008 5.39844C13.7008 4.84148 13.922 4.30734 14.3159 3.91351C14.7097 3.51969 15.2438 3.29844 15.8008 3.29844C16.3577 3.29844 16.8919 3.51969 17.2857 3.91351C17.6795 4.30734 17.9008 4.84148 17.9008 5.39844ZM13.7008 12.7484C13.7008 11.6345 13.2583 10.5662 12.4706 9.77859C11.683 8.99093 10.6147 8.54844 9.50078 8.54844C8.38687 8.54844 7.31859 8.99093 6.53093 9.77859C5.74328 10.5662 5.30078 11.6345 5.30078 12.7484V15.8984H13.7008V12.7484ZM5.30078 5.39844C5.30078 5.95539 5.07953 6.48953 4.68571 6.88336C4.29188 7.27719 3.75774 7.49844 3.20078 7.49844C2.64383 7.49844 2.10968 7.27719 1.71586 6.88336C1.32203 6.48953 1.10078 5.95539 1.10078 5.39844C1.10078 4.84148 1.32203 4.30734 1.71586 3.91351C2.10968 3.51969 2.64383 3.29844 3.20078 3.29844C3.75774 3.29844 4.29188 3.51969 4.68571 3.91351C5.07953 4.30734 5.30078 4.84148 5.30078 5.39844ZM15.8008 15.8984V12.7484C15.8023 11.6809 15.5312 10.6306 15.0133 9.69713C15.4788 9.578 15.9654 9.56677 16.4359 9.66429C16.9064 9.76181 17.3484 9.96551 17.7283 10.2598C18.1081 10.5542 18.4156 10.9314 18.6275 11.3627C18.8394 11.7939 18.95 12.2679 18.9508 12.7484V15.8984H15.8008ZM3.98828 9.69713C3.47037 10.6306 3.19931 11.6809 3.20078 12.7484V15.8984H0.0507815V12.7484C0.0505792 12.2676 0.160468 11.7931 0.372026 11.3612C0.583584 10.9294 0.891195 10.5518 1.27128 10.2572C1.65137 9.96268 2.09385 9.75906 2.56481 9.66198C3.03576 9.56489 3.52269 9.57692 3.98828 9.69713Z" fill="url(#paint0_linear_4904_108532)"/>
<defs>
<linearGradient id="paint0_linear_4904_108532" x1="-2.78422" y1="0.148437" x2="25.0396" y2="10.0489" gradientUnits="userSpaceOnUse">
<stop stop-color="#A282E8"/>
<stop offset="0.484375" stop-color="#7E8EE7"/>
<stop offset="1" stop-color="#4499E9"/>
</linearGradient>
</defs>
</svg>
