<svg width="24" height="19" viewBox="0 0 24 19" fill="none" xmlns="http://www.w3.org/2000/svg">
<path d="M15.75 4C15.75 4.99456 15.3549 5.94839 14.6517 6.65165C13.9484 7.35491 12.9946 7.75 12 7.75C11.0054 7.75 10.0516 7.35491 9.34835 6.65165C8.64509 5.94839 8.25 4.99456 8.25 4C8.25 3.00544 8.64509 2.05161 9.34835 1.34835C10.0516 0.645088 11.0054 0.25 12 0.25C12.9946 0.25 13.9484 0.645088 14.6517 1.34835C15.3549 2.05161 15.75 3.00544 15.75 4ZM22 6.5C22 7.16304 21.7366 7.79892 21.2678 8.26777C20.7989 8.73661 20.163 9 19.5 9C18.837 9 18.2011 8.73661 17.7322 8.26777C17.2634 7.79892 17 7.16304 17 6.5C17 5.83696 17.2634 5.20107 17.7322 4.73223C18.2011 4.26339 18.837 4 19.5 4C20.163 4 20.7989 4.26339 21.2678 4.73223C21.7366 5.20107 22 5.83696 22 6.5ZM17 15.25C17 13.9239 16.4732 12.6521 15.5355 11.7145C14.5979 10.7768 13.3261 10.25 12 10.25C10.6739 10.25 9.40215 10.7768 8.46447 11.7145C7.52678 12.6521 7 13.9239 7 15.25V19H17V15.25ZM7 6.5C7 7.16304 6.73661 7.79892 6.26777 8.26777C5.79893 8.73661 5.16304 9 4.5 9C3.83696 9 3.20107 8.73661 2.73223 8.26777C2.26339 7.79892 2 7.16304 2 6.5C2 5.83696 2.26339 5.20107 2.73223 4.73223C3.20107 4.26339 3.83696 4 4.5 4C5.16304 4 5.79893 4.26339 6.26777 4.73223C6.73661 5.20107 7 5.83696 7 6.5ZM19.5 19V15.25C19.5018 13.9791 19.1791 12.7288 18.5625 11.6175C19.1167 11.4757 19.6959 11.4623 20.2561 11.5784C20.8162 11.6945 21.3424 11.937 21.7946 12.2874C22.2468 12.6378 22.6129 13.0868 22.8652 13.6003C23.1174 14.1137 23.249 14.678 23.25 15.25V19H19.5ZM5.4375 11.6175C4.82093 12.7288 4.49825 13.9791 4.5 15.25V19H0.75V15.25C0.749759 14.6775 0.880579 14.1126 1.13243 13.5986C1.38429 13.0845 1.75049 12.6349 2.20298 12.2843C2.65547 11.9336 3.18223 11.6912 3.74289 11.5756C4.30355 11.4601 4.88323 11.4744 5.4375 11.6175Z" fill="currentColor"/>
</svg>
