<svg width="23" height="24" viewBox="0 0 23 24" fill="none" xmlns="http://www.w3.org/2000/svg">
<path d="M8.7037 21.28C8.86285 21.3433 9.02199 21.375 9.18113 21.375C9.43576 21.375 9.69039 21.28 9.91319 21.1216L13.0324 18.4611H14.1442C14.1442 17.4503 14.1442 16.4189 14.1442 15.4999C14.1442 14.9476 14.5917 14.5 15.144 14.5C16.5869 14.5 18.8461 14.5 20.625 14.5C20.625 13.3598 20.625 7.12247 20.625 7.12247C20.625 4.65203 17.8067 2.625 15.3241 2.625H7.17593C4.69329 2.625 1.875 4.65203 1.875 7.12247C1.875 7.12247 1.875 9.47409 1.875 10.6196C1.875 11.765 1.875 13.9637 1.875 13.9637C1.875 16.4024 4.69329 18.4611 7.17593 18.4611H8.06713V20.2981C8.06713 20.7416 8.32176 21.1216 8.7037 21.28Z" fill="white"/>
<path d="M21.6667 15.75C21.8877 15.75 22.0996 15.8378 22.2559 15.9941C22.4122 16.1504 22.5 16.3623 22.5 16.5833V22.4167C22.5 22.6377 22.4122 22.8496 22.2559 23.0059C22.0996 23.1622 21.8877 23.25 21.6667 23.25H15.8333C15.6123 23.25 15.4004 23.1622 15.2441 23.0059C15.0878 22.8496 15 22.6377 15 22.4167V16.5833C15 16.3623 15.0878 16.1504 15.2441 15.9941C15.4004 15.8378 15.6123 15.75 15.8333 15.75H21.6667ZM21.4583 22.2083V20C21.4583 19.6397 21.3152 19.2943 21.0605 19.0395C20.8057 18.7848 20.4603 18.6417 20.1 18.6417C19.7458 18.6417 19.3333 18.8583 19.1333 19.1833V18.7208H17.9708V22.2083H19.1333V20.1542C19.1333 19.8333 19.3917 19.5708 19.7125 19.5708C19.8672 19.5708 20.0156 19.6323 20.125 19.7417C20.2344 19.8511 20.2958 19.9995 20.2958 20.1542V22.2083H21.4583ZM16.6167 18.0667C16.8023 18.0667 16.9804 17.9929 17.1116 17.8616C17.2429 17.7304 17.3167 17.5523 17.3167 17.3667C17.3167 16.9792 17.0042 16.6625 16.6167 16.6625C16.4299 16.6625 16.2508 16.7367 16.1187 16.8687C15.9867 17.0008 15.9125 17.1799 15.9125 17.3667C15.9125 17.7542 16.2292 18.0667 16.6167 18.0667ZM17.1958 22.2083V18.7208H16.0417V22.2083H17.1958Z" fill="white"/>
</svg>
