<svg width="18" height="18" viewBox="0 0 18 18" fill="none" xmlns="http://www.w3.org/2000/svg">
<path d="M15.322 10.8906C15.502 10.8906 15.6747 10.9622 15.802 11.0895C15.9293 11.2168 16.0009 11.3895 16.0009 11.5695V16.322C16.0009 16.502 15.9293 16.6747 15.802 16.802C15.6747 16.9293 15.502 17.0009 15.322 17.0009H10.5695C10.3895 17.0009 10.2168 16.9293 10.0895 16.802C9.96215 16.6747 9.89062 16.502 9.89062 16.322V11.5695C9.89062 11.3895 9.96215 11.2168 10.0895 11.0895C10.2168 10.9622 10.3895 10.8906 10.5695 10.8906H15.322ZM15.1522 16.1522V14.3531C15.1522 14.0596 15.0356 13.7781 14.8281 13.5706C14.6206 13.3631 14.3391 13.2465 14.0456 13.2465C13.7571 13.2465 13.421 13.423 13.2581 13.6878V13.311H12.311V16.1522H13.2581V14.4787C13.2581 14.2173 13.4685 14.0035 13.7299 14.0035C13.8559 14.0035 13.9768 14.0535 14.0659 14.1427C14.1551 14.2318 14.2051 14.3527 14.2051 14.4787V16.1522H15.1522ZM11.2077 12.778C11.359 12.778 11.504 12.7179 11.611 12.611C11.7179 12.504 11.778 12.359 11.778 12.2077C11.778 11.892 11.5234 11.634 11.2077 11.634C11.0556 11.634 10.9097 11.6945 10.8021 11.8021C10.6945 11.9097 10.634 12.0556 10.634 12.2077C10.634 12.5234 10.892 12.778 11.2077 12.778ZM11.6796 16.1522V13.311H10.7393V16.1522H11.6796Z" fill="currentColor"/>
<path fill-rule="evenodd" clip-rule="evenodd" d="M9.56849 15.3143C8.99778 15.4703 8.39703 15.5537 7.77683 15.5537C4.03409 15.5537 1 12.5196 1 8.77683C1 5.03409 4.03409 2 7.77683 2C11.5196 2 14.5537 5.03409 14.5537 8.77683C14.5537 9.39703 14.4703 9.99778 14.3143 10.5685H10.9768C10.8691 10.498 10.7503 10.4303 10.6205 10.3654C10.043 10.0766 9.34995 9.89743 8.53643 9.82537C8.30662 9.79288 8.06508 9.78766 7.81349 9.78766C7.74283 9.7889 7.67297 9.79083 7.60389 9.79345C7.50541 9.796 7.40866 9.80065 7.31375 9.80884C6.42501 9.86988 5.67459 10.0534 5.05659 10.3624C4.32597 10.7277 3.94604 11.1807 3.91682 11.736V12.0952C3.91682 12.4349 4.19213 12.7102 4.53174 12.7102H6.11342C6.12851 12.7122 6.14366 12.7131 6.15881 12.7131H7.05017H9.56849V15.3143ZM9.1822 5.4867C8.81688 5.12139 8.35903 4.93143 7.81349 4.91682C7.26796 4.93143 6.8101 5.12139 6.44478 5.4867C6.07947 5.85202 5.89925 6.30988 5.89925 6.86515C5.89925 7.42043 6.07947 7.87829 6.44478 8.2436C6.8101 8.60891 7.26796 8.78913 7.81349 8.78913C8.35903 8.78913 8.81688 8.60891 9.1822 8.2436C9.54751 7.87829 9.72773 7.42043 9.72773 6.86515C9.72773 6.30988 9.54751 5.85202 9.1822 5.4867Z" fill="currentColor"/>
</svg>
