<svg width="14" height="14" viewBox="0 0 14 14" fill="none" xmlns="http://www.w3.org/2000/svg">
<path fill-rule="evenodd" clip-rule="evenodd" d="M7 14C10.866 14 14 10.866 14 7C14 3.13401 10.866 0 7 0C3.13401 0 0 3.13401 0 7C0 10.866 3.13401 14 7 14ZM6.34386 10.7373C6.28445 10.7373 6.22503 10.7255 6.16562 10.7018C6.02303 10.6427 5.92797 10.5008 5.92797 10.3353V9.64948H5.59525C4.6684 9.64948 3.61624 8.8809 3.61624 7.97042V6.72195V5.41637C3.61624 4.49407 4.6684 3.73732 5.59525 3.73732H8.63723C9.56408 3.73732 10.6162 4.49407 10.6162 5.41637V6.72195V7.97042C10.6162 8.89272 9.56408 9.64948 8.64911 9.64948H7.78167L6.61716 10.6427C6.53398 10.7018 6.43892 10.7373 6.34386 10.7373Z" fill="currentColor"/>
</svg>
