<svg width="35" height="35" viewBox="0 0 35 35" fill="none" xmlns="http://www.w3.org/2000/svg">
<rect width="35" height="35" rx="10" fill="currentColor"/>
<path d="M24.4167 8.75C24.9029 8.75 25.3692 8.94315 25.713 9.28697C26.0568 9.63079 26.25 10.0971 26.25 10.5833V23.4167C26.25 23.9029 26.0568 24.3692 25.713 24.713C25.3692 25.0568 24.9029 25.25 24.4167 25.25H11.5833C11.0971 25.25 10.6308 25.0568 10.287 24.713C9.94315 24.3692 9.75 23.9029 9.75 23.4167V10.5833C9.75 10.0971 9.94315 9.63079 10.287 9.28697C10.6308 8.94315 11.0971 8.75 11.5833 8.75H24.4167ZM23.9583 22.9583V18.1C23.9583 17.3074 23.6435 16.5474 23.0831 15.9869C22.5226 15.4265 21.7626 15.1117 20.97 15.1117C20.1908 15.1117 19.2833 15.5883 18.8433 16.3033V15.2858H16.2858V22.9583H18.8433V18.4392C18.8433 17.7333 19.4117 17.1558 20.1175 17.1558C20.4579 17.1558 20.7843 17.291 21.025 17.5317C21.2656 17.7724 21.4008 18.0988 21.4008 18.4392V22.9583H23.9583ZM13.3067 13.8467C13.7151 13.8467 14.1068 13.6844 14.3956 13.3956C14.6844 13.1068 14.8467 12.7151 14.8467 12.3067C14.8467 11.4542 14.1592 10.7575 13.3067 10.7575C12.8958 10.7575 12.5018 10.9207 12.2112 11.2112C11.9207 11.5018 11.7575 11.8958 11.7575 12.3067C11.7575 13.1592 12.4542 13.8467 13.3067 13.8467ZM14.5808 22.9583V15.2858H12.0417V22.9583H14.5808Z" fill="#FAFEFF"/>
</svg>
