<svg width="16" height="16" viewBox="0 0 16 16" fill="none" xmlns="http://www.w3.org/2000/svg">
<path fill-rule="evenodd" clip-rule="evenodd" d="M8 16C12.4183 16 16 12.4183 16 8C16 3.58172 12.4183 0 8 0C3.58172 0 0 3.58172 0 8C0 12.4183 3.58172 16 8 16ZM7.08211 6.94822C7.36216 6.66817 7.742 6.51083 8.13805 6.51083C8.53411 6.51083 8.91395 6.66817 9.194 6.94822C9.47406 7.22827 9.63139 7.60811 9.63139 8.00417C9.63139 8.40022 9.47406 8.78006 9.194 9.06011C8.91395 9.34017 8.53411 9.4975 8.13805 9.4975C7.742 9.4975 7.36216 9.34017 7.08211 9.06011C6.80205 8.78006 6.64472 8.40022 6.64472 8.00417C6.64472 7.60811 6.80205 7.22827 7.08211 6.94822ZM6.37814 9.76408C6.8449 10.2308 7.47796 10.4931 8.13805 10.4931C8.79815 10.4931 9.43121 10.2308 9.89797 9.76408C10.3647 9.29732 10.6269 8.66426 10.6269 8.00417C10.6269 7.34407 10.3647 6.71101 9.89797 6.24426C9.43121 5.7775 8.79815 5.51528 8.13805 5.51528C7.47796 5.51528 6.8449 5.7775 6.37814 6.24426C5.91139 6.71101 5.64917 7.34407 5.64917 8.00417C5.64917 8.66426 5.91139 9.29732 6.37814 9.76408ZM2.6625 8.00417C3.52366 5.81892 5.64917 4.27083 8.13805 4.27083C10.6269 4.27083 12.7525 5.81892 13.6136 8.00417C12.7525 10.1894 10.6269 11.7375 8.13805 11.7375C5.64917 11.7375 3.52366 10.1894 2.6625 8.00417Z" fill="currentColor"/>
</svg>
