<svg width="16" height="16" viewBox="0 0 16 16" fill="none" xmlns="http://www.w3.org/2000/svg">
<path fill-rule="evenodd" clip-rule="evenodd" d="M8 16C12.4183 16 16 12.4183 16 8C16 3.58172 12.4183 0 8 0C3.58172 0 0 3.58172 0 8C0 12.4183 3.58172 16 8 16ZM11.3503 9.87017C10.6722 9.5311 9.859 9.32 8.90513 9.23406C8.6296 9.19388 8.33969 9.1875 8.0375 9.1875C7.93263 9.18934 7.82922 9.19246 7.72729 9.19688C7.6473 9.19962 7.5683 9.20369 7.49032 9.20965C6.42246 9.27871 5.52243 9.49628 4.783 9.866C3.9205 10.2972 3.472 10.832 3.4375 11.4875V12.0226C3.4375 12.3622 3.71281 12.6375 4.05243 12.6375H6.02476C6.04423 12.6403 6.06378 12.6417 6.08333 12.6417H7.13558H12.0809C12.4205 12.6417 12.6958 12.3664 12.6958 12.0267V11.4917C12.6613 10.8362 12.2128 10.3014 11.3503 9.87017ZM8.0375 3.4375C8.6815 3.45475 9.222 3.679 9.65325 4.11025C10.0845 4.5415 10.2973 5.082 10.2973 5.7375C10.2973 6.393 10.0845 6.9335 9.65325 7.36475C9.222 7.796 8.6815 8.00875 8.0375 8.00875C7.3935 8.00875 6.853 7.796 6.42175 7.36475C5.9905 6.9335 5.77775 6.393 5.77775 5.7375C5.77775 5.082 5.9905 4.5415 6.42175 4.11025C6.853 3.679 7.3935 3.45475 8.0375 3.4375Z" fill="currentColor"/>
</svg>
