<svg width="14" height="14" viewBox="0 0 14 14" fill="none" xmlns="http://www.w3.org/2000/svg">
<path fill-rule="evenodd" clip-rule="evenodd" d="M7 14C10.866 14 14 10.866 14 7C14 3.13401 10.866 0 7 0C3.13401 0 0 3.13401 0 7C0 10.866 3.13401 14 7 14ZM10.7358 5.65242C11.1465 5.65242 11.4825 5.98469 11.4825 6.39909V7.14576C11.4825 7.24282 11.4638 7.33242 11.4302 7.41829L10.3027 10.0503C10.1907 10.3191 9.92568 10.5058 9.61581 10.5058H6.25581C6.05778 10.5058 5.86786 10.4271 5.72784 10.2871C5.58781 10.147 5.50914 9.95712 5.50914 9.75909V6.02576C5.50914 5.82042 5.59128 5.63376 5.72941 5.49562L8.18594 3.03909L8.58168 3.43109C8.68248 3.53189 8.74594 3.67376 8.74594 3.82682C8.74594 3.86789 8.74221 3.90896 8.73474 3.94629L8.37634 5.65242H10.7358ZM4.76248 10.5058H3.26914V6.02576H4.76248V10.5058Z" fill="currentColor"/>
</svg>
