<svg width="18" height="18" viewBox="0 0 18 18" fill="none" xmlns="http://www.w3.org/2000/svg">
<path d="M15.322 10.8906C15.502 10.8906 15.6747 10.9622 15.802 11.0895C15.9293 11.2168 16.0009 11.3895 16.0009 11.5695V16.322C16.0009 16.502 15.9293 16.6747 15.802 16.802C15.6747 16.9293 15.502 17.0009 15.322 17.0009H10.5695C10.3895 17.0009 10.2168 16.9293 10.0895 16.802C9.96215 16.6747 9.89062 16.502 9.89062 16.322V11.5695C9.89062 11.3895 9.96215 11.2168 10.0895 11.0895C10.2168 10.9622 10.3895 10.8906 10.5695 10.8906H15.322ZM15.1522 16.1522V14.3531C15.1522 14.0596 15.0356 13.7781 14.8281 13.5706C14.6206 13.3631 14.3391 13.2465 14.0456 13.2465C13.7571 13.2465 13.421 13.423 13.2581 13.6878V13.311H12.311V16.1522H13.2581V14.4787C13.2581 14.2173 13.4685 14.0035 13.7299 14.0035C13.8559 14.0035 13.9768 14.0535 14.0659 14.1427C14.1551 14.2318 14.2051 14.3527 14.2051 14.4787V16.1522H15.1522ZM11.2077 12.778C11.359 12.778 11.504 12.7179 11.611 12.611C11.7179 12.504 11.778 12.359 11.778 12.2077C11.778 11.892 11.5234 11.634 11.2077 11.634C11.0556 11.634 10.9097 11.6945 10.8021 11.8021C10.6945 11.9097 10.634 12.0556 10.634 12.2077C10.634 12.5234 10.892 12.778 11.2077 12.778ZM11.6796 16.1522V13.311H10.7393V16.1522H11.6796Z" fill="currentColor"/>
<path fill-rule="evenodd" clip-rule="evenodd" d="M9.56849 15.3101C8.99725 15.4665 8.39588 15.55 7.775 15.55C4.03327 15.55 1 12.5167 1 8.775C1 5.03327 4.03327 2 7.775 2C11.5167 2 14.55 5.03327 14.55 8.775C14.55 9.39588 14.4665 9.99725 14.3101 10.5685H10.9498C11.1501 10.3198 11.275 10.0268 11.275 9.71423V8.50589V7.24227C11.275 6.34962 10.2567 5.61719 9.3596 5.61719H6.4154C5.51834 5.61719 4.5 6.34962 4.5 7.24227V8.50589V9.71423C4.5 10.5954 5.51834 11.3393 6.4154 11.3393H6.73742V12.0031C6.73742 12.1633 6.82943 12.3006 6.96744 12.3579C7.02494 12.3807 7.08245 12.3922 7.13995 12.3922C7.23196 12.3922 7.32396 12.3579 7.40447 12.3006L8.53154 11.3393H9.3711C9.44622 11.3393 9.5223 11.334 9.59863 11.3239C9.57894 11.4021 9.56849 11.4841 9.56849 11.5685V15.3101Z" fill="currentColor"/>
</svg>
