<svg width="20" height="20" viewBox="0 0 20 20" fill="none" xmlns="http://www.w3.org/2000/svg">
<path d="M15.322 10.8906C15.502 10.8906 15.6747 10.9622 15.802 11.0895C15.9293 11.2168 16.0009 11.3895 16.0009 11.5695V16.322C16.0009 16.502 15.9293 16.6747 15.802 16.802C15.6747 16.9293 15.502 17.0009 15.322 17.0009H10.5695C10.3895 17.0009 10.2168 16.9293 10.0895 16.802C9.96215 16.6747 9.89062 16.502 9.89062 16.322V11.5695C9.89062 11.3895 9.96215 11.2168 10.0895 11.0895C10.2168 10.9622 10.3895 10.8906 10.5695 10.8906H15.322ZM15.1522 16.1522V14.3531C15.1522 14.0596 15.0356 13.7781 14.8281 13.5706C14.6206 13.3631 14.3391 13.2465 14.0456 13.2465C13.7571 13.2465 13.421 13.423 13.2581 13.6878V13.311H12.311V16.1522H13.2581V14.4787C13.2581 14.2173 13.4685 14.0035 13.7299 14.0035C13.8559 14.0035 13.9768 14.0535 14.0659 14.1427C14.1551 14.2318 14.2051 14.3527 14.2051 14.4787V16.1522H15.1522ZM11.2077 12.778C11.359 12.778 11.504 12.7179 11.611 12.611C11.7179 12.504 11.778 12.359 11.778 12.2077C11.778 11.892 11.5234 11.634 11.2077 11.634C11.0556 11.634 10.9097 11.6945 10.8021 11.8021C10.6945 11.9097 10.634 12.0556 10.634 12.2077C10.634 12.5234 10.892 12.778 11.2077 12.778ZM11.6796 16.1522V13.311H10.7393V16.1522H11.6796Z" fill="currentColor"/>
<path fill-rule="evenodd" clip-rule="evenodd" d="M9.57031 15.3096C8.99853 15.4663 8.39654 15.55 7.775 15.55C4.03327 15.55 1 12.5167 1 8.775C1 5.03327 4.03327 2 7.775 2C11.5167 2 14.55 5.03327 14.55 8.775C14.55 9.39654 14.4663 9.99853 14.3096 10.5703H11.3198C11.8433 10.0727 12.2591 9.46247 12.5286 8.77853C11.7993 6.9279 9.9993 5.61686 7.89152 5.61686C5.78375 5.61686 3.9837 6.9279 3.25441 8.77853C3.9837 10.6292 5.78375 11.9402 7.89152 11.9402C8.48072 11.9402 9.04587 11.8377 9.57031 11.6497V15.3096ZM7.89152 7.51386C7.55611 7.51386 7.23444 7.6471 6.99727 7.88427C6.7601 8.12144 6.62686 8.44312 6.62686 8.77853C6.62686 9.11394 6.7601 9.43561 6.99727 9.67278C7.23444 9.90995 7.55611 10.0432 7.89152 10.0432C8.22693 10.0432 8.54861 9.90995 8.78578 9.67278C9.02295 9.43561 9.15619 9.11394 9.15619 8.77853C9.15619 8.44312 9.02295 8.12144 8.78578 7.88427C8.54861 7.6471 8.22693 7.51386 7.89152 7.51386ZM7.89152 10.8863C7.33251 10.8863 6.79638 10.6642 6.4011 10.269C6.00581 9.87367 5.78375 9.33754 5.78375 8.77853C5.78375 8.21951 6.00581 7.68339 6.4011 7.2881C6.79638 6.89282 7.33251 6.67075 7.89152 6.67075C8.45054 6.67075 8.98666 6.89282 9.38195 7.2881C9.77723 7.68339 9.9993 8.21951 9.9993 8.77853C9.9993 9.33754 9.77723 9.87367 9.38195 10.269C8.98666 10.6642 8.45054 10.8863 7.89152 10.8863Z" fill="currentColor"/>
</svg>
