<svg width="15" height="12" viewBox="0 0 15 12" fill="none" xmlns="http://www.w3.org/2000/svg">
<path d="M5.00714 0C4.78623 0 4.60714 0.179086 4.60714 0.4V2.88571C4.60714 3.10663 4.78623 3.28571 5.00714 3.28571H14.0643C14.2852 3.28571 14.4643 3.10663 14.4643 2.88571V0.4C14.4643 0.179086 14.2852 0 14.0643 0H5.00714ZM4.60714 11.1C4.60714 11.3209 4.78623 11.5 5.00714 11.5H14.0643C14.2852 11.5 14.4643 11.3209 14.4643 11.1V8.61429C14.4643 8.39337 14.2852 8.21429 14.0643 8.21429H5.00714C4.78623 8.21429 4.60714 8.39337 4.60714 8.61429V11.1ZM4.60714 6.99286C4.60714 7.21377 4.78623 7.39286 5.00714 7.39286H14.0643C14.2852 7.39286 14.4643 7.21377 14.4643 6.99286V4.50714C14.4643 4.28623 14.2852 4.10714 14.0643 4.10714H5.00714C4.78623 4.10714 4.60714 4.28623 4.60714 4.50714V6.99286ZM0.5 2.88571C0.5 3.10663 0.679086 3.28571 0.9 3.28571H3.38571C3.60663 3.28571 3.78571 3.10663 3.78571 2.88571V0.4C3.78571 0.179086 3.60663 0 3.38571 0H0.9C0.679086 0 0.5 0.179086 0.5 0.4V2.88571ZM0.5 11.1C0.5 11.3209 0.679086 11.5 0.9 11.5H3.38571C3.60663 11.5 3.78571 11.3209 3.78571 11.1V8.61429C3.78571 8.39337 3.60663 8.21429 3.38571 8.21429H0.9C0.679086 8.21429 0.5 8.39337 0.5 8.61429V11.1ZM0.5 6.99286C0.5 7.21377 0.679086 7.39286 0.9 7.39286H3.38571C3.60663 7.39286 3.78571 7.21377 3.78571 6.99286V4.50714C3.78571 4.28623 3.60663 4.10714 3.38571 4.10714H0.9C0.679086 4.10714 0.5 4.28623 0.5 4.50714V6.99286Z" fill="currentColor"/>
</svg>
