<svg width="7" height="10" viewBox="0 0 7 10" fill="none" xmlns="http://www.w3.org/2000/svg">
<path d="M3.1224 4.91154C2.83922 4.91154 2.56765 4.79905 2.36741 4.59881C2.16718 4.39858 2.05469 4.12701 2.05469 3.84383C2.05469 3.56066 2.16718 3.28908 2.36741 3.08885C2.56765 2.88861 2.83922 2.77612 3.1224 2.77612C3.40557 2.77612 3.67715 2.88861 3.87738 3.08885C4.07761 3.28908 4.1901 3.56066 4.1901 3.84383C4.1901 3.98404 4.16249 4.12289 4.10883 4.25243C4.05517 4.38197 3.97653 4.49967 3.87738 4.59881C3.77823 4.69796 3.66053 4.77661 3.53099 4.83027C3.40145 4.88392 3.26261 4.91154 3.1224 4.91154ZM3.1224 0.854248C2.32951 0.854248 1.5691 1.16922 1.00844 1.72988C0.447786 2.29053 0.132813 3.05094 0.132812 3.84383C0.132813 6.08602 3.1224 9.39591 3.1224 9.39591C3.1224 9.39591 6.11198 6.08602 6.11198 3.84383C6.11198 3.05094 5.79701 2.29053 5.23635 1.72988C4.67569 1.16922 3.91528 0.854248 3.1224 0.854248Z" fill="currentColor"/>
</svg>
