<svg width="32" height="42" viewBox="0 0 32 42" fill="none" xmlns="http://www.w3.org/2000/svg">
<path d="M16 32C17.0609 32 18.0783 31.5786 18.8284 30.8284C19.5786 30.0783 20 29.0609 20 28C20 25.78 18.2 24 16 24C14.9391 24 13.9217 24.4214 13.1716 25.1716C12.4214 25.9217 12 26.9391 12 28C12 29.0609 12.4214 30.0783 13.1716 30.8284C13.9217 31.5786 14.9391 32 16 32ZM28 14C29.0609 14 30.0783 14.4214 30.8284 15.1716C31.5786 15.9217 32 16.9391 32 18V38C32 39.0609 31.5786 40.0783 30.8284 40.8284C30.0783 41.5786 29.0609 42 28 42H4C2.93913 42 1.92172 41.5786 1.17157 40.8284C0.421427 40.0783 0 39.0609 0 38V18C0 15.78 1.8 14 4 14H6V10C6 7.34784 7.05357 4.8043 8.92893 2.92893C10.8043 1.05357 13.3478 0 16 0C17.3132 0 18.6136 0.258658 19.8268 0.761205C21.0401 1.26375 22.1425 2.00035 23.0711 2.92893C23.9997 3.85752 24.7362 4.95991 25.2388 6.17317C25.7413 7.38642 26 8.68678 26 10V14H28ZM16 4C14.4087 4 12.8826 4.63214 11.7574 5.75736C10.6321 6.88258 10 8.4087 10 10V14H22V10C22 8.4087 21.3679 6.88258 20.2426 5.75736C19.1174 4.63214 17.5913 4 16 4Z" fill="url(#paint0_linear_2870_85288)"/>
<defs>
<linearGradient id="paint0_linear_2870_85288" x1="48" y1="21" x2="7.50646" y2="-9.85222" gradientUnits="userSpaceOnUse">
<stop stop-color="#FF8888"/>
<stop offset="1" stop-color="#F05F5F"/>
</linearGradient>
</defs>
</svg>
