<svg width="42" height="43" viewBox="0 0 42 43" fill="none" xmlns="http://www.w3.org/2000/svg">
<path fill-rule="evenodd" clip-rule="evenodd" d="M20.7274 43C10.3128 43 2.13615 36.0229 0.28899 25.9092C0.266003 25.7833 0.233737 25.5934 0.192191 25.3395L10.5119 25.3397C10.5572 25.4918 10.5918 25.6052 10.6159 25.68C12.146 30.4275 16.3017 32.8824 20.7274 32.8824C25.1606 32.8824 29.3228 30.4706 30.8466 25.6878C30.871 25.6114 30.906 25.4952 30.9517 25.3395H41.2627C41.2282 25.5518 41.2015 25.7106 41.1827 25.816C39.3689 35.9801 31.1741 43 20.7274 43ZM20.7274 0C31.6207 0 40.0655 7.56362 41.3801 18.4875C41.3989 18.644 41.4238 18.8804 41.4549 19.1965H31.2866C31.2573 19.017 31.2344 18.8831 31.2179 18.7949C30.1404 13.0281 25.5974 10.1176 20.7274 10.1176C15.9132 10.1176 11.4185 12.9619 10.2753 18.5982C10.2488 18.7289 10.2131 18.9283 10.1683 19.1965H0C0.0449259 18.7527 0.0818781 18.4213 0.110857 18.2024C1.53689 7.43227 9.92919 0 20.7274 0Z" fill="url(#paint0_linear)"/>
<defs>
<linearGradient id="paint0_linear" x1="4.41185" y1="4.63641" x2="41.3458" y2="41.6491" gradientUnits="userSpaceOnUse">
<stop stop-color="currentColor"/>
<stop offset="1" stop-color="currentColor"/>
</linearGradient>
</defs>
</svg>
