<svg width="40" height="48" viewBox="0 0 40 48" fill="none" xmlns="http://www.w3.org/2000/svg">
<path d="M34.3949 11.6492C34.3949 12.5632 34.2738 13.3984 34.0519 14.155C43.4717 19.6911 38.6216 37.7016 37.2033 42.2894C37.1649 42.4165 36.947 42.3681 36.9511 42.235C36.9975 40.7117 36.7614 38.5752 35.7143 36.5193C35.7466 36.7896 35.7628 37.064 35.7628 37.3424C35.7628 41.2585 32.5892 44.432 28.6752 44.432C24.7612 44.432 21.5876 41.2585 21.5876 37.3424C21.5876 36.6161 21.6965 35.9161 21.9003 35.2563C21.8438 35.2402 21.7833 35.2261 21.7228 35.2099C21.3112 35.109 20.8815 35.0304 20.593 35.0304C20.3045 35.0304 19.8929 35.107 19.5035 35.2059C19.4309 35.224 19.3623 35.2422 19.2997 35.2604C19.5015 35.9201 19.6104 36.6182 19.6104 37.3445C19.6104 41.2605 16.4389 44.4341 12.5228 44.4341C8.90339 44.4341 5.91947 41.7205 5.48974 38.216C4.75939 41.1253 4.74123 44.2807 4.86834 47.884C4.87237 47.995 4.72913 48.0454 4.67264 47.9486C1.51722 42.471 -1.38802 31.1325 0.714244 22.7698C2.59256 15.2868 7.85831 11.6815 11.1671 10.4447C11.7683 4.57777 16.7254 0 22.7497 0C29.1816 0 34.3949 5.21531 34.3949 11.6492ZM9.48848 30.9348C10.4085 30.499 11.4374 30.2528 12.5228 30.2528C15.0629 30.2528 17.2903 31.5905 18.5411 33.5979C18.6763 33.5576 18.8579 33.5051 19.0677 33.4527C19.4833 33.3477 20.0745 33.2227 20.593 33.2227C21.1115 33.2227 21.7187 33.3477 22.1465 33.4547C22.3462 33.5031 22.5237 33.5515 22.6589 33.5919C23.9098 31.5864 26.1371 30.2508 28.6752 30.2508C28.9516 30.2508 29.2239 30.267 29.4923 30.2972C27.0531 27.4081 26.1028 23.3751 25.7578 20.8391C17.609 24.3657 12.5733 27.5958 9.48646 30.9307L9.48848 30.9348ZM33.5737 37.3384C33.5737 40.048 31.3787 42.241 28.6732 42.241C25.9677 42.241 23.7726 40.0459 23.7726 37.3384C23.7726 34.6309 25.9677 32.4358 28.6732 32.4358C31.3787 32.4358 33.5737 34.6309 33.5737 37.3384ZM17.4214 37.3384C17.4214 40.048 15.2263 42.241 12.5208 42.241C9.81532 42.241 7.62025 40.0459 7.62025 37.3384C7.62025 34.6309 9.81532 32.4358 12.5208 32.4358C15.2263 32.4358 17.4214 34.6289 17.4214 37.3384Z" fill="#151417"/>
</svg>
