<svg width="20" height="20" viewBox="0 0 20 20" fill="none" xmlns="http://www.w3.org/2000/svg">
<path fill-rule="evenodd" clip-rule="evenodd" d="M10.2514 10.5636L11.5865 11.5637L12.2971 10.8531C12.2989 10.9022 12.2998 10.9515 12.2998 11.0008C12.2998 11.266 12.4052 11.5204 12.5927 11.7079C12.7802 11.8955 13.0346 12.0008 13.2998 12.0008C13.565 12.0008 13.8194 11.8955 14.0069 11.7079C14.1945 11.5204 14.2998 11.266 14.2998 11.0008C14.2998 10.373 14.202 9.74583 14.0066 9.14359L15.5435 7.6066C16.0384 8.66243 16.2996 9.82044 16.2998 11.0008C16.3 11.558 16.145 12.1043 15.8522 12.5784C15.5593 13.0525 15.1403 13.4356 14.6419 13.6849C14.1436 13.9342 13.5856 14.0397 13.0306 13.9897C12.4757 13.9397 11.9456 13.7362 11.4998 13.4018C10.93 14.1616 10.1083 14.6939 9.18197 14.9033C8.25559 15.1128 7.28492 14.9858 6.44361 14.5451C5.60231 14.1043 4.94528 13.3786 4.59008 12.4978C4.23488 11.6169 4.2047 10.6384 4.50493 9.73738C4.80515 8.83633 5.4162 8.07149 6.22874 7.57974C7.04128 7.08798 8.00228 6.90139 8.93981 7.05335C9.33754 7.11782 9.72005 7.24143 10.0757 7.41763L8.75804 8.73525L8.69574 9.04039C8.56635 9.01426 8.43378 9.00082 8.29982 9.00082C7.76938 9.00082 7.26068 9.21153 6.8856 9.58661C6.51053 9.96168 6.29982 10.4704 6.29982 11.0008C6.29982 11.5313 6.51053 12.04 6.8856 12.415C7.26068 12.7901 7.76938 13.0008 8.29982 13.0008C8.83025 13.0008 9.33896 12.7901 9.71403 12.415C10.0891 12.04 10.2998 11.5313 10.2998 11.0008C10.2998 10.8526 10.2834 10.706 10.2514 10.5636ZM12.9797 4.5136C12.17 3.92958 11.2526 3.4983 10.272 3.24886C8.5486 2.81047 6.72825 2.95879 5.09854 3.67039C3.46884 4.38199 2.12268 5.6163 1.27274 7.17832C0.422797 8.74035 0.117527 10.541 0.405154 12.2959C0.692781 14.0508 1.55691 15.6598 2.86102 16.8688C4.16513 18.0777 5.83488 18.8177 7.60648 18.9719C9.37808 19.126 11.1505 18.6854 12.6438 17.7198C12.7577 17.6502 12.8566 17.5584 12.9345 17.45C13.0124 17.3415 13.0678 17.2186 13.0974 17.0884C13.127 16.9582 13.1303 16.8234 13.1069 16.6919C13.0836 16.5604 13.0342 16.435 12.9616 16.3229C12.889 16.2108 12.7947 16.1144 12.6842 16.0394C12.5738 15.9644 12.4494 15.9122 12.3185 15.886C12.1876 15.8598 12.0527 15.8601 11.9219 15.8869C11.7911 15.9136 11.6669 15.9663 11.5568 16.0418C10.6055 16.6563 9.49967 16.989 8.36722 17.0014C7.23476 17.0138 6.12192 16.7054 5.15734 16.112C4.19277 15.5185 3.41585 14.6642 2.9164 13.6477C2.41696 12.6313 2.21539 11.4943 2.335 10.3681C2.4546 9.24188 2.8905 8.17254 3.5923 7.28367C4.29409 6.3948 5.23312 5.72271 6.30083 5.34509C7.36854 4.96747 8.52133 4.89974 9.62591 5.14974C10.3094 5.30443 10.9572 5.57687 11.5415 5.95178L12.9797 4.5136Z" fill="currentColor"/>
<path d="M18.7207 1.69936L11.0488 9.37126" stroke="currentColor" stroke-width="2"/>
<path d="M12.3835 1.56226L18.7188 1.56226L18.7188 8.06836" stroke="currentColor" stroke-width="2"/>
</svg>
