<svg width="48" height="48" viewBox="0 0 48 48" fill="none" xmlns="http://www.w3.org/2000/svg">
<g clip-path="url(#clip0_3006_92881)">
<path fill-rule="evenodd" clip-rule="evenodd" d="M34.183 13.8168C32.2605 11.8954 29.8334 10.5574 27.1825 9.95741C24.5315 9.35742 21.7648 9.51997 19.2023 10.4263C16.6398 11.3325 14.3861 12.9456 12.7018 15.0789C11.0175 17.2121 9.97132 19.7786 9.68426 22.4814C9.39721 25.1843 9.88098 27.9132 11.0796 30.3526C12.2783 32.7921 14.1429 34.8425 16.4579 36.2668C18.7729 37.6911 21.4437 38.4311 24.1616 38.4013C26.8795 38.3715 29.5334 37.5731 31.8166 36.0984C32.0809 35.9172 32.3789 35.7907 32.6928 35.7265C33.0068 35.6623 33.3304 35.6616 33.6447 35.7245C33.9589 35.7873 34.2574 35.9125 34.5225 36.0926C34.7875 36.2727 35.0139 36.504 35.1881 36.773C35.3623 37.0419 35.4809 37.3431 35.5369 37.6586C35.5929 37.9742 35.5851 38.2977 35.514 38.6102C35.4429 38.9227 35.31 39.2178 35.123 39.478C34.9361 39.7383 34.6989 39.9585 34.4254 40.1256C30.8415 42.4431 26.5877 43.5004 22.3358 43.1305C18.084 42.7606 14.0766 40.9846 10.9467 38.0831C7.81685 35.1816 5.74295 31.3199 5.05264 27.1082C4.36234 22.8965 5.09499 18.5749 7.13485 14.826C9.1747 11.0772 12.4055 8.11483 16.3168 6.40699C20.2281 4.69915 24.5969 4.34318 28.7331 5.39532C32.8692 6.44745 36.537 8.84771 39.1568 12.2169C41.7766 15.5861 43.1992 19.7321 43.1998 24C43.2003 25.3373 42.8283 26.6484 42.1255 27.7862C41.4227 28.9239 40.4169 29.8435 39.2208 30.4418C38.0248 31.04 36.6858 31.2934 35.3538 31.1734C34.0219 31.0534 32.7497 30.5648 31.6798 29.7624C30.3122 31.586 28.3403 32.8634 26.117 33.3661C23.8937 33.8688 21.5641 33.564 19.5449 32.5062C17.5258 31.4484 15.9489 29.7067 15.0965 27.5927C14.244 25.4787 14.1715 23.1303 14.8921 20.9678C15.6126 18.8052 17.0792 16.9696 19.0292 15.7894C20.9793 14.6092 23.2857 14.1614 25.5358 14.5261C27.7859 14.8908 29.8327 16.0442 31.3102 17.78C32.7876 19.5158 33.5993 21.7206 33.5998 24C33.5998 24.6365 33.8527 25.247 34.3028 25.6971C34.7529 26.1472 35.3633 26.4 35.9998 26.4C36.6364 26.4 37.2468 26.1472 37.6969 25.6971C38.147 25.247 38.3998 24.6365 38.3998 24C38.3998 20.3112 36.9934 16.632 34.183 13.8168ZM28.7998 24C28.7998 22.727 28.2941 21.5061 27.3939 20.6059C26.4938 19.7057 25.2729 19.2 23.9998 19.2C22.7268 19.2 21.5059 19.7057 20.6057 20.6059C19.7055 21.5061 19.1998 22.727 19.1998 24C19.1998 25.2731 19.7055 26.494 20.6057 27.3941C21.5059 28.2943 22.7268 28.8 23.9998 28.8C25.2729 28.8 26.4938 28.2943 27.3939 27.3941C28.2941 26.494 28.7998 25.2731 28.7998 24Z" fill="url(#paint0_linear_3006_92881)"/>
<path d="M42.9997 41.9173C43.3091 41.9173 43.6058 41.7944 43.8246 41.5756C44.0434 41.3568 44.1663 41.0601 44.1663 40.7507C44.1663 40.1032 43.6413 39.584 42.9997 39.584C42.6903 39.584 42.3935 39.7069 42.1747 39.9257C41.9559 40.1445 41.833 40.4412 41.833 40.7507C41.833 41.0601 41.9559 41.3568 42.1747 41.5756C42.3935 41.7944 42.6903 41.9173 42.9997 41.9173ZM46.4997 36.6673C46.8091 36.6673 47.1058 36.7902 47.3246 37.009C47.5434 37.2278 47.6663 37.5246 47.6663 37.834V43.6673C47.6663 43.9767 47.5434 44.2735 47.3246 44.4923C47.1058 44.7111 46.8091 44.834 46.4997 44.834H39.4997C39.1903 44.834 38.8935 44.7111 38.6747 44.4923C38.4559 44.2735 38.333 43.9767 38.333 43.6673V37.834C38.333 37.1865 38.858 36.6673 39.4997 36.6673H40.083V35.5007C40.083 34.7271 40.3903 33.9852 40.9373 33.4383C41.4843 32.8913 42.2261 32.584 42.9997 32.584C43.3827 32.584 43.762 32.6594 44.1158 32.806C44.4697 32.9526 44.7912 33.1674 45.0621 33.4383C45.3329 33.7091 45.5477 34.0306 45.6943 34.3845C45.8409 34.7384 45.9163 35.1176 45.9163 35.5007V36.6673H46.4997ZM42.9997 33.7507C42.5355 33.7507 42.0904 33.935 41.7622 34.2632C41.434 34.5914 41.2497 35.0365 41.2497 35.5007V36.6673H44.7497V35.5007C44.7497 35.0365 44.5653 34.5914 44.2371 34.2632C43.9089 33.935 43.4638 33.7507 42.9997 33.7507Z" fill="url(#paint1_linear_3006_92881)"/>
</g>
<defs>
<linearGradient id="paint0_linear_3006_92881" x1="-0.960199" y1="4.80273" x2="57.581" y2="22.1614" gradientUnits="userSpaceOnUse">
<stop stop-color="#A282E8"/>
<stop offset="0.484375" stop-color="#7E8EE7"/>
<stop offset="1" stop-color="#4499E9"/>
</linearGradient>
<linearGradient id="paint1_linear_3006_92881" x1="36.933" y1="32.584" x2="51.6611" y2="35.9114" gradientUnits="userSpaceOnUse">
<stop stop-color="#A282E8"/>
<stop offset="0.484375" stop-color="#7E8EE7"/>
<stop offset="1" stop-color="#4499E9"/>
</linearGradient>
<clipPath id="clip0_3006_92881">
<rect width="48" height="48" fill="white"/>
</clipPath>
</defs>
</svg>
