<svg width="16" height="16" viewBox="0 0 16 16" fill="none" xmlns="http://www.w3.org/2000/svg">
<path fill-rule="evenodd" clip-rule="evenodd" d="M12.243 3.75684C11.442 2.95627 10.4307 2.39876 9.3261 2.14876C8.22152 1.89876 7.06874 1.96649 6.00103 2.34411C4.93332 2.72173 3.99429 3.39383 3.29249 4.28269C2.59069 5.17156 2.1548 6.2409 2.03519 7.36709C1.91559 8.49328 2.11716 9.63032 2.6166 10.6468C3.11604 11.6632 3.89296 12.5175 4.85754 13.111C5.82212 13.7045 6.93496 14.0128 8.06741 14.0004C9.19986 13.988 10.3057 13.6553 11.257 13.0408C11.3671 12.9653 11.4913 12.9126 11.6221 12.8859C11.7529 12.8591 11.8878 12.8588 12.0187 12.885C12.1496 12.9112 12.274 12.9634 12.3844 13.0384C12.4949 13.1134 12.5892 13.2098 12.6618 13.3219C12.7344 13.434 12.7838 13.5595 12.8071 13.6909C12.8305 13.8224 12.8272 13.9572 12.7976 14.0874C12.768 14.2176 12.7126 14.3406 12.6347 14.449C12.5568 14.5575 12.4579 14.6492 12.344 14.7188C10.8507 15.6845 9.07827 16.125 7.30667 15.9709C5.53508 15.8168 3.86533 15.0768 2.56121 13.8678C1.2571 12.6588 0.392976 11.0498 0.105349 9.29493C-0.182278 7.54006 0.122993 5.73937 0.972934 4.17735C1.82287 2.61533 3.16903 1.38102 4.79874 0.669416C6.42844 -0.0421832 8.24879 -0.190504 9.9722 0.247886C11.6956 0.686275 13.2238 1.68638 14.3154 3.09021C15.407 4.49404 15.9998 6.22155 16 7.99984C16.0002 8.55707 15.8452 9.10333 15.5524 9.5774C15.2595 10.0515 14.8405 10.4346 14.3421 10.6839C13.8437 10.9332 13.2858 11.0387 12.7308 10.9887C12.1759 10.9388 11.6458 10.7352 11.2 10.4008C10.6302 11.1607 9.80854 11.6929 8.88216 11.9024C7.95579 12.1118 6.98511 11.9848 6.14381 11.5441C5.3025 11.1033 4.64547 10.3776 4.29027 9.49679C3.93508 8.61595 3.90489 7.63746 4.20512 6.73641C4.50535 5.83535 5.1164 5.07052 5.92893 4.57876C6.74147 4.08701 7.70248 3.90041 8.64 4.05237C9.57752 4.20433 10.4304 4.68493 11.046 5.40816C11.6616 6.1314 11.9998 7.05009 12 7.99984C12 8.26506 12.1054 8.51941 12.2929 8.70695C12.4804 8.89449 12.7348 8.99984 13 8.99984C13.2652 8.99984 13.5196 8.89449 13.7071 8.70695C13.8947 8.51941 14 8.26506 14 7.99984C14 6.46284 13.414 4.92984 12.243 3.75684ZM10 7.99984C10 7.46941 9.7893 6.9607 9.41422 6.58563C9.03915 6.21056 8.53044 5.99984 8.00001 5.99984C7.46958 5.99984 6.96087 6.21056 6.5858 6.58563C6.21072 6.9607 6.00001 7.46941 6.00001 7.99984C6.00001 8.53028 6.21072 9.03899 6.5858 9.41406C6.96087 9.78913 7.46958 9.99985 8.00001 9.99985C8.53044 9.99985 9.03915 9.78913 9.41422 9.41406C9.7893 9.03899 10 8.53028 10 7.99984Z" fill="url(#paint0_linear_13635_5751)"/>
<defs>
<linearGradient id="paint0_linear_13635_5751" x1="-2.4" y1="0.000976454" x2="21.9921" y2="7.23377" gradientUnits="userSpaceOnUse">
<stop stop-color="#A282E8"/>
<stop offset="0.484375" stop-color="#7E8EE7"/>
<stop offset="1" stop-color="#4499E9"/>
</linearGradient>
</defs>
</svg>
