<svg width="14" height="14" viewBox="0 0 14 14" fill="none" xmlns="http://www.w3.org/2000/svg">
<path d="M6.70673 10.8963C4.58673 10.7963 2.90007 9.04966 2.90007 6.90299C2.90007 4.69633 4.6934 2.90299 6.90006 2.90299C9.04673 2.90299 10.7934 4.58966 10.8934 6.70966L9.4934 6.28966C9.22007 5.10966 8.16007 4.23633 6.90006 4.23633C5.42673 4.23633 4.2334 5.42966 4.2334 6.90299C4.2334 8.16299 5.10673 9.22299 6.28673 9.49633L6.70673 10.8963ZM13.5667 6.90299C13.5667 7.10299 13.5601 7.30299 13.5401 7.50299L12.2267 7.10966C12.2334 7.04299 12.2334 6.96966 12.2334 6.90299C12.2334 3.95633 9.84673 1.56966 6.90006 1.56966C3.9534 1.56966 1.56673 3.95633 1.56673 6.90299C1.56673 9.84966 3.9534 12.2363 6.90006 12.2363C6.96673 12.2363 7.04007 12.2363 7.10673 12.2297L7.50007 13.543C7.30007 13.563 7.10007 13.5697 6.90006 13.5697C3.22007 13.5697 0.233398 10.583 0.233398 6.90299C0.233398 3.22299 3.22007 0.236328 6.90006 0.236328C10.5801 0.236328 13.5667 3.22299 13.5667 6.90299ZM11.0534 9.74299L12.5667 9.23633C12.8734 9.13633 12.8667 8.69633 12.5601 8.60299L7.4934 7.08299C7.24007 7.00966 7.00007 7.24299 7.08007 7.49633L8.60007 12.563C8.6934 12.8763 9.1334 12.883 9.2334 12.5697L9.74007 11.0563L12.3467 13.663C12.4801 13.7963 12.6867 13.7963 12.8201 13.663L13.6667 12.8163C13.8001 12.683 13.8001 12.4763 13.6667 12.343L11.0534 9.74299Z" fill="currentColor"/>
</svg>
