<svg width="14" height="14" viewBox="0 0 14 14" fill="none" xmlns="http://www.w3.org/2000/svg">
<path fill-rule="evenodd" clip-rule="evenodd" d="M10.394 3.60626C9.75318 2.9658 8.94416 2.51979 8.06049 2.31979C7.17683 2.11979 6.2546 2.17397 5.40043 2.47607C4.54626 2.77817 3.79504 3.31584 3.2336 4.02694C2.67217 4.73803 2.32345 5.5935 2.22776 6.49445C2.13208 7.3954 2.29333 8.30504 2.69289 9.11819C3.09244 9.93135 3.71398 10.6148 4.48564 11.0896C5.2573 11.5644 6.14758 11.811 7.05354 11.8011C7.9595 11.7912 8.84415 11.525 9.60522 11.0335C9.69332 10.9731 9.79263 10.9309 9.89728 10.9095C10.0019 10.8881 10.1098 10.8878 10.2146 10.9088C10.3193 10.9298 10.4188 10.9715 10.5072 11.0315C10.5955 11.0915 10.671 11.1687 10.729 11.2583C10.7871 11.348 10.8267 11.4483 10.8453 11.5535C10.864 11.6587 10.8614 11.7666 10.8377 11.8707C10.814 11.9749 10.7697 12.0732 10.7074 12.16C10.645 12.2468 10.566 12.3201 10.4748 12.3759C9.28019 13.1483 7.86223 13.5008 6.44495 13.3775C5.02767 13.2542 3.69187 12.6622 2.64858 11.695C1.60529 10.7278 0.91399 9.44063 0.683889 8.03673C0.453787 6.63283 0.698003 5.19228 1.37796 3.94266C2.05791 2.69304 3.13484 1.70559 4.4386 1.13631C5.74236 0.567035 7.19864 0.448378 8.57737 0.79909C9.95609 1.1498 11.1787 1.94989 12.0519 3.07295C12.9252 4.19601 13.3994 5.57802 13.3996 7.00066C13.3998 7.44643 13.2758 7.88344 13.0415 8.2627C12.8072 8.64196 12.472 8.94848 12.0733 9.1479C11.6746 9.34733 11.2283 9.43177 10.7843 9.39178C10.3403 9.35178 9.91624 9.18892 9.55962 8.92146C9.10373 9.5293 8.44644 9.9551 7.70534 10.1227C6.96424 10.2902 6.1877 10.1886 5.51465 9.83604C4.84161 9.48345 4.31599 8.90288 4.03183 8.19821C3.74767 7.49354 3.72352 6.71075 3.96371 5.98991C4.20389 5.26906 4.69273 4.6572 5.34276 4.26379C5.99279 3.87039 6.76159 3.72111 7.51161 3.84268C8.26163 3.96425 8.94392 4.34872 9.4364 4.92731C9.92889 5.5059 10.1994 6.24085 10.1996 7.00066C10.1996 7.21283 10.2839 7.41631 10.4339 7.56634C10.584 7.71637 10.7874 7.80066 10.9996 7.80066C11.2118 7.80066 11.4153 7.71637 11.5653 7.56634C11.7153 7.41631 11.7996 7.21283 11.7996 7.00066C11.7996 5.77106 11.3308 4.54466 10.394 3.60626ZM8.59962 7.00066C8.59962 6.57631 8.43105 6.16934 8.13099 5.86929C7.83093 5.56923 7.42396 5.40066 6.99962 5.40066C6.57527 5.40066 6.16831 5.56923 5.86825 5.86929C5.56819 6.16934 5.39962 6.57631 5.39962 7.00066C5.39962 7.425 5.56819 7.83197 5.86825 8.13203C6.16831 8.43209 6.57527 8.60066 6.99962 8.60066C7.42396 8.60066 7.83093 8.43209 8.13099 8.13203C8.43105 7.83197 8.59962 7.425 8.59962 7.00066Z" fill="url(#paint0_linear_2236_18488)"/>
<defs>
<linearGradient id="paint0_linear_2236_18488" x1="-1.32039" y1="0.601562" x2="18.1933" y2="6.3878" gradientUnits="userSpaceOnUse">
<stop stop-color="#A282E8"/>
<stop offset="0.484375" stop-color="#7E8EE7"/>
<stop offset="1" stop-color="#4499E9"/>
</linearGradient>
</defs>
</svg>
