<svg width="12" height="15" viewBox="0 0 12 15" fill="none" xmlns="http://www.w3.org/2000/svg">
<path d="M6 8.66602C5.11595 8.66602 4.2681 8.31483 3.64298 7.68971C3.01786 7.06458 2.66667 6.21674 2.66667 5.33268H4C4 5.86312 4.21071 6.37182 4.58579 6.7469C4.96086 7.12197 5.46957 7.33268 6 7.33268C6.53043 7.33268 7.03914 7.12197 7.41421 6.7469C7.78929 6.37182 8 5.86312 8 5.33268H9.33333C9.33333 6.21674 8.98214 7.06458 8.35702 7.68971C7.7319 8.31483 6.88406 8.66602 6 8.66602V8.66602ZM6 1.99935C6.53043 1.99935 7.03914 2.21006 7.41421 2.58514C7.78929 2.96021 8 3.46892 8 3.99935H4C4 3.46892 4.21071 2.96021 4.58579 2.58514C4.96086 2.21006 5.46957 1.99935 6 1.99935V1.99935ZM10.6667 3.99935H9.33333C9.33333 3.56161 9.24711 3.12816 9.0796 2.72374C8.91208 2.31932 8.66655 1.95186 8.35702 1.64233C8.04749 1.3328 7.68003 1.08727 7.27561 0.919751C6.87119 0.752235 6.43774 0.666016 6 0.666016C5.11595 0.666016 4.2681 1.01721 3.64298 1.64233C3.01786 2.26745 2.66667 3.11529 2.66667 3.99935H1.33333C0.593333 3.99935 0 4.59268 0 5.33268V13.3327C0 13.6863 0.140476 14.0254 0.390524 14.2755C0.640573 14.5255 0.979711 14.666 1.33333 14.666H10.6667C11.0203 14.666 11.3594 14.5255 11.6095 14.2755C11.8595 14.0254 12 13.6863 12 13.3327V5.33268C12 4.59268 11.4 3.99935 10.6667 3.99935Z" fill="currentColor"/>
</svg>
