<svg width="24" height="25" viewBox="0 0 24 25" fill="none" xmlns="http://www.w3.org/2000/svg">
<path d="M12 18.1C12 18.3209 11.8209 18.5 11.6 18.5H6.4C6.17909 18.5 6 18.3209 6 18.1V14.9C6 14.6791 6.17909 14.5 6.4 14.5H11.6C11.8209 14.5 12 14.6791 12 14.9V18.1ZM20.4 14.5C20.7314 14.5 21 14.2314 21 13.9V12.5L20.1286 8.14311C20.0538 7.76917 19.7255 7.5 19.3442 7.5H4.65584C4.2745 7.5 3.94617 7.76917 3.87138 8.14311L3 12.5V13.9C3 14.2314 3.26863 14.5 3.6 14.5C3.82091 14.5 4 14.6791 4 14.9V20.1C4 20.3209 4.17909 20.5 4.4 20.5H13.6C13.8209 20.5 14 20.3209 14 20.1V14.9C14 14.6791 14.1791 14.5 14.4 14.5H17.6C17.8209 14.5 18 14.6791 18 14.9V20.1C18 20.3209 18.1791 20.5 18.4 20.5H19.6C19.8209 20.5 20 20.3209 20 20.1V14.9C20 14.6791 20.1791 14.5 20.4 14.5ZM20 5.1C20 4.76863 19.7314 4.5 19.4 4.5H4.6C4.26863 4.5 4 4.76863 4 5.1V5.9C4 6.23137 4.26863 6.5 4.6 6.5H19.4C19.7314 6.5 20 6.23137 20 5.9V5.1Z" fill="currentColor"/>
</svg>
