<svg width="12" height="12" viewBox="0 0 12 12" fill="none" xmlns="http://www.w3.org/2000/svg">
<path d="M4 12C4.36819 12 4.66667 11.7015 4.66667 11.3333C4.66667 10.9651 4.36819 10.6667 4 10.6667H2.27333L4.80333 8.13667C5.06291 7.87709 5.06291 7.45624 4.80333 7.19667C4.54376 6.93709 4.12291 6.93709 3.86333 7.19667L1.33333 9.72667V8C1.33333 7.63181 1.03486 7.33333 0.666667 7.33333C0.298477 7.33333 0 7.63181 0 8V11C0 11.5523 0.447715 12 1 12H4ZM7.19667 4.80333C7.45624 5.06291 7.87709 5.06291 8.13667 4.80333L10.6667 2.27333V4C10.6667 4.36819 10.9651 4.66667 11.3333 4.66667C11.7015 4.66667 12 4.36819 12 4V1C12 0.447715 11.5523 0 11 0H8C7.63181 0 7.33333 0.298477 7.33333 0.666667C7.33333 1.03486 7.63181 1.33333 8 1.33333H9.72667L7.19667 3.86333C6.93709 4.12291 6.93709 4.54376 7.19667 4.80333Z" fill="currentColor"/>
</svg>
