<svg width="20" height="20" viewBox="0 0 20 20" fill="none" xmlns="http://www.w3.org/2000/svg">
<path fill-rule="evenodd" clip-rule="evenodd" d="M14.9907 8.8041V5.47318C14.9907 4.94975 14.5624 4.52148 14.039 4.52148H2.61868C2.09525 4.52148 1.66699 4.94975 1.66699 5.47318V14.9901C1.66699 15.5135 2.09525 15.9418 2.61868 15.9418H14.039C14.5624 15.9418 14.9907 15.5135 14.9907 14.9901V11.6592L18.7974 15.4659V4.99733L14.9907 8.8041Z" fill="#394759"/>
<mask id="mask0_2444_77547" style="mask-type:alpha" maskUnits="userSpaceOnUse" x="1" y="4" width="18" height="12">
<path fill-rule="evenodd" clip-rule="evenodd" d="M14.9907 8.8041V5.47318C14.9907 4.94975 14.5624 4.52148 14.039 4.52148H2.61868C2.09525 4.52148 1.66699 4.94975 1.66699 5.47318V14.9901C1.66699 15.5135 2.09525 15.9418 2.61868 15.9418H14.039C14.5624 15.9418 14.9907 15.5135 14.9907 14.9901V11.6592L18.7974 15.4659V4.99733L14.9907 8.8041Z" fill="currentColor"/>
</mask>
<g mask="url(#mask0_2444_77547)">
<rect width="20" height="20" fill="currentColor"/>
</g>
</svg>
