<svg width="20" height="20" viewBox="0 0 20 20" fill="none" xmlns="http://www.w3.org/2000/svg">
<mask id="mask0_2421_76971" style="mask-type:alpha" maskUnits="userSpaceOnUse" x="1" y="1" width="18" height="18">
<path d="M7.73695 18.2482C7.87841 18.3045 8.01987 18.3327 8.16133 18.3327C8.38767 18.3327 8.61401 18.2482 8.81205 18.1075L11.5847 15.7426H13.65C15.8285 15.7426 18.3337 13.9408 18.3337 11.7448C18.3337 11.7448 18.3337 9.78581 18.3337 8.7723C18.3337 7.75878 18.3337 5.66376 18.3337 5.66376C18.3337 3.46782 15.8285 1.66602 13.6217 1.66602H6.37893C4.17214 1.66602 1.66699 3.46782 1.66699 5.66376C1.66699 5.66376 1.66699 7.75409 1.66699 8.7723C1.66699 9.7905 1.66699 11.7448 1.66699 11.7448C1.66699 13.9126 4.17214 15.7426 6.37893 15.7426H7.17111V17.3755C7.17111 17.7696 7.39745 18.1075 7.73695 18.2482Z" fill="currentColor"/>
</mask>
<g mask="url(#mask0_2421_76971)">
<rect x="0.486328" y="0.902344" width="19.1667" height="19.1667" fill="currentColor"/>
</g>
</svg>
