<svg width="15" height="14" viewBox="0 0 15 14" fill="none" xmlns="http://www.w3.org/2000/svg">
<path fill-rule="evenodd" clip-rule="evenodd" d="M6.03825 13.6673C5.92508 13.6673 5.81191 13.6448 5.69874 13.5998C5.42714 13.4871 5.24607 13.2169 5.24607 12.9016V11.5952H4.61232C2.84689 11.5952 0.842773 10.1313 0.842773 8.39705V6.01901V3.53218C0.842773 1.77543 2.84689 0.333984 4.61232 0.333984H10.4066C12.172 0.333984 14.1761 1.77543 14.1761 3.53218V6.01901V8.39705C14.1761 10.1538 12.172 11.5952 10.4292 11.5952H8.77693L6.55882 13.4871C6.40039 13.5998 6.21932 13.6673 6.03825 13.6673ZM4.50952 2.00066C3.40495 2.00066 2.50952 2.89609 2.50952 4.00066V8.00066C2.50952 9.10522 3.40495 10.0007 4.50952 10.0007H5.00952H5.62036C5.98551 10.0007 6.29351 10.2726 6.3388 10.6349C6.41111 11.2134 7.10254 11.4735 7.53826 11.0862L8.38453 10.334C8.62609 10.1193 8.93805 10.0007 9.26125 10.0007H10.0095H10.5095C11.6141 10.0007 12.5095 9.10522 12.5095 8.00066V4.00066C12.5095 2.89609 11.6141 2.00066 10.5095 2.00066H4.50952Z" fill="url(#paint0_linear_2236_30056)"/>
<defs>
<linearGradient id="paint0_linear_2236_30056" x1="-1.15723" y1="0.333984" x2="19.1695" y2="6.36132" gradientUnits="userSpaceOnUse">
<stop stop-color="#A282E8"/>
<stop offset="0.484375" stop-color="#7E8EE7"/>
<stop offset="1" stop-color="#4499E9"/>
</linearGradient>
</defs>
</svg>
