<svg width="20" height="20" viewBox="0 0 20 20" fill="none" xmlns="http://www.w3.org/2000/svg">
<mask id="mask0_2421_77241" style="mask-type:alpha" maskUnits="userSpaceOnUse" x="1" y="1" width="18" height="18">
<path fill-rule="evenodd" clip-rule="evenodd" d="M8.16133 18.3327C8.01987 18.3327 7.87841 18.3045 7.73695 18.2482C7.39745 18.1075 7.17111 17.7696 7.17111 17.3755V15.7426H6.37893C4.17214 15.7426 1.66699 13.9126 1.66699 11.7448V8.7723V5.66376C1.66699 3.46782 4.17214 1.66602 6.37893 1.66602H13.6217C15.8285 1.66602 18.3337 3.46782 18.3337 5.66376V8.7723V11.7448C18.3337 13.9408 15.8285 15.7426 13.65 15.7426H11.5847L8.81205 18.1075C8.61401 18.2482 8.38767 18.3327 8.16133 18.3327ZM10.1464 6.14645C10.3417 5.95118 10.6583 5.95118 10.8536 6.14645L12.7121 8.00503C12.7383 8.03115 12.7619 8.05882 12.783 8.08775C12.9141 8.17789 13 8.32891 13 8.5C13 8.67109 12.9141 8.82211 12.783 8.91225C12.7619 8.94118 12.7383 8.96885 12.7121 8.99498L10.8536 10.8536C10.6583 11.0488 10.3417 11.0488 10.1464 10.8536C9.95118 10.6583 9.95118 10.3417 10.1464 10.1464L11.2929 9H7.5C7.22386 9 7 8.77614 7 8.5C7 8.22386 7.22386 8 7.5 8H11.2929L10.1464 6.85355C9.95118 6.65829 9.95118 6.34171 10.1464 6.14645Z" fill="currentColor"/>
</mask>
<g mask="url(#mask0_2421_77241)">
<rect x="0.486328" y="0.902344" width="19.1667" height="19.1667" fill="currentColor"/>
</g>
</svg>
