<svg width="20" height="20" viewBox="0 0 20 20" fill="none" xmlns="http://www.w3.org/2000/svg">
<mask id="mask0_2421_77292" style="mask-type:alpha" maskUnits="userSpaceOnUse" x="1" y="1" width="18" height="18">
<path fill-rule="evenodd" clip-rule="evenodd" d="M8.16133 18.3327C8.01987 18.3327 7.87841 18.3045 7.73695 18.2482C7.39745 18.1075 7.17111 17.7696 7.17111 17.3755V15.7426H6.37893C4.17214 15.7426 1.66699 13.9126 1.66699 11.7448V8.7723V5.66376C1.66699 3.46782 4.17214 1.66602 6.37893 1.66602H13.6217C15.8285 1.66602 18.3337 3.46782 18.3337 5.66376V8.7723V11.7448C18.3337 13.9408 15.8285 15.7426 13.65 15.7426H11.5847L8.81205 18.1075C8.61401 18.2482 8.38767 18.3327 8.16133 18.3327ZM9.85355 10.8536C9.65829 11.0488 9.34171 11.0488 9.14645 10.8536L7.28787 8.99497C7.26175 8.96885 7.23812 8.94118 7.21699 8.91225C7.08593 8.82211 7 8.67109 7 8.5C7 8.32891 7.08593 8.17789 7.21699 8.08775C7.23812 8.05882 7.26175 8.03115 7.28787 8.00502L9.14645 6.14645C9.34171 5.95118 9.65829 5.95118 9.85355 6.14645C10.0488 6.34171 10.0488 6.65829 9.85355 6.85355L8.70711 8H12.5C12.7761 8 13 8.22386 13 8.5C13 8.77614 12.7761 9 12.5 9H8.70711L9.85355 10.1464C10.0488 10.3417 10.0488 10.6583 9.85355 10.8536Z" fill="currentColor"/>
</mask>
<g mask="url(#mask0_2421_77292)">
<rect x="0.486328" y="0.902344" width="19.1667" height="19.1667" fill="currentColor"/>
</g>
<ellipse cx="3" cy="3" rx="3" ry="3" fill="#F77272"/>
</svg>
