<svg width="14" height="14" viewBox="0 0 14 14" fill="none" xmlns="http://www.w3.org/2000/svg">
<path fill-rule="evenodd" clip-rule="evenodd" d="M5.52848 13.6663C5.41531 13.6663 5.30214 13.6438 5.18898 13.5988C4.91737 13.4862 4.7363 13.2159 4.7363 12.9006V11.5943H4.10256C2.33712 11.5943 0.333008 10.1303 0.333008 8.39607V6.01803V3.53121C0.333008 1.77445 2.33712 0.333008 4.10256 0.333008H9.89679C11.6622 0.333008 13.6663 1.77445 13.6663 3.53121V6.01803V8.39607C13.6663 10.1528 11.6622 11.5943 9.91943 11.5943H8.26716L6.04906 13.4862C5.89062 13.5988 5.70955 13.6663 5.52848 13.6663ZM3.99976 1.99968C2.89519 1.99968 1.99976 2.89511 1.99976 3.99968V7.99968C1.99976 9.10425 2.89519 9.99968 3.99976 9.99968H4.49976H5.11059C5.47574 9.99968 5.78374 10.2716 5.82903 10.6339C5.90134 11.2124 6.59277 11.4726 7.02849 11.0852L7.87476 10.333C8.11632 10.1183 8.42828 9.99968 8.75148 9.99968H9.49976H9.99976C11.1043 9.99968 11.9998 9.10425 11.9998 7.99968V3.99968C11.9998 2.89511 11.1043 1.99968 9.99976 1.99968H3.99976Z" fill="currentColor"/>
<defs>
<linearGradient id="paint0_linear_1068_5321" x1="-1.66699" y1="0.333008" x2="18.6598" y2="6.36034" gradientUnits="userSpaceOnUse">
<stop stop-color="#A282E8"/>
<stop offset="0.484375" stop-color="#7E8EE7"/>
<stop offset="1" stop-color="#4499E9"/>
</linearGradient>
</defs>
</svg>
