<svg width="12" height="12" viewBox="0 0 12 12" fill="none" xmlns="http://www.w3.org/2000/svg">
<path d="M11.4701 0.430938C11.2105 0.171364 10.7896 0.171364 10.5301 0.430938L8.00006 2.96094V1.23427C8.00006 0.866081 7.70158 0.567604 7.33339 0.567604C6.9652 0.567604 6.66672 0.866081 6.66672 1.23427V4.23427C6.66672 4.78656 7.11444 5.23427 7.66672 5.23427H10.6667C11.0349 5.23427 11.3334 4.93579 11.3334 4.5676C11.3334 4.19941 11.0349 3.90094 10.6667 3.90094H8.94006L11.4701 1.37094C11.7296 1.11136 11.7296 0.690511 11.4701 0.430938ZM1.33339 6.5676C0.965201 6.5676 0.666725 6.86608 0.666725 7.23427C0.666725 7.60246 0.965202 7.90094 1.33339 7.90094H3.06006L0.530059 10.4309C0.270485 10.6905 0.270485 11.1114 0.530059 11.3709C0.789632 11.6305 1.21048 11.6305 1.47006 11.3709L4.00006 8.84094V10.5676C4.00006 10.9358 4.29854 11.2343 4.66672 11.2343C5.03491 11.2343 5.33339 10.9358 5.33339 10.5676V7.5676C5.33339 7.01532 4.88568 6.5676 4.33339 6.5676H1.33339Z" fill="currentColor"/>
</svg>
