<svg width="14" height="14" viewBox="0 0 14 14" fill="none" xmlns="http://www.w3.org/2000/svg">
<path fill-rule="evenodd" clip-rule="evenodd" d="M7.00156 13.4016C8.69895 13.4016 10.3268 12.7273 11.527 11.527C12.7273 10.3268 13.4016 8.69895 13.4016 7.00156C13.4016 5.30418 12.7273 3.67631 11.527 2.47608C10.3268 1.27585 8.69895 0.601563 7.00156 0.601562C5.30418 0.601563 3.67631 1.27585 2.47608 2.47608C1.27585 3.67631 0.601563 5.30418 0.601562 7.00156C0.601563 8.69895 1.27585 10.3268 2.47608 11.527C3.67631 12.7273 5.30418 13.4016 7.00156 13.4016ZM4.60156 6.20156C4.38939 6.20156 4.18591 6.28585 4.03588 6.43588C3.88585 6.58591 3.80156 6.78939 3.80156 7.00156C3.80156 7.21374 3.88585 7.41722 4.03588 7.56725C4.18591 7.71728 4.38939 7.80156 4.60156 7.80156H9.40156C9.61374 7.80156 9.81722 7.71728 9.96725 7.56725C10.1173 7.41722 10.2016 7.21374 10.2016 7.00156C10.2016 6.78939 10.1173 6.58591 9.96725 6.43588C9.81722 6.28585 9.61374 6.20156 9.40156 6.20156H4.60156Z" fill="url(#paint0_linear_11492_8100)"/>
<defs>
<linearGradient id="paint0_linear_11492_8100" x1="-1.31844" y1="0.601562" x2="18.1953" y2="6.3878" gradientUnits="userSpaceOnUse">
<stop stop-color="#A282E8"/>
<stop offset="0.484375" stop-color="#7E8EE7"/>
<stop offset="1" stop-color="#4499E9"/>
</linearGradient>
</defs>
</svg>
