<svg width="16" height="16" viewBox="0 0 16 16" fill="none" xmlns="http://www.w3.org/2000/svg">
<path fill-rule="evenodd" clip-rule="evenodd" d="M4.64199 11.3583C1.68944 8.40579 0.571951 4.91994 1.86471 2.76685L1.94959 2.63411L2.16076 2.41041L3.20994 1.33398L6.02003 4.14408L4.83312 5.36461L4.80196 5.40011C4.16113 6.63652 4.94292 8.36572 6.28876 9.71156C7.61922 11.042 9.32431 11.8212 10.5576 11.2198L10.6925 11.0994L11.3042 10.5147L11.8562 9.9803L14.6663 12.7904L13.4525 13.9586L13.3119 14.086C13.3076 14.0895 13.3044 14.0918 13.3022 14.0932C11.1552 15.4521 7.62617 14.3425 4.64199 11.3583Z" fill="currentColor"/>
<path d="M11.4293 7.92929L8.83536 5.33536C8.80386 5.30386 8.75 5.32617 8.75 5.37071V6.625C8.75 6.83211 8.58211 7 8.375 7C8.16789 7 8 6.83211 8 6.625V4.2C8 4.08954 8.08954 4 8.2 4H10.625C10.8321 4 11 4.16789 11 4.375C11 4.58211 10.8321 4.75 10.625 4.75H9.37071C9.32617 4.75 9.30386 4.80386 9.33536 4.83536L11.4646 6.96464C11.4842 6.98417 11.5158 6.98417 11.5354 6.96464L14.25 4.25C14.3881 4.11193 14.6119 4.11193 14.75 4.25C14.8881 4.38807 14.8881 4.61193 14.75 4.75L11.5707 7.92929C11.5317 7.96834 11.4683 7.96834 11.4293 7.92929Z" fill="currentColor"/>
</svg>
