<svg width="16" height="4" viewBox="0 0 16 4" fill="none" xmlns="http://www.w3.org/2000/svg">
<path d="M4 2C4 2.53043 3.78929 3.03914 3.41421 3.41421C3.03914 3.78929 2.53043 4 2 4C1.46957 4 0.960858 3.78929 0.585786 3.41421C0.210713 3.03914 -4.42435e-07 2.53043 -3.49691e-07 2C-2.56947e-07 1.46957 0.210713 0.96086 0.585786 0.585787C0.960859 0.210714 1.46957 2.56947e-07 2 3.49691e-07C2.53043 4.42435e-07 3.03914 0.210715 3.41421 0.585787C3.78929 0.96086 4 1.46957 4 2ZM10 2C10 2.53043 9.78929 3.03914 9.41421 3.41421C9.03914 3.78929 8.53043 4 8 4C7.46957 4 6.96086 3.78929 6.58579 3.41421C6.21071 3.03914 6 2.53043 6 2C6 1.46957 6.21071 0.960861 6.58579 0.585788C6.96086 0.210715 7.46957 1.30602e-06 8 1.39876e-06C8.53043 1.49151e-06 9.03914 0.210716 9.41421 0.585788C9.78929 0.960861 10 1.46957 10 2ZM14 4C14.5304 4 15.0391 3.78929 15.4142 3.41422C15.7893 3.03914 16 2.53044 16 2C16 1.46957 15.7893 0.960862 15.4142 0.58579C15.0391 0.210717 14.5304 2.54058e-06 14 2.44784e-06C13.4696 2.35509e-06 12.9609 0.210716 12.5858 0.585789C12.2107 0.960862 12 1.46957 12 2C12 2.53044 12.2107 3.03914 12.5858 3.41422C12.9609 3.78929 13.4696 4 14 4Z" fill="currentColor"/>
</svg>
