<svg width="20" height="20" viewBox="0 0 20 20" fill="none" xmlns="http://www.w3.org/2000/svg">
<path fill-rule="evenodd" clip-rule="evenodd" d="M6.29289 3.29289C6.48043 3.10536 6.73478 3 7 3H13C13.2652 3 13.5196 3.10536 13.7071 3.29289C13.8946 3.48043 14 3.73478 14 4C14 4.26522 13.8946 4.51957 13.7071 4.70711C13.5196 4.89464 13.2652 5 13 5H7C6.73478 5 6.48043 4.89464 6.29289 4.70711C6.10536 4.51957 6 4.26522 6 4C6 3.73478 6.10536 3.48043 6.29289 3.29289ZM4.29289 6.29289C4.10536 6.48043 4 6.73478 4 7C4 7.26522 4.10536 7.51957 4.29289 7.70711C4.48043 7.89464 4.73478 8 5 8H15C15.2652 8 15.5196 7.89464 15.7071 7.70711C15.8946 7.51957 16 7.26522 16 7C16 6.73478 15.8946 6.48043 15.7071 6.29289C15.5196 6.10536 15.2652 6 15 6H5C4.73478 6 4.48043 6.10536 4.29289 6.29289ZM2.58579 9.58579C2.21071 9.96086 2 10.4696 2 11V15C2 15.5304 2.21071 16.0391 2.58579 16.4142C2.96086 16.7893 3.46957 17 4 17H16C16.5304 17 17.0391 16.7893 17.4142 16.4142C17.7893 16.0391 18 15.5304 18 15V11C18 10.4696 17.7893 9.96086 17.4142 9.58579C17.0391 9.21071 16.5304 9 16 9H4C3.46957 9 2.96086 9.21071 2.58579 9.58579ZM9.72222 12.1667H7.5V13.8333H9.72222V15.5L12.5 13L9.72222 10.5V12.1667Z" fill="#394759"/>
</svg>
