<svg width="52" height="52" viewBox="0 0 52 52" fill="none" xmlns="http://www.w3.org/2000/svg">
<g filter="url(#filter0_d_13978_97979)">
<circle cx="26" cy="25" r="25" fill="#F5F6F7"/>
</g>
<g clip-path="url(#clip0_13978_97979)">
<path d="M16 17.5C16 18.8807 17.1193 20 18.5 20V20C19.8807 20 21 18.8807 21 17.5V17.5C21 16.1193 19.8807 15 18.5 15V15C17.1193 15 16 16.1193 16 17.5V17.5ZM23.5 32.5C23.5 33.8807 24.6193 35 26 35V35C27.3807 35 28.5 33.8807 28.5 32.5V32.5C28.5 31.1193 27.3807 30 26 30V30C24.6193 30 23.5 31.1193 23.5 32.5V32.5ZM16 32.5C16 33.8807 17.1193 35 18.5 35V35C19.8807 35 21 33.8807 21 32.5V32.5C21 31.1193 19.8807 30 18.5 30V30C17.1193 30 16 31.1193 16 32.5V32.5ZM16 25C16 26.3807 17.1193 27.5 18.5 27.5V27.5C19.8807 27.5 21 26.3807 21 25V25C21 23.6193 19.8807 22.5 18.5 22.5V22.5C17.1193 22.5 16 23.6193 16 25V25ZM23.5 25C23.5 26.3807 24.6193 27.5 26 27.5V27.5C27.3807 27.5 28.5 26.3807 28.5 25V25C28.5 23.6193 27.3807 22.5 26 22.5V22.5C24.6193 22.5 23.5 23.6193 23.5 25V25ZM33.5 15C32.1193 15 31 16.1193 31 17.5V17.5C31 18.8807 32.1193 20 33.5 20V20C34.8807 20 36 18.8807 36 17.5V17.5C36 16.1193 34.8807 15 33.5 15V15ZM23.5 17.5C23.5 18.8807 24.6193 20 26 20V20C27.3807 20 28.5 18.8807 28.5 17.5V17.5C28.5 16.1193 27.3807 15 26 15V15C24.6193 15 23.5 16.1193 23.5 17.5V17.5ZM31 25C31 26.3807 32.1193 27.5 33.5 27.5V27.5C34.8807 27.5 36 26.3807 36 25V25C36 23.6193 34.8807 22.5 33.5 22.5V22.5C32.1193 22.5 31 23.6193 31 25V25ZM31 32.5C31 33.8807 32.1193 35 33.5 35V35C34.8807 35 36 33.8807 36 32.5V32.5C36 31.1193 34.8807 30 33.5 30V30C32.1193 30 31 31.1193 31 32.5V32.5Z" fill="#567191"/>
</g>
<defs>
<filter id="filter0_d_13978_97979" x="0" y="0" width="52" height="52" filterUnits="userSpaceOnUse" color-interpolation-filters="sRGB">
<feFlood flood-opacity="0" result="BackgroundImageFix"/>
<feColorMatrix in="SourceAlpha" type="matrix" values="0 0 0 0 0 0 0 0 0 0 0 0 0 0 0 0 0 0 127 0" result="hardAlpha"/>
<feOffset dy="1"/>
<feGaussianBlur stdDeviation="0.5"/>
<feColorMatrix type="matrix" values="0 0 0 0 0 0 0 0 0 0 0 0 0 0 0 0 0 0 0.1 0"/>
<feBlend mode="normal" in2="BackgroundImageFix" result="effect1_dropShadow_13978_97979"/>
<feBlend mode="normal" in="SourceGraphic" in2="effect1_dropShadow_13978_97979" result="shape"/>
</filter>
<clipPath id="clip0_13978_97979">
<rect width="30" height="30" fill="white" transform="translate(11 10)"/>
</clipPath>
</defs>
</svg>
