<svg width="401" height="86" viewBox="0 0 401 86" fill="none" xmlns="http://www.w3.org/2000/svg">
<path d="M136.181 81.2217H134.841L129.393 72.8271H129.338C129.352 73.0505 129.368 73.3057 129.386 73.5928C129.404 73.8753 129.418 74.1784 129.427 74.502C129.44 74.821 129.447 75.1468 129.447 75.4795V81.2217H128.367V71.2275H129.7L135.128 79.5947H135.176C135.167 79.4352 135.155 79.2096 135.142 78.918C135.128 78.6217 135.114 78.305 135.101 77.9678C135.091 77.626 135.087 77.3092 135.087 77.0176V71.2275H136.181V81.2217ZM145.197 77.4619C145.197 78.0771 145.118 78.6263 144.958 79.1094C144.799 79.5924 144.568 80.0003 144.268 80.333C143.967 80.6657 143.602 80.9209 143.174 81.0986C142.75 81.2718 142.269 81.3584 141.731 81.3584C141.23 81.3584 140.77 81.2718 140.351 81.0986C139.936 80.9209 139.576 80.6657 139.271 80.333C138.97 80.0003 138.735 79.5924 138.566 79.1094C138.402 78.6263 138.32 78.0771 138.32 77.4619C138.32 76.6416 138.459 75.9443 138.737 75.3701C139.015 74.7913 139.412 74.3516 139.927 74.0508C140.446 73.7454 141.064 73.5928 141.779 73.5928C142.463 73.5928 143.06 73.7454 143.57 74.0508C144.085 74.3561 144.484 74.7982 144.767 75.377C145.054 75.9512 145.197 76.6462 145.197 77.4619ZM139.496 77.4619C139.496 78.0635 139.576 78.5853 139.735 79.0273C139.895 79.4694 140.141 79.8112 140.474 80.0527C140.806 80.2943 141.235 80.415 141.759 80.415C142.278 80.415 142.704 80.2943 143.037 80.0527C143.374 79.8112 143.623 79.4694 143.782 79.0273C143.942 78.5853 144.021 78.0635 144.021 77.4619C144.021 76.8649 143.942 76.3499 143.782 75.917C143.623 75.4795 143.377 75.1423 143.044 74.9053C142.711 74.6683 142.281 74.5498 141.752 74.5498C140.973 74.5498 140.401 74.8073 140.036 75.3223C139.676 75.8372 139.496 76.5505 139.496 77.4619ZM153.462 81.3584C152.514 81.3584 151.762 81.0348 151.206 80.3877C150.655 79.7406 150.379 78.779 150.379 77.5029C150.379 76.2132 150.661 75.2402 151.227 74.584C151.792 73.9232 152.544 73.5928 153.482 73.5928C153.879 73.5928 154.225 73.6452 154.521 73.75C154.818 73.8548 155.073 73.9961 155.287 74.1738C155.501 74.347 155.681 74.5452 155.827 74.7686H155.909C155.891 74.6273 155.873 74.4336 155.854 74.1875C155.836 73.9414 155.827 73.7409 155.827 73.5859V70.585H156.962V81.2217H156.046L155.875 80.1553H155.827C155.686 80.3786 155.506 80.5814 155.287 80.7637C155.073 80.946 154.815 81.0918 154.515 81.2012C154.218 81.306 153.868 81.3584 153.462 81.3584ZM153.64 80.415C154.442 80.415 155.009 80.1872 155.342 79.7314C155.674 79.2757 155.841 78.599 155.841 77.7012V77.4961C155.841 76.5436 155.681 75.8122 155.362 75.3018C155.048 74.7913 154.474 74.5361 153.64 74.5361C152.942 74.5361 152.421 74.805 152.074 75.3428C151.728 75.876 151.555 76.6051 151.555 77.5303C151.555 78.4508 151.726 79.1618 152.067 79.6631C152.414 80.1644 152.938 80.415 153.64 80.415ZM165.828 77.4619C165.828 78.0771 165.748 78.6263 165.589 79.1094C165.429 79.5924 165.199 80.0003 164.898 80.333C164.598 80.6657 164.233 80.9209 163.805 81.0986C163.381 81.2718 162.9 81.3584 162.362 81.3584C161.861 81.3584 161.401 81.2718 160.981 81.0986C160.567 80.9209 160.207 80.6657 159.901 80.333C159.601 80.0003 159.366 79.5924 159.197 79.1094C159.033 78.6263 158.951 78.0771 158.951 77.4619C158.951 76.6416 159.09 75.9443 159.368 75.3701C159.646 74.7913 160.043 74.3516 160.558 74.0508C161.077 73.7454 161.695 73.5928 162.41 73.5928C163.094 73.5928 163.691 73.7454 164.201 74.0508C164.716 74.3561 165.115 74.7982 165.397 75.377C165.685 75.9512 165.828 76.6462 165.828 77.4619ZM160.127 77.4619C160.127 78.0635 160.207 78.5853 160.366 79.0273C160.526 79.4694 160.772 79.8112 161.104 80.0527C161.437 80.2943 161.866 80.415 162.39 80.415C162.909 80.415 163.335 80.2943 163.668 80.0527C164.005 79.8112 164.254 79.4694 164.413 79.0273C164.573 78.5853 164.652 78.0635 164.652 77.4619C164.652 76.8649 164.573 76.3499 164.413 75.917C164.254 75.4795 164.007 75.1423 163.675 74.9053C163.342 74.6683 162.911 74.5498 162.383 74.5498C161.604 74.5498 161.032 74.8073 160.667 75.3223C160.307 75.8372 160.127 76.5505 160.127 77.4619ZM175.925 73.5928C176.75 73.5928 177.372 73.8092 177.791 74.2422C178.21 74.6706 178.42 75.361 178.42 76.3135V81.2217H177.299V76.3682C177.299 75.762 177.167 75.3086 176.902 75.0078C176.643 74.7025 176.255 74.5498 175.74 74.5498C175.016 74.5498 174.489 74.7594 174.161 75.1787C173.833 75.598 173.669 76.2155 173.669 77.0312V81.2217H172.541V76.3682C172.541 75.9626 172.482 75.6253 172.363 75.3564C172.249 75.0876 172.076 74.887 171.844 74.7549C171.616 74.6182 171.326 74.5498 170.976 74.5498C170.479 74.5498 170.08 74.6523 169.779 74.8574C169.479 75.0625 169.26 75.3678 169.123 75.7734C168.991 76.1745 168.925 76.6689 168.925 77.2568V81.2217H167.79V73.7295H168.706L168.877 74.7891H168.938C169.089 74.5293 169.278 74.3105 169.506 74.1328C169.734 73.9551 169.989 73.8206 170.271 73.7295C170.554 73.6383 170.855 73.5928 171.174 73.5928C171.743 73.5928 172.22 73.6999 172.603 73.9141C172.99 74.1237 173.27 74.445 173.443 74.8779H173.505C173.751 74.445 174.088 74.1237 174.517 73.9141C174.945 73.6999 175.414 73.5928 175.925 73.5928ZM183.554 73.6064C184.447 73.6064 185.11 73.807 185.543 74.208C185.976 74.609 186.192 75.2493 186.192 76.1289V81.2217H185.365L185.146 80.1143H185.092C184.882 80.3877 184.663 80.6178 184.436 80.8047C184.208 80.987 183.943 81.126 183.643 81.2217C183.346 81.3128 182.982 81.3584 182.549 81.3584C182.093 81.3584 181.688 81.2786 181.332 81.1191C180.981 80.9596 180.703 80.7181 180.498 80.3945C180.298 80.071 180.197 79.6608 180.197 79.1641C180.197 78.4167 180.493 77.8424 181.086 77.4414C181.678 77.0404 182.581 76.8216 183.793 76.7852L185.085 76.7305V76.2725C185.085 75.6253 184.946 75.1719 184.668 74.9121C184.39 74.6523 183.998 74.5225 183.492 74.5225C183.1 74.5225 182.727 74.5794 182.371 74.6934C182.016 74.8073 181.678 74.9417 181.359 75.0967L181.011 74.2354C181.348 74.0622 181.735 73.9141 182.173 73.791C182.61 73.668 183.071 73.6064 183.554 73.6064ZM185.071 77.5303L183.93 77.5781C182.995 77.6146 182.337 77.7673 181.954 78.0361C181.571 78.305 181.38 78.6855 181.38 79.1777C181.38 79.6061 181.51 79.9229 181.77 80.1279C182.029 80.333 182.373 80.4355 182.802 80.4355C183.467 80.4355 184.012 80.251 184.436 79.8818C184.859 79.5127 185.071 78.959 185.071 78.2207V77.5303ZM189.665 73.7295V81.2217H188.53V73.7295H189.665ZM189.111 70.9268C189.298 70.9268 189.458 70.9883 189.59 71.1113C189.727 71.2298 189.795 71.4167 189.795 71.6719C189.795 71.9225 189.727 72.1094 189.59 72.2324C189.458 72.3555 189.298 72.417 189.111 72.417C188.915 72.417 188.751 72.3555 188.619 72.2324C188.492 72.1094 188.428 71.9225 188.428 71.6719C188.428 71.4167 188.492 71.2298 188.619 71.1113C188.751 70.9883 188.915 70.9268 189.111 70.9268ZM195.619 73.5928C196.508 73.5928 197.18 73.8115 197.636 74.249C198.091 74.682 198.319 75.3792 198.319 76.3408V81.2217H197.198V76.416C197.198 75.7917 197.055 75.3245 196.768 75.0146C196.485 74.7048 196.05 74.5498 195.462 74.5498C194.632 74.5498 194.049 74.7845 193.712 75.2539C193.375 75.7233 193.206 76.4046 193.206 77.2979V81.2217H192.071V73.7295H192.987L193.158 74.8096H193.22C193.379 74.5452 193.582 74.3242 193.828 74.1465C194.074 73.9642 194.35 73.8275 194.655 73.7363C194.961 73.6406 195.282 73.5928 195.619 73.5928ZM205.504 79.1709C205.504 79.6494 205.383 80.0527 205.142 80.3809C204.905 80.7044 204.563 80.9482 204.116 81.1123C203.674 81.2764 203.146 81.3584 202.53 81.3584C202.006 81.3584 201.553 81.3174 201.17 81.2354C200.787 81.1533 200.452 81.0371 200.165 80.8867V79.8408C200.47 79.9912 200.835 80.1279 201.259 80.251C201.683 80.374 202.116 80.4355 202.558 80.4355C203.205 80.4355 203.674 80.3307 203.966 80.1211C204.257 79.9115 204.403 79.6266 204.403 79.2666C204.403 79.0615 204.344 78.8815 204.226 78.7266C204.112 78.5671 203.918 78.4144 203.645 78.2686C203.371 78.1182 202.993 77.9541 202.51 77.7764C202.031 77.5941 201.617 77.4141 201.266 77.2363C200.919 77.054 200.65 76.833 200.459 76.5732C200.272 76.3135 200.179 75.9762 200.179 75.5615C200.179 74.9281 200.434 74.4427 200.944 74.1055C201.459 73.7637 202.134 73.5928 202.968 73.5928C203.419 73.5928 203.84 73.6383 204.232 73.7295C204.629 73.8161 204.998 73.9346 205.34 74.085L204.957 74.9941C204.647 74.862 204.317 74.7503 203.966 74.6592C203.615 74.568 203.257 74.5225 202.893 74.5225C202.368 74.5225 201.965 74.609 201.683 74.7822C201.405 74.9554 201.266 75.1924 201.266 75.4932C201.266 75.7256 201.329 75.917 201.457 76.0674C201.589 76.2178 201.799 76.359 202.086 76.4912C202.373 76.6234 202.751 76.7783 203.221 76.9561C203.69 77.1292 204.096 77.3092 204.438 77.4961C204.779 77.6784 205.041 77.9017 205.224 78.166C205.41 78.4258 205.504 78.7607 205.504 79.1709ZM212.613 81.2217L209.77 73.7295H210.986L212.634 78.2617C212.748 78.5716 212.864 78.9134 212.982 79.2871C213.101 79.6608 213.183 79.9616 213.229 80.1895H213.276C213.331 79.9616 213.422 79.6608 213.55 79.2871C213.677 78.9089 213.794 78.5671 213.898 78.2617L215.546 73.7295H216.763L213.912 81.2217H212.613ZM220.851 73.5928C221.489 73.5928 222.035 73.734 222.491 74.0166C222.947 74.2992 223.296 74.6956 223.537 75.2061C223.779 75.7119 223.899 76.3044 223.899 76.9834V77.6875H218.725C218.738 78.5671 218.957 79.237 219.381 79.6973C219.805 80.1576 220.402 80.3877 221.172 80.3877C221.646 80.3877 222.065 80.3444 222.43 80.2578C222.794 80.1712 223.173 80.0436 223.564 79.875V80.873C223.186 81.0417 222.81 81.1647 222.437 81.2422C222.067 81.3197 221.63 81.3584 221.124 81.3584C220.404 81.3584 219.775 81.2126 219.237 80.9209C218.704 80.6247 218.289 80.1917 217.993 79.6221C217.697 79.0524 217.549 78.3551 217.549 77.5303C217.549 76.7236 217.683 76.0264 217.952 75.4385C218.226 74.846 218.608 74.3903 219.101 74.0713C219.597 73.7523 220.181 73.5928 220.851 73.5928ZM220.837 74.5225C220.231 74.5225 219.748 74.7207 219.388 75.1172C219.028 75.5137 218.813 76.0674 218.745 76.7783H222.71C222.705 76.3317 222.635 75.9398 222.498 75.6025C222.366 75.2607 222.163 74.9964 221.89 74.8096C221.616 74.6182 221.265 74.5225 220.837 74.5225ZM229.231 73.5928C229.382 73.5928 229.539 73.6019 229.703 73.6201C229.867 73.6338 230.013 73.6543 230.141 73.6816L229.997 74.7344C229.874 74.7025 229.737 74.6774 229.587 74.6592C229.437 74.641 229.295 74.6318 229.163 74.6318C228.862 74.6318 228.577 74.6934 228.309 74.8164C228.044 74.9349 227.812 75.1081 227.611 75.3359C227.411 75.5592 227.254 75.8304 227.14 76.1494C227.026 76.4639 226.969 76.8148 226.969 77.2021V81.2217H225.827V73.7295H226.771L226.894 75.1104H226.941C227.096 74.8324 227.283 74.5794 227.502 74.3516C227.721 74.1191 227.974 73.9346 228.261 73.7979C228.552 73.6611 228.876 73.5928 229.231 73.5928ZM232.69 73.7295V81.2217H231.556V73.7295H232.69ZM232.137 70.9268C232.324 70.9268 232.483 70.9883 232.615 71.1113C232.752 71.2298 232.82 71.4167 232.82 71.6719C232.82 71.9225 232.752 72.1094 232.615 72.2324C232.483 72.3555 232.324 72.417 232.137 72.417C231.941 72.417 231.777 72.3555 231.645 72.2324C231.517 72.1094 231.453 71.9225 231.453 71.6719C231.453 71.4167 231.517 71.2298 231.645 71.1113C231.777 70.9883 231.941 70.9268 232.137 70.9268ZM238.433 74.6182H236.566V81.2217H235.432V74.6182H234.105V74.0713L235.432 73.6953V73.1963C235.432 72.5674 235.525 72.057 235.712 71.665C235.899 71.2686 236.17 70.9769 236.525 70.79C236.881 70.6032 237.314 70.5098 237.824 70.5098C238.111 70.5098 238.373 70.5348 238.61 70.585C238.852 70.6351 239.064 70.6921 239.246 70.7559L238.952 71.6514C238.797 71.6012 238.622 71.5557 238.426 71.5146C238.234 71.4691 238.038 71.4463 237.838 71.4463C237.405 71.4463 237.084 71.5876 236.874 71.8701C236.669 72.1481 236.566 72.5856 236.566 73.1826V73.7295H238.433V74.6182ZM240.941 73.7295V81.2217H239.807V73.7295H240.941ZM240.388 70.9268C240.575 70.9268 240.734 70.9883 240.866 71.1113C241.003 71.2298 241.071 71.4167 241.071 71.6719C241.071 71.9225 241.003 72.1094 240.866 72.2324C240.734 72.3555 240.575 72.417 240.388 72.417C240.192 72.417 240.028 72.3555 239.896 72.2324C239.768 72.1094 239.704 71.9225 239.704 71.6719C239.704 71.4167 239.768 71.2298 239.896 71.1113C240.028 70.9883 240.192 70.9268 240.388 70.9268ZM246.226 73.5928C246.864 73.5928 247.41 73.734 247.866 74.0166C248.322 74.2992 248.671 74.6956 248.912 75.2061C249.154 75.7119 249.274 76.3044 249.274 76.9834V77.6875H244.1C244.113 78.5671 244.332 79.237 244.756 79.6973C245.18 80.1576 245.777 80.3877 246.547 80.3877C247.021 80.3877 247.44 80.3444 247.805 80.2578C248.169 80.1712 248.548 80.0436 248.939 79.875V80.873C248.561 81.0417 248.185 81.1647 247.812 81.2422C247.442 81.3197 247.005 81.3584 246.499 81.3584C245.779 81.3584 245.15 81.2126 244.612 80.9209C244.079 80.6247 243.664 80.1917 243.368 79.6221C243.072 79.0524 242.924 78.3551 242.924 77.5303C242.924 76.7236 243.058 76.0264 243.327 75.4385C243.601 74.846 243.983 74.3903 244.476 74.0713C244.972 73.7523 245.556 73.5928 246.226 73.5928ZM246.212 74.5225C245.606 74.5225 245.123 74.7207 244.763 75.1172C244.403 75.5137 244.188 76.0674 244.12 76.7783H248.085C248.08 76.3317 248.01 75.9398 247.873 75.6025C247.741 75.2607 247.538 74.9964 247.265 74.8096C246.991 74.6182 246.64 74.5225 246.212 74.5225ZM253.868 81.3584C252.92 81.3584 252.168 81.0348 251.612 80.3877C251.061 79.7406 250.785 78.779 250.785 77.5029C250.785 76.2132 251.068 75.2402 251.633 74.584C252.198 73.9232 252.95 73.5928 253.889 73.5928C254.285 73.5928 254.632 73.6452 254.928 73.75C255.224 73.8548 255.479 73.9961 255.693 74.1738C255.908 74.347 256.088 74.5452 256.233 74.7686H256.315C256.297 74.6273 256.279 74.4336 256.261 74.1875C256.243 73.9414 256.233 73.7409 256.233 73.5859V70.585H257.368V81.2217H256.452L256.281 80.1553H256.233C256.092 80.3786 255.912 80.5814 255.693 80.7637C255.479 80.946 255.222 81.0918 254.921 81.2012C254.625 81.306 254.274 81.3584 253.868 81.3584ZM254.046 80.415C254.848 80.415 255.415 80.1872 255.748 79.7314C256.081 79.2757 256.247 78.599 256.247 77.7012V77.4961C256.247 76.5436 256.088 75.8122 255.769 75.3018C255.454 74.7913 254.88 74.5361 254.046 74.5361C253.349 74.5361 252.827 74.805 252.48 75.3428C252.134 75.876 251.961 76.6051 251.961 77.5303C251.961 78.4508 252.132 79.1618 252.474 79.6631C252.82 80.1644 253.344 80.415 254.046 80.415ZM262.229 73.7295H263.445L265.1 78.0771C265.195 78.3324 265.284 78.5785 265.366 78.8154C265.448 79.0479 265.521 79.2712 265.585 79.4854C265.649 79.6995 265.699 79.9069 265.735 80.1074H265.783C265.847 79.8796 265.938 79.5811 266.057 79.2119C266.175 78.8382 266.303 78.4577 266.439 78.0703L268.005 73.7295H269.229L265.968 82.3223C265.795 82.7826 265.592 83.1836 265.359 83.5254C265.132 83.8672 264.854 84.1292 264.525 84.3115C264.197 84.4984 263.801 84.5918 263.336 84.5918C263.122 84.5918 262.933 84.5781 262.769 84.5508C262.604 84.528 262.463 84.5007 262.345 84.4688V83.5596C262.445 83.5824 262.566 83.6029 262.707 83.6211C262.853 83.6393 263.003 83.6484 263.158 83.6484C263.441 83.6484 263.685 83.5938 263.89 83.4844C264.099 83.3796 264.279 83.2246 264.43 83.0195C264.58 82.8145 264.71 82.5706 264.819 82.2881L265.229 81.2354L262.229 73.7295ZM273.31 73.5928C273.948 73.5928 274.494 73.734 274.95 74.0166C275.406 74.2992 275.755 74.6956 275.996 75.2061C276.238 75.7119 276.358 76.3044 276.358 76.9834V77.6875H271.184C271.197 78.5671 271.416 79.237 271.84 79.6973C272.264 80.1576 272.861 80.3877 273.631 80.3877C274.105 80.3877 274.524 80.3444 274.889 80.2578C275.253 80.1712 275.632 80.0436 276.023 79.875V80.873C275.645 81.0417 275.269 81.1647 274.896 81.2422C274.526 81.3197 274.089 81.3584 273.583 81.3584C272.863 81.3584 272.234 81.2126 271.696 80.9209C271.163 80.6247 270.748 80.1917 270.452 79.6221C270.156 79.0524 270.008 78.3551 270.008 77.5303C270.008 76.7236 270.142 76.0264 270.411 75.4385C270.685 74.846 271.067 74.3903 271.56 74.0713C272.056 73.7523 272.64 73.5928 273.31 73.5928ZM273.296 74.5225C272.69 74.5225 272.207 74.7207 271.847 75.1172C271.487 75.5137 271.272 76.0674 271.204 76.7783H275.169C275.164 76.3317 275.094 75.9398 274.957 75.6025C274.825 75.2607 274.622 74.9964 274.349 74.8096C274.075 74.6182 273.724 74.5225 273.296 74.5225ZM280.706 80.4287C280.893 80.4287 281.084 80.4128 281.28 80.3809C281.476 80.349 281.636 80.3102 281.759 80.2646V81.1465C281.627 81.2057 281.442 81.2559 281.205 81.2969C280.973 81.3379 280.745 81.3584 280.521 81.3584C280.125 81.3584 279.765 81.29 279.441 81.1533C279.118 81.012 278.858 80.7751 278.662 80.4424C278.471 80.1097 278.375 79.6494 278.375 79.0615V74.6182H277.309V74.0645L278.382 73.6201L278.833 71.9932H279.517V73.7295H281.711V74.6182H279.517V79.0273C279.517 79.4967 279.624 79.8477 279.838 80.0801C280.057 80.3125 280.346 80.4287 280.706 80.4287Z" fill="#394759" fill-opacity="0.64"/>
<g filter="url(#filter0_d_4322_94912)">
<rect x="19" y="17" width="363" height="17.4439" rx="6.2632" fill="white"/>
</g>
<rect x="38.9358" y="22.8154" width="178.593" height="5.81465" rx="2.18465" fill="#DCE2E4"/>
<rect x="23.1533" y="20.3232" width="10.3916" height="10.3916" rx="2.71627" fill="#EDF1F2"/>
<circle cx="372.032" cy="25.3072" r="4.98398" fill="#EDF1F2"/>
<circle cx="358.742" cy="25.3072" r="4.98398" fill="#EDF1F2"/>
<defs>
<filter id="filter0_d_4322_94912" x="0.522659" y="0.0624377" width="399.955" height="54.399" filterUnits="userSpaceOnUse" color-interpolation-filters="sRGB">
<feFlood flood-opacity="0" result="BackgroundImageFix"/>
<feColorMatrix in="SourceAlpha" type="matrix" values="0 0 0 0 0 0 0 0 0 0 0 0 0 0 0 0 0 0 127 0" result="hardAlpha"/>
<feOffset dy="1.53978"/>
<feGaussianBlur stdDeviation="9.23867"/>
<feColorMatrix type="matrix" values="0 0 0 0 0.505882 0 0 0 0 0.576471 0 0 0 0 0.658824 0 0 0 0.363035 0"/>
<feBlend mode="normal" in2="BackgroundImageFix" result="effect1_dropShadow_4322_94912"/>
<feBlend mode="normal" in="SourceGraphic" in2="effect1_dropShadow_4322_94912" result="shape"/>
</filter>
</defs>
</svg>
