<svg
	width="218"
	height="160"
	viewBox="0 0 218 160"
	fill="none"
	xmlns="http://www.w3.org/2000/svg"
>
	<rect
		x="47.3594"
		y="0.574219"
		width="169.799"
		height="89.8559"
		rx="16.0947"
		fill="#EFF0F1"
	/>
	<rect
		x="102.082"
		y="29.165"
		width="64.3787"
		height="8.16871"
		rx="4.02367"
		fill="#DBE1E4"
	/>
	<rect
		x="65.0625"
		y="25.165"
		width="27.3609"
		height="27.3609"
		rx="8.04734"
		fill="#DBE1E4"
	/>
	<g filter="url(#filter0_d_4811_126778)">
		<rect x="20" y="48.7705" width="169.799" height="89.8559" rx="16.0947" fill="white" />
	</g>
	<rect
		x="81.1602"
		y="81.4453"
		width="94.9586"
		height="8.16871"
		rx="4.02367"
		fill="#DCE2E4"
	/>
	<rect
		x="81.1602"
		y="101.05"
		width="43.4556"
		height="8.16871"
		rx="4.02367"
		fill="#EDF1F2"
	/>
	<rect
		x="40.1172"
		y="67.0127"
		width="17.7041"
		height="17.7041"
		rx="8.85207"
		fill="#EDF1F2"
	/>
	<path
		d="M31.9169 94.0786C32.4661 90.0968 35.8692 87.1309 39.8887 87.1309H58.1696C62.1376 87.1309 65.5133 90.0232 66.1218 93.9442L67.2456 101.187C68.0026 106.065 64.2298 110.468 59.2935 110.468H38.8898C34.0082 110.468 30.2509 106.157 30.9179 101.321L31.9169 94.0786Z"
		fill="#EDF1F2"
	/>
	<defs>
		<filter
			id="filter0_d_4811_126778"
			x="0.686392"
			y="31.0664"
			width="208.424"
			height="128.483"
			filterUnits="userSpaceOnUse"
			color-interpolation-filters="sRGB"
		>
			<feFlood flood-opacity="0" result="BackgroundImageFix" />
			<feColorMatrix
				in="SourceAlpha"
				type="matrix"
				values="0 0 0 0 0 0 0 0 0 0 0 0 0 0 0 0 0 0 127 0"
				result="hardAlpha"
			/>
			<feOffset dy="1.60947" />
			<feGaussianBlur stdDeviation="9.6568" />
			<feColorMatrix
				type="matrix"
				values="0 0 0 0 0.505882 0 0 0 0 0.576471 0 0 0 0 0.658824 0 0 0 0.363035 0"
			/>
			<feBlend
				mode="normal"
				in2="BackgroundImageFix"
				result="effect1_dropShadow_4811_126778"
			/>
			<feBlend
				mode="normal"
				in="SourceGraphic"
				in2="effect1_dropShadow_4811_126778"
				result="shape"
			/>
		</filter>
	</defs>
</svg>
