<svg width="14" height="13" viewBox="0 0 14 13" fill="none" xmlns="http://www.w3.org/2000/svg">
<path d="M12 4.66667V4L8 0H1.33333C0.593333 0 0 0.593333 0 1.33333V10.6667C0 11.4067 0.6 12 1.33333 12H5.33333V10.7533L10.9267 5.16C11.22 4.86667 11.5933 4.70667 12 4.66667ZM7.33333 1L11 4.66667H7.33333V1ZM13.2333 7.46L12.58 8.11333L11.22 6.75333L11.8733 6.1C12 5.96667 12.22 5.96667 12.3533 6.1L13.2333 6.98C13.3667 7.11333 13.3667 7.33333 13.2333 7.46ZM10.7533 7.22L12.1133 8.58L8.02667 12.6667H6.66667V11.3067L10.7533 7.22Z" fill="currentColor"/>
</svg>
