<svg width="417" height="302" viewBox="0 0 417 302" fill="none" xmlns="http://www.w3.org/2000/svg">
<path d="M123.134 49.046C123.134 49.046 169.135 83.9543 239.068 18.682C301.175 -39.2846 351.887 52.1739 352.241 95.9724C352.701 152.708 290.134 198.104 320.498 235.368C350.861 272.633 260.282 334.17 211.465 280.914C150.737 214.666 134.286 268.493 99.6714 268.493C74.8283 268.493 23.823 206.763 58.2663 160.839C87.25 122.195 71.4427 109.37 63.788 95.9724C52.7457 76.6494 78.9689 24.2031 123.134 49.046Z" fill="url(#paint0_linear_404_159)" fill-opacity="0.24"/>
<path d="M213.742 121.492C212.975 121.406 212.27 121.027 211.776 120.433C211.285 119.838 211.041 119.077 211.098 118.306L212.688 89.263C212.783 87.5282 214.248 86.2101 215.91 86.3635L218.227 86.578C219.889 86.7313 221.08 88.294 220.847 90.0169L216.94 118.846C216.851 119.613 216.468 120.317 215.872 120.81C215.276 121.303 214.513 121.547 213.742 121.492Z" fill="url(#paint1_linear_404_159)" fill-opacity="0.72"/>
<path d="M200.011 123.995C199.772 124.066 199.522 124.089 199.274 124.063C199.028 124.035 198.787 123.96 198.569 123.84C198.35 123.722 198.159 123.561 198.002 123.367C197.846 123.174 197.73 122.95 197.659 122.713L191.981 104.646C191.816 104.132 191.862 103.573 192.107 103.094C192.353 102.613 192.779 102.249 193.294 102.084L194.764 101.64C195.016 101.566 195.281 101.546 195.542 101.58C195.802 101.614 196.052 101.701 196.277 101.837C196.503 101.972 196.697 102.153 196.849 102.367C197 102.582 197.106 102.825 197.158 103.083L201.367 121.594C201.485 122.091 201.41 122.615 201.159 123.06C200.907 123.505 200.498 123.839 200.011 123.995Z" fill="url(#paint2_linear_404_159)" fill-opacity="0.72"/>
<path d="M192.35 134.414C191.332 135.675 189.285 135.659 187.71 134.38L159.747 111.66C158.076 110.302 157.584 108.056 158.662 106.72L160.167 104.857C161.247 103.52 163.463 103.63 165.044 105.098L191.504 129.683C192.995 131.066 193.367 133.154 192.35 134.414Z" fill="url(#paint3_linear_404_159)" fill-opacity="0.72"/>
<path d="M205.277 193.098C205.997 193.377 206.581 193.924 206.905 194.624C207.232 195.324 207.272 196.124 207.02 196.853L198.065 224.527C197.53 226.18 195.777 227.079 194.209 226.506L192.022 225.708C190.455 225.135 189.702 223.319 190.367 221.715L201.508 194.84C201.791 194.12 202.34 193.538 203.043 193.213C203.745 192.888 204.544 192.847 205.277 193.098Z" fill="url(#paint4_linear_404_159)" fill-opacity="0.72"/>
<path d="M219.189 194.184C219.437 194.177 219.686 194.22 219.918 194.308C220.15 194.397 220.363 194.531 220.544 194.702C220.724 194.872 220.87 195.078 220.971 195.304C221.072 195.531 221.129 195.776 221.135 196.026L222.011 214.943C222.039 215.483 221.854 216.01 221.492 216.411C221.132 216.814 220.626 217.056 220.089 217.085L218.553 217.139C218.29 217.145 218.029 217.098 217.786 216.998C217.542 216.898 217.323 216.75 217.139 216.561C216.957 216.373 216.814 216.149 216.722 215.902C216.632 215.656 216.592 215.394 216.606 215.132L217.265 196.161C217.279 195.649 217.485 195.162 217.841 194.796C218.198 194.429 218.679 194.212 219.189 194.184Z" fill="url(#paint5_linear_404_159)" fill-opacity="0.72"/>
<path d="M229.257 186.067C230.563 185.108 232.537 185.646 233.733 187.285L254.968 216.393C256.235 218.132 256.139 220.428 254.754 221.446L252.823 222.863C251.438 223.88 249.322 223.208 248.168 221.384L228.863 190.858C227.779 189.14 227.952 187.026 229.257 186.067Z" fill="url(#paint6_linear_404_159)" fill-opacity="0.72"/>
<g filter="url(#filter0_d_404_159)">
<path d="M307.812 126.188C310.285 127.107 312.986 127.169 315.557 126.577C326.328 124.106 363.365 117.559 356.93 146.259C355.528 151.953 333.837 183.843 364.727 195.482C366.991 196.347 369.384 196.818 371.807 196.877C381.318 197.073 400.165 194.827 408.053 186.798C417.583 177.098 407.172 181.698 407.172 181.698C407.172 181.698 370.946 197.506 358.149 180.734C356.726 178.868 355.819 176.157 355.56 173.824C355.109 169.779 356.905 164.434 359.265 159.779C362.459 153.48 377.791 125.146 344.501 116.893C336.832 115.066 325.694 113.427 311.333 119.473C302.955 123 304.811 125.073 307.812 126.188Z" fill="#5B6BE1" fill-opacity="0.63"/>
<path d="M315.227 115.61L305.586 119.22C302.258 120.466 300.569 124.173 301.815 127.501L302.293 128.779C303.539 132.107 307.246 133.795 310.574 132.55L320.218 128.941C323.545 127.696 325.234 123.988 323.988 120.659L323.51 119.382C322.265 116.053 318.557 114.365 315.227 115.61Z" fill="#5B6BE1"/>
<path d="M256.038 126.053L224.24 137.955C222.574 138.577 221.73 140.431 222.354 142.095L222.479 142.43C223.101 144.094 224.955 144.939 226.621 144.317L258.419 132.415C260.084 131.791 260.929 129.937 260.305 128.273L260.179 127.938C259.557 126.274 257.703 125.43 256.038 126.053Z" fill="#5B6BE1"/>
<path d="M264.912 149.766L233.112 161.667C231.448 162.29 230.604 164.144 231.228 165.808L231.352 166.143C231.975 167.807 233.829 168.652 235.493 168.028L267.293 156.128C268.957 155.504 269.801 153.65 269.179 151.986L269.053 151.651C268.431 149.987 266.576 149.143 264.912 149.766Z" fill="#5B6BE1"/>
<path d="M294.271 109.871L268.498 119.516C265.169 120.761 263.481 124.471 264.726 127.799L273.527 151.309C274.773 154.637 278.48 156.325 281.808 155.08L307.582 145.435C310.91 144.189 312.598 140.482 311.353 137.152L302.553 113.642C301.308 110.314 297.6 108.625 294.271 109.871Z" fill="url(#paint7_linear_404_159)"/>
<path d="M271.166 116.038L245.392 125.684C242.064 126.93 240.376 130.638 241.621 133.967L252.12 162.016C253.365 165.344 257.073 167.032 260.401 165.786L286.175 156.142C289.502 154.896 291.191 151.188 289.945 147.859L279.447 119.81C278.201 116.481 274.494 114.792 271.166 116.038Z" fill="url(#paint8_linear_404_159)"/>
<path d="M275.199 110.346L274.997 110.421C272.778 111.251 271.652 113.724 272.482 115.943L287.19 155.238C288.02 157.456 290.491 158.582 292.71 157.752L292.912 157.675C295.132 156.845 296.257 154.373 295.426 152.155L280.721 112.86C279.89 110.641 277.418 109.515 275.199 110.346Z" fill="#5B6BE1"/>
</g>
<g filter="url(#filter1_d_404_159)">
<path d="M12.4015 135.467C12.4015 135.467 64.162 120.921 56.6473 154.435C55.3422 159.738 36.5565 187.041 58.9331 200.15C63.7379 202.964 69.2827 204.212 74.851 204.183C84.8344 204.13 100.661 202.209 107.771 194.973C117.3 185.273 106.89 189.872 106.89 189.872C106.89 189.872 77.1633 202.1 61.8699 192.353C56.6479 189.025 54.2809 182.581 55.6989 176.552C56.4238 173.558 57.5274 170.668 58.9834 167.953C62.3093 161.724 77.5102 133.321 44.2198 125.067C36.551 123.241 25.4126 121.602 11.0507 127.647C-3.3111 133.695 12.4015 135.467 12.4015 135.467Z" fill="#5B6BE1" fill-opacity="0.63"/>
<path d="M114.729 182.373L105.087 185.982C101.758 187.228 100.07 190.936 101.316 194.265L101.794 195.541C103.039 198.871 106.748 200.559 110.076 199.312L119.718 195.704C123.047 194.458 124.735 190.75 123.489 187.421L123.011 186.145C121.766 182.815 118.058 181.127 114.729 182.373Z" fill="#5B6BE1"/>
<path d="M131.021 166.509L116.731 171.857C113.402 173.103 111.714 176.811 112.96 180.14L119.85 198.55C121.096 201.88 124.804 203.568 128.133 202.322L142.423 196.974C145.751 195.728 147.439 192.02 146.194 188.691L139.303 170.281C138.057 166.951 134.349 165.263 131.021 166.509Z" fill="url(#paint9_linear_404_159)"/>
<path d="M154.812 152.333L133.501 160.31C130.173 161.555 128.485 165.263 129.73 168.592L140.228 196.641C141.474 199.971 145.182 201.659 148.51 200.413L169.821 192.437C173.15 191.192 174.838 187.484 173.593 184.154L163.094 156.105C161.849 152.776 158.141 151.088 154.812 152.333Z" fill="url(#paint10_linear_404_159)"/>
<path d="M159.327 146.525L159.125 146.6C156.905 147.43 155.78 149.903 156.61 152.122L171.316 191.417C172.146 193.635 174.619 194.761 176.838 193.931L177.04 193.854C179.258 193.024 180.385 190.553 179.554 188.333L164.847 149.039C164.017 146.821 161.545 145.695 159.327 146.525Z" fill="#5B6BE1"/>
</g>
<defs>
<filter id="filter0_d_404_159" x="217.664" y="106.471" width="198.891" height="96.3959" filterUnits="userSpaceOnUse" color-interpolation-filters="sRGB">
<feFlood flood-opacity="0" result="BackgroundImageFix"/>
<feColorMatrix in="SourceAlpha" type="matrix" values="0 0 0 0 0 0 0 0 0 0 0 0 0 0 0 0 0 0 127 0" result="hardAlpha"/>
<feOffset dy="1.49477"/>
<feGaussianBlur stdDeviation="2.24216"/>
<feComposite in2="hardAlpha" operator="out"/>
<feColorMatrix type="matrix" values="0 0 0 0 0.505882 0 0 0 0 0.576471 0 0 0 0 0.658824 0 0 0 0.363 0"/>
<feBlend mode="normal" in2="BackgroundImageFix" result="effect1_dropShadow_404_159"/>
<feBlend mode="normal" in="SourceGraphic" in2="effect1_dropShadow_404_159" result="shape"/>
</filter>
<filter id="filter1_d_404_159" x="0.51568" y="120.405" width="183.796" height="89.7572" filterUnits="userSpaceOnUse" color-interpolation-filters="sRGB">
<feFlood flood-opacity="0" result="BackgroundImageFix"/>
<feColorMatrix in="SourceAlpha" type="matrix" values="0 0 0 0 0 0 0 0 0 0 0 0 0 0 0 0 0 0 127 0" result="hardAlpha"/>
<feOffset dy="1.49477"/>
<feGaussianBlur stdDeviation="2.24216"/>
<feComposite in2="hardAlpha" operator="out"/>
<feColorMatrix type="matrix" values="0 0 0 0 0.505882 0 0 0 0 0.576471 0 0 0 0 0.658824 0 0 0 0.363 0"/>
<feBlend mode="normal" in2="BackgroundImageFix" result="effect1_dropShadow_404_159"/>
<feBlend mode="normal" in="SourceGraphic" in2="effect1_dropShadow_404_159" result="shape"/>
</filter>
<linearGradient id="paint0_linear_404_159" x1="7.7745" y1="-36.6936" x2="465.209" y2="188.664" gradientUnits="userSpaceOnUse">
<stop stop-color="#F75A92"/>
<stop offset="1" stop-color="#FF9A9A"/>
</linearGradient>
<linearGradient id="paint1_linear_404_159" x1="209.843" y1="82.0766" x2="227.722" y2="84.498" gradientUnits="userSpaceOnUse">
<stop stop-color="#F75A92"/>
<stop offset="1" stop-color="#FF9A9A"/>
</linearGradient>
<linearGradient id="paint2_linear_404_159" x1="190.669" y1="98.8264" x2="207.69" y2="102.335" gradientUnits="userSpaceOnUse">
<stop stop-color="#F75A92"/>
<stop offset="1" stop-color="#FF9A9A"/>
</linearGradient>
<linearGradient id="paint3_linear_404_159" x1="153.654" y1="100.099" x2="203.862" y2="127.168" gradientUnits="userSpaceOnUse">
<stop stop-color="#F75A92"/>
<stop offset="1" stop-color="#FF9A9A"/>
</linearGradient>
<linearGradient id="paint4_linear_404_159" x1="187.952" y1="188.831" x2="217.878" y2="196.19" gradientUnits="userSpaceOnUse">
<stop stop-color="#F75A92"/>
<stop offset="1" stop-color="#FF9A9A"/>
</linearGradient>
<linearGradient id="paint5_linear_404_159" x1="215.914" y1="191.392" x2="225.85" y2="192.531" gradientUnits="userSpaceOnUse">
<stop stop-color="#F75A92"/>
<stop offset="1" stop-color="#FF9A9A"/>
</linearGradient>
<linearGradient id="paint6_linear_404_159" x1="224.623" y1="181.001" x2="270.341" y2="197.326" gradientUnits="userSpaceOnUse">
<stop stop-color="#F75A92"/>
<stop offset="1" stop-color="#FF9A9A"/>
</linearGradient>
<linearGradient id="paint7_linear_404_159" x1="258.274" y1="103.863" x2="328.809" y2="139.231" gradientUnits="userSpaceOnUse">
<stop stop-color="#F75A92"/>
<stop offset="1" stop-color="#FF9A9A"/>
</linearGradient>
<linearGradient id="paint8_linear_404_159" x1="233.84" y1="115.628" x2="309.098" y2="137.315" gradientUnits="userSpaceOnUse">
<stop stop-color="#A282E8"/>
<stop offset="0.484375" stop-color="#7E8EE7"/>
<stop offset="1" stop-color="#4499E9"/>
</linearGradient>
<linearGradient id="paint9_linear_404_159" x1="108.212" y1="161.643" x2="160.812" y2="185.428" gradientUnits="userSpaceOnUse">
<stop stop-color="#F75A92"/>
<stop offset="1" stop-color="#FF9A9A"/>
</linearGradient>
<linearGradient id="paint10_linear_404_159" x1="122.618" y1="151.923" x2="191.658" y2="170.629" gradientUnits="userSpaceOnUse">
<stop stop-color="#A282E8"/>
<stop offset="0.484375" stop-color="#7E8EE7"/>
<stop offset="1" stop-color="#4499E9"/>
</linearGradient>
</defs>
</svg>
