<svg width="14" height="14" viewBox="0 0 14 14" fill="none" xmlns="http://www.w3.org/2000/svg">
<path d="M6.99992 12.332C5.58543 12.332 4.22888 11.7701 3.22868 10.7699C2.22849 9.76974 1.66659 8.41319 1.66659 6.9987C1.66659 5.58421 2.22849 4.22766 3.22868 3.22746C4.22888 2.22727 5.58543 1.66536 6.99992 1.66536C8.41441 1.66536 9.77096 2.22727 10.7712 3.22746C11.7713 4.22766 12.3333 5.58421 12.3333 6.9987C12.3333 8.41319 11.7713 9.76974 10.7712 10.7699C9.77096 11.7701 8.41441 12.332 6.99992 12.332ZM6.99992 0.332031C6.12444 0.332031 5.25753 0.50447 4.4487 0.839501C3.63986 1.17453 2.90493 1.6656 2.28587 2.28465C1.03563 3.5349 0.333252 5.23059 0.333252 6.9987C0.333252 8.76681 1.03563 10.4625 2.28587 11.7127C2.90493 12.3318 3.63986 12.8229 4.4487 13.1579C5.25753 13.4929 6.12444 13.6654 6.99992 13.6654C8.76803 13.6654 10.4637 12.963 11.714 11.7127C12.9642 10.4625 13.6666 8.76681 13.6666 6.9987C13.6666 6.12322 13.4941 5.25631 13.1591 4.44747C12.8241 3.63864 12.333 2.90371 11.714 2.28465C11.0949 1.6656 10.36 1.17453 9.55114 0.839501C8.7423 0.50447 7.8754 0.332031 6.99992 0.332031ZM9.82659 4.17203C9.04659 3.38536 8.01992 2.9987 6.99992 2.9987V6.9987L4.17325 9.82537C5.73325 11.3854 8.26659 11.3854 9.82659 9.82537C11.3933 8.26536 11.3933 5.73203 9.82659 4.17203Z" fill="currentColor"/>
</svg>
