<svg width="9" height="13" viewBox="0 0 9 13" fill="none" xmlns="http://www.w3.org/2000/svg">
<path fill-rule="evenodd" clip-rule="evenodd" d="M2.25 0.5C1.85218 0.5 1.47064 0.658035 1.18934 0.93934C0.908035 1.22064 0.75 1.60218 0.75 2V11C0.75 11.3978 0.908035 11.7794 1.18934 12.0607C1.47064 12.342 1.85218 12.5 2.25 12.5H6.75C7.14782 12.5 7.52936 12.342 7.81066 12.0607C8.09196 11.7794 8.25 11.3978 8.25 11V2C8.25 1.60218 8.09196 1.22064 7.81066 0.93934C7.52936 0.658035 7.14782 0.5 6.75 0.5H2.25ZM4.5 11C4.69891 11 4.88968 10.921 5.03033 10.7803C5.17098 10.6397 5.25 10.4489 5.25 10.25C5.25 10.0511 5.17098 9.86032 5.03033 9.71967C4.88968 9.57902 4.69891 9.5 4.5 9.5C4.30109 9.5 4.11032 9.57902 3.96967 9.71967C3.82902 9.86032 3.75 10.0511 3.75 10.25C3.75 10.4489 3.82902 10.6397 3.96967 10.7803C4.11032 10.921 4.30109 11 4.5 11Z" fill="currentColor"/>
</svg>
