<svg width="14" height="14" viewBox="0 0 14 14" fill="none" xmlns="http://www.w3.org/2000/svg">
<path fill-rule="evenodd" clip-rule="evenodd" d="M3.76839 10.2314C0.92656 7.38962 -0.149021 4.03449 1.09526 1.96214L1.17696 1.83438L1.3802 1.61907L2.39004 0.583008L5.09475 3.28772L3.95235 4.46249L3.92237 4.49665C3.30556 5.6867 4.05803 7.35105 5.35341 8.64643C6.63397 9.92699 8.27512 10.677 9.46217 10.0981L9.59201 9.98227L10.1807 9.41947L10.7121 8.90508L13.4168 11.6098L12.2485 12.7342L12.1131 12.8569C12.1091 12.8601 12.106 12.8625 12.1039 12.8638C10.0373 14.1717 6.64067 13.1037 3.76839 10.2314Z" fill="url(#paint0_linear_1068_5217)"/>
<defs>
<linearGradient id="paint0_linear_1068_5217" x1="-1.3415" y1="0.583008" x2="18.223" y2="6.38431" gradientUnits="userSpaceOnUse">
<stop stop-color="#A282E8"/>
<stop offset="0.484375" stop-color="#7E8EE7"/>
<stop offset="1" stop-color="#4499E9"/>
</linearGradient>
</defs>
</svg>
