<svg width="48" height="48" viewBox="0 0 48 48" fill="none" xmlns="http://www.w3.org/2000/svg">
<path d="M0 10C0 4.47715 4.47715 0 10 0H38C43.5228 0 48 4.47715 48 10V38C48 43.5228 43.5228 48 38 48H10C4.47715 48 0 43.5228 0 38V10Z" fill="currentColor"/>
<path d="M20.7427 20.0175C20.7427 15.2807 23.3158 13.5848 25.7134 13.5848C28.6667 13.5848 30.655 16.1579 30.655 19.9591C30.655 24.3158 28.1404 26.2749 25.655 26.2749C22.2924 26.2749 20.7427 23.0292 20.7427 20.0175ZM26.9123 8C23.4035 8 21.386 9.57894 20.3918 10.6901C20.2749 9.75438 19.6608 8.52631 17.2339 8.52631H12V14.0526H14.1345C14.4854 14.0526 14.6023 14.1696 14.6023 14.5497V39.8129H20.8596V30.3392C20.8596 30.076 20.8596 29.8421 20.8596 29.6374C21.8246 30.5439 23.6959 31.7719 26.6199 31.7719C32.731 31.7719 37 26.8889 37 19.9006C37 12.7953 32.9357 8 26.9123 8Z" fill="white"/>
</svg>
