<svg width="23" height="23" viewBox="0 0 23 23" fill="none" xmlns="http://www.w3.org/2000/svg">
<path fill-rule="evenodd" clip-rule="evenodd" d="M11.5 23C14.55 23 17.4751 21.7884 19.6317 19.6317C21.7884 17.4751 23 14.55 23 11.5C23 8.45001 21.7884 5.52494 19.6317 3.36827C17.4751 1.2116 14.55 0 11.5 0C8.45001 0 5.52494 1.2116 3.36827 3.36827C1.2116 5.52494 0 8.45001 0 11.5C0 14.55 1.2116 17.4751 3.36827 19.6317C5.52494 21.7884 8.45001 23 11.5 23ZM10.8603 7.429C10.6438 7.28456 10.3922 7.2016 10.1322 7.18898C9.8723 7.17635 9.6138 7.23453 9.38434 7.35731C9.15487 7.48008 8.96304 7.66285 8.8293 7.88611C8.69557 8.10937 8.62496 8.36475 8.625 8.625V14.375C8.62496 14.6352 8.69557 14.8906 8.8293 15.1139C8.96304 15.3371 9.15487 15.5199 9.38434 15.6427C9.6138 15.7655 9.8723 15.8236 10.1322 15.811C10.3922 15.7984 10.6438 15.7154 10.8603 15.571L15.1728 12.696C15.3697 12.5647 15.5311 12.3869 15.6428 12.1782C15.7544 11.9696 15.8128 11.7366 15.8128 11.5C15.8128 11.2634 15.7544 11.0304 15.6428 10.8218C15.5311 10.6131 15.3697 10.4353 15.1728 10.304L10.8603 7.429Z" fill="url(#paint0_linear_2695_80758)"/>
<defs>
<linearGradient id="paint0_linear_2695_80758" x1="-3.45" y1="-1.5548e-07" x2="31.6137" y2="10.3971" gradientUnits="userSpaceOnUse">
<stop stop-color="#A282E8"/>
<stop offset="0.484375" stop-color="#7E8EE7"/>
<stop offset="1" stop-color="#4499E9"/>
</linearGradient>
</defs>
</svg>
