<svg width="18" height="18" viewBox="0 0 18 18" fill="none" xmlns="http://www.w3.org/2000/svg">
<path d="M8.13342 12.1513C7.8038 12.3985 7.33342 12.1633 7.33342 11.7513V6.2513C7.33342 5.83928 7.8038 5.60409 8.13342 5.8513L11.8001 8.6013C12.0667 8.8013 12.0667 9.2013 11.8001 9.4013L8.13342 12.1513ZM9.00008 0.667969C7.90573 0.667969 6.8221 0.883517 5.81105 1.30231C4.80001 1.7211 3.88135 2.33492 3.10752 3.10875C1.54472 4.67155 0.666748 6.79117 0.666748 9.0013C0.666748 11.2114 1.54472 13.3311 3.10752 14.8939C3.88135 15.6677 4.80001 16.2815 5.81105 16.7003C6.8221 17.1191 7.90573 17.3346 9.00008 17.3346C11.2102 17.3346 13.3298 16.4567 14.8926 14.8939C16.4554 13.3311 17.3334 11.2114 17.3334 9.0013C17.3334 7.90695 17.1179 6.82332 16.6991 5.81227C16.2803 4.80123 15.6665 3.88257 14.8926 3.10875C14.1188 2.33492 13.2002 1.7211 12.1891 1.30231C11.1781 0.883517 10.0944 0.667969 9.00008 0.667969Z" fill="currentColor"/>
</svg>
