<svg width="20" height="20" viewBox="0 0 20 20" fill="none" xmlns="http://www.w3.org/2000/svg">
<path d="M10.8359 1.69165V1.70832V3.37498C14.4943 3.82498 17.0859 7.14998 16.6359 10.8083C16.2526 13.8417 13.8693 16.25 10.8359 16.6083V18.275C15.4193 17.8167 18.7526 13.75 18.2943 9.16665C17.9193 5.20832 14.7776 2.08332 10.8359 1.69165ZM9.16927 1.71665C7.54427 1.87498 5.99427 2.49998 4.7276 3.54998L5.91927 4.78332C6.8526 4.03332 7.9776 3.54998 9.16927 3.38332V1.71665ZM3.5526 4.72498C2.5026 5.99165 1.8776 7.53332 1.71094 9.16665H3.3776C3.53594 7.98332 4.0026 6.85832 4.74427 5.91665L3.5526 4.72498ZM1.71927 10.8333C1.88594 12.4667 2.5276 14.0083 3.56094 15.275L4.74427 14.0833C4.01094 13.1417 3.53594 12.0167 3.38594 10.8333H1.71927ZM5.91927 15.3083L4.7276 16.45C5.98594 17.5 7.53594 18.1583 9.16927 18.3333V16.6667C7.98594 16.5167 6.86094 16.0417 5.91927 15.3083ZM10.4193 5.83332V10.2083L14.1693 12.4333L13.5443 13.4583L9.16927 10.8333V5.83332H10.4193Z" fill="currentColor"/>
</svg>
