<svg width="238" height="40" viewBox="0 0 238 40" fill="none" xmlns="http://www.w3.org/2000/svg">
<mask id="path-1-inside-1_8052_6013" fill="white">
<path fill-rule="evenodd" clip-rule="evenodd" d="M10 0C4.47715 0 0 4.47715 0 10V30C0 35.5228 4.47715 40 10 40H219C221.761 40 224 37.7614 224 35C224 33.8954 224.895 33 226 33H230C234.418 33 238 29.4183 238 25V15C238 10.5817 234.418 7 230 7H226C224.895 7 224 6.10457 224 5C224 2.23858 221.761 0 219 0H10Z"/>
</mask>
<path fill-rule="evenodd" clip-rule="evenodd" d="M10 0C4.47715 0 0 4.47715 0 10V30C0 35.5228 4.47715 40 10 40H219C221.761 40 224 37.7614 224 35C224 33.8954 224.895 33 226 33H230C234.418 33 238 29.4183 238 25V15C238 10.5817 234.418 7 230 7H226C224.895 7 224 6.10457 224 5C224 2.23858 221.761 0 219 0H10Z" fill="#5B6BE1" fill-opacity="0.16"/>
<path d="M1 10C1 5.02944 5.02944 1 10 1V-1C3.92487 -1 -1 3.92487 -1 10H1ZM1 30V10H-1V30H1ZM10 39C5.02944 39 1 34.9706 1 30H-1C-1 36.0751 3.92487 41 10 41V39ZM219 39H10V41H219V39ZM223 35C223 37.2091 221.209 39 219 39V41C222.314 41 225 38.3137 225 35H223ZM230 32H226V34H230V32ZM237 25C237 28.866 233.866 32 230 32V34C234.971 34 239 29.9706 239 25H237ZM237 15V25H239V15H237ZM230 8C233.866 8 237 11.134 237 15H239C239 10.0294 234.971 6 230 6V8ZM226 8H230V6H226V8ZM219 1C221.209 1 223 2.79086 223 5H225C225 1.68629 222.314 -1 219 -1V1ZM10 1H219V-1H10V1ZM226 6C225.448 6 225 5.55228 225 5H223C223 6.65685 224.343 8 226 8V6ZM225 35C225 34.4477 225.448 34 226 34V32C224.343 32 223 33.3431 223 35H225Z" fill="#5B6BE1" mask="url(#path-1-inside-1_8052_6013)"/>
</svg>
