<svg width="18" height="19" viewBox="0 0 18 19" fill="none" xmlns="http://www.w3.org/2000/svg">
<path d="M12.3333 7.50016C17.3333 7.50016 17.3333 10.8335 17.3333 10.8335V11.5002C17.3333 12.0524 16.8856 12.5002 16.3333 12.5002H12.3333V10.8335C12.3333 10.8335 12.3333 9.42516 11.375 8.16683C11.2333 7.97516 11.0583 7.79183 10.875 7.61683C11.3083 7.55016 11.7833 7.50016 12.3333 7.50016ZM0.666626 10.8335C0.666626 10.8335 0.666626 7.50016 5.66663 7.50016C10.6666 7.50016 10.6666 10.8335 10.6666 10.8335V11.5002C10.6666 12.0524 10.2189 12.5002 9.66663 12.5002H1.66663C1.11434 12.5002 0.666626 12.0524 0.666626 11.5002V10.8335ZM6.15854 14.5083C6.28453 14.3823 6.49996 14.4715 6.49996 14.6497V15.8335H11.5V14.6497C11.5 14.4715 11.7154 14.3823 11.8414 14.5082L13.8585 16.5254C13.9366 16.6035 13.9366 16.7301 13.8585 16.8082L11.8414 18.8254C11.7154 18.9514 11.5 18.8622 11.5 18.684V17.5002H6.49996V18.684C6.49996 18.8622 6.28453 18.9514 6.15854 18.8254L4.14138 16.8082C4.06328 16.7301 4.06328 16.6035 4.14138 16.5254L6.15854 14.5083ZM5.66663 0.833496C4.28329 0.833496 3.16663 1.95016 3.16663 3.3335C3.16663 4.71683 4.28329 5.8335 5.66663 5.8335C7.04996 5.8335 8.16663 4.71683 8.16663 3.3335C8.16663 1.95016 7.04996 0.833496 5.66663 0.833496ZM12.3333 0.833496C10.95 0.833496 9.83329 1.95016 9.83329 3.3335C9.83329 4.71683 10.95 5.8335 12.3333 5.8335C13.7166 5.8335 14.8333 4.71683 14.8333 3.3335C14.8333 1.95016 13.7166 0.833496 12.3333 0.833496Z" fill="currentColor"/>
</svg>
