<svg width="14" height="14" viewBox="0 0 14 14" fill="none" xmlns="http://www.w3.org/2000/svg">
    <path d="M11.709 2.29159C10.5007 1.08325 8.84232 0.333252 7.00065 0.333252C5.23254 0.333252 3.53685 1.03563 2.28661 2.28587C1.03636 3.53612 0.333984 5.23181 0.333984 6.99992C0.333984 8.76803 1.03636 10.4637 2.28661 11.714C3.53685 12.9642 5.23254 13.6666 7.00065 13.6666C10.109 13.6666 12.7007 11.5416 13.4423 8.66658H11.709C11.0257 10.6083 9.17565 11.9999 7.00065 11.9999C5.67457 11.9999 4.4028 11.4731 3.46512 10.5355C2.52744 9.59777 2.00065 8.326 2.00065 6.99992C2.00065 5.67384 2.52744 4.40207 3.46512 3.46438C4.4028 2.5267 5.67457 1.99992 7.00065 1.99992C8.38398 1.99992 9.61732 2.57492 10.5173 3.48325L7.83398 6.16658H13.6673V0.333252L11.709 2.29159Z" fill="currentColor"/>
</svg>
    