<svg width="14" height="15" viewBox="0 0 14 15" fill="none" xmlns="http://www.w3.org/2000/svg">
<path d="M6.89557 2.22858C8.20419 2.22858 9.38953 2.75962 10.2525 3.61307L7.84384 6.02169H13.5335V0.332031L11.5895 2.276C10.3852 1.07169 8.72574 0.332031 6.89557 0.332031C3.54815 0.332031 0.798151 2.80703 0.333496 6.02169H2.24901C2.68522 3.85962 4.60074 2.22858 6.89557 2.22858Z" fill="currentColor"/>
<path d="M6.97143 12.1855C5.66281 12.1855 4.47746 11.6544 3.61453 10.801L6.02315 8.39238H0.333496V14.082L2.27746 12.1381C3.48177 13.3424 5.14125 14.082 6.97143 14.082C10.3188 14.082 13.0688 11.607 13.5335 8.39238H11.618C11.1818 10.5544 9.26626 12.1855 6.97143 12.1855Z" fill="currentColor"/>
</svg>
