<svg width="22" height="21" viewBox="0 0 22 21" fill="none" xmlns="http://www.w3.org/2000/svg">
<g clip-path="url(#clip0_29323_18557)">
<path d="M11.0003 9.382L3.00326 5.384C3.03286 4.87444 3.25616 4.39549 3.62743 4.04523C3.9987 3.69497 4.48984 3.49991 5.00026 3.5H17.0003C17.5107 3.49991 18.0018 3.69497 18.3731 4.04523C18.7443 4.39549 18.9677 4.87444 18.9973 5.384L11.0003 9.382Z" fill="currentColor"/>
<path d="M11 11.6172L19 7.61719V10.7561C18.5308 10.5902 18.026 10.5 17.5 10.5C15.0147 10.5 13 12.5147 13 15C13 15.1687 13.0093 15.3353 13.0274 15.4992H5C4.46957 15.4992 3.96086 15.2885 3.58579 14.9134C3.21071 14.5383 3 14.0296 3 13.4992V7.61719L11 11.6172Z" fill="currentColor"/>
<path d="M19.8262 12.6739C19.2073 12.055 18.3579 11.6708 17.4146 11.6708C16.509 11.6708 15.6405 12.0306 15.0001 12.6709C14.3598 13.3113 14 14.1798 14 15.0854C14 15.991 14.3598 16.8595 15.0001 17.4999C15.6405 18.1402 16.509 18.5 17.4146 18.5C18.8047 18.5 19.993 17.6703 20.5251 16.4796C20.6435 16.2146 20.4311 15.9391 20.1408 15.9391C19.9523 15.9391 19.7878 16.0599 19.7037 16.2286C19.285 17.069 18.4172 17.6464 17.4146 17.6464C16.7354 17.6464 16.084 17.3765 15.6038 16.8963C15.1235 16.416 14.8537 15.7646 14.8537 15.0854C14.8537 14.4062 15.1235 13.7548 15.6038 13.2745C16.084 12.7943 16.7354 12.5245 17.4146 12.5245C18.1232 12.5245 18.7549 12.819 19.2159 13.2842L18.4835 14.0165C18.3006 14.1994 18.4193 14.5125 18.6775 14.5281L20.3269 14.6281C20.6038 14.6449 20.8415 14.433 20.8565 14.156L20.9577 12.2823C20.9726 12.0076 20.6406 11.8595 20.446 12.054L19.8262 12.6739Z" fill="currentColor"/>
</g>
<defs>
<clipPath id="clip0_29323_18557">
<rect width="18" height="15" fill="white" transform="translate(3 3.5)"/>
</clipPath>
</defs>
</svg>
