<svg width="35" height="37" viewBox="0 0 35 37" fill="none" xmlns="http://www.w3.org/2000/svg">
<path fill-rule="evenodd" clip-rule="evenodd" d="M17.4998 36.9999C8.70682 36.9999 1.80338 30.9964 0.243836 22.2939C0.214724 22.1314 0.162109 21.8037 0.162109 21.8037L8.87497 21.8039C8.87497 21.8039 8.93226 22.0002 8.96277 22.0967C10.2546 26.1817 13.7632 28.294 17.4998 28.294C21.2427 28.294 24.7568 26.2188 26.0433 22.1034C26.0742 22.0047 26.1321 21.8038 26.1321 21.8038L34.8376 21.8037C34.8376 21.8037 34.7939 22.0777 34.7701 22.2137C33.2387 30.9595 26.3198 36.9999 17.4998 36.9999ZM17.5 0C26.6971 0 33.8269 6.50823 34.9368 15.9078C34.9607 16.1099 35 16.5179 35 16.5179L26.415 16.5179C26.415 16.5179 26.3779 16.2862 26.357 16.1723C25.4472 11.2102 21.6116 8.70588 17.5 8.70588C13.4354 8.70588 9.64052 11.1532 8.67535 16.0031C8.64177 16.1718 8.585 16.5179 8.585 16.5179L0 16.5179C0 16.5179 0.0568958 15.9451 0.0935953 15.6626C1.29758 6.39521 8.38313 0 17.5 0Z" fill="url(#paint0_linear_645_6157)"/>
<defs>
<linearGradient id="paint0_linear_645_6157" x1="0" y1="0" x2="0" y2="36.9999" gradientUnits="userSpaceOnUse">
<stop stop-color="#00F0EA"/>
<stop offset="1" stop-color="#00DDD0"/>
</linearGradient>
</defs>
</svg>
