<svg width="24" height="24" viewBox="0 0 24 24" fill="none" xmlns="http://www.w3.org/2000/svg">
<path fill-rule="evenodd" clip-rule="evenodd" d="M12 24C6.30821 24 1.83959 20.1058 0.83009 14.4609C0.811246 14.3555 0.777188 14.1429 0.777188 14.1429L6.41705 14.143C6.41705 14.143 6.45414 14.2704 6.47389 14.333C7.31007 16.9827 9.58123 18.3529 12 18.3529C14.4227 18.3529 16.6974 17.0068 17.5302 14.3373C17.5502 14.2733 17.5876 14.143 17.5876 14.143L23.2227 14.1429C23.2227 14.1429 23.1944 14.3206 23.179 14.4089C22.1878 20.0818 17.7092 24 12 24ZM11.9999 0C17.9532 0 22.5684 4.22157 23.2868 10.3186C23.3023 10.4497 23.3278 10.7144 23.3278 10.7144L17.7706 10.7143C17.7706 10.7143 17.7466 10.5641 17.7331 10.4902C17.1442 7.27149 14.6614 5.64707 11.9999 5.64707C9.36889 5.64707 6.91246 7.23455 6.28771 10.3804C6.26597 10.4898 6.22922 10.7143 6.22922 10.7143L0.672119 10.7144C0.672119 10.7144 0.708948 10.3428 0.732704 10.1595C1.51205 4.14826 6.09855 0 11.9999 0Z" fill="currentColor"/>
</svg>
