<svg width="141" height="33" viewBox="0 0 141 33" fill="none" xmlns="http://www.w3.org/2000/svg">
<g clip-path="url(#clip0_4811_111376)">
<path d="M42.5199 25.1957V18.3904C42.5199 15.721 43.7225 14.1957 46.3625 14.1957C46.7145 14.1957 47.0959 14.225 47.4772 14.2837V10.8224C47.3305 10.793 46.9785 10.7344 46.5679 10.7344C44.6905 10.7344 43.1065 11.6437 42.4319 13.1984V10.9104H39.1172V25.1957H42.5199ZM50.7723 8.09437C52.0043 8.09437 53.0016 7.12637 53.0016 5.89437C53.0016 4.66237 52.0043 3.66504 50.7723 3.66504C49.5696 3.66504 48.5723 4.66237 48.5723 5.89437C48.5723 7.12637 49.5696 8.09437 50.7723 8.09437ZM52.4736 25.1957V10.9104H49.1003V25.1957H52.4736ZM59.0541 25.1957V16.953C59.0541 15.0757 60.0807 13.5797 62.0167 13.5797C64.1581 13.5797 64.9501 14.9877 64.9501 16.7477V25.1957H68.3528V16.161C68.3528 13.0224 66.6807 10.4997 63.1901 10.4997C61.6061 10.4997 59.9047 11.1744 58.9661 12.817V10.9104H55.6514V25.1957H59.0541ZM77.0452 31.209C82.4132 31.209 84.3785 27.6597 84.3785 23.8464V10.9104H81.0932V12.729C80.4772 11.5557 79.0985 10.6464 76.8692 10.6464C72.9385 10.6464 70.2692 13.785 70.2692 17.5984C70.2692 21.617 73.0559 24.5504 76.8692 24.5504C78.9519 24.5504 80.3892 23.5824 81.0052 22.4677V23.9637C81.0052 26.8677 79.6559 28.2464 76.9572 28.2464C74.9919 28.2464 73.6132 26.9264 73.3785 25.1664L70.2399 25.9877C70.6212 28.8624 73.2612 31.209 77.0452 31.209ZM77.4265 21.6464C75.1972 21.6464 73.7012 20.0917 73.7012 17.5984C73.7012 15.1637 75.2559 13.5797 77.4265 13.5797C79.5385 13.5797 81.0932 15.1637 81.0932 17.5984C81.0932 20.0624 79.5972 21.6464 77.4265 21.6464ZM93.599 25.6357C97.8816 25.6357 101.02 22.4384 101.02 18.0384C101.02 13.6677 97.8816 10.4704 93.599 10.4704C89.3456 10.4704 86.207 13.6677 86.207 18.0384C86.207 22.4384 89.3456 25.6357 93.599 25.6357ZM93.599 22.585C91.5163 22.585 89.6096 21.001 89.6096 18.0384C89.6096 15.0757 91.5163 13.5504 93.599 13.5504C95.711 13.5504 97.5883 15.0757 97.5883 18.0384C97.5883 21.0304 95.711 22.585 93.599 22.585ZM109.947 25.1957L115.55 10.9104H111.971L108.275 21.1184L104.491 10.9104H100.737L106.545 25.1957H109.947ZM122.571 25.6357C126.003 25.6357 128.261 23.6117 129.024 21.1184L126.149 20.209C125.68 21.617 124.624 22.7024 122.571 22.7024C120.459 22.7024 118.757 21.1477 118.669 18.977H129.112C129.141 18.9184 129.2 18.449 129.2 17.8917C129.2 13.3744 126.619 10.4704 122.219 10.4704C118.611 10.4704 115.267 13.4624 115.267 17.9797C115.267 22.8197 118.699 25.6357 122.571 25.6357ZM125.768 16.4837H118.757C118.875 14.9584 120.107 13.3157 122.248 13.3157C124.595 13.3157 125.709 14.8117 125.768 16.4837ZM134.636 25.1957V18.3904C134.636 15.721 135.839 14.1957 138.479 14.1957C138.831 14.1957 139.212 14.225 139.594 14.2837V10.8224C139.447 10.793 139.095 10.7344 138.684 10.7344C136.807 10.7344 135.223 11.6437 134.548 13.1984V10.9104H131.234V25.1957H134.636Z" fill="#1F1E1F"/>
<path fill-rule="evenodd" clip-rule="evenodd" d="M15.8898 31.8214C8.18258 31.8214 2.13161 26.6582 0.764644 19.1736C0.747632 19.0805 0.723754 18.94 0.693009 18.7521L8.32996 18.7522C8.36344 18.8648 8.38909 18.9487 8.40692 19.0041C9.53919 22.5174 12.6146 24.334 15.8898 24.334C19.1705 24.334 22.2506 22.5493 23.3783 19.0099C23.3963 18.9533 23.4223 18.8673 23.4561 18.7521H31.0866C31.061 18.9092 31.0413 19.0267 31.0274 19.1047C29.6851 26.6264 23.6206 31.8214 15.8898 31.8214ZM15.8898 0C23.9512 0 30.2006 5.59733 31.1734 13.6813C31.1874 13.7972 31.2058 13.9721 31.2288 14.2061H23.7039C23.6822 14.0732 23.6653 13.9741 23.6531 13.9088C22.8557 9.6412 19.4937 7.4874 15.8898 7.4874C12.3271 7.4874 9.00084 9.59222 8.15485 13.7633C8.13523 13.86 8.10884 14.0076 8.07566 14.2061H0.550781C0.584028 13.8776 0.611374 13.6324 0.632819 13.4704C1.68813 5.50013 7.89872 0 15.8898 0Z" fill="url(#paint0_linear_4811_111376)"/>
</g>
<defs>
<linearGradient id="paint0_linear_4811_111376" x1="3.8157" y1="3.4311" x2="31.1481" y2="30.8218" gradientUnits="userSpaceOnUse">
<stop stop-color="#40E0CF"/>
<stop offset="1" stop-color="#36CDCF"/>
</linearGradient>
<clipPath id="clip0_4811_111376">
<rect width="140.556" height="33" fill="white"/>
</clipPath>
</defs>
</svg>
