<svg width="28" height="28" viewBox="0 0 28 28" fill="none" xmlns="http://www.w3.org/2000/svg">
<rect width="28" height="28" rx="10" fill="url(#paint0_linear_12254_81053)"/>
<path fill-rule="evenodd" clip-rule="evenodd" d="M14.0016 22.5897C9.80978 22.5897 6.51876 19.8004 5.77529 15.757C5.76141 15.6816 5.73633 15.5293 5.73633 15.5293L9.88994 15.5294C9.88994 15.5294 9.91725 15.6206 9.9318 15.6654C10.5476 17.5634 12.2203 18.5448 14.0016 18.5448C15.7859 18.5448 17.4612 17.5806 18.0745 15.6685C18.0892 15.6227 18.1168 15.5293 18.1168 15.5293L22.2669 15.5293C22.2669 15.5293 22.246 15.6566 22.2347 15.7198C21.5046 19.7832 18.2063 22.5897 14.0016 22.5897Z" fill="currentColor"/>
<path fill-rule="evenodd" clip-rule="evenodd" d="M14.0028 5.40039C18.3872 5.40039 21.7862 8.42424 22.3153 12.7915C22.3267 12.8853 22.3454 13.0749 22.3454 13.0749L18.2528 13.0749C18.2528 13.0749 18.2351 12.9673 18.2251 12.9144C17.7914 10.6089 15.9629 9.4453 14.0028 9.4453C12.0651 9.4453 10.256 10.5824 9.79589 12.8357C9.77988 12.9141 9.75282 13.0749 9.75282 13.0749L5.66016 13.0749C5.66016 13.0749 5.68728 12.8088 5.70478 12.6775C6.27874 8.37172 9.65658 5.40039 14.0028 5.40039Z" fill="currentColor"/>
<defs>
<linearGradient id="paint0_linear_12254_81053" x1="0" y1="0" x2="28" y2="28" gradientUnits="userSpaceOnUse">
<stop stop-color="#65E5D9"/>
<stop offset="1" stop-color="#5FD9D9"/>
</linearGradient>
</defs>
</svg>
