<svg width="18" height="18" viewBox="0 0 18 18" fill="none" xmlns="http://www.w3.org/2000/svg">
<path d="M9.94163 17.4923L8.5833 14.3006C9.89163 13.8173 11.1166 13.1673 12.25 12.409L9.94163 17.4923ZM3.69997 9.41728L0.508301 8.05895L5.59163 5.75062C4.8333 6.88395 4.1833 8.10895 3.69997 9.41728ZM17.0083 0.992284C17.0083 0.992284 12.8833 -0.775216 8.16663 3.94228C6.34163 5.76728 5.24997 7.77562 4.54163 9.53395C4.3083 10.159 4.46663 10.8423 4.92497 11.309L6.69997 13.0756C7.1583 13.5423 7.84163 13.6923 8.46663 13.459C10.25 12.7756 12.2333 11.659 14.0583 9.83395C18.775 5.11728 17.0083 0.992284 17.0083 0.992284ZM11.1166 6.88395C10.4666 6.23395 10.4666 5.17562 11.1166 4.52562C11.7666 3.87562 12.825 3.87562 13.475 4.52562C14.1166 5.17562 14.125 6.23395 13.475 6.88395C12.825 7.53395 11.7666 7.53395 11.1166 6.88395ZM6.39997 12.7756L5.22497 11.6006L6.39997 12.7756ZM4.19997 17.334L7.2333 14.3006C6.94997 14.2256 6.67497 14.1006 6.42497 13.9256L3.02497 17.334H4.19997ZM0.666634 17.334H1.84163L5.81663 13.3673L4.6333 12.1923L0.666634 16.159V17.334ZM0.666634 14.9756L4.07497 11.5756C3.89997 11.3256 3.77497 11.059 3.69997 10.7673L0.666634 13.8006V14.9756Z" fill="currentColor"/>
</svg>
