<svg width="32" height="32" viewBox="0 0 32 32" fill="none" xmlns="http://www.w3.org/2000/svg">
<circle cx="16" cy="16" r="15" fill="url(#paint0_linear_5269_116747)" fill-opacity="0.04" stroke="url(#paint1_linear_5269_116747)" stroke-width="2"/>
<path fill-rule="evenodd" clip-rule="evenodd" d="M22.7064 11.2928C22.8939 11.4803 22.9992 11.7346 22.9992 11.9998C22.9992 12.265 22.8939 12.5193 22.7064 12.7068L14.7064 20.7068C14.5189 20.8943 14.2646 20.9996 13.9994 20.9996C13.7343 20.9996 13.48 20.8943 13.2924 20.7068L9.29243 16.7068C9.11027 16.5182 9.00948 16.2656 9.01176 16.0034C9.01403 15.7412 9.1192 15.4904 9.30461 15.305C9.49002 15.1196 9.74083 15.0144 10.003 15.0121C10.2652 15.0098 10.5178 15.1106 10.7064 15.2928L13.9994 18.5858L21.2924 11.2928C21.48 11.1053 21.7343 11 21.9994 11C22.2646 11 22.5189 11.1053 22.7064 11.2928Z" fill="url(#paint2_linear_5269_116747)"/>
<defs>
<linearGradient id="paint0_linear_5269_116747" x1="-4.8" y1="-2.1632e-07" x2="43.9843" y2="14.4656" gradientUnits="userSpaceOnUse">
<stop stop-color="#A282E8"/>
<stop offset="0.484375" stop-color="#7E8EE7"/>
<stop offset="1" stop-color="#4499E9"/>
</linearGradient>
<linearGradient id="paint1_linear_5269_116747" x1="-4.8" y1="-2.1632e-07" x2="43.9843" y2="14.4656" gradientUnits="userSpaceOnUse">
<stop stop-color="#A282E8"/>
<stop offset="0.484375" stop-color="#7E8EE7"/>
<stop offset="1" stop-color="#4499E9"/>
</linearGradient>
<linearGradient id="paint2_linear_5269_116747" x1="6.91359" y1="11" x2="26.7073" y2="19.21" gradientUnits="userSpaceOnUse">
<stop stop-color="#A282E8"/>
<stop offset="0.484375" stop-color="#7E8EE7"/>
<stop offset="1" stop-color="#4499E9"/>
</linearGradient>
</defs>
</svg>
