<svg width="20" height="14" viewBox="0 0 20 14" fill="none" xmlns="http://www.w3.org/2000/svg">
<path d="M15.3154 2.30911C14.732 2.30911 14.2237 2.48411 13.7237 2.65078C13.1404 1.64245 12.0487 0.975781 10.8737 0.975781C9.95703 0.975781 9.1237 1.39245 8.53203 1.97578C7.86537 1.14245 6.85703 0.550781 5.69037 0.550781C3.7487 0.550781 2.08203 2.14245 2.08203 4.08411C2.08203 4.57578 2.25703 5.07578 2.4237 5.57578C1.4987 6.08411 0.832031 7.08411 0.832031 8.25078C0.832031 9.91745 2.1737 11.3508 3.8487 11.3508C4.0987 11.3508 4.3487 11.3508 4.51537 11.2674C4.8487 12.5258 6.10703 13.4508 7.61537 13.4508C9.03203 13.4508 10.207 12.6091 10.6237 11.4341C11.0487 11.6091 11.4654 11.7758 11.882 11.7758C12.9737 11.7758 13.9737 11.1674 14.4737 10.2674C14.732 10.3341 14.9987 10.3341 15.232 10.3341C17.407 10.3341 19.1654 8.59245 19.1654 6.33411C19.2487 4.08411 17.4987 2.30911 15.3154 2.30911Z" fill="currentColor"/>
</svg>
