<svg width="45" height="32" viewBox="0 0 45 32" fill="none" xmlns="http://www.w3.org/2000/svg">
<path d="M34.76 4.74C33.36 4.74 32.14 5.16 30.94 5.56C29.54 3.14 26.92 1.54 24.1 1.54C21.9 1.54 19.9 2.54 18.48 3.94C16.88 1.94 14.46 0.520004 11.66 0.520004C7 0.520004 3 4.34 3 9C3 10.18 3.42 11.38 3.82 12.58C1.6 13.8 0 16.2 0 19C0 23 3.22 26.44 7.24 26.44C7.84 26.44 8.44 26.44 8.84 26.24C9.64 29.26 12.66 31.48 16.28 31.48C19.68 31.48 22.5 29.46 23.5 26.64C24.52 27.06 25.52 27.46 26.52 27.46C29.14 27.46 31.54 26 32.74 23.84C33.36 24 34 24 34.56 24C39.78 24 44 19.82 44 14.4C44.2 9 40 4.74 34.76 4.74Z" fill="#00A1E0"/>
</svg>
