<svg width="35" height="35" viewBox="0 0 35 35" fill="none" xmlns="http://www.w3.org/2000/svg">
<rect width="35" height="35" rx="10" fill="currentColor"/>
<path d="M23.8487 11.8385C23.207 11.8385 22.6478 12.031 22.0978 12.2143C21.4562 11.1051 20.2553 10.3718 18.9628 10.3718C17.9545 10.3718 17.0378 10.8301 16.387 11.4718C15.6537 10.5551 14.5445 9.9043 13.2612 9.9043C11.1253 9.9043 9.29199 11.6551 9.29199 13.791C9.29199 14.3318 9.48449 14.8818 9.66783 15.4318C8.65033 15.991 7.91699 17.091 7.91699 18.3743C7.91699 20.2076 9.39283 21.7843 11.2353 21.7843C11.5103 21.7843 11.7853 21.7843 11.9687 21.6926C12.3353 23.0768 13.7195 24.0943 15.3787 24.0943C16.937 24.0943 18.2295 23.1685 18.6878 21.876C19.1553 22.0685 19.6137 22.2518 20.072 22.2518C21.2728 22.2518 22.3728 21.5826 22.9228 20.5926C23.207 20.666 23.5003 20.666 23.757 20.666C26.1495 20.666 28.0837 18.7501 28.0837 16.266C28.1753 13.791 26.2503 11.8385 23.8487 11.8385Z" fill="white"/>
</svg>
