<svg width="18" height="18" viewBox="0 0 18 18" fill="none" xmlns="http://www.w3.org/2000/svg">
<path fill-rule="evenodd" clip-rule="evenodd" d="M11.71 11.0001H12.5L16.74 15.2601C17.15 15.6701 17.15 16.3401 16.74 16.7501C16.33 17.1601 15.66 17.1601 15.25 16.7501L11 12.5001V11.7101L10.73 11.4301C9.33002 12.6301 7.42002 13.2501 5.39002 12.9101C2.61002 12.4401 0.390015 10.1201 0.0500152 7.32014C-0.469985 3.09014 3.09002 -0.469863 7.32002 0.0501373C10.12 0.390137 12.44 2.61014 12.91 5.39014C13.25 7.42014 12.63 9.33014 11.43 10.7301L11.71 11.0001ZM2.00002 6.50014C2.00002 8.99014 4.01002 11.0001 6.50002 11.0001C8.99002 11.0001 11 8.99014 11 6.50014C11 4.01014 8.99002 2.00014 6.50002 2.00014C4.01002 2.00014 2.00002 4.01014 2.00002 6.50014Z" fill="#567191"/>
</svg>
