<svg width="48" height="33" viewBox="0 0 48 33" fill="none" xmlns="http://www.w3.org/2000/svg">
<path fill-rule="evenodd" clip-rule="evenodd" d="M28.2542 0C34.9967 0 40.4548 5.45819 40.4548 12.2007C44.7893 13.4849 48 17.4983 48 22.2341C48 28.0134 43.2642 32.6689 37.485 32.6689H35.8796C35.5585 32.6689 35.3177 32.4281 35.3177 32.107V30.5017C35.3177 30.1806 35.5585 29.9398 35.8796 29.9398H37.5652C41.8194 29.9398 45.3512 26.4883 45.3512 22.2341C45.3512 18.2207 42.2207 14.8495 38.2876 14.5284C38.1271 14.5284 37.9666 14.3679 37.9666 14.2074V12.6823V12.2007C37.9666 6.98327 33.5518 2.7291 28.3344 2.7291C23.6789 2.7291 19.7458 6.02007 18.9431 10.515L18.7826 11.1572C18.7826 11.4783 18.4615 11.6388 18.2207 11.6388H14.8495H14.2876H14.1271C10.9967 11.7191 8.42809 14.2876 8.34783 17.4983C8.34783 17.5786 8.34783 17.6589 8.34783 17.7391C8.34783 17.8194 8.34783 18.5418 8.34783 19.0234C8.34783 19.2642 8.18729 19.4247 7.94649 19.4247C7.22408 19.4247 6.50167 19.5853 5.85953 19.9064C4.25418 20.6288 3.13044 22.1538 2.88963 23.9197C2.80937 24.1605 2.80936 24.4816 2.80936 24.7224C2.80936 27.5318 5.05686 29.8595 7.86622 30.0201H26.2475C26.408 30.0201 26.5686 30.0201 26.7291 30.0201C28.495 29.7793 29.8595 28.2542 29.8595 26.408V12.2007C29.8595 11.8796 30.1003 11.6388 30.4214 11.6388H31.9465C32.2676 11.6388 32.5084 11.8796 32.5084 12.2007V19.8261V26.6488C32.3478 29.699 30.0201 32.1873 26.9699 32.5886C26.8094 32.5886 26.7291 32.5886 26.5686 32.5886H8.02676C3.61204 32.5886 0 28.9766 0 24.5619C0 20.9498 2.32776 17.9799 5.61873 16.9365C5.77926 14.8495 6.74248 12.8428 8.34783 11.398C9.79264 10.0334 11.6388 9.23077 13.5652 8.98996C13.5652 8.98996 13.9666 8.9097 15.0903 8.9097C15.4114 8.9097 15.8127 8.9097 16.214 8.9097H16.4548C17.8194 3.77257 22.6355 0 28.2542 0ZM15.5719 20.8696C15.893 20.8696 16.214 21.1104 16.214 21.5117V23.4381V25.7659C16.214 26.087 15.9732 26.408 15.5719 26.408H14.0468C13.7258 26.408 13.4047 26.1672 13.4047 25.7659V21.592C13.4047 21.2709 13.6455 20.9498 14.0468 20.9498H15.5719V20.8696ZM21.1906 17.7391C21.5117 17.7391 21.8328 18.0602 21.8328 18.3813V21.592V25.6054C21.8328 25.9264 21.5117 26.2475 21.1906 26.2475H19.5853C19.2642 26.2475 18.9431 25.9264 18.9431 25.6054V18.3813C18.9431 18.0602 19.2642 17.7391 19.5853 17.7391H21.1906ZM26.6488 14.689C26.9699 14.689 27.2107 14.9298 27.2107 15.2508V21.3512V25.6054C27.2107 25.9264 26.9699 26.1672 26.6488 26.1672H24.9632C24.6421 26.1672 24.4013 25.9264 24.4013 25.6054V21.0301V15.1706C24.4013 14.8495 24.6421 14.6087 24.9632 14.6087H26.6488V14.689Z" fill="#010061"/>
</svg>
