<svg width="20" height="20" viewBox="0 0 20 20" fill="none" xmlns="http://www.w3.org/2000/svg">
<path fill-rule="evenodd" clip-rule="evenodd" d="M11.8627 1.4625C11.3877 -0.4875 8.61268 -0.4875 8.13768 1.4625C8.06676 1.75552 7.92766 2.02766 7.73171 2.25676C7.53575 2.48587 7.28847 2.66548 7.00998 2.78096C6.7315 2.89645 6.42969 2.94455 6.1291 2.92136C5.82851 2.89817 5.53765 2.80434 5.28018 2.6475C3.56518 1.6025 1.60268 3.565 2.64768 5.28C3.32268 6.3875 2.72393 7.8325 1.46393 8.13875C-0.487324 8.6125 -0.487324 11.3887 1.46393 11.8612C1.75702 11.9323 2.02921 12.0715 2.25832 12.2676C2.48742 12.4637 2.66697 12.7111 2.78235 12.9898C2.89773 13.2684 2.94567 13.5704 2.92226 13.871C2.89886 14.1717 2.80478 14.4626 2.64768 14.72C1.60268 16.435 3.56518 18.3975 5.28018 17.3525C5.5376 17.1954 5.82849 17.1013 6.12916 17.0779C6.42983 17.0545 6.73177 17.1024 7.0104 17.2178C7.28904 17.3332 7.53648 17.5128 7.73259 17.7419C7.9287 17.971 8.06792 18.2432 8.13893 18.5362C8.61268 20.4875 11.3889 20.4875 11.8614 18.5362C11.9327 18.2433 12.072 17.9713 12.2682 17.7424C12.4643 17.5134 12.7117 17.334 12.9903 17.2186C13.2688 17.1033 13.5707 17.0553 13.8713 17.0786C14.1718 17.1018 14.4627 17.1957 14.7202 17.3525C16.4352 18.3975 18.3977 16.435 17.3527 14.72C17.1959 14.4625 17.102 14.1717 17.0787 13.8711C17.0555 13.5705 17.1035 13.2687 17.2188 12.9901C17.3342 12.7116 17.5136 12.4642 17.7425 12.268C17.9715 12.0719 18.2435 11.9325 18.5364 11.8612C20.4877 11.3875 20.4877 8.61125 18.5364 8.13875C18.2433 8.06774 17.9711 7.92852 17.742 7.73241C17.5129 7.5363 17.3334 7.28886 17.218 7.01022C17.1026 6.73159 17.0547 6.42965 17.0781 6.12898C17.1015 5.82831 17.1956 5.53742 17.3527 5.28C18.3977 3.565 16.4352 1.6025 14.7202 2.6475C14.4628 2.8046 14.1719 2.89868 13.8712 2.92209C13.5705 2.94549 13.2686 2.89755 12.99 2.78217C12.7113 2.6668 12.4639 2.48725 12.2678 2.25814C12.0717 2.02903 11.9324 1.75685 11.8614 1.46375L11.8627 1.4625ZM10.0002 13.75C10.9947 13.75 11.9486 13.3549 12.6518 12.6516C13.3551 11.9484 13.7502 10.9946 13.7502 10C13.7502 9.00544 13.3551 8.05161 12.6518 7.34835C11.9486 6.64509 10.9947 6.25 10.0002 6.25C9.00562 6.25 8.05179 6.64509 7.34853 7.34835C6.64527 8.05161 6.25018 9.00544 6.25018 10C6.25018 10.9946 6.64527 11.9484 7.34853 12.6516C8.05179 13.3549 9.00562 13.75 10.0002 13.75Z" fill="currentColor"/>
</svg>
