<svg width="16" height="18" viewBox="0 0 16 18" fill="none" xmlns="http://www.w3.org/2000/svg">
<path d="M13 12.3974C12.3667 12.3974 11.8 12.6474 11.3667 13.0391L5.425 9.58073C5.46667 9.38906 5.5 9.1974 5.5 8.9974C5.5 8.7974 5.46667 8.60573 5.425 8.41406L11.3 4.98906C11.75 5.40573 12.3417 5.66406 13 5.66406C13.663 5.66406 14.2989 5.40067 14.7678 4.93183C15.2366 4.46299 15.5 3.8271 15.5 3.16406C15.5 2.50102 15.2366 1.86514 14.7678 1.3963C14.2989 0.927455 13.663 0.664063 13 0.664062C12.337 0.664063 11.7011 0.927455 11.2322 1.3963C10.7634 1.86514 10.5 2.50102 10.5 3.16406C10.5 3.36406 10.5333 3.55573 10.575 3.7474L4.7 7.1724C4.25 6.75573 3.65833 6.4974 3 6.4974C2.33696 6.4974 1.70107 6.76079 1.23223 7.22963C0.763392 7.69847 0.5 8.33435 0.5 8.9974C0.5 9.66044 0.763392 10.2963 1.23223 10.7652C1.70107 11.234 2.33696 11.4974 3 11.4974C3.65833 11.4974 4.25 11.2391 4.7 10.8224L10.6333 14.2807C10.5917 14.4557 10.5667 14.6391 10.5667 14.8307C10.5667 16.1724 11.6583 17.2557 13 17.2557C14.3417 17.2557 15.4333 16.1724 15.4333 14.8307C15.4333 14.1854 15.177 13.5664 14.7206 13.1101C14.2643 12.6538 13.6454 12.3974 13 12.3974Z" fill="currentColor"/>
</svg>
