<svg
	width="28"
	height="28"
	viewBox="0 0 28 28"
	fill="none"
	xmlns="http://www.w3.org/2000/svg"
>
	<path
		d="M14 1.16675L24.5 5.83341V12.8334C24.5 19.3084 20.02 25.3634 14 26.8334C7.98 25.3634 3.5 19.3084 3.5 12.8334V5.83341L14 1.16675ZM18.6667 16.3334H9.33333V18.0834C9.33333 18.3984 9.555 18.6201 9.88167 18.6667H9.99833H18.0017C18.3633 18.6667 18.6083 18.4801 18.6667 18.1884V18.0834V16.3334ZM19.8333 9.33341L16.7183 12.4484L14 9.73008L11.2817 12.4484L8.16667 9.33341L9.33333 15.1667H18.6667L19.8333 9.33341Z"
		fill="url(#paint0_linear_7255_127673)"
	/>
	<defs>
		<linearGradient
			id="paint0_linear_7255_127673"
			x1="0.35"
			y1="1.16675"
			x2="33.2435"
			y2="9.14699"
			gradientUnits="userSpaceOnUse"
		>
			<stop stop-color="#A282E8" />
			<stop offset="0.484375" stop-color="#7E8EE7" />
			<stop offset="1" stop-color="#4499E9" />
		</linearGradient>
	</defs>
</svg>
