<svg width="18" height="9" viewBox="0 0 18 9" fill="none" xmlns="http://www.w3.org/2000/svg">
<path d="M16.7324 3.02779C17.11 2.79047 17.5859 3.12896 17.4856 3.56357L16.5455 7.63749C16.4833 7.90668 16.2147 8.07448 15.9455 8.01219L11.8814 7.07157C11.4478 6.97122 11.3515 6.39694 11.7287 6.1607L13.8746 4.81667C12.6996 2.91667 10.5996 1.66667 8.20797 1.66667C5.20748 1.66667 2.67091 3.647 1.83536 6.37687C1.70012 6.81874 1.27123 7.12592 0.816256 7.04508C0.364567 6.96484 0.0584494 6.53284 0.18129 6.09083C1.15707 2.57975 4.37987 0 8.20797 0C11.1913 0 13.8163 1.575 15.2913 3.93333L16.7324 3.02779Z" fill="url(#paint0_linear_20560_8550)"/>
<defs>
<linearGradient id="paint0_linear_20560_8550" x1="-2.26204" y1="-0.988176" x2="13.2459" y2="15.4998" gradientUnits="userSpaceOnUse">
<stop stop-color="#F75A92"/>
<stop offset="1" stop-color="#FF9A9A"/>
</linearGradient>
</defs>
</svg>
