<svg width="40" height="40" viewBox="0 0 40 40" fill="none" xmlns="http://www.w3.org/2000/svg">
<g clip-path="url(#clip0_23061_136694)">
<path d="M0 0H40V40H0V0Z" fill="url(#paint0_linear_23061_136694)"/>
<path d="M10.4062 32.284V26.528C13.9717 28.1726 16.9845 28.9948 19.1773 28.9948C22.0564 28.9948 23.4269 27.8985 23.4269 25.8416C23.4269 24.7453 22.7405 23.923 21.5082 22.9648C20.96 22.5525 19.7255 21.8684 17.8068 21.0461C15.8881 20.2238 14.5177 19.4015 13.6954 18.5792C11.7767 16.9347 10.6803 14.7419 10.6803 12.2751C10.6803 9.80821 11.5026 7.75139 13.2831 6.2383C15.0636 4.7252 17.5327 3.91406 20.6859 3.91406C23.2887 3.91406 26.1678 4.60041 29.4569 5.97089L27.409 10.7664C24.5322 9.67005 22.4753 8.9837 20.9689 8.9837C19.4603 9.11963 18.3639 9.39373 17.8157 9.94192C17.1294 10.4901 16.8553 11.0383 16.8553 11.7246C16.8248 12.3006 16.9651 12.8727 17.2586 13.3692C17.5986 13.8473 18.0167 14.2646 18.4954 14.6038C19.0436 15.016 20.5522 15.7001 22.8831 16.9347C25.35 18.0311 26.9946 19.2634 28.0909 20.6338C29.1873 22.0043 29.5973 23.5129 29.5973 25.4316C29.5973 28.0344 28.6391 30.2272 26.7205 31.7358C24.8018 33.2444 22.1968 34.0645 18.9076 34.0645C15.6185 34.0645 12.8731 33.5163 10.4062 32.284Z" fill="white"/>
</g>
<defs>
<linearGradient id="paint0_linear_23061_136694" x1="31.9599" y1="9.59554" x2="1.7805" y2="35.8507" gradientUnits="userSpaceOnUse">
<stop stop-color="#A93F96"/>
<stop offset="0.08" stop-color="#A43F99"/>
<stop offset="0.67" stop-color="#8642B1"/>
<stop offset="1" stop-color="#7A43BA"/>
</linearGradient>
<clipPath id="clip0_23061_136694">
<rect width="40" height="40" fill="white"/>
</clipPath>
</defs>
</svg>
