<svg width="56" height="39" viewBox="0 0 56 39" fill="none" xmlns="http://www.w3.org/2000/svg">
<g clip-path="url(#clip0_1387_604)">
<path d="M3.63001 0H52.76C54.43 0 55.79 1.36 55.79 3.03V35.36C55.79 37.03 54.42 38.39 52.76 38.39H3.63001C1.97001 38.4 0.600006 37.04 0.600006 35.37V3.03C0.600006 1.36 1.97001 0 3.63001 0Z" fill="#C52026"/>
<path d="M0.600006 29.68H55.8V8.72H0.600006V29.68Z" fill="#FFC60B"/>
<path d="M10.55 14.79H12.42V14.3H10.55V14.79Z" fill="#C8B32F"/>
<path d="M10.55 14.79H12.42V14.3H10.55V14.79Z" stroke="black" stroke-width="0.0326"/>
<path d="M10.75 15.12C10.76 15.11 10.77 15.11 10.78 15.11H12.18C12.19 15.11 12.21 15.11 12.22 15.12C12.17 15.1 12.14 15.06 12.14 15.01C12.14 14.96 12.18 14.91 12.23 14.9C12.22 14.9 12.2 14.91 12.19 14.91H10.79C10.78 14.91 10.76 14.91 10.75 14.9H10.76C10.81 14.92 10.84 14.96 10.84 15.01C10.83 15.06 10.8 15.1 10.75 15.12Z" fill="#C8B32F"/>
<path d="M10.75 15.12C10.76 15.11 10.77 15.11 10.78 15.11H12.18C12.19 15.11 12.21 15.11 12.22 15.12C12.17 15.1 12.14 15.06 12.14 15.01C12.14 14.96 12.18 14.91 12.23 14.9C12.22 14.9 12.2 14.91 12.19 14.91H10.79C10.78 14.91 10.76 14.91 10.75 14.9H10.76C10.81 14.92 10.84 14.96 10.84 15.01C10.83 15.06 10.8 15.1 10.75 15.12Z" stroke="black" stroke-width="0.0326" stroke-linejoin="round"/>
<path d="M10.78 15.11H12.18C12.23 15.11 12.27 15.14 12.27 15.18C12.27 15.22 12.23 15.25 12.18 15.25H10.78C10.73 15.25 10.69 15.22 10.69 15.18C10.7 15.14 10.74 15.11 10.78 15.11Z" fill="#C8B32F"/>
<path d="M10.78 15.11H12.18C12.23 15.11 12.27 15.14 12.27 15.18C12.27 15.22 12.23 15.25 12.18 15.25H10.78C10.73 15.25 10.69 15.22 10.69 15.18C10.7 15.14 10.74 15.11 10.78 15.11Z" stroke="black" stroke-width="0.0326"/>
<path d="M10.78 14.79H12.18C12.23 14.79 12.27 14.82 12.27 14.85C12.27 14.88 12.23 14.91 12.18 14.91H10.78C10.73 14.91 10.69 14.88 10.69 14.85C10.7 14.82 10.74 14.79 10.78 14.79Z" fill="#C8B32F"/>
<path d="M10.78 14.79H12.18C12.23 14.79 12.27 14.82 12.27 14.85C12.27 14.88 12.23 14.91 12.18 14.91H10.78C10.73 14.91 10.69 14.88 10.69 14.85C10.7 14.82 10.74 14.79 10.78 14.79Z" stroke="black" stroke-width="0.0326"/>
<path d="M12.79 23.04C12.66 23.04 12.55 23.01 12.46 22.97C12.38 22.93 12.26 22.9 12.14 22.9C12.01 22.9 11.9 22.93 11.81 22.97C11.73 23.01 11.61 23.04 11.48 23.04C11.35 23.04 11.24 23.01 11.15 22.96C11.07 22.92 10.95 22.89 10.83 22.89C10.7 22.89 10.59 22.92 10.51 22.96C10.42 23 10.31 23.03 10.18 23.03V23.23C10.31 23.23 10.43 23.2 10.51 23.16C10.59 23.12 10.71 23.09 10.83 23.09C10.95 23.09 11.06 23.12 11.15 23.16C11.23 23.2 11.35 23.23 11.48 23.23C11.61 23.23 11.72 23.2 11.81 23.16C11.89 23.12 12.01 23.09 12.14 23.09C12.27 23.09 12.38 23.12 12.46 23.16C12.55 23.2 12.66 23.23 12.79 23.23V23.04Z" fill="#265EAC"/>
<path d="M12.79 23.04C12.66 23.04 12.55 23.01 12.46 22.97C12.38 22.93 12.26 22.9 12.14 22.9C12.01 22.9 11.9 22.93 11.81 22.97C11.73 23.01 11.61 23.04 11.48 23.04C11.35 23.04 11.24 23.01 11.15 22.96C11.07 22.92 10.95 22.89 10.83 22.89C10.7 22.89 10.59 22.92 10.51 22.96C10.42 23 10.31 23.03 10.18 23.03V23.23C10.31 23.23 10.43 23.2 10.51 23.16C10.59 23.12 10.71 23.09 10.83 23.09C10.95 23.09 11.06 23.12 11.15 23.16C11.23 23.2 11.35 23.23 11.48 23.23C11.61 23.23 11.72 23.2 11.81 23.16C11.89 23.12 12.01 23.09 12.14 23.09C12.27 23.09 12.38 23.12 12.46 23.16C12.55 23.2 12.66 23.23 12.79 23.23V23.04Z" stroke="black" stroke-width="0.0326"/>
<path d="M12.79 23.24C12.66 23.24 12.55 23.21 12.46 23.17C12.38 23.13 12.26 23.1 12.14 23.1C12.01 23.1 11.9 23.13 11.81 23.17C11.73 23.21 11.61 23.24 11.48 23.24C11.35 23.24 11.24 23.21 11.15 23.17C11.07 23.13 10.95 23.1 10.83 23.1C10.7 23.1 10.59 23.13 10.51 23.17C10.42 23.21 10.31 23.24 10.18 23.24V23.44C10.31 23.44 10.43 23.41 10.51 23.37C10.59 23.33 10.71 23.3 10.83 23.3C10.95 23.3 11.06 23.33 11.15 23.37C11.23 23.41 11.35 23.45 11.48 23.45C11.61 23.45 11.72 23.42 11.81 23.38C11.89 23.34 12.01 23.31 12.14 23.31C12.27 23.31 12.38 23.34 12.46 23.38C12.55 23.42 12.66 23.45 12.79 23.45V23.24Z" fill="#CDCCCB"/>
<path d="M12.79 23.24C12.66 23.24 12.55 23.21 12.46 23.17C12.38 23.13 12.26 23.1 12.14 23.1C12.01 23.1 11.9 23.13 11.81 23.17C11.73 23.21 11.61 23.24 11.48 23.24C11.35 23.24 11.24 23.21 11.15 23.17C11.07 23.13 10.95 23.1 10.83 23.1C10.7 23.1 10.59 23.13 10.51 23.17C10.42 23.21 10.31 23.24 10.18 23.24V23.44C10.31 23.44 10.43 23.41 10.51 23.37C10.59 23.33 10.71 23.3 10.83 23.3C10.95 23.3 11.06 23.33 11.15 23.37C11.23 23.41 11.35 23.45 11.48 23.45C11.61 23.45 11.72 23.42 11.81 23.38C11.89 23.34 12.01 23.31 12.14 23.31C12.27 23.31 12.38 23.34 12.46 23.38C12.55 23.42 12.66 23.45 12.79 23.45V23.24Z" stroke="black" stroke-width="0.0326"/>
<path d="M12.79 23.44C12.66 23.44 12.55 23.41 12.46 23.37C12.38 23.33 12.26 23.3 12.14 23.3C12.01 23.3 11.9 23.33 11.81 23.37C11.73 23.41 11.61 23.44 11.48 23.44C11.35 23.44 11.24 23.41 11.15 23.36C11.07 23.32 10.95 23.29 10.83 23.29C10.7 23.29 10.59 23.32 10.51 23.36C10.42 23.4 10.31 23.43 10.18 23.43V23.63C10.31 23.63 10.43 23.6 10.51 23.56C10.59 23.52 10.71 23.49 10.83 23.49C10.95 23.49 11.06 23.51 11.15 23.56C11.23 23.6 11.35 23.63 11.48 23.63C11.61 23.63 11.72 23.6 11.81 23.56C11.89 23.52 12.01 23.49 12.14 23.49C12.27 23.49 12.38 23.52 12.46 23.56C12.55 23.6 12.66 23.63 12.79 23.63V23.44Z" fill="#265EAC"/>
<path d="M12.79 23.44C12.66 23.44 12.55 23.41 12.46 23.37C12.38 23.33 12.26 23.3 12.14 23.3C12.01 23.3 11.9 23.33 11.81 23.37C11.73 23.41 11.61 23.44 11.48 23.44C11.35 23.44 11.24 23.41 11.15 23.36C11.07 23.32 10.95 23.29 10.83 23.29C10.7 23.29 10.59 23.32 10.51 23.36C10.42 23.4 10.31 23.43 10.18 23.43V23.63C10.31 23.63 10.43 23.6 10.51 23.56C10.59 23.52 10.71 23.49 10.83 23.49C10.95 23.49 11.06 23.51 11.15 23.56C11.23 23.6 11.35 23.63 11.48 23.63C11.61 23.63 11.72 23.6 11.81 23.56C11.89 23.52 12.01 23.49 12.14 23.49C12.27 23.49 12.38 23.52 12.46 23.56C12.55 23.6 12.66 23.63 12.79 23.63V23.44Z" stroke="black" stroke-width="0.0326"/>
<path d="M12.79 23.85C12.66 23.85 12.55 23.82 12.46 23.78C12.38 23.74 12.26 23.71 12.14 23.71C12.01 23.71 11.9 23.74 11.81 23.78C11.73 23.82 11.61 23.85 11.48 23.85C11.35 23.85 11.24 23.82 11.15 23.77C11.07 23.73 10.95 23.7 10.83 23.7C10.7 23.7 10.59 23.72 10.51 23.77C10.42 23.81 10.31 23.84 10.18 23.84V23.64C10.31 23.64 10.43 23.61 10.51 23.56C10.59 23.52 10.71 23.49 10.83 23.49C10.95 23.49 11.06 23.51 11.15 23.56C11.23 23.6 11.35 23.63 11.48 23.63C11.61 23.63 11.72 23.6 11.81 23.56C11.89 23.52 12.01 23.49 12.14 23.49C12.27 23.49 12.38 23.52 12.46 23.56C12.55 23.6 12.66 23.63 12.79 23.63V23.85Z" fill="#CDCCCB"/>
<path d="M12.79 23.85C12.66 23.85 12.55 23.82 12.46 23.78C12.38 23.74 12.26 23.71 12.14 23.71C12.01 23.71 11.9 23.74 11.81 23.78C11.73 23.82 11.61 23.85 11.48 23.85C11.35 23.85 11.24 23.82 11.15 23.77C11.07 23.73 10.95 23.7 10.83 23.7C10.7 23.7 10.59 23.72 10.51 23.77C10.42 23.81 10.31 23.84 10.18 23.84V23.64C10.31 23.64 10.43 23.61 10.51 23.56C10.59 23.52 10.71 23.49 10.83 23.49C10.95 23.49 11.06 23.51 11.15 23.56C11.23 23.6 11.35 23.63 11.48 23.63C11.61 23.63 11.72 23.6 11.81 23.56C11.89 23.52 12.01 23.49 12.14 23.49C12.27 23.49 12.38 23.52 12.46 23.56C12.55 23.6 12.66 23.63 12.79 23.63V23.85Z" stroke="black" stroke-width="0.0326"/>
<path d="M12.79 24.05C12.66 24.05 12.55 24.02 12.46 23.98C12.38 23.94 12.26 23.91 12.14 23.91C12.01 23.91 11.9 23.94 11.81 23.98C11.73 24.02 11.61 24.05 11.48 24.05C11.35 24.05 11.24 24.02 11.15 23.98C11.07 23.94 10.95 23.91 10.83 23.91C10.7 23.91 10.59 23.94 10.51 23.98C10.42 24.02 10.31 24.05 10.18 24.05V23.85C10.31 23.85 10.43 23.82 10.51 23.77C10.59 23.73 10.71 23.7 10.83 23.7C10.95 23.7 11.06 23.73 11.15 23.77C11.23 23.81 11.35 23.85 11.48 23.85C11.61 23.85 11.72 23.82 11.81 23.78C11.89 23.74 12.01 23.71 12.14 23.71C12.27 23.71 12.38 23.74 12.46 23.78C12.55 23.83 12.66 23.85 12.79 23.85V24.05Z" fill="#265EAC"/>
<path d="M12.79 24.05C12.66 24.05 12.55 24.02 12.46 23.98C12.38 23.94 12.26 23.91 12.14 23.91C12.01 23.91 11.9 23.94 11.81 23.98C11.73 24.02 11.61 24.05 11.48 24.05C11.35 24.05 11.24 24.02 11.15 23.98C11.07 23.94 10.95 23.91 10.83 23.91C10.7 23.91 10.59 23.94 10.51 23.98C10.42 24.02 10.31 24.05 10.18 24.05V23.85C10.31 23.85 10.43 23.82 10.51 23.77C10.59 23.73 10.71 23.7 10.83 23.7C10.95 23.7 11.06 23.73 11.15 23.77C11.23 23.81 11.35 23.85 11.48 23.85C11.61 23.85 11.72 23.82 11.81 23.78C11.89 23.74 12.01 23.71 12.14 23.71C12.27 23.71 12.38 23.74 12.46 23.78C12.55 23.83 12.66 23.85 12.79 23.85V24.05Z" stroke="black" stroke-width="0.0326"/>
<path d="M10.75 22.21C10.75 22.23 10.76 22.24 10.76 22.26C10.76 22.38 10.65 22.48 10.52 22.48H12.44C12.31 22.48 12.2 22.38 12.2 22.26C12.2 22.24 12.2 22.23 12.21 22.21C12.2 22.21 12.19 22.21 12.17 22.21H10.77C10.77 22.21 10.76 22.21 10.75 22.21Z" fill="#C8B32F"/>
<path d="M10.75 22.21C10.75 22.23 10.76 22.24 10.76 22.26C10.76 22.38 10.65 22.48 10.52 22.48H12.44C12.31 22.48 12.2 22.38 12.2 22.26C12.2 22.24 12.2 22.23 12.21 22.21C12.2 22.21 12.19 22.21 12.17 22.21H10.77C10.77 22.21 10.76 22.21 10.75 22.21Z" stroke="black" stroke-width="0.0326" stroke-linejoin="round"/>
<path d="M10.78 22.08H12.18C12.23 22.08 12.27 22.11 12.27 22.14C12.27 22.18 12.23 22.21 12.18 22.21H10.78C10.73 22.21 10.69 22.18 10.69 22.14C10.7 22.11 10.74 22.08 10.78 22.08Z" fill="#C8B32F"/>
<path d="M10.78 22.08H12.18C12.23 22.08 12.27 22.11 12.27 22.14C12.27 22.18 12.23 22.21 12.18 22.21H10.78C10.73 22.21 10.69 22.18 10.69 22.14C10.7 22.11 10.74 22.08 10.78 22.08Z" stroke="black" stroke-width="0.0326"/>
<path d="M10.53 22.97H12.44V22.48H10.53V22.97Z" fill="#C8B32F"/>
<path d="M10.53 22.97H12.44V22.48H10.53V22.97Z" stroke="black" stroke-width="0.0326"/>
<path d="M10.38 20.35C10.19 20.46 10.06 20.57 10.08 20.63C10.09 20.68 10.15 20.72 10.24 20.78C10.38 20.88 10.46 21.04 10.39 21.12C10.5 21.03 10.57 20.9 10.57 20.74C10.57 20.58 10.5 20.44 10.38 20.35Z" fill="#AC1F23"/>
<path d="M10.38 20.35C10.19 20.46 10.06 20.57 10.08 20.63C10.09 20.68 10.15 20.72 10.24 20.78C10.38 20.88 10.46 21.04 10.39 21.12C10.5 21.03 10.57 20.9 10.57 20.74C10.57 20.58 10.5 20.44 10.38 20.35Z" stroke="black" stroke-width="0.0326"/>
<path d="M10.8 22H12.16V15.32H10.8V22Z" fill="#CDCCCB"/>
<path d="M11.93 15.33V21.99V15.33ZM11.77 15.33V21.99V15.33ZM10.8 22H12.16V15.32H10.8V22Z" stroke="black" stroke-width="0.0326"/>
<path d="M13.56 17.82C13.26 17.7 12.76 17.61 12.18 17.59C11.98 17.59 11.76 17.61 11.53 17.65C10.72 17.79 10.09 18.11 10.14 18.38V18.4C10.14 18.4 9.83 17.71 9.83 17.69C9.78 17.4 10.46 17.03 11.37 16.88C11.65 16.83 11.93 16.81 12.17 16.82C12.75 16.82 13.25 16.89 13.56 17.01V17.82Z" fill="#AC1F23"/>
<path d="M13.56 17.82C13.26 17.7 12.76 17.61 12.18 17.59C11.98 17.59 11.76 17.61 11.53 17.65C10.72 17.79 10.09 18.11 10.14 18.38V18.4C10.14 18.4 9.83 17.71 9.83 17.69C9.78 17.4 10.46 17.03 11.37 16.88C11.65 16.83 11.93 16.81 12.17 16.82C12.75 16.82 13.25 16.89 13.56 17.01V17.82Z" stroke="black" stroke-width="0.0326" stroke-linejoin="round"/>
<path d="M10.8 18.66C10.42 18.63 10.16 18.53 10.13 18.37C10.11 18.24 10.23 18.1 10.46 17.98C10.57 17.99 10.68 18 10.8 18V18.66Z" fill="#AC1F23"/>
<path d="M10.8 18.66C10.42 18.63 10.16 18.53 10.13 18.37C10.11 18.24 10.23 18.1 10.46 17.98C10.57 17.99 10.68 18 10.8 18V18.66Z" stroke="black" stroke-width="0.0326"/>
<path d="M12.17 18.15C12.41 18.19 12.58 18.24 12.67 18.32L12.68 18.33C12.72 18.42 12.51 18.6 12.17 18.81V18.15Z" fill="#AC1F23"/>
<path d="M12.17 18.15C12.41 18.19 12.58 18.24 12.67 18.32L12.68 18.33C12.72 18.42 12.51 18.6 12.17 18.81V18.15Z" stroke="black" stroke-width="0.0326"/>
<path d="M9.95001 19.95C9.91001 19.84 10.28 19.63 10.8 19.44C11.04 19.35 11.23 19.27 11.48 19.16C12.2 18.84 12.74 18.47 12.67 18.34L12.66 18.33C12.7 18.36 12.76 19.02 12.76 19.02C12.82 19.14 12.34 19.5 11.67 19.82C11.46 19.92 11.01 20.09 10.79 20.16C10.41 20.29 10.03 20.54 10.07 20.63L9.95001 19.95Z" fill="#AC1F23"/>
<path d="M9.95001 19.95C9.91001 19.84 10.28 19.63 10.8 19.44C11.04 19.35 11.23 19.27 11.48 19.16C12.2 18.84 12.74 18.47 12.67 18.34L12.66 18.33C12.7 18.36 12.76 19.02 12.76 19.02C12.82 19.14 12.34 19.5 11.67 19.82C11.46 19.92 11.01 20.09 10.79 20.16C10.41 20.29 10.03 20.54 10.07 20.63L9.95001 19.95Z" stroke="black" stroke-width="0.0326" stroke-linejoin="round"/>
<path d="M10.61 17.25L10.67 17.23C10.72 17.21 10.77 17.24 10.8 17.3C10.82 17.34 10.81 17.39 10.76 17.43C10.74 17.44 10.72 17.45 10.7 17.46L10.61 17.25ZM10.71 17.5C10.88 17.44 10.99 17.37 10.93 17.24C10.9 17.16 10.81 17.14 10.68 17.19L10.45 17.27L10.65 17.78C10.67 17.77 10.69 17.76 10.72 17.75C10.74 17.74 10.77 17.73 10.79 17.73L10.71 17.5Z" fill="#C8B32F"/>
<path d="M11.24 17.04C11.22 17.05 11.19 17.05 11.17 17.06C11.15 17.06 11.12 17.07 11.1 17.07L11.22 17.6L11.59 17.53C11.59 17.52 11.58 17.51 11.58 17.5C11.58 17.49 11.58 17.48 11.58 17.47C11.52 17.49 11.45 17.51 11.36 17.53L11.24 17.04Z" fill="#C8B32F"/>
<path d="M11.98 17.5C12.05 17.31 12.13 17.13 12.22 16.94C12.2 16.94 12.19 16.95 12.18 16.95C12.16 16.95 12.15 16.95 12.13 16.95C12.09 17.09 12.03 17.22 11.97 17.35C11.9 17.22 11.82 17.1 11.77 16.97C11.74 16.97 11.71 16.98 11.68 16.98C11.65 16.98 11.62 16.98 11.59 16.98C11.7 17.15 11.8 17.33 11.9 17.5C11.91 17.5 11.93 17.49 11.94 17.49C11.95 17.49 11.96 17.5 11.98 17.5Z" fill="#C8B32F"/>
<path d="M12.75 17.09C12.76 17.06 12.78 17.04 12.79 17.02C12.77 17 12.71 16.97 12.64 16.97C12.49 16.95 12.4 17.02 12.39 17.11C12.37 17.3 12.67 17.28 12.65 17.41C12.64 17.46 12.59 17.49 12.53 17.48C12.46 17.47 12.41 17.44 12.4 17.38H12.38C12.37 17.41 12.36 17.44 12.34 17.48C12.38 17.51 12.44 17.52 12.5 17.53C12.65 17.55 12.77 17.49 12.78 17.38C12.8 17.2 12.5 17.19 12.51 17.08C12.51 17.04 12.55 17.01 12.63 17.01C12.69 17.02 12.72 17.05 12.74 17.09H12.75Z" fill="#C8B32F"/>
<path d="M23.06 14.79H24.93V14.3H23.06V14.79Z" fill="#C8B32F"/>
<path d="M23.06 14.79H24.93V14.3H23.06V14.79Z" stroke="black" stroke-width="0.0326"/>
<path d="M24.73 15.12C24.72 15.11 24.71 15.11 24.7 15.11H23.3C23.29 15.11 23.27 15.11 23.26 15.12C23.31 15.1 23.34 15.06 23.34 15.01C23.34 14.96 23.3 14.91 23.25 14.9C23.26 14.9 23.28 14.91 23.29 14.91H24.69C24.7 14.91 24.72 14.91 24.73 14.9H24.72C24.67 14.92 24.64 14.96 24.64 15.01C24.65 15.06 24.68 15.1 24.73 15.12Z" fill="#C8B32F"/>
<path d="M24.73 15.12C24.72 15.11 24.71 15.11 24.7 15.11H23.3C23.29 15.11 23.27 15.11 23.26 15.12C23.31 15.1 23.34 15.06 23.34 15.01C23.34 14.96 23.3 14.91 23.25 14.9C23.26 14.9 23.28 14.91 23.29 14.91H24.69C24.7 14.91 24.72 14.91 24.73 14.9H24.72C24.67 14.92 24.64 14.96 24.64 15.01C24.65 15.06 24.68 15.1 24.73 15.12Z" stroke="black" stroke-width="0.0326" stroke-linejoin="round"/>
<path d="M23.3 15.11H24.7C24.75 15.11 24.79 15.14 24.79 15.18C24.79 15.22 24.75 15.25 24.7 15.25H23.3C23.25 15.25 23.21 15.22 23.21 15.18C23.21 15.14 23.25 15.11 23.3 15.11Z" fill="#C8B32F"/>
<path d="M23.3 15.11H24.7C24.75 15.11 24.79 15.14 24.79 15.18C24.79 15.22 24.75 15.25 24.7 15.25H23.3C23.25 15.25 23.21 15.22 23.21 15.18C23.21 15.14 23.25 15.11 23.3 15.11Z" stroke="black" stroke-width="0.0326"/>
<path d="M23.3 14.79H24.7C24.75 14.79 24.79 14.82 24.79 14.85C24.79 14.88 24.75 14.91 24.7 14.91H23.3C23.25 14.91 23.21 14.88 23.21 14.85C23.21 14.82 23.25 14.79 23.3 14.79Z" fill="#C8B32F"/>
<path d="M23.3 14.79H24.7C24.75 14.79 24.79 14.82 24.79 14.85C24.79 14.88 24.75 14.91 24.7 14.91H23.3C23.25 14.91 23.21 14.88 23.21 14.85C23.21 14.82 23.25 14.79 23.3 14.79Z" stroke="black" stroke-width="0.0326"/>
<path d="M22.69 23.04C22.82 23.04 22.93 23.01 23.02 22.97C23.1 22.93 23.22 22.9 23.34 22.9C23.47 22.9 23.58 22.93 23.67 22.97C23.75 23.01 23.87 23.04 24 23.04C24.13 23.04 24.24 23.01 24.33 22.96C24.41 22.92 24.53 22.89 24.65 22.89C24.78 22.89 24.89 22.92 24.97 22.96C25.05 23 25.17 23.03 25.3 23.03V23.23C25.17 23.23 25.05 23.2 24.97 23.16C24.89 23.12 24.77 23.09 24.65 23.09C24.53 23.09 24.42 23.12 24.33 23.16C24.25 23.2 24.13 23.23 24 23.23C23.87 23.23 23.76 23.2 23.67 23.16C23.59 23.12 23.47 23.09 23.34 23.09C23.21 23.09 23.1 23.12 23.02 23.16C22.94 23.2 22.82 23.23 22.69 23.23V23.04Z" fill="#265EAC"/>
<path d="M22.69 23.04C22.82 23.04 22.93 23.01 23.02 22.97C23.1 22.93 23.22 22.9 23.34 22.9C23.47 22.9 23.58 22.93 23.67 22.97C23.75 23.01 23.87 23.04 24 23.04C24.13 23.04 24.24 23.01 24.33 22.96C24.41 22.92 24.53 22.89 24.65 22.89C24.78 22.89 24.89 22.92 24.97 22.96C25.05 23 25.17 23.03 25.3 23.03V23.23C25.17 23.23 25.05 23.2 24.97 23.16C24.89 23.12 24.77 23.09 24.65 23.09C24.53 23.09 24.42 23.12 24.33 23.16C24.25 23.2 24.13 23.23 24 23.23C23.87 23.23 23.76 23.2 23.67 23.16C23.59 23.12 23.47 23.09 23.34 23.09C23.21 23.09 23.1 23.12 23.02 23.16C22.94 23.2 22.82 23.23 22.69 23.23V23.04Z" stroke="black" stroke-width="0.0326"/>
<path d="M22.69 23.24C22.82 23.24 22.93 23.21 23.02 23.17C23.1 23.13 23.22 23.1 23.34 23.1C23.47 23.1 23.58 23.13 23.67 23.17C23.75 23.21 23.87 23.24 24 23.24C24.13 23.24 24.24 23.21 24.33 23.17C24.41 23.13 24.53 23.1 24.65 23.1C24.78 23.1 24.89 23.13 24.97 23.17C25.05 23.21 25.17 23.24 25.3 23.24V23.44C25.17 23.44 25.05 23.41 24.97 23.37C24.89 23.33 24.77 23.3 24.65 23.3C24.53 23.3 24.42 23.33 24.33 23.37C24.25 23.41 24.13 23.45 24 23.45C23.87 23.45 23.76 23.42 23.67 23.38C23.58 23.34 23.47 23.31 23.34 23.31C23.21 23.31 23.1 23.34 23.02 23.38C22.94 23.42 22.82 23.45 22.69 23.45V23.24Z" fill="#CDCCCB"/>
<path d="M22.69 23.24C22.82 23.24 22.93 23.21 23.02 23.17C23.1 23.13 23.22 23.1 23.34 23.1C23.47 23.1 23.58 23.13 23.67 23.17C23.75 23.21 23.87 23.24 24 23.24C24.13 23.24 24.24 23.21 24.33 23.17C24.41 23.13 24.53 23.1 24.65 23.1C24.78 23.1 24.89 23.13 24.97 23.17C25.05 23.21 25.17 23.24 25.3 23.24V23.44C25.17 23.44 25.05 23.41 24.97 23.37C24.89 23.33 24.77 23.3 24.65 23.3C24.53 23.3 24.42 23.33 24.33 23.37C24.25 23.41 24.13 23.45 24 23.45C23.87 23.45 23.76 23.42 23.67 23.38C23.58 23.34 23.47 23.31 23.34 23.31C23.21 23.31 23.1 23.34 23.02 23.38C22.94 23.42 22.82 23.45 22.69 23.45V23.24Z" stroke="black" stroke-width="0.0326"/>
<path d="M22.69 23.44C22.82 23.44 22.93 23.41 23.02 23.37C23.1 23.33 23.22 23.3 23.34 23.3C23.47 23.3 23.58 23.33 23.67 23.37C23.75 23.41 23.87 23.44 24 23.44C24.13 23.44 24.24 23.41 24.33 23.36C24.41 23.32 24.53 23.29 24.65 23.29C24.78 23.29 24.89 23.32 24.97 23.36C25.05 23.4 25.17 23.43 25.3 23.43V23.63C25.17 23.63 25.05 23.6 24.97 23.56C24.89 23.52 24.77 23.49 24.65 23.49C24.53 23.49 24.42 23.51 24.33 23.56C24.25 23.6 24.13 23.63 24 23.63C23.87 23.63 23.76 23.6 23.67 23.56C23.59 23.52 23.47 23.49 23.34 23.49C23.21 23.49 23.1 23.52 23.02 23.56C22.94 23.6 22.82 23.63 22.69 23.63V23.44Z" fill="#265EAC"/>
<path d="M22.69 23.44C22.82 23.44 22.93 23.41 23.02 23.37C23.1 23.33 23.22 23.3 23.34 23.3C23.47 23.3 23.58 23.33 23.67 23.37C23.75 23.41 23.87 23.44 24 23.44C24.13 23.44 24.24 23.41 24.33 23.36C24.41 23.32 24.53 23.29 24.65 23.29C24.78 23.29 24.89 23.32 24.97 23.36C25.05 23.4 25.17 23.43 25.3 23.43V23.63C25.17 23.63 25.05 23.6 24.97 23.56C24.89 23.52 24.77 23.49 24.65 23.49C24.53 23.49 24.42 23.51 24.33 23.56C24.25 23.6 24.13 23.63 24 23.63C23.87 23.63 23.76 23.6 23.67 23.56C23.59 23.52 23.47 23.49 23.34 23.49C23.21 23.49 23.1 23.52 23.02 23.56C22.94 23.6 22.82 23.63 22.69 23.63V23.44Z" stroke="black" stroke-width="0.0326"/>
<path d="M22.69 23.85C22.82 23.85 22.93 23.82 23.02 23.78C23.1 23.74 23.22 23.71 23.34 23.71C23.47 23.71 23.58 23.74 23.67 23.78C23.75 23.82 23.87 23.85 24 23.85C24.13 23.85 24.24 23.82 24.33 23.77C24.41 23.73 24.53 23.7 24.65 23.7C24.78 23.7 24.89 23.72 24.97 23.77C25.05 23.82 25.17 23.84 25.3 23.84V23.64C25.17 23.64 25.05 23.61 24.97 23.56C24.89 23.52 24.77 23.49 24.65 23.49C24.53 23.49 24.42 23.51 24.33 23.56C24.25 23.6 24.13 23.63 24 23.63C23.87 23.63 23.76 23.6 23.67 23.56C23.59 23.52 23.47 23.49 23.34 23.49C23.21 23.49 23.1 23.52 23.02 23.56C22.94 23.6 22.82 23.63 22.69 23.63V23.85Z" fill="#CDCCCB"/>
<path d="M22.69 23.85C22.82 23.85 22.93 23.82 23.02 23.78C23.1 23.74 23.22 23.71 23.34 23.71C23.47 23.71 23.58 23.74 23.67 23.78C23.75 23.82 23.87 23.85 24 23.85C24.13 23.85 24.24 23.82 24.33 23.77C24.41 23.73 24.53 23.7 24.65 23.7C24.78 23.7 24.89 23.72 24.97 23.77C25.05 23.82 25.17 23.84 25.3 23.84V23.64C25.17 23.64 25.05 23.61 24.97 23.56C24.89 23.52 24.77 23.49 24.65 23.49C24.53 23.49 24.42 23.51 24.33 23.56C24.25 23.6 24.13 23.63 24 23.63C23.87 23.63 23.76 23.6 23.67 23.56C23.59 23.52 23.47 23.49 23.34 23.49C23.21 23.49 23.1 23.52 23.02 23.56C22.94 23.6 22.82 23.63 22.69 23.63V23.85Z" stroke="black" stroke-width="0.0326"/>
<path d="M22.69 24.05C22.82 24.05 22.93 24.02 23.02 23.98C23.1 23.94 23.22 23.91 23.34 23.91C23.47 23.91 23.58 23.94 23.67 23.98C23.75 24.02 23.87 24.05 24 24.05C24.13 24.05 24.24 24.02 24.33 23.98C24.41 23.94 24.53 23.91 24.65 23.91C24.78 23.91 24.89 23.94 24.97 23.98C25.05 24.02 25.17 24.05 25.3 24.05V23.85C25.17 23.85 25.05 23.82 24.97 23.77C24.89 23.72 24.77 23.7 24.65 23.7C24.53 23.7 24.42 23.73 24.33 23.77C24.25 23.81 24.13 23.85 24 23.85C23.87 23.85 23.76 23.82 23.67 23.78C23.59 23.74 23.47 23.71 23.34 23.71C23.21 23.71 23.1 23.74 23.02 23.78C22.94 23.83 22.82 23.85 22.69 23.85V24.05Z" fill="#265EAC"/>
<path d="M22.69 24.05C22.82 24.05 22.93 24.02 23.02 23.98C23.1 23.94 23.22 23.91 23.34 23.91C23.47 23.91 23.58 23.94 23.67 23.98C23.75 24.02 23.87 24.05 24 24.05C24.13 24.05 24.24 24.02 24.33 23.98C24.41 23.94 24.53 23.91 24.65 23.91C24.78 23.91 24.89 23.94 24.97 23.98C25.05 24.02 25.17 24.05 25.3 24.05V23.85C25.17 23.85 25.05 23.82 24.97 23.77C24.89 23.72 24.77 23.7 24.65 23.7C24.53 23.7 24.42 23.73 24.33 23.77C24.25 23.81 24.13 23.85 24 23.85C23.87 23.85 23.76 23.82 23.67 23.78C23.59 23.74 23.47 23.71 23.34 23.71C23.21 23.71 23.1 23.74 23.02 23.78C22.94 23.83 22.82 23.85 22.69 23.85V24.05Z" stroke="black" stroke-width="0.0326"/>
<path d="M24.73 22.21C24.73 22.23 24.72 22.24 24.72 22.26C24.72 22.38 24.83 22.48 24.96 22.48H23.04C23.17 22.48 23.28 22.38 23.28 22.26C23.28 22.24 23.28 22.23 23.27 22.21C23.28 22.21 23.29 22.21 23.31 22.21H24.71C24.71 22.21 24.72 22.21 24.73 22.21Z" fill="#C8B32F"/>
<path d="M24.73 22.21C24.73 22.23 24.72 22.24 24.72 22.26C24.72 22.38 24.83 22.48 24.96 22.48H23.04C23.17 22.48 23.28 22.38 23.28 22.26C23.28 22.24 23.28 22.23 23.27 22.21C23.28 22.21 23.29 22.21 23.31 22.21H24.71C24.71 22.21 24.72 22.21 24.73 22.21Z" stroke="black" stroke-width="0.0326" stroke-linejoin="round"/>
<path d="M23.3 22.08H24.7C24.75 22.08 24.79 22.11 24.79 22.14C24.79 22.18 24.75 22.21 24.7 22.21H23.3C23.25 22.21 23.21 22.18 23.21 22.14C23.21 22.11 23.25 22.08 23.3 22.08Z" fill="#C8B32F"/>
<path d="M23.3 22.08H24.7C24.75 22.08 24.79 22.11 24.79 22.14C24.79 22.18 24.75 22.21 24.7 22.21H23.3C23.25 22.21 23.21 22.18 23.21 22.14C23.21 22.11 23.25 22.08 23.3 22.08Z" stroke="black" stroke-width="0.0326"/>
<path d="M23.04 22.97H24.95V22.48H23.04V22.97Z" fill="#C8B32F"/>
<path d="M23.04 22.97H24.95V22.48H23.04V22.97Z" stroke="black" stroke-width="0.0326"/>
<path d="M25.11 20.35C25.3 20.46 25.43 20.57 25.41 20.63C25.4 20.68 25.34 20.72 25.25 20.78C25.11 20.88 25.03 21.04 25.1 21.12C24.99 21.03 24.92 20.9 24.92 20.74C24.91 20.58 24.98 20.44 25.11 20.35Z" fill="#AC1F23"/>
<path d="M25.11 20.35C25.3 20.46 25.43 20.57 25.41 20.63C25.4 20.68 25.34 20.72 25.25 20.78C25.11 20.88 25.03 21.04 25.1 21.12C24.99 21.03 24.92 20.9 24.92 20.74C24.91 20.58 24.98 20.44 25.11 20.35Z" stroke="black" stroke-width="0.0326"/>
<path d="M23.32 22H24.68V15.32H23.32V22Z" fill="#CDCCCB"/>
<path d="M24.46 15.32V21.98V15.32ZM24.31 15.32V21.98V15.32ZM23.32 22H24.68V15.32H23.32V22Z" stroke="black" stroke-width="0.0326"/>
<path d="M21.92 17.82C22.22 17.7 22.72 17.61 23.3 17.59C23.5 17.59 23.72 17.61 23.95 17.65C24.77 17.79 25.39 18.11 25.34 18.38V18.4C25.34 18.4 25.65 17.71 25.65 17.69C25.7 17.4 25.02 17.03 24.11 16.88C23.83 16.83 23.55 16.81 23.31 16.82C22.73 16.82 22.23 16.89 21.92 17.01V17.82Z" fill="#AC1F23"/>
<path d="M21.92 17.82C22.22 17.7 22.72 17.61 23.3 17.59C23.5 17.59 23.72 17.61 23.95 17.65C24.77 17.79 25.39 18.11 25.34 18.38V18.4C25.34 18.4 25.65 17.71 25.65 17.69C25.7 17.4 25.02 17.03 24.11 16.88C23.83 16.83 23.55 16.81 23.31 16.82C22.73 16.82 22.23 16.89 21.92 17.01V17.82Z" stroke="black" stroke-width="0.0326" stroke-linejoin="round"/>
<path d="M24.68 18.66C25.06 18.63 25.32 18.53 25.35 18.37C25.37 18.24 25.25 18.1 25.02 17.98C24.91 17.99 24.8 18 24.68 18V18.66Z" fill="#AC1F23"/>
<path d="M24.68 18.66C25.06 18.63 25.32 18.53 25.35 18.37C25.37 18.24 25.25 18.1 25.02 17.98C24.91 17.99 24.8 18 24.68 18V18.66Z" stroke="black" stroke-width="0.0326"/>
<path d="M23.31 18.15C23.07 18.19 22.9 18.24 22.81 18.32L22.8 18.33C22.76 18.42 22.97 18.6 23.31 18.81V18.15Z" fill="#AC1F23"/>
<path d="M23.31 18.15C23.07 18.19 22.9 18.24 22.81 18.32L22.8 18.33C22.76 18.42 22.97 18.6 23.31 18.81V18.15Z" stroke="black" stroke-width="0.0326"/>
<path d="M25.53 19.95C25.57 19.84 25.2 19.63 24.68 19.44C24.44 19.35 24.24 19.27 24 19.16C23.28 18.84 22.74 18.47 22.81 18.34L22.82 18.33C22.78 18.36 22.72 19.02 22.72 19.02C22.65 19.14 23.14 19.5 23.81 19.82C24.02 19.92 24.47 20.09 24.69 20.16C25.07 20.29 25.45 20.54 25.41 20.63L25.53 19.95Z" fill="#AC1F23"/>
<path d="M25.53 19.95C25.57 19.84 25.2 19.63 24.68 19.44C24.44 19.35 24.24 19.27 24 19.16C23.28 18.84 22.74 18.47 22.81 18.34L22.82 18.33C22.78 18.36 22.72 19.02 22.72 19.02C22.65 19.14 23.14 19.5 23.81 19.82C24.02 19.92 24.47 20.09 24.69 20.16C25.07 20.29 25.45 20.54 25.41 20.63L25.53 19.95Z" stroke="black" stroke-width="0.0326" stroke-linejoin="round"/>
<path d="M22.77 17.53C22.82 17.33 22.89 17.15 22.95 16.95C22.94 16.95 22.92 16.96 22.91 16.96C22.9 16.96 22.88 16.96 22.87 16.96C22.84 17.1 22.8 17.24 22.75 17.37C22.67 17.25 22.58 17.13 22.51 17.01C22.48 17.02 22.45 17.02 22.42 17.03C22.39 17.03 22.36 17.04 22.33 17.04C22.45 17.2 22.57 17.37 22.68 17.54C22.69 17.54 22.71 17.53 22.72 17.53C22.75 17.53 22.76 17.53 22.77 17.53Z" fill="#C8B32F"/>
<path d="M23.29 16.95C23.27 16.95 23.24 16.95 23.22 16.95C23.2 16.95 23.17 16.95 23.15 16.94L23.14 17.48L23.52 17.49C23.52 17.48 23.51 17.47 23.51 17.46C23.51 17.45 23.51 17.44 23.52 17.43C23.45 17.43 23.38 17.44 23.29 17.44V16.95Z" fill="#C8B32F"/>
<path d="M23.88 17.04C23.94 17.05 24 17.06 24.06 17.07C24.06 17.06 24.06 17.05 24.06 17.04C24.06 17.03 24.06 17.02 24.07 17.01L23.56 16.97C23.56 16.98 23.56 16.99 23.56 17C23.56 17.01 23.56 17.02 23.55 17.03C23.6 17.03 23.67 17.03 23.74 17.03L23.7 17.51C23.72 17.51 23.75 17.51 23.77 17.51C23.8 17.51 23.82 17.52 23.84 17.52L23.88 17.04Z" fill="#C8B32F"/>
<path d="M24.35 17.12C24.41 17.13 24.48 17.14 24.48 17.21C24.48 17.23 24.48 17.24 24.47 17.25C24.45 17.33 24.39 17.35 24.29 17.33L24.35 17.12ZM24.09 17.57C24.11 17.57 24.14 17.58 24.16 17.58C24.18 17.58 24.21 17.59 24.23 17.6L24.29 17.35H24.3C24.31 17.38 24.33 17.43 24.34 17.45L24.42 17.64C24.45 17.65 24.48 17.65 24.51 17.66C24.54 17.67 24.57 17.68 24.6 17.68L24.57 17.62C24.53 17.54 24.49 17.45 24.45 17.37C24.54 17.37 24.62 17.34 24.63 17.26C24.64 17.21 24.62 17.17 24.57 17.13C24.53 17.1 24.46 17.09 24.42 17.08L24.22 17.04L24.09 17.57Z" fill="#C8B32F"/>
<path d="M24.91 17.6L25.09 17.49L25.07 17.69L24.91 17.6ZM25.06 17.73C25.06 17.79 25.05 17.84 25.03 17.91C25.06 17.92 25.08 17.93 25.11 17.95C25.13 17.96 25.16 17.98 25.18 17.99L25.23 17.38C25.22 17.38 25.21 17.37 25.2 17.36C25.19 17.35 25.18 17.35 25.17 17.34L24.63 17.68C24.64 17.69 24.66 17.69 24.67 17.7C24.68 17.71 24.7 17.72 24.71 17.72C24.76 17.68 24.8 17.65 24.86 17.61L25.06 17.73Z" fill="#C8B32F"/>
<path d="M17.76 24.18C16.66 24.18 15.58 23.91 14.66 23.46C13.99 23.13 13.54 22.45 13.54 21.68V18.9H21.96V21.69C21.96 22.46 21.51 23.13 20.84 23.47C19.93 23.91 18.86 24.18 17.76 24.18Z" fill="#CDCCCB"/>
<path d="M17.76 24.18C16.66 24.18 15.58 23.91 14.66 23.46C13.99 23.13 13.54 22.45 13.54 21.68V18.9H21.96V21.69C21.96 22.46 21.51 23.13 20.84 23.47C19.93 23.91 18.86 24.18 17.76 24.18Z" stroke="black" stroke-width="0.0437"/>
<path d="M17.74 21.69C17.74 22.79 16.8 23.69 15.64 23.69C14.48 23.69 13.53 22.8 13.53 21.69V18.89H17.74V21.69Z" fill="#AC1F23"/>
<path d="M17.28 22.92C17.49 22.74 17.68 22.32 17.75 21.85L17.76 18.79H17.27L17.28 22.92Z" fill="#C8B32F"/>
<path d="M17.28 22.92C17.49 22.74 17.68 22.32 17.75 21.85L17.76 18.79H17.27L17.28 22.92Z" stroke="black" stroke-width="0.0437"/>
<path d="M17.74 18.89H21.96V14.22H17.74V18.89Z" fill="#CDCCCB"/>
<path d="M14.45 23.33C14.58 23.4 14.76 23.52 14.96 23.56L14.95 18.78H14.46V23.33H14.45Z" fill="#C8B32F"/>
<path d="M14.45 23.33C14.58 23.4 14.76 23.52 14.96 23.56L14.95 18.78H14.46V23.33H14.45Z" stroke="black" stroke-width="0.0437"/>
<path d="M13.53 21.65C13.54 22.24 13.78 22.68 14.01 22.96V18.81H13.54L13.53 21.65Z" fill="#C8B32F"/>
<path d="M13.53 21.65C13.54 22.24 13.78 22.68 14.01 22.96V18.81H13.54L13.53 21.65Z" stroke="black" stroke-width="0.0419" stroke-linejoin="round"/>
<path d="M15.39 23.67C15.58 23.69 15.73 23.69 15.88 23.67V18.79H15.39V23.67Z" fill="#C6B52F"/>
<path d="M15.39 23.67C15.58 23.69 15.73 23.69 15.88 23.67V18.79H15.39V23.67Z" stroke="black" stroke-width="0.0437"/>
<path d="M16.32 23.57C16.51 23.53 16.73 23.41 16.83 23.35V18.79H16.34L16.32 23.57Z" fill="#C8B32F"/>
<path d="M16.32 23.57C16.51 23.53 16.73 23.41 16.83 23.35V18.79H16.34L16.32 23.57Z" stroke="black" stroke-width="0.0437"/>
<path d="M13.53 18.89H17.74V14.22H13.53V18.89Z" fill="#AC1F23"/>
<path d="M13.53 18.89H17.74V14.22H13.53V18.89ZM17.74 21.69C17.74 22.79 16.8 23.69 15.64 23.69C14.48 23.69 13.53 22.8 13.53 21.69V18.89H17.74V21.69Z" stroke="black" stroke-width="0.0437"/>
<path d="M21.96 18.89V21.69C21.96 22.79 21.01 23.69 19.85 23.69C18.68 23.69 17.74 22.8 17.74 21.69V18.89H21.96Z" fill="#AC1F23"/>
<path d="M21.96 18.89V21.69C21.96 22.79 21.01 23.69 19.85 23.69C18.68 23.69 17.74 22.8 17.74 21.69V18.89H21.96Z" stroke="black" stroke-width="0.0437"/>
<path d="M19.77 22.34L19.62 22.3V21.92L19.77 21.88V22.34ZM19.91 22.34L20.06 22.3V21.92L19.91 21.88V22.34ZM19.74 23.02C19.74 22.97 19.78 22.93 19.84 22.93C19.89 22.93 19.94 22.97 19.94 23.02C19.94 23.07 19.9 23.11 19.84 23.11C19.79 23.11 19.74 23.07 19.74 23.02ZM20.76 21.11L20.72 21.25H20.32L20.28 21.11H20.76ZM18.91 21.11L18.95 21.25H19.35L19.39 21.11H18.91ZM20.67 21.87L20.75 21.75L20.49 21.46L20.35 21.52L20.67 21.87ZM20.56 21.96L20.42 22.02L20.16 21.73L20.24 21.61L20.56 21.96ZM20.75 22.78C20.62 22.88 20.48 22.95 20.33 23L20.44 23.1C20.56 23.06 20.68 22.99 20.79 22.92L20.75 22.78ZM20.68 22.66C20.56 22.76 20.41 22.83 20.26 22.88L20.23 22.74C20.36 22.7 20.48 22.64 20.58 22.56L20.68 22.66ZM21.16 21.46L21.01 21.49C21.01 21.49 21 21.73 21 21.68C21 21.62 20.98 21.87 20.98 21.87L21.13 21.92C21.14 21.84 21.15 21.77 21.15 21.69V21.46H21.16ZM21.29 21.93L21.44 21.9L21.46 21.53L21.31 21.48V21.69C21.31 21.77 21.3 21.85 21.29 21.93ZM21.11 22.32C21.08 22.28 21.01 22.28 20.97 22.31C20.93 22.34 20.92 22.4 20.96 22.44C21 22.48 21.06 22.48 21.1 22.45C21.14 22.42 21.14 22.36 21.11 22.32ZM20.57 22.73L20.64 22.85C20.76 22.78 20.87 22.68 20.96 22.58C21.03 22.6 21.11 22.59 21.18 22.54C21.28 22.46 21.29 22.33 21.21 22.24L21.2 22.23C21.26 22.1 21.3 21.96 21.31 21.81H21.17C21.16 21.94 21.13 22.06 21.08 22.17C21.04 22.17 21 22.17 20.96 22.18L20.6 21.78L20.49 21.87L20.85 22.27C20.8 22.34 20.8 22.44 20.86 22.51C20.77 22.59 20.68 22.67 20.57 22.73ZM18.99 21.87L18.91 21.75L19.17 21.46L19.31 21.52L18.99 21.87ZM19.1 21.96L19.24 22.02L19.5 21.73L19.42 21.61L19.1 21.96ZM18.91 22.78C19.04 22.88 19.18 22.95 19.33 23L19.22 23.1C19.1 23.06 18.98 22.99 18.87 22.92L18.91 22.78ZM18.98 22.66C19.1 22.76 19.25 22.83 19.4 22.88L19.43 22.74C19.3 22.7 19.18 22.64 19.08 22.56L18.98 22.66ZM18.5 21.46L18.65 21.49C18.65 21.49 18.66 21.73 18.65 21.68C18.65 21.62 18.67 21.87 18.67 21.87L18.52 21.92C18.5 21.84 18.5 21.77 18.5 21.69V21.46ZM18.38 21.93L18.23 21.9L18.21 21.53L18.36 21.48V21.69C18.35 21.77 18.36 21.85 18.38 21.93ZM18.56 22.32C18.6 22.28 18.66 22.28 18.7 22.31C18.74 22.34 18.75 22.4 18.71 22.44C18.67 22.48 18.61 22.48 18.57 22.45C18.53 22.42 18.52 22.36 18.56 22.32ZM19.09 22.73L19.02 22.85C18.9 22.78 18.79 22.68 18.7 22.58C18.63 22.6 18.54 22.59 18.48 22.54C18.38 22.46 18.37 22.33 18.46 22.24L18.47 22.23C18.41 22.1 18.37 21.96 18.36 21.81H18.5C18.51 21.94 18.54 22.06 18.59 22.17C18.63 22.16 18.67 22.17 18.71 22.18L19.07 21.78L19.18 21.87L18.82 22.27C18.87 22.34 18.87 22.44 18.81 22.51C18.9 22.59 18.99 22.67 19.09 22.73ZM20.05 22.93C20.16 22.91 20.27 22.88 20.37 22.84L20.44 22.96C20.32 23.01 20.19 23.05 20.06 23.07C20.04 23.17 19.95 23.24 19.84 23.24C19.73 23.24 19.64 23.17 19.62 23.07C19.48 23.05 19.35 23.02 19.22 22.96L19.29 22.84C19.4 22.88 19.51 22.92 19.63 22.93C19.66 22.87 19.7 22.83 19.76 22.81V22.22H19.9V22.81C19.97 22.83 20.03 22.88 20.05 22.93ZM20.64 21V21.11H21.03C21.05 21.17 21.1 21.22 21.17 21.24V21.58H21.31V21.24C21.4 21.21 21.47 21.13 21.47 21.03C21.47 21.01 21.47 21 21.47 20.99H21.33C21.34 21 21.34 21.02 21.34 21.03C21.34 21.08 21.3 21.12 21.24 21.12C21.19 21.12 21.14 21.08 21.14 21.03C21.14 21.01 21.14 21 21.15 20.99L20.64 21ZM20.4 21V21.11H20.05C20.04 21.12 20.04 21.14 20.03 21.15L20.43 21.61L20.32 21.7L19.92 21.24C19.91 21.24 19.91 21.24 19.9 21.25V22.01H19.76V21.25C19.75 21.25 19.75 21.25 19.74 21.24L19.32 21.7L19.21 21.61L19.63 21.15C19.62 21.14 19.62 21.12 19.61 21.11H19.25V21H20.4ZM18.51 21C18.52 21.01 18.52 21.03 18.52 21.04C18.52 21.09 18.48 21.13 18.42 21.13C18.36 21.13 18.32 21.09 18.32 21.04C18.32 21.02 18.32 21.01 18.33 21H18.19C18.19 21.01 18.19 21.03 18.19 21.04C18.19 21.14 18.26 21.22 18.35 21.25V21.59H18.49V21.25C18.56 21.23 18.61 21.18 18.63 21.12H19.02V21H18.51Z" fill="#C8B32F"/>
<path d="M19.91 19.87L20.06 19.91V20.29L19.91 20.33V19.87ZM19.76 19.87L19.61 19.91V20.29L19.76 20.33V19.87ZM20.28 19.43L20.32 19.29H20.72L20.76 19.43H20.28ZM20.28 19.56L20.32 19.7H20.72L20.76 19.56H20.28ZM19.73 19.49C19.73 19.44 19.77 19.4 19.83 19.4C19.88 19.4 19.93 19.44 19.93 19.49C19.93 19.54 19.89 19.58 19.83 19.58C19.78 19.59 19.73 19.55 19.73 19.49ZM21.14 19.49C21.14 19.44 21.18 19.4 21.24 19.4C21.29 19.4 21.34 19.44 21.34 19.49C21.34 19.54 21.3 19.58 21.24 19.58C21.19 19.59 21.14 19.55 21.14 19.49ZM20.76 20.98L20.72 20.84H20.32L20.28 20.98H20.76ZM19.39 19.43L19.35 19.29H18.95L18.91 19.43H19.39ZM19.39 19.56L19.35 19.7H18.95L18.91 19.56H19.39ZM18.33 19.49C18.33 19.44 18.37 19.4 18.43 19.4C18.48 19.4 18.53 19.44 18.53 19.49C18.53 19.54 18.49 19.58 18.43 19.58C18.38 19.59 18.33 19.55 18.33 19.49ZM18.91 20.98L18.95 20.84H19.35L19.39 20.98H18.91ZM20.69 20.19L20.78 20.31L20.53 20.6L20.39 20.54L20.69 20.19ZM20.58 20.1L20.44 20.04L20.19 20.33L20.28 20.45L20.58 20.1ZM18.97 20.2L18.89 20.32L19.15 20.61L19.29 20.55L18.97 20.2ZM19.08 20.12L19.22 20.06L19.48 20.35L19.4 20.47L19.08 20.12ZM21.31 20.04L21.46 20.08V20.45L21.31 20.49V20.04ZM21.16 20.04L21.01 20.08V20.45L21.16 20.49V20.04ZM18.5 20.04L18.65 20.08V20.45L18.5 20.5V20.04ZM18.36 20.04L18.21 20.08V20.45L18.36 20.49V20.04ZM19.91 19.7V19.98H19.77V19.7C19.7 19.68 19.64 19.63 19.62 19.56H19.27V19.43H19.62C19.65 19.34 19.74 19.28 19.84 19.28C19.94 19.28 20.03 19.34 20.06 19.43H20.41V19.56H20.06C20.03 19.63 19.97 19.68 19.91 19.7ZM21.31 19.7V20.16H21.17V19.7C21.16 19.7 21.15 19.69 21.14 19.69L20.61 20.28L20.5 20.2L21.04 19.59C21.04 19.58 21.03 19.57 21.03 19.56H20.64V19.43H21.03C21.06 19.34 21.15 19.28 21.25 19.28C21.38 19.28 21.48 19.38 21.48 19.5C21.47 19.59 21.4 19.67 21.31 19.7ZM18.52 19.7L19.05 20.29L19.16 20.2L18.63 19.61C18.64 19.59 18.65 19.58 18.65 19.56H19.04V19.43H18.65C18.62 19.34 18.53 19.28 18.43 19.28C18.3 19.28 18.2 19.38 18.2 19.5C18.2 19.6 18.26 19.68 18.35 19.71V20.17H18.49V19.7C18.5 19.7 18.51 19.7 18.52 19.7ZM21.15 21C21.17 20.97 21.2 20.95 21.24 20.95C21.28 20.95 21.31 20.97 21.33 21H21.47C21.45 20.92 21.39 20.86 21.31 20.84V20.38H21.17V20.84C21.1 20.86 21.05 20.91 21.02 20.98H20.64V21H21.15ZM19.26 21V20.98H19.62C19.62 20.97 19.63 20.96 19.64 20.95L19.2 20.46L19.31 20.37L19.74 20.85C19.75 20.85 19.75 20.84 19.76 20.84V20.2H19.9V20.84C19.91 20.84 19.92 20.84 19.92 20.85L20.34 20.37L20.45 20.46L20.02 20.94C20.03 20.96 20.04 20.98 20.04 20.99H20.39V21H19.26ZM18.2 21C18.22 20.92 18.28 20.86 18.36 20.84V20.38H18.5V20.84C18.57 20.86 18.62 20.91 18.65 20.98H19.03V21H18.51C18.49 20.97 18.46 20.95 18.42 20.95C18.38 20.95 18.35 20.97 18.33 21H18.2Z" fill="#C8B32F"/>
<path d="M18.91 22.78C19.04 22.88 19.18 22.95 19.33 23L19.22 23.1C19.1 23.06 18.98 22.99 18.87 22.92L18.91 22.78ZM18.98 22.66C19.1 22.76 19.25 22.83 19.4 22.88L19.43 22.74C19.3 22.7 19.18 22.64 19.08 22.56L18.98 22.66ZM18.5 21.46L18.65 21.49C18.65 21.49 18.66 21.73 18.65 21.68C18.65 21.62 18.67 21.87 18.67 21.87L18.52 21.92C18.5 21.84 18.5 21.77 18.5 21.69V21.46ZM18.38 21.93L18.23 21.9L18.21 21.53L18.36 21.48V21.69C18.35 21.77 18.36 21.85 18.38 21.93ZM18.56 22.32C18.6 22.28 18.66 22.28 18.7 22.31C18.74 22.34 18.75 22.4 18.71 22.44C18.67 22.48 18.61 22.48 18.57 22.45C18.53 22.42 18.52 22.36 18.56 22.32ZM18.35 21.59V21.25C18.26 21.22 18.19 21.14 18.19 21.04C18.19 20.94 18.26 20.86 18.35 20.83V20.37H18.49V20.83C18.56 20.85 18.61 20.9 18.64 20.97H19.02V21.1H18.63C18.61 21.16 18.55 21.21 18.49 21.23V21.57L18.35 21.59ZM19.09 22.73L19.02 22.85C18.9 22.78 18.79 22.68 18.7 22.58C18.63 22.6 18.54 22.59 18.48 22.54C18.38 22.46 18.37 22.33 18.46 22.24L18.47 22.23C18.41 22.1 18.37 21.96 18.36 21.81H18.5C18.51 21.94 18.54 22.06 18.59 22.17C18.63 22.17 18.67 22.17 18.71 22.18L19.07 21.78L19.18 21.87L18.82 22.27C18.87 22.34 18.87 22.44 18.81 22.51C18.9 22.59 18.99 22.67 19.09 22.73ZM18.52 19.7L19.05 20.29L19.16 20.2L18.63 19.61C18.64 19.59 18.65 19.58 18.65 19.56H19.04V19.43H18.65C18.62 19.34 18.53 19.28 18.43 19.28C18.3 19.28 18.2 19.38 18.2 19.5C18.2 19.6 18.26 19.68 18.35 19.71V20.17H18.49V19.7C18.5 19.7 18.51 19.7 18.52 19.7ZM19.64 21.15C19.63 21.14 19.63 21.12 19.62 21.11H19.26V20.98H19.62C19.62 20.97 19.63 20.96 19.64 20.95L19.2 20.46L19.31 20.37L19.74 20.85C19.75 20.85 19.75 20.84 19.76 20.84V20.2H19.9V20.84C19.91 20.84 19.92 20.84 19.92 20.85L20.34 20.37L20.45 20.46L20.02 20.94C20.03 20.96 20.04 20.97 20.04 20.99H20.39V21.12H20.04C20.03 21.13 20.03 21.15 20.02 21.16L20.42 21.62L20.31 21.71L19.91 21.25C19.9 21.25 19.9 21.26 19.89 21.26V22.02H19.75V21.26C19.74 21.26 19.74 21.26 19.73 21.25L19.31 21.71L19.2 21.62L19.64 21.15ZM20.05 22.93C20.16 22.91 20.27 22.88 20.37 22.84L20.44 22.96C20.32 23.01 20.19 23.05 20.06 23.07C20.04 23.17 19.95 23.24 19.84 23.24C19.73 23.24 19.64 23.17 19.62 23.07C19.48 23.05 19.35 23.02 19.22 22.96L19.29 22.84C19.4 22.88 19.51 22.92 19.63 22.93C19.66 22.87 19.7 22.83 19.76 22.81V22.22H19.9V22.81C19.97 22.83 20.03 22.88 20.05 22.93ZM21.16 20.04L21.01 20.08V20.46L21.16 20.5V20.04ZM18.5 20.04L18.65 20.08V20.46L18.5 20.5V20.04ZM18.36 20.04L18.21 20.08V20.46L18.36 20.5V20.04ZM20.75 22.78C20.62 22.88 20.48 22.95 20.33 23L20.44 23.1C20.56 23.06 20.68 22.99 20.79 22.92L20.75 22.78ZM20.68 22.66C20.56 22.76 20.41 22.83 20.26 22.88L20.23 22.74C20.36 22.7 20.48 22.64 20.58 22.56L20.68 22.66ZM19.91 19.7V19.98H19.77V19.7C19.7 19.68 19.64 19.63 19.62 19.56H19.27V19.43H19.62C19.65 19.34 19.74 19.28 19.84 19.28C19.94 19.28 20.03 19.34 20.06 19.43H20.41V19.56H20.06C20.03 19.63 19.97 19.68 19.91 19.7ZM21.31 19.7V20.16H21.17V19.7C21.16 19.7 21.15 19.69 21.14 19.69L20.61 20.28L20.5 20.19L21.04 19.59C21.04 19.58 21.03 19.57 21.03 19.56H20.64V19.43H21.03C21.06 19.34 21.15 19.28 21.25 19.28C21.38 19.28 21.48 19.38 21.48 19.5C21.47 19.59 21.4 19.67 21.31 19.7ZM21.16 21.46L21.01 21.49C21.01 21.49 21 21.73 21 21.68C21 21.62 20.98 21.87 20.98 21.87L21.13 21.92C21.14 21.84 21.15 21.77 21.15 21.69V21.46H21.16ZM21.29 21.93L21.44 21.9L21.46 21.53L21.31 21.48V21.69C21.31 21.77 21.3 21.85 21.29 21.93ZM21.11 22.32C21.08 22.28 21.01 22.28 20.97 22.31C20.93 22.34 20.92 22.4 20.96 22.44C21 22.48 21.06 22.48 21.1 22.45C21.14 22.42 21.14 22.36 21.11 22.32ZM21.31 21.59V21.25C21.4 21.22 21.47 21.14 21.47 21.04C21.47 20.94 21.4 20.86 21.31 20.83V20.37H21.17V20.83C21.1 20.85 21.05 20.9 21.02 20.97H20.64V21.1H21.03C21.05 21.16 21.1 21.21 21.17 21.23V21.57L21.31 21.59ZM20.57 22.73L20.64 22.85C20.76 22.78 20.87 22.68 20.96 22.58C21.03 22.6 21.11 22.59 21.18 22.54C21.28 22.46 21.29 22.33 21.21 22.24L21.2 22.23C21.26 22.1 21.3 21.96 21.31 21.81H21.17C21.16 21.94 21.13 22.06 21.08 22.17C21.04 22.16 21 22.17 20.96 22.18L20.6 21.78L20.49 21.87L20.85 22.27C20.8 22.34 20.8 22.44 20.86 22.51C20.77 22.59 20.68 22.67 20.57 22.73ZM18.33 21.04C18.33 20.99 18.37 20.95 18.43 20.95C18.48 20.95 18.53 20.99 18.53 21.04C18.53 21.09 18.49 21.13 18.43 21.13C18.37 21.13 18.33 21.09 18.33 21.04ZM18.99 21.87L18.91 21.75L19.17 21.46L19.31 21.52L18.99 21.87ZM19.1 21.96L19.24 22.02L19.5 21.73L19.42 21.61L19.1 21.96ZM20.28 19.43L20.32 19.29H20.72L20.76 19.43H20.28ZM20.28 19.56L20.32 19.7H20.72L20.76 19.56H20.28ZM19.73 19.49C19.73 19.44 19.77 19.4 19.83 19.4C19.88 19.4 19.93 19.44 19.93 19.49C19.93 19.54 19.89 19.58 19.83 19.58C19.78 19.59 19.73 19.55 19.73 19.49ZM21.14 19.49C21.14 19.44 21.18 19.4 21.24 19.4C21.29 19.4 21.34 19.44 21.34 19.49C21.34 19.54 21.3 19.58 21.24 19.58C21.19 19.59 21.14 19.55 21.14 19.49ZM19.77 22.34L19.62 22.3V21.92L19.77 21.88V22.34ZM19.91 22.34L20.06 22.3V21.92L19.91 21.88V22.34ZM19.74 23.02C19.74 22.97 19.78 22.93 19.84 22.93C19.89 22.93 19.94 22.97 19.94 23.02C19.94 23.07 19.9 23.11 19.84 23.11C19.79 23.11 19.74 23.07 19.74 23.02ZM20.76 21.11L20.72 21.25H20.32L20.28 21.11H20.76ZM20.76 20.98L20.72 20.84H20.32L20.28 20.98H20.76ZM21.14 21.04C21.14 20.99 21.18 20.95 21.24 20.95C21.29 20.95 21.34 20.99 21.34 21.04C21.34 21.09 21.3 21.13 21.24 21.13C21.18 21.13 21.14 21.09 21.14 21.04ZM19.39 19.43L19.35 19.29H18.95L18.91 19.43H19.39ZM19.39 19.56L19.35 19.7H18.95L18.91 19.56H19.39ZM18.33 19.49C18.33 19.44 18.37 19.4 18.43 19.4C18.48 19.4 18.53 19.44 18.53 19.49C18.53 19.54 18.49 19.58 18.43 19.58C18.38 19.59 18.33 19.55 18.33 19.49ZM18.91 21.11L18.95 21.25H19.35L19.39 21.11H18.91ZM18.91 20.98L18.95 20.84H19.35L19.39 20.98H18.91ZM20.69 20.19L20.78 20.31L20.53 20.6L20.39 20.54L20.69 20.19ZM20.58 20.1L20.44 20.04L20.19 20.33L20.28 20.45L20.58 20.1ZM18.97 20.2L18.89 20.32L19.15 20.6L19.29 20.54L18.97 20.2ZM19.08 20.11L19.22 20.05L19.48 20.34L19.4 20.46L19.08 20.11ZM20.67 21.87L20.75 21.75L20.49 21.46L20.35 21.52L20.67 21.87ZM20.56 21.96L20.42 22.02L20.16 21.73L20.24 21.61L20.56 21.96ZM21.31 20.04L21.46 20.08V20.46L21.31 20.5V20.04ZM19.91 19.86L20.06 19.9V20.28L19.91 20.32V19.86ZM19.76 19.86L19.61 19.9V20.28L19.76 20.32V19.86Z" stroke="#C8B32F" stroke-width="0.0218"/>
<path d="M19.61 21.04C19.61 20.92 19.71 20.82 19.84 20.82C19.97 20.82 20.07 20.92 20.07 21.04C20.07 21.16 19.97 21.26 19.84 21.26C19.71 21.26 19.61 21.17 19.61 21.04Z" fill="#008F6F"/>
<path d="M19.89 15.37V15.32L19.9 15.29C19.9 15.29 19.76 15.3 19.69 15.28C19.62 15.26 19.56 15.23 19.49 15.18C19.42 15.12 19.4 15.09 19.35 15.08C19.24 15.06 19.15 15.11 19.15 15.11C19.15 15.11 19.24 15.14 19.3 15.22C19.36 15.3 19.43 15.34 19.46 15.35C19.51 15.36 19.68 15.35 19.73 15.36C19.79 15.36 19.89 15.37 19.89 15.37Z" fill="#DA4546"/>
<path d="M19.89 15.37V15.32L19.9 15.29C19.9 15.29 19.76 15.3 19.69 15.28C19.62 15.26 19.56 15.23 19.49 15.18C19.42 15.12 19.4 15.09 19.35 15.08C19.24 15.06 19.15 15.11 19.15 15.11C19.15 15.11 19.24 15.14 19.3 15.22C19.36 15.3 19.43 15.34 19.46 15.35C19.51 15.36 19.68 15.35 19.73 15.36C19.79 15.36 19.89 15.37 19.89 15.37Z" stroke="black" stroke-width="0.0326"/>
<path d="M20.52 15.18C20.52 15.18 20.52 15.24 20.53 15.3C20.54 15.36 20.51 15.4 20.52 15.43C20.53 15.46 20.53 15.49 20.54 15.51C20.55 15.53 20.56 15.59 20.56 15.59C20.56 15.59 20.53 15.57 20.5 15.54C20.47 15.52 20.45 15.5 20.45 15.5C20.45 15.5 20.46 15.56 20.46 15.59C20.46 15.62 20.48 15.66 20.5 15.69C20.52 15.72 20.57 15.76 20.59 15.8C20.6 15.85 20.6 15.93 20.6 15.93C20.6 15.93 20.56 15.87 20.53 15.86C20.5 15.85 20.42 15.81 20.42 15.81C20.42 15.81 20.49 15.88 20.49 15.94C20.49 16 20.46 16.07 20.46 16.07C20.46 16.07 20.43 16.01 20.39 15.98C20.35 15.94 20.3 15.9 20.3 15.9C20.3 15.9 20.34 16 20.34 16.06C20.34 16.13 20.33 16.27 20.33 16.27C20.33 16.27 20.3 16.22 20.26 16.19C20.23 16.16 20.19 16.14 20.17 16.12C20.16 16.1 20.21 16.17 20.22 16.22C20.23 16.26 20.25 16.42 20.38 16.61C20.46 16.72 20.58 16.93 20.84 16.86C21.1 16.79 21 16.44 20.95 16.28C20.9 16.12 20.87 15.94 20.87 15.87C20.87 15.81 20.92 15.62 20.91 15.59C20.9 15.56 20.89 15.42 20.92 15.31C20.95 15.2 20.98 15.15 21 15.11C21.02 15.06 21.03 15.04 21.04 15C21.05 14.96 21.05 14.88 21.05 14.88C21.05 14.88 21.1 14.97 21.11 15C21.12 15.03 21.12 15.13 21.12 15.13C21.12 15.13 21.13 15.04 21.2 14.99C21.27 14.94 21.36 14.9 21.38 14.87C21.4 14.84 21.41 14.83 21.41 14.83C21.41 14.83 21.4 14.99 21.36 15.05C21.33 15.09 21.21 15.23 21.21 15.23C21.21 15.23 21.27 15.21 21.31 15.21C21.35 15.21 21.38 15.21 21.38 15.21C21.38 15.21 21.33 15.25 21.26 15.35C21.19 15.45 21.22 15.46 21.17 15.54C21.12 15.62 21.08 15.62 21.02 15.67C20.93 15.74 20.98 16.03 20.99 16.08C21 16.12 21.16 16.48 21.16 16.57C21.16 16.66 21.18 16.85 21.03 16.97C20.93 17.05 20.77 17.05 20.74 17.07C20.7 17.09 20.63 17.16 20.63 17.31C20.63 17.46 20.68 17.48 20.73 17.52C20.77 17.56 20.83 17.54 20.84 17.57C20.85 17.6 20.86 17.62 20.88 17.63C20.9 17.65 20.91 17.67 20.9 17.7C20.89 17.73 20.82 17.8 20.8 17.86C20.78 17.91 20.73 18.05 20.73 18.07C20.73 18.09 20.72 18.15 20.75 18.18C20.75 18.18 20.83 18.27 20.77 18.29C20.74 18.3 20.71 18.27 20.69 18.27C20.64 18.28 20.62 18.31 20.61 18.31C20.58 18.3 20.58 18.29 20.58 18.25C20.58 18.21 20.58 18.19 20.57 18.19C20.55 18.19 20.54 18.21 20.54 18.23C20.54 18.25 20.54 18.31 20.52 18.31C20.5 18.31 20.47 18.27 20.45 18.26C20.43 18.25 20.38 18.24 20.38 18.22C20.38 18.2 20.41 18.15 20.44 18.14C20.47 18.13 20.5 18.12 20.48 18.1C20.46 18.08 20.44 18.08 20.42 18.1C20.4 18.12 20.35 18.1 20.36 18.08C20.36 18.05 20.37 18.02 20.37 18.01C20.37 18 20.33 17.97 20.38 17.94C20.43 17.91 20.45 17.96 20.5 17.95C20.55 17.94 20.57 17.92 20.59 17.9C20.61 17.87 20.61 17.81 20.57 17.77C20.54 17.73 20.5 17.73 20.49 17.7C20.48 17.68 20.46 17.62 20.46 17.62C20.46 17.62 20.47 17.72 20.46 17.74C20.45 17.75 20.46 17.81 20.46 17.81C20.46 17.81 20.43 17.77 20.4 17.74C20.37 17.71 20.35 17.63 20.35 17.63C20.35 17.63 20.35 17.71 20.35 17.74C20.35 17.77 20.39 17.8 20.37 17.81C20.36 17.82 20.3 17.75 20.28 17.74C20.27 17.73 20.22 17.69 20.2 17.65C20.18 17.61 20.16 17.55 20.16 17.53C20.15 17.51 20.14 17.42 20.15 17.4C20.17 17.37 20.19 17.31 20.19 17.31H20.07C20.01 17.31 19.96 17.29 19.94 17.33C19.92 17.37 19.93 17.46 19.96 17.57C19.99 17.68 20.01 17.74 20 17.76C19.99 17.78 19.95 17.83 19.94 17.83C19.92 17.84 19.88 17.84 19.86 17.83C19.84 17.82 19.81 17.81 19.75 17.81C19.69 17.81 19.66 17.81 19.64 17.81C19.62 17.8 19.57 17.78 19.54 17.78C19.52 17.79 19.47 17.81 19.49 17.84C19.51 17.89 19.47 17.9 19.45 17.9C19.43 17.9 19.41 17.89 19.37 17.88C19.34 17.87 19.29 17.88 19.3 17.84C19.31 17.81 19.32 17.8 19.33 17.78C19.34 17.75 19.35 17.74 19.33 17.74C19.31 17.74 19.29 17.74 19.27 17.75C19.25 17.76 19.23 17.79 19.21 17.78C19.19 17.77 19.17 17.74 19.17 17.69C19.17 17.64 19.11 17.59 19.17 17.59C19.22 17.59 19.29 17.63 19.3 17.6C19.31 17.57 19.31 17.56 19.28 17.54C19.25 17.52 19.22 17.5 19.25 17.48C19.29 17.45 19.3 17.45 19.31 17.43C19.32 17.42 19.34 17.36 19.37 17.38C19.42 17.4 19.37 17.44 19.42 17.5C19.47 17.56 19.5 17.58 19.59 17.57C19.68 17.56 19.7 17.55 19.7 17.52C19.7 17.5 19.69 17.45 19.69 17.43C19.69 17.41 19.7 17.35 19.7 17.35C19.7 17.35 19.66 17.37 19.65 17.4C19.63 17.4 19.6 17.44 19.6 17.44C19.6 17.44 19.59 17.39 19.59 17.35C19.59 17.33 19.6 17.28 19.6 17.28C19.6 17.26 19.58 17.2 19.58 17.2C19.58 17.2 19.57 17.26 19.56 17.28C19.55 17.3 19.55 17.37 19.55 17.37C19.55 17.37 19.49 17.32 19.51 17.24C19.52 17.18 19.5 17.09 19.52 17.07C19.54 17.04 19.58 16.93 19.69 16.93C19.8 16.93 19.88 16.93 19.92 16.93C19.96 16.93 20.09 16.9 20.09 16.9C20.09 16.9 19.84 16.77 19.79 16.73C19.73 16.69 19.64 16.59 19.62 16.55C19.59 16.51 19.57 16.42 19.57 16.42C19.57 16.42 19.53 16.42 19.48 16.44C19.44 16.46 19.4 16.5 19.38 16.52C19.36 16.54 19.32 16.61 19.32 16.61C19.32 16.61 19.33 16.53 19.33 16.51C19.33 16.49 19.32 16.44 19.32 16.44C19.32 16.44 19.29 16.55 19.24 16.59C19.18 16.63 19.12 16.69 19.12 16.69C19.12 16.69 19.13 16.63 19.13 16.62C19.13 16.61 19.14 16.54 19.14 16.54C19.14 16.54 19.1 16.6 19.04 16.61C18.98 16.62 18.89 16.62 18.88 16.66C18.87 16.7 18.9 16.75 18.88 16.78C18.87 16.81 18.83 16.82 18.83 16.82C18.83 16.82 18.8 16.79 18.76 16.79C18.73 16.79 18.7 16.8 18.7 16.8C18.7 16.8 18.67 16.77 18.68 16.74C18.69 16.72 18.74 16.68 18.72 16.67C18.71 16.66 18.67 16.67 18.65 16.69C18.63 16.71 18.58 16.71 18.58 16.67C18.58 16.63 18.6 16.61 18.58 16.58C18.57 16.55 18.58 16.54 18.6 16.53C18.62 16.52 18.69 16.53 18.7 16.51C18.71 16.49 18.68 16.47 18.63 16.46C18.58 16.45 18.56 16.42 18.58 16.39C18.61 16.36 18.61 16.36 18.63 16.34C18.64 16.32 18.65 16.28 18.69 16.3C18.73 16.32 18.73 16.37 18.77 16.38C18.82 16.4 18.93 16.37 18.95 16.36C18.97 16.35 19.05 16.29 19.08 16.28C19.11 16.27 19.21 16.19 19.21 16.19C19.21 16.19 19.15 16.15 19.12 16.12C19.1 16.1 19.05 16.04 19.03 16.03C19.01 16.02 18.9 15.98 18.87 15.98C18.83 15.98 18.73 15.94 18.73 15.94C18.73 15.94 18.78 15.92 18.8 15.91C18.82 15.9 18.85 15.86 18.87 15.87C18.89 15.87 18.89 15.87 18.89 15.87C18.89 15.87 18.79 15.87 18.77 15.86C18.75 15.85 18.69 15.81 18.66 15.81C18.64 15.81 18.59 15.82 18.59 15.82C18.59 15.82 18.65 15.78 18.71 15.77C18.76 15.76 18.8 15.76 18.8 15.76C18.8 15.76 18.72 15.74 18.7 15.71C18.68 15.68 18.66 15.64 18.65 15.62C18.64 15.6 18.63 15.57 18.6 15.57C18.57 15.57 18.53 15.6 18.5 15.6C18.47 15.6 18.45 15.58 18.45 15.54C18.45 15.5 18.45 15.52 18.44 15.49C18.43 15.47 18.39 15.42 18.43 15.41C18.47 15.4 18.54 15.42 18.55 15.4C18.56 15.39 18.51 15.35 18.48 15.33C18.45 15.31 18.4 15.29 18.43 15.27C18.46 15.25 18.48 15.24 18.5 15.22C18.52 15.2 18.53 15.14 18.56 15.16C18.59 15.18 18.63 15.27 18.66 15.26C18.68 15.25 18.69 15.19 18.68 15.16C18.67 15.13 18.68 15.09 18.7 15.09C18.72 15.09 18.74 15.13 18.78 15.13C18.82 15.13 18.87 15.12 18.87 15.15C18.87 15.18 18.84 15.21 18.82 15.24C18.79 15.27 18.78 15.33 18.8 15.37C18.82 15.41 18.86 15.47 18.9 15.49C18.94 15.51 19.01 15.53 19.05 15.56C19.09 15.59 19.2 15.67 19.23 15.68C19.26 15.69 19.3 15.71 19.3 15.71C19.3 15.71 19.34 15.69 19.39 15.69C19.44 15.69 19.57 15.7 19.62 15.68C19.67 15.66 19.73 15.63 19.71 15.58C19.69 15.54 19.59 15.5 19.6 15.47C19.61 15.44 19.65 15.43 19.71 15.43C19.77 15.43 19.86 15.44 19.88 15.35C19.9 15.26 19.9 15.21 19.81 15.19C19.72 15.17 19.65 15.17 19.64 15.1C19.62 15.03 19.61 15.02 19.63 15C19.65 14.98 19.68 14.97 19.75 14.97C19.82 14.96 19.89 14.96 19.91 14.95C19.93 14.93 19.94 14.89 19.96 14.87C19.99 14.85 20.09 14.84 20.09 14.84C20.09 14.84 20.21 14.9 20.32 14.98C20.43 15.07 20.52 15.18 20.52 15.18Z" fill="#EB71A9"/>
<path d="M20.52 15.18C20.52 15.18 20.52 15.24 20.53 15.3C20.54 15.36 20.51 15.4 20.52 15.43C20.53 15.46 20.53 15.49 20.54 15.51C20.55 15.53 20.56 15.59 20.56 15.59C20.56 15.59 20.53 15.57 20.5 15.54C20.47 15.52 20.45 15.5 20.45 15.5C20.45 15.5 20.46 15.56 20.46 15.59C20.46 15.62 20.48 15.66 20.5 15.69C20.52 15.72 20.57 15.76 20.59 15.8C20.6 15.85 20.6 15.93 20.6 15.93C20.6 15.93 20.56 15.87 20.53 15.86C20.5 15.85 20.42 15.81 20.42 15.81C20.42 15.81 20.49 15.88 20.49 15.94C20.49 16 20.46 16.07 20.46 16.07C20.46 16.07 20.43 16.01 20.39 15.98C20.35 15.94 20.3 15.9 20.3 15.9C20.3 15.9 20.34 16 20.34 16.06C20.34 16.13 20.33 16.27 20.33 16.27C20.33 16.27 20.3 16.22 20.26 16.19C20.23 16.16 20.19 16.14 20.17 16.12C20.16 16.1 20.21 16.17 20.22 16.22C20.23 16.26 20.25 16.42 20.38 16.61C20.46 16.72 20.58 16.93 20.84 16.86C21.1 16.79 21 16.44 20.95 16.28C20.9 16.12 20.87 15.94 20.87 15.87C20.87 15.81 20.92 15.62 20.91 15.59C20.9 15.56 20.89 15.42 20.92 15.31C20.95 15.2 20.98 15.15 21 15.11C21.02 15.06 21.03 15.04 21.04 15C21.05 14.96 21.05 14.88 21.05 14.88C21.05 14.88 21.1 14.97 21.11 15C21.12 15.03 21.12 15.13 21.12 15.13C21.12 15.13 21.13 15.04 21.2 14.99C21.27 14.94 21.36 14.9 21.38 14.87C21.4 14.84 21.41 14.83 21.41 14.83C21.41 14.83 21.4 14.99 21.36 15.05C21.33 15.09 21.21 15.23 21.21 15.23C21.21 15.23 21.27 15.21 21.31 15.21C21.35 15.21 21.38 15.21 21.38 15.21C21.38 15.21 21.33 15.25 21.26 15.35C21.19 15.45 21.22 15.46 21.17 15.54C21.12 15.62 21.08 15.62 21.02 15.67C20.93 15.74 20.98 16.03 20.99 16.08C21 16.12 21.16 16.48 21.16 16.57C21.16 16.66 21.18 16.85 21.03 16.97C20.93 17.05 20.77 17.05 20.74 17.07C20.7 17.09 20.63 17.16 20.63 17.31C20.63 17.46 20.68 17.48 20.73 17.52C20.77 17.56 20.83 17.54 20.84 17.57C20.85 17.6 20.86 17.62 20.88 17.63C20.9 17.65 20.91 17.67 20.9 17.7C20.89 17.73 20.82 17.8 20.8 17.86C20.78 17.91 20.73 18.05 20.73 18.07C20.73 18.09 20.72 18.15 20.75 18.18C20.75 18.18 20.83 18.27 20.77 18.29C20.74 18.3 20.71 18.27 20.69 18.27C20.64 18.28 20.62 18.31 20.61 18.31C20.58 18.3 20.58 18.29 20.58 18.25C20.58 18.21 20.58 18.19 20.57 18.19C20.55 18.19 20.54 18.21 20.54 18.23C20.54 18.25 20.54 18.31 20.52 18.31C20.5 18.31 20.47 18.27 20.45 18.26C20.43 18.25 20.38 18.24 20.38 18.22C20.38 18.2 20.41 18.15 20.44 18.14C20.47 18.13 20.5 18.12 20.48 18.1C20.46 18.08 20.44 18.08 20.42 18.1C20.4 18.12 20.35 18.1 20.36 18.08C20.36 18.05 20.37 18.02 20.37 18.01C20.37 18 20.33 17.97 20.38 17.94C20.43 17.91 20.45 17.96 20.5 17.95C20.55 17.94 20.57 17.92 20.59 17.9C20.61 17.87 20.61 17.81 20.57 17.77C20.54 17.73 20.5 17.73 20.49 17.7C20.48 17.68 20.46 17.62 20.46 17.62C20.46 17.62 20.47 17.72 20.46 17.74C20.45 17.75 20.46 17.81 20.46 17.81C20.46 17.81 20.43 17.77 20.4 17.74C20.37 17.71 20.35 17.63 20.35 17.63C20.35 17.63 20.35 17.71 20.35 17.74C20.35 17.77 20.39 17.8 20.37 17.81C20.36 17.82 20.3 17.75 20.28 17.74C20.27 17.73 20.22 17.69 20.2 17.65C20.18 17.61 20.16 17.55 20.16 17.53C20.15 17.51 20.14 17.42 20.15 17.4C20.17 17.37 20.19 17.31 20.19 17.31H20.07C20.01 17.31 19.96 17.29 19.94 17.33C19.92 17.37 19.93 17.46 19.96 17.57C19.99 17.68 20.01 17.74 20 17.76C19.99 17.78 19.95 17.83 19.94 17.83C19.92 17.84 19.88 17.84 19.86 17.83C19.84 17.82 19.81 17.81 19.75 17.81C19.69 17.81 19.66 17.81 19.64 17.81C19.62 17.8 19.57 17.78 19.54 17.78C19.52 17.79 19.47 17.81 19.49 17.84C19.51 17.89 19.47 17.9 19.45 17.9C19.43 17.9 19.41 17.89 19.37 17.88C19.34 17.87 19.29 17.88 19.3 17.84C19.31 17.81 19.32 17.8 19.33 17.78C19.34 17.75 19.35 17.74 19.33 17.74C19.31 17.74 19.29 17.74 19.27 17.75C19.25 17.76 19.23 17.79 19.21 17.78C19.19 17.77 19.17 17.74 19.17 17.69C19.17 17.64 19.11 17.59 19.17 17.59C19.22 17.59 19.29 17.63 19.3 17.6C19.31 17.57 19.31 17.56 19.28 17.54C19.25 17.52 19.22 17.5 19.25 17.48C19.29 17.45 19.3 17.45 19.31 17.43C19.32 17.42 19.34 17.36 19.37 17.38C19.42 17.4 19.37 17.44 19.42 17.5C19.47 17.56 19.5 17.58 19.59 17.57C19.68 17.56 19.7 17.55 19.7 17.52C19.7 17.5 19.69 17.45 19.69 17.43C19.69 17.41 19.7 17.35 19.7 17.35C19.7 17.35 19.66 17.37 19.65 17.4C19.63 17.4 19.6 17.44 19.6 17.44C19.6 17.44 19.59 17.39 19.59 17.35C19.59 17.33 19.6 17.28 19.6 17.28C19.6 17.26 19.58 17.2 19.58 17.2C19.58 17.2 19.57 17.26 19.56 17.28C19.55 17.3 19.55 17.37 19.55 17.37C19.55 17.37 19.49 17.32 19.51 17.24C19.52 17.18 19.5 17.09 19.52 17.07C19.54 17.04 19.58 16.93 19.69 16.93C19.8 16.93 19.88 16.93 19.92 16.93C19.96 16.93 20.09 16.9 20.09 16.9C20.09 16.9 19.84 16.77 19.79 16.73C19.73 16.69 19.64 16.59 19.62 16.55C19.59 16.51 19.57 16.42 19.57 16.42C19.57 16.42 19.53 16.42 19.48 16.44C19.44 16.46 19.4 16.5 19.38 16.52C19.36 16.54 19.32 16.61 19.32 16.61C19.32 16.61 19.33 16.53 19.33 16.51C19.33 16.49 19.32 16.44 19.32 16.44C19.32 16.44 19.29 16.55 19.24 16.59C19.18 16.63 19.12 16.69 19.12 16.69C19.12 16.69 19.13 16.63 19.13 16.62C19.13 16.61 19.14 16.54 19.14 16.54C19.14 16.54 19.1 16.6 19.04 16.61C18.98 16.62 18.89 16.62 18.88 16.66C18.87 16.7 18.9 16.75 18.88 16.78C18.87 16.81 18.83 16.82 18.83 16.82C18.83 16.82 18.8 16.79 18.76 16.79C18.73 16.79 18.7 16.8 18.7 16.8C18.7 16.8 18.67 16.77 18.68 16.74C18.69 16.72 18.74 16.68 18.72 16.67C18.71 16.66 18.67 16.67 18.65 16.69C18.63 16.71 18.58 16.71 18.58 16.67C18.58 16.63 18.6 16.61 18.58 16.58C18.57 16.55 18.58 16.54 18.6 16.53C18.62 16.52 18.69 16.53 18.7 16.51C18.71 16.49 18.68 16.47 18.63 16.46C18.58 16.45 18.56 16.42 18.58 16.39C18.61 16.36 18.61 16.36 18.63 16.34C18.64 16.32 18.65 16.28 18.69 16.3C18.73 16.32 18.73 16.37 18.77 16.38C18.82 16.4 18.93 16.37 18.95 16.36C18.97 16.35 19.05 16.29 19.08 16.28C19.11 16.27 19.21 16.19 19.21 16.19C19.21 16.19 19.15 16.15 19.12 16.12C19.1 16.1 19.05 16.04 19.03 16.03C19.01 16.02 18.9 15.98 18.87 15.98C18.83 15.98 18.73 15.94 18.73 15.94C18.73 15.94 18.78 15.92 18.8 15.91C18.82 15.9 18.85 15.86 18.87 15.87C18.89 15.87 18.89 15.87 18.89 15.87C18.89 15.87 18.79 15.87 18.77 15.86C18.75 15.85 18.69 15.81 18.66 15.81C18.64 15.81 18.59 15.82 18.59 15.82C18.59 15.82 18.65 15.78 18.71 15.77C18.76 15.76 18.8 15.76 18.8 15.76C18.8 15.76 18.72 15.74 18.7 15.71C18.68 15.68 18.66 15.64 18.65 15.62C18.64 15.6 18.63 15.57 18.6 15.57C18.57 15.57 18.53 15.6 18.5 15.6C18.47 15.6 18.45 15.58 18.45 15.54C18.45 15.5 18.45 15.52 18.44 15.49C18.43 15.47 18.39 15.42 18.43 15.41C18.47 15.4 18.54 15.42 18.55 15.4C18.56 15.39 18.51 15.35 18.48 15.33C18.45 15.31 18.4 15.29 18.43 15.27C18.46 15.25 18.48 15.24 18.5 15.22C18.52 15.2 18.53 15.14 18.56 15.16C18.59 15.18 18.63 15.27 18.66 15.26C18.68 15.25 18.69 15.19 18.68 15.16C18.67 15.13 18.68 15.09 18.7 15.09C18.72 15.09 18.74 15.13 18.78 15.13C18.82 15.13 18.87 15.12 18.87 15.15C18.87 15.18 18.84 15.21 18.82 15.24C18.79 15.27 18.78 15.33 18.8 15.37C18.82 15.41 18.86 15.47 18.9 15.49C18.94 15.51 19.01 15.53 19.05 15.56C19.09 15.59 19.2 15.67 19.23 15.68C19.26 15.69 19.3 15.71 19.3 15.71C19.3 15.71 19.34 15.69 19.39 15.69C19.44 15.69 19.57 15.7 19.62 15.68C19.67 15.66 19.73 15.63 19.71 15.58C19.69 15.54 19.59 15.5 19.6 15.47C19.61 15.44 19.65 15.43 19.71 15.43C19.77 15.43 19.86 15.44 19.88 15.35C19.9 15.26 19.9 15.21 19.81 15.19C19.72 15.17 19.65 15.17 19.64 15.1C19.62 15.03 19.61 15.02 19.63 15C19.65 14.98 19.68 14.97 19.75 14.97C19.82 14.96 19.89 14.96 19.91 14.95C19.93 14.93 19.94 14.89 19.96 14.87C19.99 14.85 20.09 14.84 20.09 14.84C20.09 14.84 20.21 14.9 20.32 14.98C20.43 15.07 20.52 15.18 20.52 15.18Z" stroke="black" stroke-width="0.0326"/>
<path d="M19.65 15.12C19.65 15.12 19.64 15.08 19.63 15.07C19.63 15.06 19.62 15.05 19.62 15.05C19.62 15.05 19.69 15.05 19.69 15.07C19.69 15.09 19.67 15.09 19.66 15.1L19.65 15.12Z" fill="black"/>
<path d="M19.65 15.12C19.65 15.12 19.64 15.08 19.63 15.07C19.63 15.06 19.62 15.05 19.62 15.05C19.62 15.05 19.69 15.05 19.69 15.07C19.69 15.09 19.67 15.09 19.66 15.1C19.66 15.1 19.65 15.12 19.65 15.12Z" stroke="black" stroke-width="0.0218"/>
<path d="M19.99 15L19.98 14.96C19.98 14.96 20.04 14.96 20.07 14.98C20.12 15.01 20.15 15.07 20.15 15.07C20.14 15.08 20.1 15.05 20.08 15.04C20.08 15.04 20.06 15.04 20.04 15.04C20.02 15.04 20.01 15.03 20.01 15.02C20.01 15.01 20.01 14.99 20.01 14.99L19.99 15Z" fill="black"/>
<path d="M19.99 15L19.98 14.96C19.98 14.96 20.04 14.96 20.07 14.98C20.12 15.01 20.15 15.07 20.15 15.07C20.14 15.08 20.1 15.05 20.08 15.04C20.08 15.04 20.06 15.04 20.04 15.04C20.02 15.04 20.01 15.03 20.01 15.02C20.01 15.01 20.01 14.99 20.01 14.99L19.99 15Z" stroke="black" stroke-width="0.00425"/>
<path d="M20.45 15.51C20.45 15.51 20.42 15.47 20.41 15.46C20.4 15.45 20.39 15.42 20.39 15.42" stroke="black" stroke-width="0.0218"/>
<path d="M18.71 15.1C18.71 15.1 18.75 15.13 18.78 15.13C18.81 15.13 18.84 15.13 18.85 15.13C18.85 15.13 18.86 15.08 18.86 15.05C18.84 14.95 18.75 14.93 18.75 14.93C18.75 14.93 18.78 14.99 18.76 15.02C18.75 15.07 18.71 15.1 18.71 15.1Z" fill="#DA4546"/>
<path d="M18.71 15.1C18.71 15.1 18.75 15.13 18.78 15.13C18.81 15.13 18.84 15.13 18.85 15.13C18.85 15.13 18.86 15.08 18.86 15.05C18.84 14.95 18.75 14.93 18.75 14.93C18.75 14.93 18.78 14.99 18.76 15.02C18.75 15.07 18.71 15.1 18.71 15.1Z" stroke="black" stroke-width="0.0326"/>
<path d="M18.52 15.19C18.52 15.19 18.48 15.13 18.41 15.13C18.33 15.14 18.28 15.2 18.28 15.2C18.28 15.2 18.36 15.2 18.38 15.21C18.41 15.23 18.42 15.28 18.42 15.28C18.42 15.28 18.47 15.25 18.48 15.23C18.5 15.22 18.52 15.19 18.52 15.19Z" fill="#DA4546"/>
<path d="M18.52 15.19C18.52 15.19 18.48 15.13 18.41 15.13C18.33 15.14 18.28 15.2 18.28 15.2C18.28 15.2 18.36 15.2 18.38 15.21C18.41 15.23 18.42 15.28 18.42 15.28C18.42 15.28 18.47 15.25 18.48 15.23C18.5 15.22 18.52 15.19 18.52 15.19Z" stroke="black" stroke-width="0.0326"/>
<path d="M18.43 15.45C18.43 15.45 18.37 15.46 18.33 15.5C18.29 15.54 18.3 15.62 18.3 15.62C18.3 15.62 18.34 15.57 18.38 15.57C18.42 15.57 18.48 15.58 18.48 15.58C18.48 15.58 18.46 15.53 18.46 15.51C18.46 15.49 18.43 15.45 18.43 15.45Z" fill="#DA4546"/>
<path d="M18.43 15.45C18.43 15.45 18.37 15.46 18.33 15.5C18.29 15.54 18.3 15.62 18.3 15.62C18.3 15.62 18.34 15.57 18.38 15.57C18.42 15.57 18.48 15.58 18.48 15.58C18.48 15.58 18.46 15.53 18.46 15.51C18.46 15.49 18.43 15.45 18.43 15.45Z" stroke="black" stroke-width="0.0326"/>
<path d="M19.65 15.44L19.68 15.4L19.71 15.44H19.65Z" fill="black"/>
<path d="M19.65 15.44L19.68 15.4L19.71 15.44H19.65Z" stroke="black" stroke-width="0.0218"/>
<path d="M19.72 15.44L19.75 15.4L19.79 15.44H19.72Z" fill="black"/>
<path d="M19.72 15.44L19.75 15.4L19.79 15.44H19.72Z" stroke="black" stroke-width="0.0218"/>
<path d="M19.69 15.17L19.76 15.19L19.7 15.22L19.69 15.17Z" fill="black"/>
<path d="M19.69 15.17L19.76 15.19L19.7 15.22L19.69 15.17Z" stroke="black" stroke-width="0.0218"/>
<path d="M19.77 15.19L19.83 15.2L19.79 15.24L19.77 15.19Z" fill="black"/>
<path d="M19.77 15.19L19.83 15.2L19.79 15.24L19.77 15.19Z" stroke="black" stroke-width="0.0218"/>
<path d="M19.31 15.72C19.31 15.72 19.24 15.74 19.22 15.78C19.19 15.82 19.19 15.87 19.19 15.87C19.19 15.87 19.25 15.82 19.32 15.84C19.39 15.86 19.4 15.87 19.43 15.87C19.46 15.87 19.54 15.84 19.54 15.84C19.54 15.84 19.48 15.91 19.49 15.96C19.5 16.01 19.51 16.03 19.5 16.06C19.5 16.12 19.45 16.2 19.45 16.2C19.45 16.2 19.48 16.18 19.54 16.17C19.6 16.16 19.65 16.13 19.69 16.1C19.72 16.08 19.77 16.02 19.77 16.02C19.77 16.02 19.76 16.1 19.77 16.14C19.78 16.18 19.79 16.28 19.79 16.28C19.79 16.28 19.83 16.24 19.86 16.23C19.88 16.22 19.92 16.2 19.94 16.17C19.95 16.15 19.97 16.08 19.97 16.08C19.97 16.08 19.98 16.16 20 16.19C20.02 16.23 20.06 16.34 20.06 16.34C20.06 16.34 20.08 16.27 20.11 16.24C20.14 16.21 20.17 16.17 20.17 16.15C20.17 16.13 20.16 16.08 20.16 16.08L20.19 16.15M19.56 16.41C19.56 16.41 19.65 16.36 19.68 16.35C19.74 16.32 19.78 16.26 19.78 16.26L19.56 16.41ZM19.22 16.18C19.22 16.18 19.26 16.11 19.3 16.09C19.34 16.07 19.39 16.03 19.4 16.02C19.41 16.02 19.48 15.98 19.48 15.98L19.22 16.18Z" stroke="black" stroke-width="0.0326"/>
<path d="M18.64 16.3C18.64 16.3 18.6 16.26 18.54 16.27C18.48 16.28 18.44 16.35 18.44 16.35C18.44 16.35 18.49 16.34 18.52 16.34C18.55 16.35 18.57 16.38 18.57 16.38C18.57 16.38 18.6 16.36 18.61 16.34C18.63 16.34 18.64 16.3 18.64 16.3Z" fill="#DA4546"/>
<path d="M18.64 16.3C18.64 16.3 18.6 16.26 18.54 16.27C18.48 16.28 18.44 16.35 18.44 16.35C18.44 16.35 18.49 16.34 18.52 16.34C18.55 16.35 18.57 16.38 18.57 16.38C18.57 16.38 18.6 16.36 18.61 16.34C18.63 16.34 18.64 16.3 18.64 16.3Z" stroke="black" stroke-width="0.0326"/>
<path d="M18.57 16.55C18.57 16.55 18.52 16.54 18.47 16.58C18.43 16.62 18.42 16.69 18.42 16.69C18.42 16.69 18.46 16.65 18.5 16.66C18.53 16.66 18.57 16.68 18.57 16.68C18.57 16.68 18.58 16.64 18.58 16.63C18.59 16.59 18.57 16.55 18.57 16.55Z" fill="#DA4546"/>
<path d="M18.57 16.55C18.57 16.55 18.52 16.54 18.47 16.58C18.43 16.62 18.42 16.69 18.42 16.69C18.42 16.69 18.46 16.65 18.5 16.66C18.53 16.66 18.57 16.68 18.57 16.68C18.57 16.68 18.58 16.64 18.58 16.63C18.59 16.59 18.57 16.55 18.57 16.55Z" stroke="black" stroke-width="0.0326"/>
<path d="M18.69 16.78C18.69 16.78 18.69 16.85 18.72 16.89C18.75 16.93 18.81 16.94 18.81 16.94C18.81 16.94 18.79 16.9 18.79 16.87C18.78 16.84 18.82 16.81 18.82 16.81C18.82 16.81 18.79 16.78 18.76 16.78C18.73 16.78 18.69 16.78 18.69 16.78Z" fill="#DA4546"/>
<path d="M20.09 16.89C20.09 16.89 20.26 17 20.26 17.08C20.26 17.17 20.17 17.28 20.17 17.28M18.69 16.78C18.69 16.78 18.69 16.85 18.72 16.89C18.75 16.93 18.81 16.94 18.81 16.94C18.81 16.94 18.79 16.9 18.79 16.87C18.78 16.84 18.82 16.81 18.82 16.81C18.82 16.81 18.79 16.78 18.76 16.78C18.73 16.78 18.69 16.78 18.69 16.78Z" stroke="black" stroke-width="0.0326"/>
<path d="M19.31 17.37C19.31 17.37 19.27 17.32 19.21 17.32C19.15 17.32 19.09 17.38 19.09 17.38C19.09 17.38 19.16 17.37 19.18 17.4C19.2 17.43 19.22 17.46 19.22 17.46C19.22 17.46 19.25 17.44 19.27 17.43C19.28 17.41 19.31 17.37 19.31 17.37Z" fill="#DA4546"/>
<path d="M19.31 17.37C19.31 17.37 19.27 17.32 19.21 17.32C19.15 17.32 19.09 17.38 19.09 17.38C19.09 17.38 19.16 17.37 19.18 17.4C19.2 17.43 19.22 17.46 19.22 17.46C19.22 17.46 19.25 17.44 19.27 17.43C19.28 17.41 19.31 17.37 19.31 17.37Z" stroke="black" stroke-width="0.0326"/>
<path d="M19.13 17.61C19.13 17.61 19.05 17.6 19.01 17.64C18.97 17.68 18.97 17.75 18.97 17.75C18.97 17.75 19.02 17.7 19.06 17.7C19.1 17.7 19.15 17.73 19.15 17.73C19.15 17.73 19.14 17.69 19.14 17.66C19.14 17.64 19.13 17.61 19.13 17.61Z" fill="#DA4546"/>
<path d="M19.13 17.61C19.13 17.61 19.05 17.6 19.01 17.64C18.97 17.68 18.97 17.75 18.97 17.75C18.97 17.75 19.02 17.7 19.06 17.7C19.1 17.7 19.15 17.73 19.15 17.73C19.15 17.73 19.14 17.69 19.14 17.66C19.14 17.64 19.13 17.61 19.13 17.61Z" stroke="black" stroke-width="0.0326"/>
<path d="M19.3 17.86C19.3 17.86 19.26 17.91 19.29 17.96C19.32 18 19.38 18.02 19.38 18.02C19.38 18.02 19.36 17.99 19.37 17.95C19.38 17.92 19.43 17.88 19.43 17.88L19.3 17.86Z" fill="#DA4546"/>
<path d="M19.3 17.86C19.3 17.86 19.26 17.91 19.29 17.96C19.32 18 19.38 18.02 19.38 18.02C19.38 18.02 19.36 17.99 19.37 17.95C19.38 17.92 19.43 17.88 19.43 17.88L19.3 17.86Z" stroke="black" stroke-width="0.0326"/>
<path d="M20.34 17.96C20.34 17.96 20.27 17.94 20.23 17.97C20.19 17.99 20.16 18.09 20.16 18.09C20.16 18.09 20.22 18.04 20.27 18.04C20.31 18.05 20.35 18.06 20.35 18.06C20.35 18.06 20.36 18.02 20.35 17.99C20.35 17.98 20.34 17.96 20.34 17.96Z" fill="#DA4546"/>
<path d="M20.34 17.96C20.34 17.96 20.27 17.94 20.23 17.97C20.19 17.99 20.16 18.09 20.16 18.09C20.16 18.09 20.22 18.04 20.27 18.04C20.31 18.05 20.35 18.06 20.35 18.06C20.35 18.06 20.36 18.02 20.35 17.99C20.35 17.98 20.34 17.96 20.34 17.96Z" stroke="black" stroke-width="0.0326"/>
<path d="M20.37 18.21C20.37 18.21 20.32 18.26 20.34 18.31C20.36 18.35 20.39 18.4 20.39 18.4C20.39 18.4 20.39 18.33 20.41 18.31C20.44 18.28 20.5 18.28 20.5 18.28C20.5 18.28 20.45 18.24 20.44 18.24C20.43 18.24 20.37 18.21 20.37 18.21Z" fill="#DA4546"/>
<path d="M20.37 18.21C20.37 18.21 20.32 18.26 20.34 18.31C20.36 18.35 20.39 18.4 20.39 18.4C20.39 18.4 20.39 18.33 20.41 18.31C20.44 18.28 20.5 18.28 20.5 18.28C20.5 18.28 20.45 18.24 20.44 18.24C20.43 18.24 20.37 18.21 20.37 18.21Z" stroke="black" stroke-width="0.0326"/>
<path d="M20.63 18.29C20.63 18.29 20.6 18.36 20.65 18.4C20.7 18.44 20.74 18.45 20.74 18.45C20.74 18.45 20.7 18.38 20.71 18.35C20.72 18.31 20.76 18.29 20.76 18.29C20.76 18.29 20.7 18.27 20.69 18.27C20.69 18.26 20.63 18.29 20.63 18.29Z" fill="#DA4546"/>
<path d="M20.63 18.29C20.63 18.29 20.6 18.36 20.65 18.4C20.7 18.44 20.74 18.45 20.74 18.45C20.74 18.45 20.7 18.38 20.71 18.35C20.72 18.31 20.76 18.29 20.76 18.29C20.76 18.29 20.7 18.27 20.69 18.27C20.69 18.26 20.63 18.29 20.63 18.29Z" stroke="black" stroke-width="0.0326"/>
<path d="M17.96 22.94C18.13 22.99 18.22 23.12 18.22 23.28C18.22 23.48 18.03 23.63 17.78 23.63C17.53 23.63 17.33 23.48 17.33 23.28C17.33 23.13 17.41 22.96 17.59 22.95C17.59 22.95 17.58 22.93 17.57 22.91C17.55 22.89 17.52 22.85 17.52 22.85C17.52 22.85 17.59 22.84 17.62 22.85C17.66 22.87 17.68 22.89 17.68 22.89C17.68 22.89 17.7 22.85 17.72 22.83C17.74 22.8 17.78 22.79 17.78 22.79C17.78 22.79 17.82 22.82 17.83 22.84C17.84 22.86 17.85 22.89 17.85 22.89C17.85 22.89 17.89 22.86 17.92 22.85C17.95 22.84 17.99 22.83 17.99 22.83C17.99 22.83 17.98 22.87 17.97 22.89C17.96 22.9 17.96 22.94 17.96 22.94Z" fill="#FFD791"/>
<path d="M17.96 22.94C18.13 22.99 18.22 23.12 18.22 23.28C18.22 23.48 18.03 23.63 17.78 23.63C17.53 23.63 17.33 23.48 17.33 23.28C17.33 23.13 17.41 22.96 17.59 22.95C17.59 22.95 17.58 22.93 17.57 22.91C17.55 22.89 17.52 22.85 17.52 22.85C17.52 22.85 17.59 22.84 17.62 22.85C17.66 22.87 17.68 22.89 17.68 22.89C17.68 22.89 17.7 22.85 17.72 22.83C17.74 22.8 17.78 22.79 17.78 22.79C17.78 22.79 17.82 22.82 17.83 22.84C17.84 22.86 17.85 22.89 17.85 22.89C17.85 22.89 17.89 22.86 17.92 22.85C17.95 22.84 17.99 22.83 17.99 22.83C17.99 22.83 17.98 22.87 17.97 22.89C17.96 22.9 17.96 22.94 17.96 22.94Z" stroke="black" stroke-width="0.0437"/>
<path d="M17.74 23.85C17.74 23.85 17.41 23.63 17.26 23.59C17.07 23.55 16.87 23.58 16.78 23.58C16.78 23.58 16.89 23.66 16.93 23.7C16.98 23.75 17.13 23.84 17.22 23.86C17.49 23.93 17.74 23.85 17.74 23.85Z" fill="#008F6F"/>
<path d="M17.74 23.85C17.74 23.85 17.41 23.63 17.26 23.59C17.07 23.55 16.87 23.58 16.78 23.58C16.78 23.58 16.89 23.66 16.93 23.7C16.98 23.75 17.13 23.84 17.22 23.86C17.49 23.93 17.74 23.85 17.74 23.85Z" stroke="black" stroke-width="0.0437"/>
<path d="M17.84 23.87C17.84 23.87 18.05 23.65 18.28 23.62C18.54 23.58 18.72 23.64 18.82 23.67C18.82 23.67 18.74 23.71 18.69 23.74C18.64 23.77 18.53 23.87 18.34 23.87C18.16 23.87 17.96 23.85 17.92 23.86C17.89 23.86 17.84 23.87 17.84 23.87Z" fill="#008F6F"/>
<path d="M17.84 23.87C17.84 23.87 18.05 23.65 18.28 23.62C18.54 23.58 18.72 23.64 18.82 23.67C18.82 23.67 18.74 23.71 18.69 23.74C18.64 23.77 18.53 23.87 18.34 23.87C18.16 23.87 17.96 23.85 17.92 23.86C17.89 23.86 17.84 23.87 17.84 23.87Z" stroke="black" stroke-width="0.0437"/>
<path d="M17.77 23.59C17.69 23.51 17.63 23.4 17.63 23.28C17.63 23.16 17.68 23.05 17.77 22.97C17.85 23.05 17.9 23.16 17.9 23.28C17.91 23.4 17.86 23.51 17.77 23.59Z" fill="#AC1F23"/>
<path d="M17.77 23.59C17.69 23.51 17.63 23.4 17.63 23.28C17.63 23.16 17.68 23.05 17.77 22.97C17.85 23.05 17.9 23.16 17.9 23.28C17.91 23.4 17.86 23.51 17.77 23.59Z" stroke="black" stroke-width="0.0437"/>
<path d="M17.69 24.04C17.69 24.04 17.74 23.91 17.75 23.8C17.75 23.71 17.74 23.62 17.74 23.62H17.81C17.81 23.62 17.84 23.72 17.84 23.8C17.84 23.88 17.83 24 17.83 24C17.83 24 17.78 24.01 17.77 24.01C17.74 24.03 17.69 24.04 17.69 24.04Z" fill="#008F6F"/>
<path d="M17.69 24.04C17.69 24.04 17.74 23.91 17.75 23.8C17.75 23.71 17.74 23.62 17.74 23.62H17.81C17.81 23.62 17.84 23.72 17.84 23.8C17.84 23.88 17.83 24 17.83 24C17.83 24 17.78 24.01 17.77 24.01C17.74 24.03 17.69 24.04 17.69 24.04Z" stroke="black" stroke-width="0.0437"/>
<path d="M16.08 15.53H16.39H16.08ZM15.5 15.07H15.79H15.5ZM14.9 15.53H15.21H14.9ZM15.64 15.28V15.13V15.28ZM15.64 15.59V15.43V15.59ZM15.64 16.05V15.9V16.05ZM15.64 16.36V16.2V16.36ZM15.64 16.98V16.82V16.98ZM15.64 16.67V16.52V16.67ZM15.64 17.31V17.14V17.31ZM16.24 15.59V15.74V15.59ZM15.95 15.9V16.05V15.9ZM16.53 15.9V16.05V15.9ZM16.39 16.05V16.21V16.05ZM16.08 16.05V16.21V16.05ZM15.79 16.05V16.21V16.05ZM15.95 16.21V16.37V16.21ZM16.24 16.21V16.37V16.21ZM16.53 16.21V16.37V16.21ZM16.39 16.36V16.52V16.36ZM16.08 16.36V16.52V16.36ZM15.79 16.36V16.52V16.36ZM15.95 16.52V16.67V16.52ZM15.79 16.67V16.83V16.67ZM15.79 16.98V17.13V16.98ZM15.95 17.31V17.14V17.31ZM15.79 17.31V17.47V17.31ZM16.08 17.31V17.47V17.31ZM16.39 17.31V17.47V17.31ZM15.95 17.6V17.46V17.6ZM16.08 17.6V17.77V17.6ZM16.68 17.78V17.6V17.78ZM16.39 17.78V17.6V17.78ZM16.24 17.31V17.14V17.31ZM16.24 17.6V17.46V17.6ZM16.24 17.93V17.77V17.93ZM16.24 18.24V18.08V18.24ZM16.39 18.09V17.93V18.09ZM16.68 17.93V18.09V17.93ZM16.53 17.93V17.77V17.93ZM16.53 18.24V18.08V18.24ZM16.53 15.4H15.95H16.53ZM16.39 15.59H16.08H16.39ZM15.06 15.59V15.74V15.59ZM15.35 15.9V16.05V15.9ZM14.76 15.9V16.05V15.9ZM14.9 16.05V16.21V16.05ZM15.21 16.05V16.21V16.05ZM15.5 16.05V16.21V16.05ZM15.35 16.21V16.37V16.21ZM15.06 16.21V16.37V16.21ZM14.76 16.21V16.37V16.21ZM14.9 16.36V16.52V16.36ZM15.21 16.36V16.52V16.36ZM15.5 16.36V16.52V16.36ZM15.35 16.52V16.67V16.52ZM15.5 16.67V16.83V16.67ZM15.5 16.98V17.13V16.98ZM15.35 17.31V17.14V17.31ZM15.5 17.31V17.47V17.31ZM15.21 17.31V17.47V17.31ZM14.9 17.31V17.47V17.31ZM15.35 17.6V17.46V17.6ZM15.21 17.6V17.77V17.6ZM14.61 17.78V17.6V17.78ZM14.9 17.78V17.6V17.78ZM15.06 17.31V17.14V17.31ZM15.06 17.6V17.46V17.6ZM15.06 17.93V17.77V17.93ZM15.06 18.24V18.08V18.24ZM14.9 18.09V17.93V18.09ZM14.61 17.93V18.09V17.93ZM14.76 17.93V17.77V17.93ZM14.76 18.24V18.08V18.24ZM14.76 15.4H15.34H14.76ZM14.9 15.59H15.21H14.9ZM15.35 14.93H15.95H15.35ZM15.5 15.12H15.79H15.5ZM15.5 15.28H15.79H15.5ZM15.5 15.43H15.79H15.5ZM15.5 15.59H15.79H15.5ZM14.9 15.74H16.39H14.9ZM14.61 15.9H16.68H14.61ZM14.61 16.05H16.68H14.61ZM14.61 16.21H16.68H14.61ZM14.61 16.36H16.68H14.61ZM14.76 16.52H16.52H14.76ZM14.76 16.67H16.52H14.76ZM14.76 16.83H16.52H14.76ZM14.76 16.98H16.52H14.76ZM14.76 17.14H16.52H14.76ZM14.76 17.31H16.52H14.76ZM14.76 17.47H16.52H14.76ZM14.45 17.6H16.83H14.45ZM14.45 17.78H16.83H14.45ZM14.45 17.93H16.83H14.45ZM14.45 18.09H16.83H14.45ZM14.45 18.24H16.83H14.45ZM14.98 15.3H14.9V15.22H14.76V15.53H14.9V15.74H14.61V16.36H14.76V17.6H14.45V18.24H16.83V17.6H16.52V16.36H16.68V15.74H16.39V15.53H16.53V15.22H16.39V15.3H16.31V15.22H16.17V15.3H16.07V15.22H15.93V15.53H16.07V15.74H15.78V15.06H15.93V14.75H15.78V14.83H15.7V14.75H15.56V14.83H15.5V14.75H15.35V15.06H15.5V15.74H15.21V15.53H15.35V15.22H15.21V15.3H15.13V15.22H14.98V15.3Z" fill="#C8B32F"/>
<path d="M16.08 15.53H16.39H16.08ZM15.5 15.07H15.79H15.5ZM14.9 15.53H15.21H14.9ZM15.64 15.28V15.13V15.28ZM15.64 15.59V15.43V15.59ZM15.64 16.05V15.9V16.05ZM15.64 16.36V16.2V16.36ZM15.64 16.98V16.82V16.98ZM15.64 16.67V16.52V16.67ZM15.64 17.31V17.14V17.31ZM16.24 15.59V15.74V15.59ZM15.95 15.9V16.05V15.9ZM16.53 15.9V16.05V15.9ZM16.39 16.05V16.21V16.05ZM16.08 16.05V16.21V16.05ZM15.79 16.05V16.21V16.05ZM15.95 16.21V16.37V16.21ZM16.24 16.21V16.37V16.21ZM16.53 16.21V16.37V16.21ZM16.39 16.36V16.52V16.36ZM16.08 16.36V16.52V16.36ZM15.79 16.36V16.52V16.36ZM15.95 16.52V16.67V16.52ZM15.79 16.67V16.83V16.67ZM15.79 16.98V17.13V16.98ZM15.95 17.31V17.14V17.31ZM15.79 17.31V17.47V17.31ZM16.08 17.31V17.47V17.31ZM16.39 17.31V17.47V17.31ZM15.95 17.6V17.46V17.6ZM16.08 17.6V17.77V17.6ZM16.68 17.78V17.6V17.78ZM16.39 17.78V17.6V17.78ZM16.24 17.31V17.14V17.31ZM16.24 17.6V17.46V17.6ZM16.24 17.93V17.77V17.93ZM16.24 18.24V18.08V18.24ZM16.39 18.09V17.93V18.09ZM16.68 17.93V18.09V17.93ZM16.53 17.93V17.77V17.93ZM16.53 18.24V18.08V18.24ZM16.53 15.4H15.95H16.53ZM16.39 15.59H16.08H16.39ZM15.06 15.59V15.74V15.59ZM15.35 15.9V16.05V15.9ZM14.76 15.9V16.05V15.9ZM14.9 16.05V16.21V16.05ZM15.21 16.05V16.21V16.05ZM15.5 16.05V16.21V16.05ZM15.35 16.21V16.37V16.21ZM15.06 16.21V16.37V16.21ZM14.76 16.21V16.37V16.21ZM14.9 16.36V16.52V16.36ZM15.21 16.36V16.52V16.36ZM15.5 16.36V16.52V16.36ZM15.35 16.52V16.67V16.52ZM15.5 16.67V16.83V16.67ZM15.5 16.98V17.13V16.98ZM15.35 17.31V17.14V17.31ZM15.5 17.31V17.47V17.31ZM15.21 17.31V17.47V17.31ZM14.9 17.31V17.47V17.31ZM15.35 17.6V17.46V17.6ZM15.21 17.6V17.77V17.6ZM14.61 17.78V17.6V17.78ZM14.9 17.78V17.6V17.78ZM15.06 17.31V17.14V17.31ZM15.06 17.6V17.46V17.6ZM15.06 17.93V17.77V17.93ZM15.06 18.24V18.08V18.24ZM14.9 18.09V17.93V18.09ZM14.61 17.93V18.09V17.93ZM14.76 17.93V17.77V17.93ZM14.76 18.24V18.08V18.24ZM14.76 15.4H15.34H14.76ZM14.9 15.59H15.21H14.9ZM15.35 14.93H15.95H15.35ZM15.5 15.12H15.79H15.5ZM15.5 15.28H15.79H15.5ZM15.5 15.43H15.79H15.5ZM15.5 15.59H15.79H15.5ZM14.9 15.74H16.39H14.9ZM14.61 15.9H16.68H14.61ZM14.61 16.05H16.68H14.61ZM14.61 16.21H16.68H14.61ZM14.61 16.36H16.68H14.61ZM14.76 16.52H16.52H14.76ZM14.76 16.67H16.52H14.76ZM14.76 16.83H16.52H14.76ZM14.76 16.98H16.52H14.76ZM14.76 17.14H16.52H14.76ZM14.76 17.31H16.52H14.76ZM14.76 17.47H16.52H14.76ZM14.45 17.6H16.83H14.45ZM14.45 17.78H16.83H14.45ZM14.45 17.93H16.83H14.45ZM14.45 18.09H16.83H14.45ZM14.45 18.24H16.83H14.45ZM14.98 15.3H14.9V15.22H14.76V15.53H14.9V15.74H14.61V16.36H14.76V17.6H14.45V18.24H16.83V17.6H16.52V16.36H16.68V15.74H16.39V15.53H16.53V15.22H16.39V15.3H16.31V15.22H16.17V15.3H16.07V15.22H15.93V15.53H16.07V15.74H15.78V15.06H15.93V14.75H15.78V14.83H15.7V14.75H15.56V14.83H15.5V14.75H15.35V15.06H15.5V15.74H15.21V15.53H15.35V15.22H15.21V15.3H15.13V15.22H14.98V15.3Z" stroke="black" stroke-width="0.0386"/>
<path d="M16.04 18.24V17.83C16.04 17.75 16 17.52 15.63 17.52C15.28 17.52 15.24 17.75 15.24 17.83V18.24H16.04Z" fill="#C8B32F"/>
<path d="M16.04 18.24V17.83C16.04 17.75 16 17.52 15.63 17.52C15.28 17.52 15.24 17.75 15.24 17.83V18.24H16.04Z" stroke="black" stroke-width="0.0386"/>
<path d="M15.38 17.86L15.19 17.84C15.19 17.76 15.21 17.65 15.27 17.61L15.44 17.75C15.42 17.76 15.38 17.82 15.38 17.86Z" fill="#C8B32F"/>
<path d="M15.38 17.86L15.19 17.84C15.19 17.76 15.21 17.65 15.27 17.61L15.44 17.75C15.42 17.76 15.38 17.82 15.38 17.86Z" stroke="black" stroke-width="0.0386"/>
<path d="M15.91 17.86L16.1 17.84C16.1 17.76 16.08 17.65 16.02 17.61L15.85 17.75C15.87 17.76 15.91 17.82 15.91 17.86Z" fill="#C8B32F"/>
<path d="M15.91 17.86L16.1 17.84C16.1 17.76 16.08 17.65 16.02 17.61L15.85 17.75C15.87 17.76 15.91 17.82 15.91 17.86Z" stroke="black" stroke-width="0.0386"/>
<path d="M15.71 17.66L15.81 17.49C15.77 17.47 15.69 17.45 15.64 17.45C15.6 17.45 15.52 17.47 15.49 17.49L15.59 17.66H15.71Z" fill="#C8B32F"/>
<path d="M15.71 17.66L15.81 17.49C15.77 17.47 15.69 17.45 15.64 17.45C15.6 17.45 15.52 17.47 15.49 17.49L15.59 17.66H15.71Z" stroke="black" stroke-width="0.0386"/>
<path d="M15.35 17.18V16.75C15.35 16.63 15.27 16.54 15.14 16.54C15.01 16.54 14.93 16.64 14.93 16.75V17.18H15.35Z" fill="#C8B32F"/>
<path d="M15.35 17.18V16.75C15.35 16.63 15.27 16.54 15.14 16.54C15.01 16.54 14.93 16.64 14.93 16.75V17.18H15.35Z" stroke="black" stroke-width="0.0386"/>
<path d="M15.95 17.18V16.75C15.95 16.63 16.03 16.54 16.16 16.54C16.3 16.54 16.37 16.64 16.37 16.75V17.18H15.95Z" fill="#C8B32F"/>
<path d="M15.95 17.18V16.75C15.95 16.63 16.03 16.54 16.16 16.54C16.3 16.54 16.37 16.64 16.37 16.75V17.18H15.95Z" stroke="black" stroke-width="0.0386"/>
<path d="M15.79 16.13L15.83 15.74H15.46L15.48 16.13H15.79Z" fill="#C8B32F"/>
<path d="M15.79 16.13L15.83 15.74H15.46L15.48 16.13H15.79Z" stroke="black" stroke-width="0.0386"/>
<path d="M16.08 16.13L16.04 15.74H16.43L16.39 16.13H16.08Z" fill="#C8B32F"/>
<path d="M16.08 16.13L16.04 15.74H16.43L16.39 16.13H16.08Z" stroke="black" stroke-width="0.0386"/>
<path d="M15.21 16.13L15.23 15.74H14.86L14.9 16.13H15.21Z" fill="#C8B32F"/>
<path d="M15.21 16.13L15.23 15.74H14.86L14.9 16.13H15.21Z" stroke="black" stroke-width="0.0386"/>
<path d="M15.91 18.24V17.9C15.91 17.84 15.87 17.67 15.64 17.67C15.43 17.67 15.39 17.84 15.39 17.9V18.25H15.91V18.24Z" fill="#3A57A7"/>
<path d="M15.31 17.14V16.77C15.31 16.67 15.25 16.58 15.14 16.58C15.03 16.58 14.97 16.68 14.97 16.77V17.14H15.31Z" fill="#3A57A7"/>
<path d="M15.99 17.14V16.77C15.99 16.67 16.05 16.58 16.16 16.58C16.27 16.58 16.34 16.68 16.34 16.77V17.14H15.99Z" fill="#3A57A7"/>
<path d="M20.47 14.82H20.45C20.45 14.82 20.44 14.84 20.43 14.85C20.41 14.87 20.38 14.87 20.36 14.86C20.35 14.85 20.35 14.84 20.35 14.83C20.34 14.84 20.32 14.84 20.31 14.83C20.29 14.82 20.28 14.79 20.3 14.76L20.31 14.75V14.72L20.28 14.73L20.27 14.75C20.25 14.77 20.22 14.78 20.21 14.76C20.2 14.75 20.2 14.74 20.2 14.74L20.19 14.75C20.14 14.76 20.13 14.66 20.13 14.64L20.12 14.66C20.12 14.66 20.13 14.72 20.13 14.77C20.12 14.82 20.11 14.87 20.11 14.87C20.17 14.89 20.27 14.94 20.36 15.01C20.45 15.08 20.53 15.16 20.56 15.21C20.56 15.21 20.61 15.18 20.66 15.17C20.71 15.15 20.77 15.15 20.77 15.15L20.79 15.13C20.76 15.13 20.66 15.14 20.66 15.09C20.66 15.08 20.67 15.07 20.67 15.07C20.67 15.07 20.65 15.07 20.65 15.06C20.63 15.05 20.63 15.02 20.65 15L20.67 14.99V14.96H20.64L20.63 14.97C20.61 14.99 20.58 14.99 20.56 14.97C20.55 14.96 20.55 14.95 20.55 14.93C20.54 14.93 20.52 14.93 20.51 14.93C20.49 14.92 20.48 14.89 20.5 14.86C20.51 14.85 20.52 14.83 20.53 14.83L20.47 14.82Z" fill="#C8B32F"/>
<path d="M20.47 14.82H20.45C20.45 14.82 20.44 14.84 20.43 14.85C20.41 14.87 20.38 14.87 20.36 14.86C20.35 14.85 20.35 14.84 20.35 14.83C20.34 14.84 20.32 14.84 20.31 14.83C20.29 14.82 20.28 14.79 20.3 14.76L20.31 14.75V14.72L20.28 14.73L20.27 14.75C20.25 14.77 20.22 14.78 20.21 14.76C20.2 14.75 20.2 14.74 20.2 14.74L20.19 14.75C20.14 14.76 20.13 14.66 20.13 14.64L20.12 14.66C20.12 14.66 20.13 14.72 20.13 14.77C20.12 14.82 20.11 14.87 20.11 14.87C20.17 14.89 20.27 14.94 20.36 15.01C20.45 15.08 20.53 15.16 20.56 15.21C20.56 15.21 20.61 15.18 20.66 15.17C20.71 15.15 20.77 15.15 20.77 15.15L20.79 15.13C20.76 15.13 20.66 15.14 20.66 15.09C20.66 15.08 20.67 15.07 20.67 15.07C20.67 15.07 20.65 15.07 20.65 15.06C20.63 15.05 20.63 15.02 20.65 15L20.67 14.99V14.96H20.64L20.63 14.97C20.61 14.99 20.58 14.99 20.56 14.97C20.55 14.96 20.55 14.95 20.55 14.93C20.54 14.93 20.52 14.93 20.51 14.93C20.49 14.92 20.48 14.89 20.5 14.86C20.51 14.85 20.52 14.83 20.53 14.83L20.47 14.82Z" stroke="black" stroke-width="0.0218"/>
<path d="M20.29 14.88C20.29 14.87 20.3 14.87 20.31 14.88C20.32 14.88 20.32 14.89 20.31 14.9C20.31 14.9 20.3 14.9 20.29 14.9C20.28 14.89 20.28 14.88 20.29 14.88Z" fill="black"/>
<path d="M20.29 14.88C20.29 14.87 20.3 14.87 20.31 14.88C20.32 14.88 20.32 14.89 20.31 14.9C20.31 14.9 20.3 14.9 20.29 14.9C20.28 14.89 20.28 14.88 20.29 14.88Z" stroke="black" stroke-width="0.00425"/>
<path d="M20.37 14.94L20.34 14.92C20.34 14.92 20.33 14.91 20.34 14.91H20.35L20.38 14.93L20.41 14.95C20.41 14.95 20.42 14.96 20.41 14.96C20.41 14.96 20.4 14.96 20.39 14.96L20.37 14.94Z" fill="black"/>
<path d="M20.37 14.94L20.34 14.92C20.34 14.92 20.33 14.91 20.34 14.91H20.35L20.38 14.93L20.41 14.95C20.41 14.95 20.42 14.96 20.41 14.96C20.41 14.96 20.4 14.96 20.39 14.96L20.37 14.94Z" stroke="black" stroke-width="0.00425"/>
<path d="M20.22 14.84L20.2 14.83C20.19 14.83 20.19 14.82 20.19 14.82H20.2L20.22 14.83L20.24 14.84L20.25 14.85H20.24L20.22 14.84Z" fill="black"/>
<path d="M20.22 14.84L20.2 14.83C20.19 14.83 20.19 14.82 20.19 14.82H20.2L20.22 14.83L20.24 14.84L20.25 14.85H20.24L20.22 14.84Z" stroke="black" stroke-width="0.00425"/>
<path d="M20.13 14.79C20.13 14.78 20.14 14.78 20.15 14.79C20.16 14.8 20.16 14.8 20.15 14.81C20.15 14.81 20.14 14.81 20.13 14.81C20.13 14.8 20.13 14.79 20.13 14.79Z" fill="black"/>
<path d="M20.13 14.79C20.13 14.78 20.14 14.78 20.15 14.79C20.16 14.8 20.16 14.8 20.15 14.81C20.15 14.81 20.14 14.81 20.13 14.81C20.13 14.8 20.13 14.79 20.13 14.79Z" stroke="black" stroke-width="0.00425"/>
<path d="M20.45 15.01C20.45 15.01 20.45 15 20.45 14.99C20.44 14.99 20.43 14.99 20.43 14.99C20.43 14.99 20.43 15 20.43 15.01C20.43 15.02 20.45 15.01 20.45 15.01Z" fill="black"/>
<path d="M20.45 15.01C20.45 15.01 20.45 15 20.45 14.99C20.44 14.99 20.43 14.99 20.43 14.99C20.43 14.99 20.43 15 20.43 15.01C20.43 15.02 20.45 15.01 20.45 15.01Z" stroke="black" stroke-width="0.00425"/>
<path d="M20.5 15.06L20.52 15.08H20.53V15.07L20.52 15.05L20.5 15.03H20.48V15.04L20.5 15.06Z" fill="black"/>
<path d="M20.5 15.06L20.52 15.08H20.53V15.07L20.52 15.05L20.5 15.03H20.48V15.04L20.5 15.06Z" stroke="black" stroke-width="0.00425"/>
<path d="M20.58 15.13C20.58 15.13 20.58 15.12 20.58 15.11C20.57 15.1 20.56 15.1 20.56 15.11C20.56 15.11 20.56 15.12 20.56 15.13C20.57 15.13 20.58 15.13 20.58 15.13Z" fill="black"/>
<path d="M20.58 15.13C20.58 15.13 20.58 15.12 20.58 15.11C20.57 15.1 20.56 15.1 20.56 15.11C20.56 15.11 20.56 15.12 20.56 15.13C20.57 15.13 20.58 15.13 20.58 15.13Z" stroke="black" stroke-width="0.00425"/>
<path d="M20.35 14.62H20.3L20.29 14.7L20.3 14.71H20.31L20.37 14.67L20.35 14.62Z" fill="#C8B32F"/>
<path d="M20.35 14.62H20.3L20.29 14.7L20.3 14.71H20.31L20.37 14.67L20.35 14.62Z" stroke="black" stroke-width="0.0218"/>
<path d="M20.22 14.66L20.21 14.71L20.29 14.72L20.3 14.71V14.7L20.26 14.64L20.22 14.66Z" fill="#C8B32F"/>
<path d="M20.22 14.66L20.21 14.71L20.29 14.72L20.3 14.71V14.7L20.26 14.64L20.22 14.66Z" stroke="black" stroke-width="0.0218"/>
<path d="M20.38 14.75L20.33 14.78L20.29 14.72V14.7H20.3L20.38 14.71V14.75Z" fill="#C8B32F"/>
<path d="M20.38 14.75L20.33 14.78L20.29 14.72V14.7H20.3L20.38 14.71V14.75Z" stroke="black" stroke-width="0.0218"/>
<path d="M20.28 14.7C20.29 14.69 20.3 14.68 20.31 14.69C20.32 14.7 20.33 14.71 20.32 14.72C20.31 14.73 20.3 14.73 20.29 14.73C20.27 14.72 20.27 14.71 20.28 14.7Z" fill="#C8B32F"/>
<path d="M20.28 14.7C20.29 14.69 20.3 14.68 20.31 14.69C20.32 14.7 20.33 14.71 20.32 14.72C20.31 14.73 20.3 14.73 20.29 14.73C20.27 14.72 20.27 14.71 20.28 14.7Z" stroke="black" stroke-width="0.0218"/>
<path d="M20.09 14.62C20.09 14.62 20.08 14.58 20.07 14.56C20.06 14.54 20.04 14.52 20.04 14.52C20.04 14.52 20.08 14.5 20.11 14.53C20.14 14.56 20.11 14.6 20.11 14.6C20.11 14.6 20.1 14.62 20.09 14.62Z" fill="#C8B32F"/>
<path d="M20.09 14.62C20.09 14.62 20.08 14.58 20.07 14.56C20.06 14.54 20.04 14.52 20.04 14.52C20.04 14.52 20.08 14.5 20.11 14.53C20.14 14.56 20.11 14.6 20.11 14.6C20.11 14.6 20.1 14.62 20.09 14.62Z" stroke="black" stroke-width="0.0218"/>
<path d="M20.18 14.65L20.15 14.68L20.09 14.63V14.62L20.1 14.61L20.17 14.6L20.18 14.65Z" fill="#C8B32F"/>
<path d="M20.18 14.65L20.15 14.68L20.09 14.63V14.62L20.1 14.61L20.17 14.6L20.18 14.65Z" stroke="black" stroke-width="0.0218"/>
<path d="M20.09 14.62C20.09 14.61 20.1 14.6 20.11 14.6C20.12 14.6 20.12 14.62 20.12 14.63C20.12 14.64 20.11 14.65 20.1 14.65C20.08 14.64 20.08 14.63 20.09 14.62Z" fill="#C8B32F"/>
<path d="M20.09 14.62C20.09 14.61 20.1 14.6 20.11 14.6C20.12 14.6 20.12 14.62 20.12 14.63C20.12 14.64 20.11 14.65 20.1 14.65C20.08 14.64 20.08 14.63 20.09 14.62Z" stroke="black" stroke-width="0.0218"/>
<path d="M20.54 14.74H20.49L20.47 14.81V14.82H20.49L20.56 14.79L20.54 14.74Z" fill="#C8B32F"/>
<path d="M20.54 14.74H20.49L20.47 14.81V14.82H20.49L20.56 14.79L20.54 14.74Z" stroke="black" stroke-width="0.0218"/>
<path d="M20.4 14.76L20.39 14.81L20.47 14.83L20.48 14.82V14.81L20.45 14.75L20.4 14.76Z" fill="#C8B32F"/>
<path d="M20.4 14.76L20.39 14.81L20.47 14.83L20.48 14.82V14.81L20.45 14.75L20.4 14.76Z" stroke="black" stroke-width="0.0218"/>
<path d="M20.55 14.87L20.5 14.89L20.47 14.83V14.81H20.48L20.55 14.83V14.87Z" fill="#C8B32F"/>
<path d="M20.55 14.87L20.5 14.89L20.47 14.83V14.81H20.48L20.55 14.83V14.87Z" stroke="black" stroke-width="0.0218"/>
<path d="M20.45 14.81C20.46 14.8 20.47 14.8 20.48 14.81C20.49 14.82 20.49 14.83 20.48 14.84C20.47 14.85 20.46 14.85 20.45 14.84C20.45 14.83 20.45 14.82 20.45 14.81Z" fill="#C8B32F"/>
<path d="M20.45 14.81C20.46 14.8 20.47 14.8 20.48 14.81C20.49 14.82 20.49 14.83 20.48 14.84C20.47 14.85 20.46 14.85 20.45 14.84C20.45 14.83 20.45 14.82 20.45 14.81Z" stroke="black" stroke-width="0.0218"/>
<path d="M20.71 14.9V14.94L20.64 14.97L20.63 14.96V14.95L20.66 14.88L20.71 14.9Z" fill="#C8B32F"/>
<path d="M20.71 14.9V14.94L20.64 14.97L20.63 14.96V14.95L20.66 14.88L20.71 14.9Z" stroke="black" stroke-width="0.0218"/>
<path d="M20.69 15.03L20.65 15.04L20.62 14.97V14.96H20.64L20.71 14.99L20.69 15.03Z" fill="#C8B32F"/>
<path d="M20.69 15.03L20.65 15.04L20.62 14.97V14.96H20.64L20.71 14.99L20.69 15.03Z" stroke="black" stroke-width="0.0218"/>
<path d="M20.57 14.9L20.55 14.94L20.62 14.97H20.63L20.64 14.96L20.61 14.89L20.57 14.9Z" fill="#C8B32F"/>
<path d="M20.57 14.9L20.55 14.94L20.62 14.97H20.63L20.64 14.96L20.61 14.89L20.57 14.9Z" stroke="black" stroke-width="0.0218"/>
<path d="M20.64 14.98C20.65 14.97 20.65 14.96 20.64 14.95C20.63 14.94 20.62 14.94 20.61 14.95C20.6 14.96 20.6 14.97 20.61 14.98C20.62 14.99 20.63 14.99 20.64 14.98Z" fill="#C8B32F"/>
<path d="M20.64 14.98C20.65 14.97 20.65 14.96 20.64 14.95C20.63 14.94 20.62 14.94 20.61 14.95C20.6 14.96 20.6 14.97 20.61 14.98C20.62 14.99 20.63 14.99 20.64 14.98Z" stroke="black" stroke-width="0.0218"/>
<path d="M20.76 15.13C20.76 15.13 20.8 15.13 20.83 15.14C20.85 15.14 20.87 15.16 20.87 15.16C20.87 15.16 20.88 15.12 20.85 15.09C20.82 15.07 20.78 15.11 20.78 15.11C20.78 15.11 20.76 15.12 20.76 15.13Z" fill="#C8B32F"/>
<path d="M20.76 15.13C20.76 15.13 20.8 15.13 20.83 15.14C20.85 15.14 20.87 15.16 20.87 15.16C20.87 15.16 20.88 15.12 20.85 15.09C20.82 15.07 20.78 15.11 20.78 15.11C20.78 15.11 20.76 15.12 20.76 15.13Z" stroke="black" stroke-width="0.0218"/>
<path d="M20.71 15.06L20.69 15.1L20.75 15.14L20.76 15.13H20.77L20.76 15.06H20.71Z" fill="#C8B32F"/>
<path d="M20.71 15.06L20.69 15.1L20.75 15.14L20.76 15.13H20.77L20.76 15.06H20.71Z" stroke="black" stroke-width="0.0218"/>
<path d="M20.77 15.14C20.78 15.13 20.79 15.12 20.78 15.11C20.77 15.1 20.76 15.1 20.75 15.11C20.74 15.12 20.73 15.13 20.74 15.14C20.75 15.15 20.76 15.15 20.77 15.14Z" fill="#C8B32F"/>
<path d="M20.77 15.14C20.78 15.13 20.79 15.12 20.78 15.11C20.77 15.1 20.76 15.1 20.75 15.11C20.74 15.12 20.73 15.13 20.74 15.14C20.75 15.15 20.76 15.15 20.77 15.14Z" stroke="black" stroke-width="0.0218"/>
<path d="M17.74 18.89H21.96V14.22H17.74V18.89Z" stroke="black" stroke-width="0.0437"/>
</g>
<defs>
<clipPath id="clip0_1387_604">
<rect width="55.2" height="38.4" fill="white" transform="translate(0.600006)"/>
</clipPath>
</defs>
</svg>
