<svg width="16" height="15" viewBox="0 0 16 15" fill="none" xmlns="http://www.w3.org/2000/svg">
<path d="M7.04898 0.928055C7.34898 0.00705473 8.65198 0.00705473 8.95098 0.928055L10.021 4.22005C10.0863 4.42054 10.2134 4.59523 10.384 4.71916C10.5547 4.84308 10.7601 4.9099 10.971 4.91005H14.433C15.402 4.91005 15.804 6.15005 15.021 6.72005L12.221 8.75405C12.05 8.87808 11.9227 9.05306 11.8573 9.25391C11.7919 9.45475 11.7918 9.67114 11.857 9.87205L12.927 13.1641C13.227 14.0851 12.172 14.8521 11.387 14.2821L8.58698 12.2481C8.41618 12.1241 8.21054 12.0573 7.99948 12.0573C7.78842 12.0573 7.58277 12.1241 7.41198 12.2481L4.61198 14.2821C3.82798 14.8521 2.77397 14.0851 3.07297 13.1641L4.14298 9.87205C4.20815 9.67114 4.20803 9.45475 4.14264 9.25391C4.07725 9.05306 3.94994 8.87808 3.77898 8.75405L0.979974 6.72105C0.196974 6.15105 0.599974 4.91105 1.56797 4.91105H5.02898C5.24002 4.91111 5.44568 4.84439 5.6165 4.72045C5.78732 4.59651 5.91455 4.4217 5.97998 4.22105L7.04998 0.929054L7.04898 0.928055Z" fill="currentColor"/>
</svg>
