<svg width="245" height="226" viewBox="0 0 245 226" fill="none" xmlns="http://www.w3.org/2000/svg">
<rect x="49" y="43" width="2" height="150" fill="#E6EAEC"/>
<rect x="30.191" y="0.648438" width="184.638" height="63.1611" rx="17.2059" fill="#EFF0F1"/>
<rect x="83.2363" y="28" width="70.2069" height="8.62494" rx="4.30147" fill="#DBE1E4"/>
<rect x="41" y="17" width="29.25" height="29.25" rx="8.60294" fill="#DBE1E4"/>
<rect x="30.191" y="162.062" width="184.638" height="63.1611" rx="17.2059" fill="#EFF0F1"/>
<rect x="82.8019" y="189" width="70.2069" height="8.62494" rx="4.30147" fill="#DBE1E4"/>
<rect x="41" y="178" width="29.25" height="29.25" rx="8.60294" fill="#DBE1E4"/>
<g filter="url(#filter0_d_19619_189385)">
<rect x="23.0503" y="78.8516" width="198.92" height="68.0465" rx="18.5367" fill="white"/>
</g>
<rect x="80.675" y="97.2109" width="111.565" height="9.29207" rx="4.63418" fill="#DCE2E4"/>
<rect x="80.675" y="119.516" width="51.0552" height="9.29207" rx="4.63418" fill="#EDF1F2"/>
<rect x="36" y="96.3203" width="31.5124" height="31.5124" rx="9.26836" fill="#EDF1F2"/>
<defs>
<filter id="filter0_d_19619_189385" x="0.806223" y="58.4612" width="243.408" height="112.535" filterUnits="userSpaceOnUse" color-interpolation-filters="sRGB">
<feFlood flood-opacity="0" result="BackgroundImageFix"/>
<feColorMatrix in="SourceAlpha" type="matrix" values="0 0 0 0 0 0 0 0 0 0 0 0 0 0 0 0 0 0 127 0" result="hardAlpha"/>
<feOffset dy="1.85367"/>
<feGaussianBlur stdDeviation="11.122"/>
<feColorMatrix type="matrix" values="0 0 0 0 0.505882 0 0 0 0 0.576471 0 0 0 0 0.658824 0 0 0 0.363035 0"/>
<feBlend mode="normal" in2="BackgroundImageFix" result="effect1_dropShadow_19619_189385"/>
<feBlend mode="normal" in="SourceGraphic" in2="effect1_dropShadow_19619_189385" result="shape"/>
</filter>
</defs>
</svg>