<svg width="216" height="169" viewBox="0 0 216 169" fill="none" xmlns="http://www.w3.org/2000/svg">
<path d="M7 9.21818C7 4.12711 11.1271 0 16.2182 0H200.582C205.673 0 209.8 4.12712 209.8 9.21818V36.8727C209.8 41.9638 205.673 46.0909 200.582 46.0909H16.2182C11.1271 46.0909 7 41.9638 7 36.8727V9.21818Z" fill="url(#paint0_linear_1447_45306)" fill-opacity="0.03"/>
<path d="M7.5 9.21818C7.5 4.40326 11.4033 0.5 16.2182 0.5H200.582C205.397 0.5 209.3 4.40326 209.3 9.21818V36.8727C209.3 41.6877 205.397 45.5909 200.582 45.5909H16.2182C11.4033 45.5909 7.5 41.6876 7.5 36.8727V9.21818Z" stroke="url(#paint1_linear_1447_45306)" stroke-opacity="0.24"/>
<path d="M7 132.124C7 127.033 11.1271 122.906 16.2182 122.906H200.582C205.673 122.906 209.8 127.033 209.8 132.124V159.779C209.8 164.87 205.673 168.997 200.582 168.997H16.2182C11.1271 168.997 7 164.87 7 159.779V132.124Z" fill="url(#paint2_linear_1447_45306)" fill-opacity="0.03"/>
<path d="M7.5 132.124C7.5 127.31 11.4033 123.406 16.2182 123.406H200.582C205.397 123.406 209.3 127.31 209.3 132.124V159.779C209.3 164.594 205.397 168.497 200.582 168.497H16.2182C11.4033 168.497 7.5 164.594 7.5 159.779V132.124Z" stroke="url(#paint3_linear_1447_45306)" stroke-opacity="0.24"/>
<path d="M19 14C19 11.2386 21.2386 9 24 9H41C43.7614 9 46 11.2386 46 14V32C46 34.7614 43.7614 37 41 37H24C21.2386 37 19 34.7614 19 32V14Z" fill="url(#paint4_linear_1447_45306)" fill-opacity="0.06"/>
<path d="M19 137C19 134.239 21.2386 132 24 132H41C43.7614 132 46 134.239 46 137V155C46 157.761 43.7614 160 41 160H24C21.2386 160 19 157.761 19 155V137Z" fill="url(#paint5_linear_1447_45306)" fill-opacity="0.06"/>
<rect x="31" y="46" width="2" height="16" fill="url(#paint6_linear_1447_45306)" fill-opacity="0.24"/>
<rect x="31" y="109" width="2" height="14" fill="url(#paint7_linear_1447_45306)" fill-opacity="0.24"/>
<path d="M0 70.8C0 65.3876 4.3876 61 9.79998 61H205.8C211.212 61 215.6 65.3876 215.6 70.8V100.2C215.6 105.612 211.212 110 205.8 110H9.79997C4.38759 110 0 105.612 0 100.2V70.8Z" fill="url(#paint8_linear_1447_45306)" fill-opacity="0.14"/>
<path d="M0.531557 70.8C0.531557 65.6812 4.68117 61.5316 9.79998 61.5316H205.8C210.918 61.5316 215.068 65.6812 215.068 70.8V100.2C215.068 105.319 210.918 109.468 205.8 109.468H9.79997C4.68116 109.468 0.531557 105.319 0.531557 100.2V70.8Z" stroke="url(#paint9_linear_1447_45306)" stroke-opacity="0.24" stroke-width="1.06311"/>
<path d="M14 76.3156C14 73.3799 16.3799 71 19.3156 71H37.3885C40.3242 71 42.7041 73.3799 42.7041 76.3156V95.4516C42.7041 98.3873 40.3242 100.767 37.3885 100.767H19.3156C16.3799 100.767 14 98.3873 14 95.4516V76.3156Z" fill="url(#paint10_linear_1447_45306)" fill-opacity="0.12"/>
<path d="M54 76C54 74.8954 54.8954 74 56 74H168C169.105 74 170 74.8954 170 76V82C170 83.1046 169.105 84 168 84H56C54.8954 84 54 83.1046 54 82V76Z" fill="url(#paint11_linear_1447_45306)" fill-opacity="0.12"/>
<path d="M54 91C54 89.8954 54.8954 89 56 89H97C98.1046 89 99 89.8954 99 91V94C99 95.1046 98.1046 96 97 96H56C54.8954 96 54 95.1046 54 94V91Z" fill="url(#paint12_linear_1447_45306)" fill-opacity="0.12"/>
<defs>
<linearGradient id="paint0_linear_1447_45306" x1="7" y1="0" x2="7" y2="46.0909" gradientUnits="userSpaceOnUse">
<stop stop-color="#00F0EA"/>
<stop offset="1" stop-color="#00DDD0"/>
</linearGradient>
<linearGradient id="paint1_linear_1447_45306" x1="7" y1="0" x2="7" y2="46.0909" gradientUnits="userSpaceOnUse">
<stop stop-color="#00F0EA"/>
<stop offset="1" stop-color="#00DDD0"/>
</linearGradient>
<linearGradient id="paint2_linear_1447_45306" x1="7" y1="122.906" x2="7" y2="168.997" gradientUnits="userSpaceOnUse">
<stop stop-color="#00F0EA"/>
<stop offset="1" stop-color="#00DDD0"/>
</linearGradient>
<linearGradient id="paint3_linear_1447_45306" x1="7" y1="122.906" x2="7" y2="168.997" gradientUnits="userSpaceOnUse">
<stop stop-color="#00F0EA"/>
<stop offset="1" stop-color="#00DDD0"/>
</linearGradient>
<linearGradient id="paint4_linear_1447_45306" x1="19" y1="9" x2="19" y2="37" gradientUnits="userSpaceOnUse">
<stop stop-color="#00F0EA"/>
<stop offset="1" stop-color="#00DDD0"/>
</linearGradient>
<linearGradient id="paint5_linear_1447_45306" x1="19" y1="132" x2="19" y2="160" gradientUnits="userSpaceOnUse">
<stop stop-color="#00F0EA"/>
<stop offset="1" stop-color="#00DDD0"/>
</linearGradient>
<linearGradient id="paint6_linear_1447_45306" x1="31" y1="46" x2="31" y2="62" gradientUnits="userSpaceOnUse">
<stop stop-color="#00F0EA"/>
<stop offset="1" stop-color="#00DDD0"/>
</linearGradient>
<linearGradient id="paint7_linear_1447_45306" x1="31" y1="109" x2="31" y2="123" gradientUnits="userSpaceOnUse">
<stop stop-color="#00F0EA"/>
<stop offset="1" stop-color="#00DDD0"/>
</linearGradient>
<linearGradient id="paint8_linear_1447_45306" x1="0" y1="61" x2="0" y2="110" gradientUnits="userSpaceOnUse">
<stop stop-color="#00F0EA"/>
<stop offset="1" stop-color="#00DDD0"/>
</linearGradient>
<linearGradient id="paint9_linear_1447_45306" x1="0" y1="61" x2="0" y2="110" gradientUnits="userSpaceOnUse">
<stop stop-color="#00F0EA"/>
<stop offset="1" stop-color="#00DDD0"/>
</linearGradient>
<linearGradient id="paint10_linear_1447_45306" x1="14" y1="71" x2="14" y2="100.767" gradientUnits="userSpaceOnUse">
<stop stop-color="#00F0EA"/>
<stop offset="1" stop-color="#00DDD0"/>
</linearGradient>
<linearGradient id="paint11_linear_1447_45306" x1="54" y1="74" x2="54" y2="84" gradientUnits="userSpaceOnUse">
<stop stop-color="#00F0EA"/>
<stop offset="1" stop-color="#00DDD0"/>
</linearGradient>
<linearGradient id="paint12_linear_1447_45306" x1="54" y1="89" x2="54" y2="96" gradientUnits="userSpaceOnUse">
<stop stop-color="#00F0EA"/>
<stop offset="1" stop-color="#00DDD0"/>
</linearGradient>
</defs>
</svg>
