<svg width="30" height="30" viewBox="0 0 30 30" fill="none" xmlns="http://www.w3.org/2000/svg">
<circle cx="15" cy="15" r="15" fill="url(#paint0_linear_2841_86038)"/>
<path fill-rule="evenodd" clip-rule="evenodd" d="M21.7074 10.2928C21.8949 10.4803 22.0002 10.7346 22.0002 10.9998C22.0002 11.265 21.8949 11.5193 21.7074 11.7068L13.7074 19.7068C13.5199 19.8943 13.2656 19.9996 13.0004 19.9996C12.7352 19.9996 12.4809 19.8943 12.2934 19.7068L8.29341 15.7068C8.11125 15.5182 8.01045 15.2656 8.01273 15.0034C8.01501 14.7412 8.12018 14.4904 8.30559 14.305C8.491 14.1196 8.74181 14.0144 9.00401 14.0121C9.2662 14.0098 9.5188 14.1106 9.70741 14.2928L13.0004 17.5858L20.2934 10.2928C20.4809 10.1053 20.7352 10 21.0004 10C21.2656 10 21.5199 10.1053 21.7074 10.2928Z" fill="white"/>
<defs>
<linearGradient id="paint0_linear_2841_86038" x1="30" y1="30" x2="0" y2="0" gradientUnits="userSpaceOnUse">
<stop stop-color="#40E0CF"/>
<stop offset="1" stop-color="#36CDCF"/>
</linearGradient>
</defs>
</svg>
