<svg width="16" height="20" viewBox="0 0 16 20" fill="none" xmlns="http://www.w3.org/2000/svg">
<path d="M6.75 0C6.41848 0 6.10054 0.131696 5.86612 0.366117C5.6317 0.600537 5.5 0.91848 5.5 1.25C5.5 1.58152 5.6317 1.89946 5.86612 2.13388C6.10054 2.3683 6.41848 2.5 6.75 2.5H9.25C9.58152 2.5 9.89946 2.3683 10.1339 2.13388C10.3683 1.89946 10.5 1.58152 10.5 1.25C10.5 0.91848 10.3683 0.600537 10.1339 0.366117C9.89946 0.131696 9.58152 0 9.25 0H6.75Z" fill="currentColor"/>
<path fill-rule="evenodd" clip-rule="evenodd" d="M0.5 3.75C0.5 3.08696 0.763392 2.45107 1.23223 1.98223C1.70107 1.51339 2.33696 1.25 3 1.25C3 2.24456 3.39509 3.19839 4.09835 3.90165C4.80161 4.60491 5.75544 5 6.75 5H9.25C10.2446 5 11.1984 4.60491 11.9017 3.90165C12.6049 3.19839 13 2.24456 13 1.25C13.663 1.25 14.2989 1.51339 14.7678 1.98223C15.2366 2.45107 15.5 3.08696 15.5 3.75V17.5C15.5 18.163 15.2366 18.7989 14.7678 19.2678C14.2989 19.7366 13.663 20 13 20H3C2.33696 20 1.70107 19.7366 1.23223 19.2678C0.763392 18.7989 0.5 18.163 0.5 17.5V3.75ZM4.25 8.75C3.91848 8.75 3.60054 8.8817 3.36612 9.11612C3.1317 9.35054 3 9.66848 3 10C3 10.3315 3.1317 10.6495 3.36612 10.8839C3.60054 11.1183 3.91848 11.25 4.25 11.25H4.2625C4.59402 11.25 4.91196 11.1183 5.14638 10.8839C5.3808 10.6495 5.5125 10.3315 5.5125 10C5.5125 9.66848 5.3808 9.35054 5.14638 9.11612C4.91196 8.8817 4.59402 8.75 4.2625 8.75H4.25ZM8 8.75C7.66848 8.75 7.35054 8.8817 7.11612 9.11612C6.8817 9.35054 6.75 9.66848 6.75 10C6.75 10.3315 6.8817 10.6495 7.11612 10.8839C7.35054 11.1183 7.66848 11.25 8 11.25H11.75C12.0815 11.25 12.3995 11.1183 12.6339 10.8839C12.8683 10.6495 13 10.3315 13 10C13 9.66848 12.8683 9.35054 12.6339 9.11612C12.3995 8.8817 12.0815 8.75 11.75 8.75H8ZM4.25 13.75C3.91848 13.75 3.60054 13.8817 3.36612 14.1161C3.1317 14.3505 3 14.6685 3 15C3 15.3315 3.1317 15.6495 3.36612 15.8839C3.60054 16.1183 3.91848 16.25 4.25 16.25H4.2625C4.59402 16.25 4.91196 16.1183 5.14638 15.8839C5.3808 15.6495 5.5125 15.3315 5.5125 15C5.5125 14.6685 5.3808 14.3505 5.14638 14.1161C4.91196 13.8817 4.59402 13.75 4.2625 13.75H4.25ZM8 13.75C7.66848 13.75 7.35054 13.8817 7.11612 14.1161C6.8817 14.3505 6.75 14.6685 6.75 15C6.75 15.3315 6.8817 15.6495 7.11612 15.8839C7.35054 16.1183 7.66848 16.25 8 16.25H11.75C12.0815 16.25 12.3995 16.1183 12.6339 15.8839C12.8683 15.6495 13 15.3315 13 15C13 14.6685 12.8683 14.3505 12.6339 14.1161C12.3995 13.8817 12.0815 13.75 11.75 13.75H8Z" fill="currentColor"/>
</svg>
