<svg width="590" height="96" viewBox="0 0 590 96" fill="none" xmlns="http://www.w3.org/2000/svg">
<rect width="590" height="96" rx="20" fill="url(#paint0_linear_2836_86015)" fill-opacity="0.1"/>
<circle cx="304" cy="25" r="15" fill="url(#paint1_linear_2836_86015)"/>
<path fill-rule="evenodd" clip-rule="evenodd" d="M310.707 20.2928C310.895 20.4803 311 20.7346 311 20.9998C311 21.265 310.895 21.5193 310.707 21.7068L302.707 29.7068C302.52 29.8943 302.266 29.9996 302 29.9996C301.735 29.9996 301.481 29.8943 301.293 29.7068L297.293 25.7068C297.111 25.5182 297.01 25.2656 297.013 25.0034C297.015 24.7412 297.12 24.4904 297.306 24.305C297.491 24.1196 297.742 24.0144 298.004 24.0121C298.266 24.0098 298.519 24.1106 298.707 24.2928L302 27.5858L309.293 20.2928C309.481 20.1053 309.735 20 310 20C310.266 20 310.52 20.1053 310.707 20.2928Z" fill="white"/>
<path fill-rule="evenodd" clip-rule="evenodd" d="M93 43C68.1491 43 48.6386 26.0121 44.231 1.38694C44.1487 0.92727 44 0 44 0L68.6243 0.000452087C68.6243 0.000452087 68.7862 0.555898 68.8725 0.828952C72.5233 12.3882 82.4395 18.3654 93 18.3654C103.578 18.3654 113.51 12.4932 117.146 0.848072C117.233 0.568703 117.396 0.000152977 117.396 0.000152977L142 0C142 0 141.876 0.775207 141.809 1.16005C137.481 25.9077 117.927 43 93 43Z" fill="url(#paint2_linear_2836_86015)" fill-opacity="0.2"/>
<path fill-rule="evenodd" clip-rule="evenodd" d="M501 42C531.937 42 556.225 63.3336 561.712 94.2583C561.815 94.8355 562 96 562 96L531.345 95.9994C531.345 95.9994 531.144 95.3019 531.036 94.959C526.491 80.4427 514.147 72.9365 501 72.9365C487.831 72.9365 475.468 80.3108 470.941 94.935C470.832 95.2858 470.629 95.9998 470.629 95.9998L440 96C440 96 440.154 95.0265 440.238 94.5432C445.626 63.4647 469.968 42 501 42Z" fill="url(#paint3_linear_2836_86015)" fill-opacity="0.2"/>
<path d="M235.125 62H232.703V52.5938H229.602V50.5781H238.227V52.5938H235.125V62ZM242.18 49.8438V52.3203C242.18 52.7526 242.164 53.1641 242.133 53.5547C242.107 53.9453 242.086 54.2214 242.07 54.3828H242.195C242.383 54.0807 242.604 53.8359 242.859 53.6484C243.12 53.4609 243.406 53.3229 243.719 53.2344C244.031 53.1458 244.367 53.1016 244.727 53.1016C245.357 53.1016 245.906 53.2135 246.375 53.4375C246.844 53.6562 247.208 54.0026 247.469 54.4766C247.729 54.9453 247.859 55.5547 247.859 56.3047V62H245.477V56.8984C245.477 56.2734 245.362 55.8021 245.133 55.4844C244.904 55.1667 244.549 55.0078 244.07 55.0078C243.591 55.0078 243.214 55.1198 242.938 55.3438C242.661 55.5625 242.466 55.888 242.352 56.3203C242.237 56.7474 242.18 57.2708 242.18 57.8906V62H239.797V49.8438H242.18ZM252.695 53.2656V62H250.312V53.2656H252.695ZM251.508 49.8438C251.862 49.8438 252.167 49.9271 252.422 50.0938C252.677 50.2552 252.805 50.5599 252.805 51.0078C252.805 51.4505 252.677 51.7578 252.422 51.9297C252.167 52.0964 251.862 52.1797 251.508 52.1797C251.148 52.1797 250.841 52.0964 250.586 51.9297C250.336 51.7578 250.211 51.4505 250.211 51.0078C250.211 50.5599 250.336 50.2552 250.586 50.0938C250.841 49.9271 251.148 49.8438 251.508 49.8438ZM261.297 59.4062C261.297 60 261.156 60.5026 260.875 60.9141C260.599 61.3203 260.185 61.6302 259.633 61.8438C259.081 62.0521 258.393 62.1562 257.57 62.1562C256.961 62.1562 256.438 62.1172 256 62.0391C255.568 61.9609 255.13 61.8307 254.688 61.6484V59.6797C255.161 59.8932 255.669 60.0703 256.211 60.2109C256.758 60.3464 257.237 60.4141 257.648 60.4141C258.112 60.4141 258.443 60.3464 258.641 60.2109C258.844 60.0703 258.945 59.888 258.945 59.6641C258.945 59.5182 258.904 59.388 258.82 59.2734C258.742 59.1536 258.57 59.0208 258.305 58.875C258.039 58.724 257.622 58.5286 257.055 58.2891C256.508 58.0599 256.057 57.8281 255.703 57.5938C255.354 57.3594 255.094 57.0833 254.922 56.7656C254.755 56.4427 254.672 56.0339 254.672 55.5391C254.672 54.7318 254.984 54.125 255.609 53.7188C256.24 53.3073 257.081 53.1016 258.133 53.1016C258.674 53.1016 259.19 53.1562 259.68 53.2656C260.174 53.375 260.682 53.5495 261.203 53.7891L260.484 55.5078C260.052 55.3203 259.643 55.1667 259.258 55.0469C258.878 54.9271 258.49 54.8672 258.094 54.8672C257.745 54.8672 257.482 54.9141 257.305 55.0078C257.128 55.1016 257.039 55.2448 257.039 55.4375C257.039 55.5781 257.083 55.7031 257.172 55.8125C257.266 55.9219 257.443 56.0443 257.703 56.1797C257.969 56.3099 258.357 56.4792 258.867 56.6875C259.362 56.8906 259.792 57.1042 260.156 57.3281C260.521 57.5469 260.802 57.8203 261 58.1484C261.198 58.4714 261.297 58.8906 261.297 59.4062ZM270.992 60.2578C271.253 60.2578 271.505 60.2318 271.75 60.1797C272 60.1276 272.247 60.0625 272.492 59.9844V61.7578C272.237 61.8724 271.919 61.9661 271.539 62.0391C271.164 62.1172 270.753 62.1562 270.305 62.1562C269.784 62.1562 269.315 62.0729 268.898 61.9062C268.487 61.7344 268.161 61.4401 267.922 61.0234C267.688 60.6016 267.57 60.0156 267.57 59.2656V55.0547H266.43V54.0469L267.742 53.25L268.43 51.4062H269.953V53.2656H272.398V55.0547H269.953V59.2656C269.953 59.599 270.047 59.849 270.234 60.0156C270.427 60.1771 270.68 60.2578 270.992 60.2578ZM277.844 53.0859C279.016 53.0859 279.914 53.3411 280.539 53.8516C281.164 54.362 281.477 55.138 281.477 56.1797V62H279.812L279.352 60.8125H279.289C279.039 61.125 278.784 61.3802 278.523 61.5781C278.263 61.776 277.964 61.9219 277.625 62.0156C277.286 62.1094 276.875 62.1562 276.391 62.1562C275.875 62.1562 275.411 62.0573 275 61.8594C274.594 61.6615 274.273 61.3594 274.039 60.9531C273.805 60.5417 273.688 60.0208 273.688 59.3906C273.688 58.4635 274.013 57.7812 274.664 57.3438C275.315 56.901 276.292 56.6562 277.594 56.6094L279.109 56.5625V56.1797C279.109 55.7214 278.99 55.3854 278.75 55.1719C278.51 54.9583 278.177 54.8516 277.75 54.8516C277.328 54.8516 276.914 54.9115 276.508 55.0312C276.102 55.151 275.695 55.3021 275.289 55.4844L274.5 53.875C274.964 53.6302 275.482 53.4375 276.055 53.2969C276.633 53.1562 277.229 53.0859 277.844 53.0859ZM279.109 57.9531L278.188 57.9844C277.417 58.0052 276.88 58.1432 276.578 58.3984C276.281 58.6536 276.133 58.9896 276.133 59.4062C276.133 59.7708 276.24 60.0312 276.453 60.1875C276.667 60.3385 276.945 60.4141 277.289 60.4141C277.799 60.4141 278.229 60.263 278.578 59.9609C278.932 59.6589 279.109 59.2292 279.109 58.6719V57.9531ZM290.031 59.4062C290.031 60 289.891 60.5026 289.609 60.9141C289.333 61.3203 288.919 61.6302 288.367 61.8438C287.815 62.0521 287.128 62.1562 286.305 62.1562C285.695 62.1562 285.172 62.1172 284.734 62.0391C284.302 61.9609 283.865 61.8307 283.422 61.6484V59.6797C283.896 59.8932 284.404 60.0703 284.945 60.2109C285.492 60.3464 285.971 60.4141 286.383 60.4141C286.846 60.4141 287.177 60.3464 287.375 60.2109C287.578 60.0703 287.68 59.888 287.68 59.6641C287.68 59.5182 287.638 59.388 287.555 59.2734C287.477 59.1536 287.305 59.0208 287.039 58.875C286.773 58.724 286.357 58.5286 285.789 58.2891C285.242 58.0599 284.792 57.8281 284.438 57.5938C284.089 57.3594 283.828 57.0833 283.656 56.7656C283.49 56.4427 283.406 56.0339 283.406 55.5391C283.406 54.7318 283.719 54.125 284.344 53.7188C284.974 53.3073 285.815 53.1016 286.867 53.1016C287.409 53.1016 287.924 53.1562 288.414 53.2656C288.909 53.375 289.417 53.5495 289.938 53.7891L289.219 55.5078C288.786 55.3203 288.378 55.1667 287.992 55.0469C287.612 54.9271 287.224 54.8672 286.828 54.8672C286.479 54.8672 286.216 54.9141 286.039 55.0078C285.862 55.1016 285.773 55.2448 285.773 55.4375C285.773 55.5781 285.818 55.7031 285.906 55.8125C286 55.9219 286.177 56.0443 286.438 56.1797C286.703 56.3099 287.091 56.4792 287.602 56.6875C288.096 56.8906 288.526 57.1042 288.891 57.3281C289.255 57.5469 289.536 57.8203 289.734 58.1484C289.932 58.4714 290.031 58.8906 290.031 59.4062ZM294.273 49.8438V55.2812C294.273 55.6094 294.26 55.9375 294.234 56.2656C294.208 56.5938 294.18 56.9219 294.148 57.25H294.18C294.341 57.0208 294.505 56.7943 294.672 56.5703C294.844 56.3464 295.026 56.1302 295.219 55.9219L297.664 53.2656H300.352L296.883 57.0547L300.562 62H297.812L295.297 58.4609L294.273 59.2812V62H291.891V49.8438H294.273ZM308.352 53.2656V62H305.969V53.2656H308.352ZM307.164 49.8438C307.518 49.8438 307.823 49.9271 308.078 50.0938C308.333 50.2552 308.461 50.5599 308.461 51.0078C308.461 51.4505 308.333 51.7578 308.078 51.9297C307.823 52.0964 307.518 52.1797 307.164 52.1797C306.805 52.1797 306.497 52.0964 306.242 51.9297C305.992 51.7578 305.867 51.4505 305.867 51.0078C305.867 50.5599 305.992 50.2552 306.242 50.0938C306.497 49.9271 306.805 49.8438 307.164 49.8438ZM316.953 59.4062C316.953 60 316.812 60.5026 316.531 60.9141C316.255 61.3203 315.841 61.6302 315.289 61.8438C314.737 62.0521 314.049 62.1562 313.227 62.1562C312.617 62.1562 312.094 62.1172 311.656 62.0391C311.224 61.9609 310.786 61.8307 310.344 61.6484V59.6797C310.818 59.8932 311.326 60.0703 311.867 60.2109C312.414 60.3464 312.893 60.4141 313.305 60.4141C313.768 60.4141 314.099 60.3464 314.297 60.2109C314.5 60.0703 314.602 59.888 314.602 59.6641C314.602 59.5182 314.56 59.388 314.477 59.2734C314.398 59.1536 314.227 59.0208 313.961 58.875C313.695 58.724 313.279 58.5286 312.711 58.2891C312.164 58.0599 311.714 57.8281 311.359 57.5938C311.01 57.3594 310.75 57.0833 310.578 56.7656C310.411 56.4427 310.328 56.0339 310.328 55.5391C310.328 54.7318 310.641 54.125 311.266 53.7188C311.896 53.3073 312.737 53.1016 313.789 53.1016C314.331 53.1016 314.846 53.1562 315.336 53.2656C315.831 53.375 316.339 53.5495 316.859 53.7891L316.141 55.5078C315.708 55.3203 315.299 55.1667 314.914 55.0469C314.534 54.9271 314.146 54.8672 313.75 54.8672C313.401 54.8672 313.138 54.9141 312.961 55.0078C312.784 55.1016 312.695 55.2448 312.695 55.4375C312.695 55.5781 312.74 55.7031 312.828 55.8125C312.922 55.9219 313.099 56.0443 313.359 56.1797C313.625 56.3099 314.013 56.4792 314.523 56.6875C315.018 56.8906 315.448 57.1042 315.812 57.3281C316.177 57.5469 316.458 57.8203 316.656 58.1484C316.854 58.4714 316.953 58.8906 316.953 59.4062ZM325.734 62.1562C324.76 62.1562 323.966 61.776 323.352 61.0156C322.742 60.25 322.438 59.1276 322.438 57.6484C322.438 56.1536 322.747 55.0234 323.367 54.2578C323.987 53.487 324.797 53.1016 325.797 53.1016C326.214 53.1016 326.581 53.1589 326.898 53.2734C327.216 53.388 327.49 53.5417 327.719 53.7344C327.953 53.9271 328.151 54.1432 328.312 54.3828H328.391C328.359 54.2161 328.32 53.9714 328.273 53.6484C328.232 53.3203 328.211 52.9844 328.211 52.6406V49.8438H330.602V62H328.773L328.312 60.8672H328.211C328.06 61.1068 327.87 61.3255 327.641 61.5234C327.417 61.7161 327.148 61.8698 326.836 61.9844C326.523 62.099 326.156 62.1562 325.734 62.1562ZM326.57 60.2578C327.221 60.2578 327.68 60.0651 327.945 59.6797C328.216 59.2891 328.359 58.7031 328.375 57.9219V57.6641C328.375 56.8151 328.245 56.1667 327.984 55.7188C327.724 55.2656 327.24 55.0391 326.531 55.0391C326.005 55.0391 325.594 55.2656 325.297 55.7188C325 56.1719 324.852 56.8255 324.852 57.6797C324.852 58.5339 325 59.1771 325.297 59.6094C325.599 60.0417 326.023 60.2578 326.57 60.2578ZM341.031 57.6172C341.031 58.3464 340.932 58.9922 340.734 59.5547C340.542 60.1172 340.258 60.5938 339.883 60.9844C339.513 61.3698 339.065 61.6615 338.539 61.8594C338.018 62.0573 337.43 62.1562 336.773 62.1562C336.159 62.1562 335.594 62.0573 335.078 61.8594C334.568 61.6615 334.122 61.3698 333.742 60.9844C333.367 60.5938 333.076 60.1172 332.867 59.5547C332.664 58.9922 332.562 58.3464 332.562 57.6172C332.562 56.6484 332.734 55.8281 333.078 55.1562C333.422 54.4844 333.911 53.974 334.547 53.625C335.182 53.276 335.94 53.1016 336.82 53.1016C337.638 53.1016 338.362 53.276 338.992 53.625C339.628 53.974 340.125 54.4844 340.484 55.1562C340.849 55.8281 341.031 56.6484 341.031 57.6172ZM334.992 57.6172C334.992 58.1901 335.055 58.6719 335.18 59.0625C335.305 59.4531 335.5 59.7474 335.766 59.9453C336.031 60.1432 336.378 60.2422 336.805 60.2422C337.227 60.2422 337.568 60.1432 337.828 59.9453C338.094 59.7474 338.286 59.4531 338.406 59.0625C338.531 58.6719 338.594 58.1901 338.594 57.6172C338.594 57.0391 338.531 56.5599 338.406 56.1797C338.286 55.7943 338.094 55.5052 337.828 55.3125C337.562 55.1198 337.216 55.0234 336.789 55.0234C336.159 55.0234 335.701 55.2396 335.414 55.6719C335.133 56.1042 334.992 56.7526 334.992 57.6172ZM347.961 53.1016C348.893 53.1016 349.643 53.3568 350.211 53.8672C350.779 54.3724 351.062 55.1849 351.062 56.3047V62H348.68V56.8984C348.68 56.2734 348.565 55.8021 348.336 55.4844C348.112 55.1667 347.758 55.0078 347.273 55.0078C346.544 55.0078 346.047 55.2552 345.781 55.75C345.516 56.2448 345.383 56.9583 345.383 57.8906V62H343V53.2656H344.82L345.141 54.3828H345.273C345.461 54.0807 345.693 53.8359 345.969 53.6484C346.25 53.4609 346.56 53.3229 346.898 53.2344C347.242 53.1458 347.596 53.1016 347.961 53.1016ZM357.117 53.1016C357.924 53.1016 358.62 53.2578 359.203 53.5703C359.786 53.8776 360.237 54.3255 360.555 54.9141C360.872 55.5026 361.031 56.2214 361.031 57.0703V58.2266H355.398C355.424 58.8984 355.625 59.4271 356 59.8125C356.38 60.1927 356.906 60.3828 357.578 60.3828C358.135 60.3828 358.646 60.3255 359.109 60.2109C359.573 60.0964 360.049 59.9245 360.539 59.6953V61.5391C360.107 61.7526 359.654 61.9089 359.18 62.0078C358.711 62.1068 358.141 62.1562 357.469 62.1562C356.594 62.1562 355.818 61.9948 355.141 61.6719C354.469 61.349 353.94 60.8568 353.555 60.1953C353.174 59.5339 352.984 58.7005 352.984 57.6953C352.984 56.6745 353.156 55.8255 353.5 55.1484C353.849 54.4661 354.333 53.9557 354.953 53.6172C355.573 53.2734 356.294 53.1016 357.117 53.1016ZM357.133 54.7969C356.669 54.7969 356.284 54.9453 355.977 55.2422C355.674 55.5391 355.5 56.0052 355.453 56.6406H358.797C358.792 56.2865 358.727 55.9714 358.602 55.6953C358.482 55.4193 358.299 55.2005 358.055 55.0391C357.815 54.8776 357.508 54.7969 357.133 54.7969ZM267.206 75.7637H270.604V80.624C270.075 80.7926 269.537 80.9202 268.99 81.0068C268.443 81.0934 267.81 81.1367 267.09 81.1367C265.577 81.1367 264.399 80.6878 263.556 79.79C262.713 78.8877 262.291 77.6253 262.291 76.0029C262.291 74.9639 262.498 74.0547 262.913 73.2754C263.332 72.4915 263.934 71.8945 264.718 71.4844C265.502 71.0697 266.42 70.8623 267.473 70.8623C268.539 70.8623 269.533 71.0583 270.453 71.4502L270.002 72.4756C269.1 72.0928 268.231 71.9014 267.397 71.9014C266.181 71.9014 265.23 72.2637 264.547 72.9883C263.863 73.7129 263.521 74.7178 263.521 76.0029C263.521 77.3519 263.85 78.375 264.506 79.0723C265.167 79.7695 266.135 80.1182 267.411 80.1182C268.104 80.1182 268.781 80.0384 269.441 79.8789V76.8027H267.206V75.7637ZM276.257 73.3711C276.59 73.3711 276.888 73.3984 277.152 73.4531L276.995 74.5059C276.685 74.4375 276.412 74.4033 276.175 74.4033C275.569 74.4033 275.049 74.6494 274.616 75.1416C274.188 75.6338 273.974 76.2467 273.974 76.9805V81H272.839V73.5078H273.775L273.905 74.8955H273.96C274.238 74.4079 274.573 74.0319 274.965 73.7676C275.357 73.5033 275.787 73.3711 276.257 73.3711ZM281.719 81.1367C280.611 81.1367 279.736 80.7995 279.094 80.125C278.456 79.4505 278.137 78.514 278.137 77.3154C278.137 76.1077 278.433 75.1484 279.025 74.4375C279.622 73.7266 280.422 73.3711 281.425 73.3711C282.364 73.3711 283.106 73.681 283.653 74.3008C284.2 74.916 284.474 75.7295 284.474 76.7412V77.459H279.312C279.335 78.3385 279.556 79.0062 279.976 79.4619C280.399 79.9176 280.994 80.1455 281.76 80.1455C282.566 80.1455 283.364 79.9769 284.152 79.6396V80.6514C283.751 80.8245 283.371 80.9476 283.011 81.0205C282.655 81.098 282.225 81.1367 281.719 81.1367ZM281.411 74.3213C280.81 74.3213 280.329 74.5173 279.969 74.9092C279.613 75.3011 279.404 75.8434 279.34 76.5361H283.257C283.257 75.8206 283.097 75.2738 282.778 74.8955C282.459 74.5127 282.004 74.3213 281.411 74.3213ZM291.022 81L290.797 79.9336H290.742C290.368 80.403 289.995 80.722 289.621 80.8906C289.252 81.0547 288.789 81.1367 288.233 81.1367C287.491 81.1367 286.907 80.9453 286.483 80.5625C286.064 80.1797 285.854 79.6351 285.854 78.9287C285.854 77.4157 287.064 76.6227 289.484 76.5498L290.756 76.5088V76.0439C290.756 75.4561 290.628 75.0231 290.373 74.7451C290.122 74.4626 289.719 74.3213 289.163 74.3213C288.539 74.3213 287.832 74.5127 287.044 74.8955L286.695 74.0273C287.064 73.8268 287.468 73.6696 287.905 73.5557C288.347 73.4417 288.789 73.3848 289.231 73.3848C290.125 73.3848 290.785 73.583 291.214 73.9795C291.647 74.376 291.863 75.0117 291.863 75.8867V81H291.022ZM288.459 80.2002C289.165 80.2002 289.719 80.0065 290.12 79.6191C290.526 79.2318 290.729 78.6895 290.729 77.9922V77.3154L289.594 77.3633C288.691 77.3952 288.04 77.5365 287.639 77.7871C287.242 78.0332 287.044 78.4183 287.044 78.9424C287.044 79.3525 287.167 79.6647 287.413 79.8789C287.664 80.0931 288.012 80.2002 288.459 80.2002ZM296.628 80.2002C296.828 80.2002 297.022 80.1865 297.209 80.1592C297.396 80.1273 297.544 80.0954 297.653 80.0635V80.9316C297.53 80.9909 297.348 81.0387 297.106 81.0752C296.869 81.1162 296.655 81.1367 296.464 81.1367C295.015 81.1367 294.29 80.3734 294.29 78.8467V74.3896H293.217V73.8428L294.29 73.3711L294.769 71.7715H295.425V73.5078H297.599V74.3896H295.425V78.7988C295.425 79.25 295.532 79.5964 295.746 79.8379C295.96 80.0794 296.254 80.2002 296.628 80.2002ZM301.885 84.3633C301.452 84.3633 301.101 84.3063 300.832 84.1924V83.2695C301.146 83.3607 301.456 83.4062 301.762 83.4062C302.117 83.4062 302.377 83.3083 302.541 83.1123C302.71 82.9209 302.794 82.627 302.794 82.2305V73.5078H303.929V82.1484C303.929 83.625 303.247 84.3633 301.885 84.3633ZM302.698 71.4775C302.698 71.2178 302.762 71.0286 302.89 70.9102C303.017 70.7871 303.177 70.7256 303.368 70.7256C303.55 70.7256 303.708 70.7871 303.84 70.9102C303.972 71.0332 304.038 71.2223 304.038 71.4775C304.038 71.7327 303.972 71.9242 303.84 72.0518C303.708 72.1748 303.55 72.2363 303.368 72.2363C303.177 72.2363 303.017 72.1748 302.89 72.0518C302.762 71.9242 302.698 71.7327 302.698 71.4775ZM312.802 77.2471C312.802 78.4684 312.494 79.4232 311.879 80.1113C311.264 80.7949 310.414 81.1367 309.329 81.1367C308.659 81.1367 308.064 80.9795 307.545 80.665C307.025 80.3506 306.624 79.8994 306.342 79.3115C306.059 78.7236 305.918 78.0355 305.918 77.2471C305.918 76.0257 306.223 75.0755 306.834 74.3965C307.445 73.7129 308.292 73.3711 309.377 73.3711C310.425 73.3711 311.257 73.7197 311.872 74.417C312.492 75.1143 312.802 76.0576 312.802 77.2471ZM307.094 77.2471C307.094 78.2041 307.285 78.9333 307.668 79.4346C308.051 79.9359 308.614 80.1865 309.356 80.1865C310.099 80.1865 310.662 79.9382 311.045 79.4414C311.432 78.9401 311.626 78.2087 311.626 77.2471C311.626 76.2946 311.432 75.5723 311.045 75.0801C310.662 74.5833 310.095 74.335 309.343 74.335C308.6 74.335 308.039 74.5788 307.661 75.0664C307.283 75.554 307.094 76.2809 307.094 77.2471ZM318.284 73.3848C319.269 73.3848 320.032 73.722 320.574 74.3965C321.121 75.0664 321.395 76.0166 321.395 77.2471C321.395 78.4775 321.119 79.4346 320.567 80.1182C320.021 80.7972 319.259 81.1367 318.284 81.1367C317.797 81.1367 317.35 81.0479 316.944 80.8701C316.543 80.6878 316.206 80.4098 315.933 80.0361H315.851L315.611 81H314.798V70.3633H315.933V72.9473C315.933 73.526 315.914 74.0456 315.878 74.5059H315.933C316.461 73.7585 317.245 73.3848 318.284 73.3848ZM318.12 74.335C317.345 74.335 316.787 74.5583 316.445 75.0049C316.104 75.4469 315.933 76.1943 315.933 77.2471C315.933 78.2998 316.108 79.054 316.459 79.5098C316.81 79.9609 317.373 80.1865 318.147 80.1865C318.845 80.1865 319.364 79.9336 319.706 79.4277C320.048 78.9173 320.219 78.1859 320.219 77.2334C320.219 76.2581 320.048 75.5312 319.706 75.0527C319.364 74.5742 318.836 74.335 318.12 74.335ZM328.046 78.2451H327.328L326.979 71.0059H328.395L328.046 78.2451ZM326.856 80.2754C326.856 79.6556 327.13 79.3457 327.677 79.3457C327.941 79.3457 328.144 79.4255 328.285 79.585C328.431 79.7445 328.504 79.9746 328.504 80.2754C328.504 80.5671 328.431 80.7949 328.285 80.959C328.139 81.1185 327.937 81.1982 327.677 81.1982C327.44 81.1982 327.244 81.1276 327.089 80.9863C326.934 80.8405 326.856 80.6035 326.856 80.2754Z" fill="#00B3A8"/>
<defs>
<linearGradient id="paint0_linear_2836_86015" x1="590" y1="96" x2="559.565" y2="-91.0479" gradientUnits="userSpaceOnUse">
<stop stop-color="#40E0CF"/>
<stop offset="1" stop-color="#36CDCF"/>
</linearGradient>
<linearGradient id="paint1_linear_2836_86015" x1="319" y1="40" x2="289" y2="10" gradientUnits="userSpaceOnUse">
<stop stop-color="#40E0CF"/>
<stop offset="1" stop-color="#36CDCF"/>
</linearGradient>
<linearGradient id="paint2_linear_2836_86015" x1="7.78427" y1="24.4908" x2="37.703" y2="90.3676" gradientUnits="userSpaceOnUse">
<stop stop-color="#40E0CF"/>
<stop offset="1" stop-color="#36CDCF"/>
</linearGradient>
<linearGradient id="paint3_linear_2836_86015" x1="607.085" y1="65.2441" x2="569.297" y2="-17.2365" gradientUnits="userSpaceOnUse">
<stop stop-color="#40E0CF"/>
<stop offset="1" stop-color="#36CDCF"/>
</linearGradient>
</defs>
</svg>
