<svg width="20" height="20" viewBox="0 0 20 20" fill="none" xmlns="http://www.w3.org/2000/svg">
<g clip-path="url(#clip0_4811_125189)">
<path fill-rule="evenodd" clip-rule="evenodd" d="M6.29289 3.29289C6.48043 3.10536 6.73478 3 7 3H13C13.2652 3 13.5196 3.10536 13.7071 3.29289C13.8946 3.48043 14 3.73478 14 4C14 4.26522 13.8946 4.51957 13.7071 4.70711C13.5196 4.89464 13.2652 5 13 5H7C6.73478 5 6.48043 4.89464 6.29289 4.70711C6.10536 4.51957 6 4.26522 6 4C6 3.73478 6.10536 3.48043 6.29289 3.29289ZM4.29289 6.29289C4.10536 6.48043 4 6.73478 4 7C4 7.26522 4.10536 7.51957 4.29289 7.70711C4.48043 7.89464 4.73478 8 5 8H15C15.2652 8 15.5196 7.89464 15.7071 7.70711C15.8946 7.51957 16 7.26522 16 7C16 6.73478 15.8946 6.48043 15.7071 6.29289C15.5196 6.10536 15.2652 6 15 6H5C4.73478 6 4.48043 6.10536 4.29289 6.29289ZM2.58579 9.58579C2.21071 9.96086 2 10.4696 2 11V15C2 15.5304 2.21071 16.0391 2.58579 16.4142C2.96086 16.7893 3.46957 17 4 17H11V13C11 11.8954 11.8954 11 13 11H18C18 10.4696 17.7893 9.96086 17.4142 9.58579C17.0391 9.21071 16.5304 9 16 9H4C3.46957 9 2.96086 9.21071 2.58579 9.58579Z" fill="url(#paint0_linear_4811_125189)"/>
<path d="M14.5 12C14.3674 12 14.2402 12.0527 14.1464 12.1464C14.0527 12.2402 14 12.3674 14 12.5C14 12.6326 14.0527 12.7598 14.1464 12.8536C14.2402 12.9473 14.3674 13 14.5 13H15.5C15.6326 13 15.7598 12.9473 15.8536 12.8536C15.9473 12.7598 16 12.6326 16 12.5C16 12.3674 15.9473 12.2402 15.8536 12.1464C15.7598 12.0527 15.6326 12 15.5 12H14.5Z" fill="url(#paint1_linear_4811_125189)"/>
<path fill-rule="evenodd" clip-rule="evenodd" d="M12 13.5C12 13.2348 12.1054 12.9804 12.2929 12.7929C12.4804 12.6054 12.7348 12.5 13 12.5C13 12.8978 13.158 13.2794 13.4393 13.5607C13.7206 13.842 14.1022 14 14.5 14H15.5C15.8978 14 16.2794 13.842 16.5607 13.5607C16.842 13.2794 17 12.8978 17 12.5C17.2652 12.5 17.5196 12.6054 17.7071 12.7929C17.8946 12.9804 18 13.2348 18 13.5V19C18 19.2652 17.8946 19.5196 17.7071 19.7071C17.5196 19.8946 17.2652 20 17 20H13C12.7348 20 12.4804 19.8946 12.2929 19.7071C12.1054 19.5196 12 19.2652 12 19V13.5ZM13.5 15.5C13.3674 15.5 13.2402 15.5527 13.1464 15.6464C13.0527 15.7402 13 15.8674 13 16C13 16.1326 13.0527 16.2598 13.1464 16.3536C13.2402 16.4473 13.3674 16.5 13.5 16.5H13.505C13.6376 16.5 13.7648 16.4473 13.8586 16.3536C13.9523 16.2598 14.005 16.1326 14.005 16C14.005 15.8674 13.9523 15.7402 13.8586 15.6464C13.7648 15.5527 13.6376 15.5 13.505 15.5H13.5ZM15 15.5C14.8674 15.5 14.7402 15.5527 14.6464 15.6464C14.5527 15.7402 14.5 15.8674 14.5 16C14.5 16.1326 14.5527 16.2598 14.6464 16.3536C14.7402 16.4473 14.8674 16.5 15 16.5H16.5C16.6326 16.5 16.7598 16.4473 16.8536 16.3536C16.9473 16.2598 17 16.1326 17 16C17 15.8674 16.9473 15.7402 16.8536 15.6464C16.7598 15.5527 16.6326 15.5 16.5 15.5H15ZM13.5 17.5C13.3674 17.5 13.2402 17.5527 13.1464 17.6464C13.0527 17.7402 13 17.8674 13 18C13 18.1326 13.0527 18.2598 13.1464 18.3536C13.2402 18.4473 13.3674 18.5 13.5 18.5H13.505C13.6376 18.5 13.7648 18.4473 13.8586 18.3536C13.9523 18.2598 14.005 18.1326 14.005 18C14.005 17.8674 13.9523 17.7402 13.8586 17.6464C13.7648 17.5527 13.6376 17.5 13.505 17.5H13.5ZM15 17.5C14.8674 17.5 14.7402 17.5527 14.6464 17.6464C14.5527 17.7402 14.5 17.8674 14.5 18C14.5 18.1326 14.5527 18.2598 14.6464 18.3536C14.7402 18.4473 14.8674 18.5 15 18.5H16.5C16.6326 18.5 16.7598 18.4473 16.8536 18.3536C16.9473 18.2598 17 18.1326 17 18C17 17.8674 16.9473 17.7402 16.8536 17.6464C16.7598 17.5527 16.6326 17.5 16.5 17.5H15Z" fill="url(#paint2_linear_4811_125189)"/>
</g>
<defs>
<linearGradient id="paint0_linear_4811_125189" x1="-0.4" y1="3" x2="23.4032" y2="11.0665" gradientUnits="userSpaceOnUse">
<stop stop-color="#A282E8"/>
<stop offset="0.484375" stop-color="#7E8EE7"/>
<stop offset="1" stop-color="#4499E9"/>
</linearGradient>
<linearGradient id="paint1_linear_4811_125189" x1="13.7" y1="12" x2="16.154" y2="13.4553" gradientUnits="userSpaceOnUse">
<stop stop-color="#A282E8"/>
<stop offset="0.484375" stop-color="#7E8EE7"/>
<stop offset="1" stop-color="#4499E9"/>
</linearGradient>
<linearGradient id="paint2_linear_4811_125189" x1="11.1" y1="12.5" x2="20.5212" y2="14.7349" gradientUnits="userSpaceOnUse">
<stop stop-color="#A282E8"/>
<stop offset="0.484375" stop-color="#7E8EE7"/>
<stop offset="1" stop-color="#4499E9"/>
</linearGradient>
<clipPath id="clip0_4811_125189">
<rect width="20" height="20" fill="white"/>
</clipPath>
</defs>
</svg>
