<svg width="590" height="96" viewBox="0 0 590 96" fill="none" xmlns="http://www.w3.org/2000/svg">
<rect width="590" height="96" rx="20" fill="url(#paint0_linear_3025_89981)" fill-opacity="0.1"/>
<path fill-rule="evenodd" clip-rule="evenodd" d="M93 43C68.1491 43 48.6386 26.0121 44.231 1.38694C44.1487 0.92727 44 0 44 0L68.6243 0.000452087C68.6243 0.000452087 68.7862 0.555898 68.8725 0.828952C72.5233 12.3882 82.4395 18.3654 93 18.3654C103.578 18.3654 113.51 12.4932 117.146 0.848072C117.233 0.568703 117.396 0.000152977 117.396 0.000152977L142 0C142 0 141.876 0.775207 141.809 1.16005C137.481 25.9077 117.927 43 93 43Z" fill="url(#paint1_linear_3025_89981)" fill-opacity="0.2"/>
<path fill-rule="evenodd" clip-rule="evenodd" d="M501 42C531.937 42 556.225 63.3336 561.712 94.2583C561.815 94.8355 562 96 562 96L531.345 95.9994C531.345 95.9994 531.144 95.3019 531.036 94.959C526.491 80.4427 514.147 72.9365 501 72.9365C487.831 72.9365 475.468 80.3108 470.941 94.935C470.832 95.2858 470.629 95.9998 470.629 95.9998L440 96C440 96 440.154 95.0265 440.238 94.5432C445.626 63.4647 469.968 42 501 42Z" fill="url(#paint2_linear_3025_89981)" fill-opacity="0.2"/>
<circle cx="296" cy="32" r="15" fill="url(#paint3_linear_3025_89981)"/>
<path d="M304.758 30.3833L303.433 36.125L297.708 34.8L300.875 32.8167C299.7 30.9167 297.6 29.6667 295.208 29.6667C291.917 29.6667 289.183 32.05 288.642 35.1917L287 34.9C287.675 30.9833 291.092 28 295.208 28C298.192 28 300.817 29.575 302.292 31.9333L304.758 30.3833Z" fill="white"/>
<path d="M194.328 74H191.906V64.5938H188.805V62.5781H197.43V64.5938H194.328V74ZM207.062 74H204.68V68.8984C204.68 67.638 204.211 67.0078 203.273 67.0078C202.607 67.0078 202.125 67.2344 201.828 67.6875C201.531 68.1406 201.383 68.875 201.383 69.8906V74H199V61.8438H201.383V64.3203C201.383 64.513 201.365 64.9661 201.328 65.6797L201.273 66.3828H201.398C201.93 65.5286 202.773 65.1016 203.93 65.1016C204.956 65.1016 205.734 65.3776 206.266 65.9297C206.797 66.4818 207.062 67.2734 207.062 68.3047V74ZM209.414 63.0078C209.414 62.2318 209.846 61.8438 210.711 61.8438C211.576 61.8438 212.008 62.2318 212.008 63.0078C212.008 63.3776 211.898 63.6667 211.68 63.875C211.466 64.0781 211.143 64.1797 210.711 64.1797C209.846 64.1797 209.414 63.7891 209.414 63.0078ZM211.898 74H209.516V65.2656H211.898V74ZM220.5 71.4062C220.5 72.3021 220.188 72.9844 219.562 73.4531C218.943 73.9219 218.013 74.1562 216.773 74.1562C216.138 74.1562 215.596 74.112 215.148 74.0234C214.701 73.9401 214.281 73.8151 213.891 73.6484V71.6797C214.333 71.888 214.831 72.0625 215.383 72.2031C215.94 72.3438 216.43 72.4141 216.852 72.4141C217.716 72.4141 218.148 72.1641 218.148 71.6641C218.148 71.4766 218.091 71.3255 217.977 71.2109C217.862 71.0911 217.664 70.9583 217.383 70.8125C217.102 70.6615 216.727 70.487 216.258 70.2891C215.586 70.0078 215.091 69.7474 214.773 69.5078C214.461 69.2682 214.232 68.9948 214.086 68.6875C213.945 68.375 213.875 67.9922 213.875 67.5391C213.875 66.763 214.174 66.1641 214.773 65.7422C215.378 65.3151 216.232 65.1016 217.336 65.1016C218.388 65.1016 219.411 65.3307 220.406 65.7891L219.688 67.5078C219.25 67.3203 218.841 67.1667 218.461 67.0469C218.081 66.9271 217.693 66.8672 217.297 66.8672C216.594 66.8672 216.242 67.0573 216.242 67.4375C216.242 67.651 216.354 67.8359 216.578 67.9922C216.807 68.1484 217.305 68.3802 218.07 68.6875C218.753 68.9635 219.253 69.2214 219.57 69.4609C219.888 69.7005 220.122 69.9766 220.273 70.2891C220.424 70.6016 220.5 70.974 220.5 71.4062ZM230.195 72.2578C230.612 72.2578 231.112 72.1667 231.695 71.9844V73.7578C231.102 74.0234 230.372 74.1562 229.508 74.1562C228.555 74.1562 227.859 73.9167 227.422 73.4375C226.99 72.9531 226.773 72.2292 226.773 71.2656V67.0547H225.633V66.0469L226.945 65.25L227.633 63.4062H229.156V65.2656H231.602V67.0547H229.156V71.2656C229.156 71.6042 229.25 71.8542 229.438 72.0156C229.63 72.1771 229.883 72.2578 230.195 72.2578ZM239.016 74L238.555 72.8125H238.492C238.091 73.3177 237.677 73.6693 237.25 73.8672C236.828 74.0599 236.276 74.1562 235.594 74.1562C234.755 74.1562 234.094 73.9167 233.609 73.4375C233.13 72.9583 232.891 72.276 232.891 71.3906C232.891 70.4635 233.214 69.7812 233.859 69.3438C234.51 68.901 235.49 68.6562 236.797 68.6094L238.312 68.5625V68.1797C238.312 67.2943 237.859 66.8516 236.953 66.8516C236.255 66.8516 235.435 67.0625 234.492 67.4844L233.703 65.875C234.708 65.349 235.823 65.0859 237.047 65.0859C238.219 65.0859 239.117 65.3411 239.742 65.8516C240.367 66.362 240.68 67.138 240.68 68.1797V74H239.016ZM238.312 69.9531L237.391 69.9844C236.698 70.0052 236.182 70.1302 235.844 70.3594C235.505 70.5885 235.336 70.9375 235.336 71.4062C235.336 72.0781 235.721 72.4141 236.492 72.4141C237.044 72.4141 237.484 72.2552 237.812 71.9375C238.146 71.6198 238.312 71.1979 238.312 70.6719V69.9531ZM249.234 71.4062C249.234 72.3021 248.922 72.9844 248.297 73.4531C247.677 73.9219 246.747 74.1562 245.508 74.1562C244.872 74.1562 244.331 74.112 243.883 74.0234C243.435 73.9401 243.016 73.8151 242.625 73.6484V71.6797C243.068 71.888 243.565 72.0625 244.117 72.2031C244.674 72.3438 245.164 72.4141 245.586 72.4141C246.451 72.4141 246.883 72.1641 246.883 71.6641C246.883 71.4766 246.826 71.3255 246.711 71.2109C246.596 71.0911 246.398 70.9583 246.117 70.8125C245.836 70.6615 245.461 70.487 244.992 70.2891C244.32 70.0078 243.826 69.7474 243.508 69.5078C243.195 69.2682 242.966 68.9948 242.82 68.6875C242.68 68.375 242.609 67.9922 242.609 67.5391C242.609 66.763 242.909 66.1641 243.508 65.7422C244.112 65.3151 244.966 65.1016 246.07 65.1016C247.122 65.1016 248.146 65.3307 249.141 65.7891L248.422 67.5078C247.984 67.3203 247.576 67.1667 247.195 67.0469C246.815 66.9271 246.427 66.8672 246.031 66.8672C245.328 66.8672 244.977 67.0573 244.977 67.4375C244.977 67.651 245.089 67.8359 245.312 67.9922C245.542 68.1484 246.039 68.3802 246.805 68.6875C247.487 68.9635 247.987 69.2214 248.305 69.4609C248.622 69.7005 248.857 69.9766 249.008 70.2891C249.159 70.6016 249.234 70.974 249.234 71.4062ZM253.383 69.25L254.422 67.9219L256.867 65.2656H259.555L256.086 69.0547L259.766 74H257.016L254.5 70.4609L253.477 71.2812V74H251.094V61.8438H253.477V67.2656L253.352 69.25H253.383ZM273.234 74H270.852V68.8984C270.852 67.638 270.383 67.0078 269.445 67.0078C268.779 67.0078 268.297 67.2344 268 67.6875C267.703 68.1406 267.555 68.875 267.555 69.8906V74H265.172V61.8438H267.555V64.3203C267.555 64.513 267.536 64.9661 267.5 65.6797L267.445 66.3828H267.57C268.102 65.5286 268.945 65.1016 270.102 65.1016C271.128 65.1016 271.906 65.3776 272.438 65.9297C272.969 66.4818 273.234 67.2734 273.234 68.3047V74ZM281.234 74L280.773 72.8125H280.711C280.31 73.3177 279.896 73.6693 279.469 73.8672C279.047 74.0599 278.495 74.1562 277.812 74.1562C276.974 74.1562 276.312 73.9167 275.828 73.4375C275.349 72.9583 275.109 72.276 275.109 71.3906C275.109 70.4635 275.432 69.7812 276.078 69.3438C276.729 68.901 277.708 68.6562 279.016 68.6094L280.531 68.5625V68.1797C280.531 67.2943 280.078 66.8516 279.172 66.8516C278.474 66.8516 277.654 67.0625 276.711 67.4844L275.922 65.875C276.927 65.349 278.042 65.0859 279.266 65.0859C280.438 65.0859 281.336 65.3411 281.961 65.8516C282.586 66.362 282.898 67.138 282.898 68.1797V74H281.234ZM280.531 69.9531L279.609 69.9844C278.917 70.0052 278.401 70.1302 278.062 70.3594C277.724 70.5885 277.555 70.9375 277.555 71.4062C277.555 72.0781 277.94 72.4141 278.711 72.4141C279.263 72.4141 279.703 72.2552 280.031 71.9375C280.365 71.6198 280.531 71.1979 280.531 70.6719V69.9531ZM291.453 71.4062C291.453 72.3021 291.141 72.9844 290.516 73.4531C289.896 73.9219 288.966 74.1562 287.727 74.1562C287.091 74.1562 286.549 74.112 286.102 74.0234C285.654 73.9401 285.234 73.8151 284.844 73.6484V71.6797C285.286 71.888 285.784 72.0625 286.336 72.2031C286.893 72.3438 287.383 72.4141 287.805 72.4141C288.669 72.4141 289.102 72.1641 289.102 71.6641C289.102 71.4766 289.044 71.3255 288.93 71.2109C288.815 71.0911 288.617 70.9583 288.336 70.8125C288.055 70.6615 287.68 70.487 287.211 70.2891C286.539 70.0078 286.044 69.7474 285.727 69.5078C285.414 69.2682 285.185 68.9948 285.039 68.6875C284.898 68.375 284.828 67.9922 284.828 67.5391C284.828 66.763 285.128 66.1641 285.727 65.7422C286.331 65.3151 287.185 65.1016 288.289 65.1016C289.341 65.1016 290.365 65.3307 291.359 65.7891L290.641 67.5078C290.203 67.3203 289.794 67.1667 289.414 67.0469C289.034 66.9271 288.646 66.8672 288.25 66.8672C287.547 66.8672 287.195 67.0573 287.195 67.4375C287.195 67.651 287.307 67.8359 287.531 67.9922C287.76 68.1484 288.258 68.3802 289.023 68.6875C289.706 68.9635 290.206 69.2214 290.523 69.4609C290.841 69.7005 291.076 69.9766 291.227 70.2891C291.378 70.6016 291.453 70.974 291.453 71.4062ZM302.328 65.1016C303.359 65.1016 304.167 65.5052 304.75 66.3125C305.333 67.1146 305.625 68.2161 305.625 69.6172C305.625 71.0599 305.323 72.1771 304.719 72.9688C304.12 73.7604 303.302 74.1562 302.266 74.1562C301.24 74.1562 300.435 73.7839 299.852 73.0391H299.688L299.289 74H297.469V61.8438H299.852V64.6719C299.852 65.0312 299.82 65.6068 299.758 66.3984H299.852C300.409 65.5339 301.234 65.1016 302.328 65.1016ZM301.562 67.0078C300.974 67.0078 300.544 67.1901 300.273 67.5547C300.003 67.9141 299.862 68.5104 299.852 69.3438V69.6016C299.852 70.5391 299.99 71.2109 300.266 71.6172C300.547 72.0234 300.99 72.2266 301.594 72.2266C302.083 72.2266 302.471 72.0026 302.758 71.5547C303.049 71.1016 303.195 70.4453 303.195 69.5859C303.195 68.7266 303.049 68.0833 302.758 67.6562C302.466 67.224 302.068 67.0078 301.562 67.0078ZM311.211 66.7969C310.706 66.7969 310.31 66.9583 310.023 67.2812C309.737 67.599 309.573 68.0521 309.531 68.6406H312.875C312.865 68.0521 312.711 67.599 312.414 67.2812C312.117 66.9583 311.716 66.7969 311.211 66.7969ZM311.547 74.1562C310.141 74.1562 309.042 73.7682 308.25 72.9922C307.458 72.2161 307.062 71.1172 307.062 69.6953C307.062 68.2318 307.427 67.1016 308.156 66.3047C308.891 65.5026 309.904 65.1016 311.195 65.1016C312.43 65.1016 313.391 65.4531 314.078 66.1562C314.766 66.8594 315.109 67.8307 315.109 69.0703V70.2266H309.477C309.503 70.9036 309.703 71.4323 310.078 71.8125C310.453 72.1927 310.979 72.3828 311.656 72.3828C312.182 72.3828 312.68 72.3281 313.148 72.2188C313.617 72.1094 314.107 71.9349 314.617 71.6953V73.5391C314.201 73.7474 313.755 73.901 313.281 74C312.807 74.1042 312.229 74.1562 311.547 74.1562ZM320.664 66.7969C320.159 66.7969 319.763 66.9583 319.477 67.2812C319.19 67.599 319.026 68.0521 318.984 68.6406H322.328C322.318 68.0521 322.164 67.599 321.867 67.2812C321.57 66.9583 321.169 66.7969 320.664 66.7969ZM321 74.1562C319.594 74.1562 318.495 73.7682 317.703 72.9922C316.911 72.2161 316.516 71.1172 316.516 69.6953C316.516 68.2318 316.88 67.1016 317.609 66.3047C318.344 65.5026 319.357 65.1016 320.648 65.1016C321.883 65.1016 322.844 65.4531 323.531 66.1562C324.219 66.8594 324.562 67.8307 324.562 69.0703V70.2266H318.93C318.956 70.9036 319.156 71.4323 319.531 71.8125C319.906 72.1927 320.432 72.3828 321.109 72.3828C321.635 72.3828 322.133 72.3281 322.602 72.2188C323.07 72.1094 323.56 71.9349 324.07 71.6953V73.5391C323.654 73.7474 323.208 73.901 322.734 74C322.26 74.1042 321.682 74.1562 321 74.1562ZM334.562 74H332.18V68.8984C332.18 68.2682 332.068 67.7969 331.844 67.4844C331.62 67.1667 331.263 67.0078 330.773 67.0078C330.107 67.0078 329.625 67.2318 329.328 67.6797C329.031 68.1224 328.883 68.8594 328.883 69.8906V74H326.5V65.2656H328.32L328.641 66.3828H328.773C329.039 65.9609 329.404 65.6432 329.867 65.4297C330.336 65.2109 330.867 65.1016 331.461 65.1016C332.477 65.1016 333.247 65.3776 333.773 65.9297C334.299 66.4766 334.562 67.2682 334.562 68.3047V74ZM347.266 71.4062C347.266 72.3021 346.953 72.9844 346.328 73.4531C345.708 73.9219 344.779 74.1562 343.539 74.1562C342.904 74.1562 342.362 74.112 341.914 74.0234C341.466 73.9401 341.047 73.8151 340.656 73.6484V71.6797C341.099 71.888 341.596 72.0625 342.148 72.2031C342.706 72.3438 343.195 72.4141 343.617 72.4141C344.482 72.4141 344.914 72.1641 344.914 71.6641C344.914 71.4766 344.857 71.3255 344.742 71.2109C344.628 71.0911 344.43 70.9583 344.148 70.8125C343.867 70.6615 343.492 70.487 343.023 70.2891C342.352 70.0078 341.857 69.7474 341.539 69.5078C341.227 69.2682 340.997 68.9948 340.852 68.6875C340.711 68.375 340.641 67.9922 340.641 67.5391C340.641 66.763 340.94 66.1641 341.539 65.7422C342.143 65.3151 342.997 65.1016 344.102 65.1016C345.154 65.1016 346.177 65.3307 347.172 65.7891L346.453 67.5078C346.016 67.3203 345.607 67.1667 345.227 67.0469C344.846 66.9271 344.458 66.8672 344.062 66.8672C343.359 66.8672 343.008 67.0573 343.008 67.4375C343.008 67.651 343.12 67.8359 343.344 67.9922C343.573 68.1484 344.07 68.3802 344.836 68.6875C345.518 68.9635 346.018 69.2214 346.336 69.4609C346.654 69.7005 346.888 69.9766 347.039 70.2891C347.19 70.6016 347.266 70.974 347.266 71.4062ZM351.414 69.25L352.453 67.9219L354.898 65.2656H357.586L354.117 69.0547L357.797 74H355.047L352.531 70.4609L351.508 71.2812V74H349.125V61.8438H351.508V67.2656L351.383 69.25H351.414ZM358.945 63.0078C358.945 62.2318 359.378 61.8438 360.242 61.8438C361.107 61.8438 361.539 62.2318 361.539 63.0078C361.539 63.3776 361.43 63.6667 361.211 63.875C360.997 64.0781 360.674 64.1797 360.242 64.1797C359.378 64.1797 358.945 63.7891 358.945 63.0078ZM361.43 74H359.047V65.2656H361.43V74ZM368.734 74.1562C367.708 74.1562 366.904 73.7839 366.32 73.0391H366.195C366.279 73.7682 366.32 74.1901 366.32 74.3047V77.8438H363.938V65.2656H365.875L366.211 66.3984H366.32C366.878 65.5339 367.703 65.1016 368.797 65.1016C369.828 65.1016 370.635 65.5 371.219 66.2969C371.802 67.0938 372.094 68.2005 372.094 69.6172C372.094 70.5495 371.956 71.3594 371.68 72.0469C371.409 72.7344 371.021 73.2578 370.516 73.6172C370.01 73.9766 369.417 74.1562 368.734 74.1562ZM368.031 67.0078C367.443 67.0078 367.013 67.1901 366.742 67.5547C366.471 67.9141 366.331 68.5104 366.32 69.3438V69.6016C366.32 70.5391 366.458 71.2109 366.734 71.6172C367.016 72.0234 367.458 72.2266 368.062 72.2266C369.13 72.2266 369.664 71.3464 369.664 69.5859C369.664 68.7266 369.531 68.0833 369.266 67.6562C369.005 67.224 368.594 67.0078 368.031 67.0078ZM378.859 74.1562C377.833 74.1562 377.029 73.7839 376.445 73.0391H376.32C376.404 73.7682 376.445 74.1901 376.445 74.3047V77.8438H374.062V65.2656H376L376.336 66.3984H376.445C377.003 65.5339 377.828 65.1016 378.922 65.1016C379.953 65.1016 380.76 65.5 381.344 66.2969C381.927 67.0938 382.219 68.2005 382.219 69.6172C382.219 70.5495 382.081 71.3594 381.805 72.0469C381.534 72.7344 381.146 73.2578 380.641 73.6172C380.135 73.9766 379.542 74.1562 378.859 74.1562ZM378.156 67.0078C377.568 67.0078 377.138 67.1901 376.867 67.5547C376.596 67.9141 376.456 68.5104 376.445 69.3438V69.6016C376.445 70.5391 376.583 71.2109 376.859 71.6172C377.141 72.0234 377.583 72.2266 378.188 72.2266C379.255 72.2266 379.789 71.3464 379.789 69.5859C379.789 68.7266 379.656 68.0833 379.391 67.6562C379.13 67.224 378.719 67.0078 378.156 67.0078ZM387.805 66.7969C387.299 66.7969 386.904 66.9583 386.617 67.2812C386.331 67.599 386.167 68.0521 386.125 68.6406H389.469C389.458 68.0521 389.305 67.599 389.008 67.2812C388.711 66.9583 388.31 66.7969 387.805 66.7969ZM388.141 74.1562C386.734 74.1562 385.635 73.7682 384.844 72.9922C384.052 72.2161 383.656 71.1172 383.656 69.6953C383.656 68.2318 384.021 67.1016 384.75 66.3047C385.484 65.5026 386.497 65.1016 387.789 65.1016C389.023 65.1016 389.984 65.4531 390.672 66.1562C391.359 66.8594 391.703 67.8307 391.703 69.0703V70.2266H386.07C386.096 70.9036 386.297 71.4323 386.672 71.8125C387.047 72.1927 387.573 72.3828 388.25 72.3828C388.776 72.3828 389.273 72.3281 389.742 72.2188C390.211 72.1094 390.701 71.9349 391.211 71.6953V73.5391C390.794 73.7474 390.349 73.901 389.875 74C389.401 74.1042 388.823 74.1562 388.141 74.1562ZM396.406 74.1562C395.38 74.1562 394.573 73.7578 393.984 72.9609C393.401 72.1641 393.109 71.0599 393.109 69.6484C393.109 68.2161 393.406 67.1016 394 66.3047C394.599 65.5026 395.422 65.1016 396.469 65.1016C397.568 65.1016 398.406 65.5286 398.984 66.3828H399.062C398.943 65.7318 398.883 65.151 398.883 64.6406V61.8438H401.273V74H399.445L398.984 72.8672H398.883C398.341 73.7266 397.516 74.1562 396.406 74.1562ZM397.242 72.2578C397.852 72.2578 398.297 72.0807 398.578 71.7266C398.865 71.3724 399.021 70.7708 399.047 69.9219V69.6641C399.047 68.7266 398.901 68.0547 398.609 67.6484C398.323 67.2422 397.854 67.0391 397.203 67.0391C396.672 67.0391 396.258 67.2656 395.961 67.7188C395.669 68.1667 395.523 68.8203 395.523 69.6797C395.523 70.5391 395.672 71.1849 395.969 71.6172C396.266 72.0443 396.69 72.2578 397.242 72.2578Z" fill="#FFB12A"/>
<defs>
<linearGradient id="paint0_linear_3025_89981" x1="0" y1="0" x2="30.4349" y2="187.048" gradientUnits="userSpaceOnUse">
<stop stop-color="#FFCF4F"/>
<stop offset="1" stop-color="#FF9B4A"/>
</linearGradient>
<linearGradient id="paint1_linear_3025_89981" x1="44" y1="0" x2="75.6427" y2="72.116" gradientUnits="userSpaceOnUse">
<stop stop-color="#FFCF4F"/>
<stop offset="1" stop-color="#FF9B4A"/>
</linearGradient>
<linearGradient id="paint2_linear_3025_89981" x1="562" y1="96" x2="522.028" y2="5.69259" gradientUnits="userSpaceOnUse">
<stop stop-color="#FFCF4F"/>
<stop offset="1" stop-color="#FF9B4A"/>
</linearGradient>
<linearGradient id="paint3_linear_3025_89981" x1="281" y1="17" x2="311" y2="47" gradientUnits="userSpaceOnUse">
<stop stop-color="#FFCF4F"/>
<stop offset="1" stop-color="#FF9B4A"/>
</linearGradient>
</defs>
</svg>
