<svg width="18" height="18" viewBox="0 0 18 18" fill="none" xmlns="http://www.w3.org/2000/svg">
<path d="M0.25 1.5C0.25 1.16848 0.381696 0.850537 0.616116 0.616116C0.850537 0.381696 1.16848 0.25 1.5 0.25H16.5C16.8315 0.25 17.1495 0.381696 17.3839 0.616116C17.6183 0.850537 17.75 1.16848 17.75 1.5V4C17.75 4.33152 17.6183 4.64946 17.3839 4.88388C17.1495 5.1183 16.8315 5.25 16.5 5.25H1.5C1.16848 5.25 0.850537 5.1183 0.616116 4.88388C0.381696 4.64946 0.25 4.33152 0.25 4V1.5ZM0.25 9C0.25 8.66848 0.381696 8.35054 0.616116 8.11612C0.850537 7.8817 1.16848 7.75 1.5 7.75H9C9.33152 7.75 9.64946 7.8817 9.88388 8.11612C10.1183 8.35054 10.25 8.66848 10.25 9V16.5C10.25 16.8315 10.1183 17.1495 9.88388 17.3839C9.64946 17.6183 9.33152 17.75 9 17.75H1.5C1.16848 17.75 0.850537 17.6183 0.616116 17.3839C0.381696 17.1495 0.25 16.8315 0.25 16.5V9ZM14 7.75C13.6685 7.75 13.3505 7.8817 13.1161 8.11612C12.8817 8.35054 12.75 8.66848 12.75 9V16.5C12.75 16.8315 12.8817 17.1495 13.1161 17.3839C13.3505 17.6183 13.6685 17.75 14 17.75H16.5C16.8315 17.75 17.1495 17.6183 17.3839 17.3839C17.6183 17.1495 17.75 16.8315 17.75 16.5V9C17.75 8.66848 17.6183 8.35054 17.3839 8.11612C17.1495 7.8817 16.8315 7.75 16.5 7.75H14Z" fill="currentColor"/>
</svg>
