<svg width="5" height="17" viewBox="0 0 5 17" fill="none" xmlns="http://www.w3.org/2000/svg">
<path d="M2.78125 12.8213C3.31168 12.8213 3.82039 13.032 4.19546 13.4071C4.57054 13.7821 4.78125 14.2909 4.78125 14.8213C4.78125 15.3517 4.57054 15.8604 4.19546 16.2355C3.82039 16.6106 3.31168 16.8213 2.78125 16.8213C2.25082 16.8213 1.74211 16.6106 1.36704 16.2355C0.991964 15.8604 0.78125 15.3517 0.78125 14.8213C0.78125 14.2909 0.991964 13.7821 1.36704 13.4071C1.74211 13.032 2.25082 12.8213 2.78125 12.8213ZM2.78125 6.82129C3.31168 6.82129 3.82039 7.032 4.19546 7.40708C4.57054 7.78215 4.78125 8.29086 4.78125 8.82129C4.78125 9.35172 4.57054 9.86043 4.19546 10.2355C3.82039 10.6106 3.31168 10.8213 2.78125 10.8213C2.25082 10.8213 1.74211 10.6106 1.36704 10.2355C0.991964 9.86043 0.78125 9.35172 0.78125 8.82129C0.78125 8.29086 0.991964 7.78215 1.36704 7.40708C1.74211 7.032 2.25082 6.82129 2.78125 6.82129ZM2.78125 0.821289C3.31168 0.821289 3.82039 1.032 4.19546 1.40708C4.57054 1.78215 4.78125 2.29086 4.78125 2.82129C4.78125 3.35172 4.57054 3.86043 4.19546 4.2355C3.82039 4.61058 3.31168 4.82129 2.78125 4.82129C2.25082 4.82129 1.74211 4.61058 1.36704 4.2355C0.991964 3.86043 0.78125 3.35172 0.78125 2.82129C0.78125 2.29086 0.991964 1.78215 1.36704 1.40708C1.74211 1.032 2.25082 0.821289 2.78125 0.821289Z" fill="currentColor"/>
</svg>
