<svg width="19" height="13" viewBox="0 0 19 13" fill="none" xmlns="http://www.w3.org/2000/svg">
<path fill-rule="evenodd" clip-rule="evenodd" d="M17.8835 0.616471C18.1179 0.850881 18.2495 1.16877 18.2495 1.50022C18.2495 1.83168 18.1179 2.14956 17.8835 2.38397L7.88353 12.384C7.64912 12.6183 7.33123 12.75 6.99978 12.75C6.66832 12.75 6.35044 12.6183 6.11603 12.384L1.11603 7.38397C0.888329 7.14822 0.762336 6.83246 0.765184 6.50472C0.768032 6.17697 0.899493 5.86346 1.13125 5.6317C1.36301 5.39994 1.67653 5.26848 2.00427 5.26563C2.33202 5.26278 2.64777 5.38877 2.88353 5.61647L6.99978 9.73272L16.116 0.616471C16.3504 0.382133 16.6683 0.250488 16.9998 0.250488C17.3312 0.250488 17.6491 0.382133 17.8835 0.616471Z" fill="currentColor"/>
</svg>
