<svg width="17" height="16" viewBox="0 0 17 16" fill="none" xmlns="http://www.w3.org/2000/svg">
<rect x="0.5" width="16" height="16" rx="8" fill="url(#paint0_linear_4358_103158)"/>
<path fill-rule="evenodd" clip-rule="evenodd" d="M12.0763 5.48818C12.1763 5.5882 12.2325 5.72383 12.2325 5.86525C12.2325 6.00667 12.1763 6.1423 12.0763 6.24232L7.80964 10.509C7.70963 10.609 7.57399 10.6651 7.43257 10.6651C7.29115 10.6651 7.15552 10.609 7.05551 10.509L4.92217 8.37565C4.82502 8.27506 4.77127 8.14034 4.77248 8.0005C4.7737 7.86066 4.82979 7.7269 4.92867 7.62801C5.02755 7.52913 5.16132 7.47304 5.30116 7.47182C5.441 7.47061 5.57572 7.52437 5.67631 7.62152L7.43257 9.37778L11.3222 5.48818C11.4222 5.3882 11.5578 5.33203 11.6992 5.33203C11.8407 5.33203 11.9763 5.3882 12.0763 5.48818Z" fill="white"/>
<defs>
<linearGradient id="paint0_linear_4358_103158" x1="-1.9" y1="-1.0816e-07" x2="22.4921" y2="7.2328" gradientUnits="userSpaceOnUse">
<stop stop-color="#A282E8"/>
<stop offset="0.484375" stop-color="#7E8EE7"/>
<stop offset="1" stop-color="#4499E9"/>
</linearGradient>
</defs>
</svg>
