<svg width="48" height="48" viewBox="0 0 48 48" fill="none" xmlns="http://www.w3.org/2000/svg">
<path fill-rule="evenodd" clip-rule="evenodd" d="M15.0409 8.2917C16.5842 8.16854 18.0494 7.56164 19.2278 6.55741C21.9778 4.21394 26.0223 4.21394 28.7723 6.55741C29.9507 7.56164 31.4159 8.16854 32.9592 8.2917C36.5608 8.57911 39.4207 11.4391 39.7082 15.0406C39.8313 16.584 40.4382 18.0492 41.4424 19.2276C43.7859 21.9775 43.7859 26.0221 41.4424 28.772C40.4382 29.9504 39.8313 31.4156 39.7082 32.959C39.4207 36.5606 36.5608 39.4205 32.9592 39.7079C31.4159 39.8311 29.9507 40.438 28.7723 41.4422C26.0223 43.7857 21.9778 43.7857 19.2278 41.4422C18.0494 40.438 16.5842 39.8311 15.0409 39.7079C11.4393 39.4205 8.57935 36.5606 8.29194 32.959C8.16878 31.4156 7.56189 29.9504 6.55765 28.772C4.21418 26.0221 4.21418 21.9775 6.55765 19.2276C7.56189 18.0492 8.16878 16.584 8.29194 15.0406C8.57935 11.4391 11.4393 8.57911 15.0409 8.2917ZM32.8971 20.8969C33.8344 19.9596 33.8344 18.44 32.8971 17.5027C31.9598 16.5655 30.4403 16.5655 29.503 17.5027L21.6 25.4057L18.4971 22.3027C17.5598 21.3655 16.0403 21.3655 15.103 22.3027C14.1657 23.24 14.1657 24.7596 15.103 25.6969L19.903 30.4969C20.8403 31.4341 22.3598 31.4341 23.2971 30.4969L32.8971 20.8969Z" fill="url(#paint0_linear_219_5912)"/>
<defs>
<linearGradient id="paint0_linear_219_5912" x1="-0.959952" y1="4.7998" x2="57.5812" y2="22.1585" gradientUnits="userSpaceOnUse">
<stop stop-color="#A282E8"/>
<stop offset="0.484375" stop-color="#7E8EE7"/>
<stop offset="1" stop-color="#4499E9"/>
</linearGradient>
</defs>
</svg>
