<svg width="16" height="17" viewBox="0 0 16 17" fill="none" xmlns="http://www.w3.org/2000/svg">
<g clip-path="url(#clip0_1068_5345)">
<path fill-rule="evenodd" clip-rule="evenodd" d="M4.8233 7.69961H3.2665C3.38089 7.02337 3.63877 6.37946 4.0228 5.81121C4.40683 5.24296 4.9081 4.76354 5.4929 4.40521C5.1297 5.32361 4.8945 6.46281 4.8233 7.69961ZM3.47461 3.97413C4.67485 2.77389 6.30271 2.09961 8.0001 2.09961C9.69748 2.09961 11.3253 2.77389 12.5256 3.97413C13.6941 5.14261 14.3641 6.71639 14.3987 8.36504C13.9055 7.93804 13.3212 7.61345 12.6788 7.42436C12.5465 6.84883 12.309 6.30183 11.9774 5.81121C11.5934 5.24296 11.0921 4.76354 10.5073 4.40521C10.8252 5.20912 11.0451 6.18221 11.1427 7.24185C10.5862 7.26857 10.0555 7.3935 9.5675 7.59968C9.48659 6.51023 9.2637 5.55896 8.9617 4.85481C8.7697 4.40681 8.5617 4.09641 8.3721 3.90921C8.1857 3.72521 8.0609 3.69961 8.0001 3.69961C7.9393 3.69961 7.8145 3.72521 7.6281 3.90921C7.4377 4.09641 7.2305 4.40761 7.0385 4.85481C6.7273 5.58041 6.5001 6.56841 6.4257 7.69961H9.34728C8.60291 8.06123 7.96995 8.61637 7.51381 9.29961H6.4257C6.47597 10.064 6.59601 10.763 6.76459 11.3598C6.74637 11.5267 6.73702 11.6963 6.73702 11.868C6.73702 13.0267 7.1625 14.086 7.86573 14.8982C6.217 14.8636 4.64314 14.1936 3.47461 13.0251C2.27438 11.8249 1.6001 10.197 1.6001 8.49961C1.6001 6.80222 2.27438 5.17436 3.47461 3.97413ZM4.8241 9.29961C4.8945 10.5364 5.1297 11.6756 5.4929 12.594C4.9081 12.2357 4.40683 11.7563 4.0228 11.188C3.63877 10.6198 3.38089 9.97585 3.2665 9.29961H4.8241Z" fill="currentColor"/>
<g clip-path="url(#clip1_1068_5345)">
<path d="M11.3684 8.00879C9.24563 8.00879 7.50879 9.74563 7.50879 11.8684C7.50879 13.9912 9.24563 15.7281 11.3684 15.7281C13.4912 15.7281 15.2281 13.9912 15.2281 11.8684C15.2281 9.74563 13.4912 8.00879 11.3684 8.00879ZM12.9895 13.4895L10.9825 12.2544V9.93861H11.5614V11.9456L13.2983 12.9877L12.9895 13.4895Z" fill="currentColor"/>
</g>
</g>
<defs>
<clipPath id="clip0_1068_5345">
<rect width="16" height="16" fill="white" transform="translate(0 0.5)"/>
</clipPath>
<clipPath id="clip1_1068_5345">
<rect width="9.26316" height="9.26316" fill="white" transform="translate(6.73682 7.2373)"/>
</clipPath>
</defs>
</svg>
