<svg width="60" height="40" viewBox="0 0 60 40" fill="none" xmlns="http://www.w3.org/2000/svg">
<g clip-path="url(#clip0_1387_388)">
<path d="M55.111 39.7219H4.46202C1.99768 39.7219 0 37.6882 0 35.182V4.53995C0 2.03376 1.99768 0 4.46202 0H55.111C57.5753 0 59.573 2.03376 59.573 4.53995V35.182C59.573 37.6882 57.5753 39.7219 55.111 39.7219Z" fill="#41479B"/>
<path d="M59.5114 35.9319C59.1599 38.0822 57.3231 39.7219 55.111 39.7219H53.9513L34.9217 27.0342V39.7219H24.6513V27.0321L5.61972 39.7219H4.46003C2.24789 39.7219 0.411054 38.0822 0.059573 35.9298L16.323 25.0873H0V14.6346H16.325L0.0615587 3.79C0.413039 1.63972 2.24987 0 4.46202 0H5.6217L24.6513 12.6877V0H34.9217V12.6877L53.9533 0H55.113C57.3251 0 59.1619 1.63972 59.5134 3.79L43.25 14.6346H59.573V25.0873H43.248L59.5114 35.9319Z" fill="#F5F5F5"/>
<path d="M32.8684 39.6741H26.7046V22.9761H0V16.7138H26.7046V0.0157318H32.8684V16.7138H59.573V22.9761H32.8684V39.6741Z" fill="#FF4B55"/>
<path d="M2.88501 0.325396L24.5934 14.6444H20.8205L1.07201 1.6198C1.55654 1.04781 2.17808 0.598683 2.88501 0.327514V0.325396ZM40.3028 14.6444H36.5299L57.5571 0.776637C58.1449 1.16856 58.6354 1.70031 58.9869 2.32315L40.3028 14.6444ZM0.470322 37.1853L18.8228 25.0801H22.5957L1.80079 38.7953C1.24278 38.3737 0.784073 37.8208 0.470322 37.1853ZM38.6943 25.0801L58.4785 38.1301C57.99 38.7 57.3665 39.147 56.6516 39.4118L34.9214 25.0801H38.6943Z" fill="#FF4B55"/>
</g>
<defs>
<clipPath id="clip0_1387_388">
<rect width="59.573" height="40" rx="2.97865" fill="white"/>
</clipPath>
</defs>
</svg>
