<svg width="12" height="13" viewBox="0 0 12 13" fill="none" xmlns="http://www.w3.org/2000/svg">
<path d="M7.51018 2.5L5.99935 4.01083L4.48852 2.5L3.66602 3.3225L5.17685 4.83333L3.66602 6.34417L4.48852 7.16667L5.99935 5.65583L7.51018 7.16667L8.33268 6.34417L6.82185 4.83333L8.33268 3.3225L7.51018 2.5ZM8.91602 0.75C9.22544 0.75 9.52218 0.872916 9.74098 1.09171C9.95977 1.3105 10.0827 1.60725 10.0827 1.91667V7.75C10.0827 8.05942 9.95977 8.35616 9.74098 8.57496C9.52218 8.79375 9.22544 8.91667 8.91602 8.91667H6.58268V10.0833H7.16602C7.32073 10.0833 7.4691 10.1448 7.5785 10.2542C7.68789 10.3636 7.74935 10.512 7.74935 10.6667H11.8327V11.8333H7.74935C7.74935 11.988 7.68789 12.1364 7.5785 12.2458C7.4691 12.3552 7.32073 12.4167 7.16602 12.4167H4.83268C4.67797 12.4167 4.5296 12.3552 4.4202 12.2458C4.31081 12.1364 4.24935 11.988 4.24935 11.8333H0.166016V10.6667H4.24935C4.24935 10.512 4.31081 10.3636 4.4202 10.2542C4.5296 10.1448 4.67797 10.0833 4.83268 10.0833H5.41602V8.91667H3.08268C2.43518 8.91667 1.91602 8.39167 1.91602 7.75V1.91667C1.91602 1.60725 2.03893 1.3105 2.25772 1.09171C2.47652 0.872916 2.77326 0.75 3.08268 0.75H8.91602Z" fill="url(#paint0_linear_2379_76462)"/>
<defs>
<linearGradient id="paint0_linear_2379_76462" x1="17.666" y1="6.58333" x2="5.99935" y2="-5.08334" gradientUnits="userSpaceOnUse">
<stop stop-color="#FF8888"/>
<stop offset="1" stop-color="#F05F5F"/>
</linearGradient>
</defs>
</svg>
