<svg width="18" height="18" viewBox="0 0 18 18" fill="none" xmlns="http://www.w3.org/2000/svg">
<path d="M11.1596 3L9.0013 5.15833L6.84297 3L5.66797 4.175L7.8263 6.33333L5.66797 8.49167L6.84297 9.66667L9.0013 7.50833L11.1596 9.66667L12.3346 8.49167L10.1763 6.33333L12.3346 4.175L11.1596 3ZM13.168 0.5C13.61 0.5 14.0339 0.675595 14.3465 0.988155C14.659 1.30072 14.8346 1.72464 14.8346 2.16667V10.5C14.8346 10.942 14.659 11.3659 14.3465 11.6785C14.0339 11.9911 13.61 12.1667 13.168 12.1667H9.83464V13.8333H10.668C10.889 13.8333 11.1009 13.9211 11.2572 14.0774C11.4135 14.2337 11.5013 14.4457 11.5013 14.6667H17.3346V16.3333H11.5013C11.5013 16.5543 11.4135 16.7663 11.2572 16.9226C11.1009 17.0789 10.889 17.1667 10.668 17.1667H7.33464C7.11362 17.1667 6.90166 17.0789 6.74538 16.9226C6.5891 16.7663 6.5013 16.5543 6.5013 16.3333H0.667969V14.6667H6.5013C6.5013 14.4457 6.5891 14.2337 6.74538 14.0774C6.90166 13.9211 7.11362 13.8333 7.33464 13.8333H8.16797V12.1667H4.83464C3.90964 12.1667 3.16797 11.4167 3.16797 10.5V2.16667C3.16797 1.72464 3.34356 1.30072 3.65612 0.988155C3.96868 0.675595 4.39261 0.5 4.83464 0.5H13.168Z" fill="url(#paint0_linear_13635_5750)"/>
<defs>
<linearGradient id="paint0_linear_13635_5750" x1="-1.83203" y1="0.5" x2="23.5764" y2="8.03416" gradientUnits="userSpaceOnUse">
<stop stop-color="#A282E8"/>
<stop offset="0.484375" stop-color="#7E8EE7"/>
<stop offset="1" stop-color="#4499E9"/>
</linearGradient>
</defs>
</svg>
