<svg width="462" height="320" viewBox="0 0 462 320" fill="none" xmlns="http://www.w3.org/2000/svg">
<path opacity="0.46" d="M272.25 40.6816C272.25 40.6816 295.663 21.166 308.749 19.7721C321.835 18.3781 323.229 29.8143 330.484 30.0988C337.738 30.3833 342.176 13.0867 355.006 9.47379C367.836 5.86086 409.911 40.141 409.911 40.141L272.25 40.6816Z" fill="#8193A8"/>
<path opacity="0.46" d="M0.28125 90.1828H117.488C117.488 90.1828 107.844 70.9802 91.0597 72.0897C74.2752 73.2276 72.9097 52.4034 50.8338 54.3379C28.7864 56.2724 0.28125 90.1828 0.28125 90.1828Z" fill="#8193A8"/>
<path d="M231 319.192C358.578 319.192 462 310.34 462 299.42C462 288.5 358.578 279.648 231 279.648C103.422 279.648 0 288.5 0 299.42C0 310.34 103.422 319.192 231 319.192Z" fill="#394759" fill-opacity="0.88"/>
<path d="M366.183 293.558H95.8107C85.0003 293.558 76.2383 284.796 76.2383 273.986V129.127C76.2383 118.317 85.0003 109.555 95.8107 109.555H366.183C376.993 109.555 385.756 118.317 385.756 129.127V274.014C385.756 284.796 376.993 293.558 366.183 293.558Z" fill="url(#paint0_linear_2855_95285)"/>
<path d="M362.712 38.4582V145.936H98.9961V38.4582C98.9961 30.8909 105.34 24.7461 113.192 24.7461H348.516C356.368 24.7461 362.712 30.8909 362.712 38.4582Z" fill="#F6F6F6"/>
<path d="M362.712 145.934V189.147C362.712 196.714 356.368 202.859 348.516 202.859L238.962 242.772C233.756 244.678 227.981 244.678 222.775 242.772L113.192 202.859C105.369 202.859 98.9961 196.714 98.9961 189.147V145.934H362.712Z" fill="white"/>
<path d="M170.4 262.574H100.133C98.255 262.574 96.7188 261.038 96.7188 259.16V256.031C96.7188 254.153 98.255 252.617 100.133 252.617H170.4C172.277 252.617 173.814 254.153 173.814 256.031V259.16C173.814 261.038 172.277 262.574 170.4 262.574Z" fill="white"/>
<path fill-rule="evenodd" clip-rule="evenodd" d="M161.21 174.723H58.5974C56.7198 174.723 55.1836 173.186 55.1836 171.309V116.062C55.1836 114.185 56.7198 112.648 58.5974 112.648H171.822C173.699 112.648 175.235 114.185 175.235 116.062V171.309C175.235 171.333 175.235 171.356 175.235 171.38V190.993L161.21 174.723Z" fill="url(#paint1_linear_2855_95285)"/>
<path d="M162.603 129.946H72.2231C70.5162 129.946 69.0938 128.523 69.0938 126.816V125.621C69.0938 123.915 70.5162 122.492 72.2231 122.492H162.603C164.31 122.492 165.733 123.915 165.733 125.621V126.816C165.733 128.523 164.339 129.946 162.603 129.946Z" fill="white"/>
<path d="M162.603 144.535H72.2231C70.5162 144.535 69.0938 143.113 69.0938 141.406V140.211C69.0938 138.504 70.5162 137.082 72.2231 137.082H162.603C164.31 137.082 165.733 138.504 165.733 140.211V141.406C165.733 143.113 164.339 144.535 162.603 144.535Z" fill="white"/>
<path d="M120.898 159.11H72.2231C70.5162 159.11 69.0938 157.687 69.0938 155.98V154.786C69.0938 153.079 70.5162 151.656 72.2231 151.656H120.898C122.605 151.656 124.027 153.079 124.027 154.786V155.98C124.027 157.716 122.605 159.11 120.898 159.11Z" fill="white"/>
<path d="M227.725 102.129C255.927 102.129 278.789 79.2669 278.789 51.0647C278.789 22.8624 255.927 0 227.725 0C199.523 0 176.66 22.8624 176.66 51.0647C176.66 79.2669 199.523 102.129 227.725 102.129Z" fill="url(#paint2_linear_2855_95285)"/>
<g opacity="0.5">
<path opacity="0.5" d="M54.5059 248.399C44.7197 247.802 36.4128 239.409 36.3559 232.354C36.299 226.522 41.9033 225.015 42.074 217.647C42.2447 211.303 38.1197 209.88 38.8309 204.475C39.5706 198.785 45.118 192.271 51.8318 192.242C59.5128 192.214 64.7473 200.834 65.2025 207.718C65.5154 212.412 62.6421 213.038 62.7275 217.476C62.8981 226.494 74.1637 229.083 73.993 235.825C73.8507 241.97 64.1499 248.997 54.5059 248.399Z" fill="url(#paint3_linear_2855_95285)"/>
</g>
<path d="M54.4205 201.777H53.8516V253.183H54.4205V201.777Z" fill="white"/>
<path d="M54.0782 219.61C49.3273 219.297 48.673 212.298 48.6445 212.014L49.2135 211.957C49.2135 212.014 49.8678 218.756 54.135 219.041L54.0782 219.61Z" fill="white"/>
<path d="M47.2232 252.781H60.8499C62.187 252.781 63.2396 253.891 63.1827 255.228L61.3336 289.622C61.2767 290.817 60.3094 291.784 59.1146 291.812L49.1862 292.211C47.906 292.267 46.8249 291.272 46.768 290.02L44.9189 255.228C44.8336 253.891 45.8862 252.781 47.2232 252.781Z" fill="url(#paint4_linear_2855_95285)"/>
<path d="M54.081 237.56C50.6672 237.332 50.212 232.382 50.1836 232.155L50.7526 232.098C50.7526 232.155 51.2077 236.792 54.1095 236.991L54.081 237.56Z" fill="white"/>
<path d="M53.88 230.114L53.8516 229.546C57.8343 229.346 58.4317 224.88 58.4317 224.852L59.0007 224.908C59.0007 224.965 58.3464 229.915 53.88 230.114Z" fill="white"/>
<path d="M54.0792 243.311L54.0508 242.743C56.8672 242.6 57.2654 239.528 57.2939 239.414L57.8628 239.471C57.8628 239.499 57.3792 243.141 54.0792 243.311Z" fill="white"/>
<path d="M242.192 42.9501C243.97 41.1725 243.963 38.2839 242.186 36.5064C240.408 34.7288 237.519 34.7222 235.742 36.4998L227.678 44.5637L219.614 36.4998C217.837 34.7222 214.948 34.7288 213.17 36.5064C211.393 38.2839 211.386 41.1725 213.164 42.9501L221.228 51.014L213.164 59.0779C211.386 60.8554 211.393 63.744 213.17 65.5216C214.948 67.2991 217.837 67.3057 219.614 65.5281L227.678 57.4643L235.742 65.5281C237.519 67.3057 240.408 67.2991 242.186 65.5216C243.963 63.744 243.97 60.8554 242.192 59.0779L234.128 51.014L242.192 42.9501Z" fill="white"/>
<defs>
<linearGradient id="paint0_linear_2855_95285" x1="29.8107" y1="109.555" x2="440.889" y2="314.595" gradientUnits="userSpaceOnUse">
<stop stop-color="#A282E8"/>
<stop offset="0.484375" stop-color="#7E8EE7"/>
<stop offset="1" stop-color="#4499E9"/>
</linearGradient>
<linearGradient id="paint1_linear_2855_95285" x1="235.261" y1="151.821" x2="163.548" y2="41.9308" gradientUnits="userSpaceOnUse">
<stop stop-color="#FF8888"/>
<stop offset="1" stop-color="#F05F5F"/>
</linearGradient>
<linearGradient id="paint2_linear_2855_95285" x1="329.854" y1="51.0647" x2="227.725" y2="-51.0647" gradientUnits="userSpaceOnUse">
<stop stop-color="#FF8888"/>
<stop offset="1" stop-color="#F05F5F"/>
</linearGradient>
<linearGradient id="paint3_linear_2855_95285" x1="31.5618" y1="185.408" x2="94.8658" y2="206.035" gradientUnits="userSpaceOnUse">
<stop stop-color="#F75A92"/>
<stop offset="1" stop-color="#FF9A9A"/>
</linearGradient>
<linearGradient id="paint4_linear_2855_95285" x1="42.5871" y1="247.986" x2="74.9351" y2="255.277" gradientUnits="userSpaceOnUse">
<stop stop-color="#F75A92"/>
<stop offset="1" stop-color="#FF9A9A"/>
</linearGradient>
</defs>
</svg>
