<svg width="20" height="20" viewBox="0 0 20 20" fill="none" xmlns="http://www.w3.org/2000/svg">
<path d="M12.1587 5L10.0003 7.15833L7.84199 5L6.66699 6.175L8.82533 8.33333L6.66699 10.4917L7.84199 11.6667L10.0003 9.50833L12.1587 11.6667L13.3337 10.4917L11.1753 8.33333L13.3337 6.175L12.1587 5ZM14.167 2.5C14.609 2.5 15.0329 2.67559 15.3455 2.98816C15.6581 3.30072 15.8337 3.72464 15.8337 4.16667V12.5C15.8337 12.942 15.6581 13.366 15.3455 13.6785C15.0329 13.9911 14.609 14.1667 14.167 14.1667H10.8337V15.8333H11.667C11.888 15.8333 12.1 15.9211 12.2562 16.0774C12.4125 16.2337 12.5003 16.4457 12.5003 16.6667H18.3337V18.3333H12.5003C12.5003 18.5543 12.4125 18.7663 12.2562 18.9226C12.1 19.0789 11.888 19.1667 11.667 19.1667H8.33366C8.11265 19.1667 7.90068 19.0789 7.7444 18.9226C7.58812 18.7663 7.50033 18.5543 7.50033 18.3333H1.66699V16.6667H7.50033C7.50033 16.4457 7.58812 16.2337 7.7444 16.0774C7.90068 15.9211 8.11265 15.8333 8.33366 15.8333H9.16699V14.1667H5.83366C4.90866 14.1667 4.16699 13.4167 4.16699 12.5V4.16667C4.16699 3.72464 4.34259 3.30072 4.65515 2.98816C4.96771 2.67559 5.39163 2.5 5.83366 2.5H14.167Z" fill="currentColor"/>
</svg>
