<svg width="26" height="20" viewBox="0 0 26 20" fill="none" xmlns="http://www.w3.org/2000/svg">
<path d="M0.200012 3.60039C0.200012 1.83308 1.6327 0.400391 3.40001 0.400391H13C14.7673 0.400391 16.2 1.83308 16.2 3.60039V16.4004C16.2 18.1677 14.7673 19.6004 13 19.6004H3.40001C1.6327 19.6004 0.200012 18.1677 0.200012 16.4004V3.60039Z" fill="white"/>
<path d="M20.2845 5.36931C19.7424 5.64034 19.4 6.19436 19.4 6.80039V13.2004C19.4 13.8064 19.7424 14.3604 20.2845 14.6315L23.4845 16.2315C23.9805 16.4795 24.5695 16.453 25.0412 16.1614C25.5129 15.8699 25.8 15.3549 25.8 14.8004V5.20039C25.8 4.64587 25.5129 4.13088 25.0412 3.83935C24.5695 3.54782 23.9805 3.52132 23.4845 3.76931L20.2845 5.36931Z" fill="white"/>
</svg>
