<svg width="58" height="58" viewBox="0 0 58 58" fill="none" xmlns="http://www.w3.org/2000/svg">
<path fill-rule="evenodd" clip-rule="evenodd" d="M28.9992 57.7992C44.905 57.7992 57.7992 44.905 57.7992 28.9992C57.7992 13.0934 44.905 0.199219 28.9992 0.199219C13.0934 0.199219 0.199219 13.0934 0.199219 28.9992C0.199219 44.905 13.0934 57.7992 28.9992 57.7992ZM27.3961 18.8038C26.2915 18.0674 24.8711 17.9987 23.7005 18.6252C22.53 19.2517 21.7992 20.4716 21.7992 21.7992V36.1992C21.7992 37.5269 22.53 38.7468 23.7005 39.3732C24.8711 39.9997 26.2915 39.9311 27.3961 39.1946L38.1961 31.9946C39.1977 31.3269 39.7992 30.2029 39.7992 28.9992C39.7992 27.7956 39.1977 26.6715 38.1961 26.0038L27.3961 18.8038Z" fill="#E4E6EA"/>
</svg>
