<svg width="20" height="20" viewBox="0 0 20 20" fill="none" xmlns="http://www.w3.org/2000/svg">
<path d="M3.95831 9.99992C3.95831 10.3173 4.02082 10.6315 4.14227 10.9247C4.26372 11.2179 4.44173 11.4844 4.66614 11.7088C4.89055 11.9332 5.15696 12.1112 5.45016 12.2326C5.74336 12.3541 6.05762 12.4166 6.37498 12.4166C6.69234 12.4166 7.00659 12.3541 7.2998 12.2326C7.593 12.1112 7.85941 11.9332 8.08382 11.7088C8.30823 11.4844 8.48624 11.2179 8.60769 10.9247C8.72914 10.6315 8.79165 10.3173 8.79165 9.99992C8.79165 9.68256 8.72914 9.3683 8.60769 9.0751C8.48624 8.7819 8.30823 8.51549 8.08382 8.29108C7.85941 8.06667 7.593 7.88866 7.2998 7.76721C7.00659 7.64576 6.69234 7.58325 6.37498 7.58325C6.05762 7.58325 5.74336 7.64576 5.45016 7.76721C5.15696 7.88866 4.89055 8.06667 4.66614 8.29108C4.44173 8.51549 4.26372 8.7819 4.14227 9.0751C4.02082 9.3683 3.95831 9.68256 3.95831 9.99992V9.99992Z" stroke="#567191" stroke-width="1.5" stroke-linecap="round" stroke-linejoin="round"/>
<path d="M11.2083 9.99992C11.2083 10.3173 11.2708 10.6315 11.3923 10.9247C11.5137 11.2179 11.6917 11.4844 11.9161 11.7088C12.1405 11.9332 12.407 12.1112 12.7002 12.2326C12.9934 12.3541 13.3076 12.4166 13.625 12.4166C13.9423 12.4166 14.2566 12.3541 14.5498 12.2326C14.843 12.1112 15.1094 11.9332 15.3338 11.7088C15.5582 11.4844 15.7362 11.2179 15.8577 10.9247C15.9791 10.6315 16.0416 10.3173 16.0416 9.99992C16.0416 9.68256 15.9791 9.3683 15.8577 9.0751C15.7362 8.7819 15.5582 8.51549 15.3338 8.29108C15.1094 8.06667 14.843 7.88866 14.5498 7.76721C14.2566 7.64576 13.9423 7.58325 13.625 7.58325C13.3076 7.58325 12.9934 7.64576 12.7002 7.76721C12.407 7.88866 12.1405 8.06667 11.9161 8.29108C11.6917 8.51549 11.5137 8.7819 11.3923 9.0751C11.2708 9.3683 11.2083 9.68256 11.2083 9.99992V9.99992Z" stroke="#567191" stroke-width="1.5" stroke-linecap="round" stroke-linejoin="round"/>
<path d="M6.375 12.4165H13.625" stroke="#567191" stroke-width="1.5" stroke-linecap="round" stroke-linejoin="round"/>
</svg>
