<svg width="16" height="16" viewBox="0 0 16 16" fill="none" xmlns="http://www.w3.org/2000/svg">
<path fill-rule="evenodd" clip-rule="evenodd" d="M8 16C12.4183 16 16 12.4183 16 8C16 3.58172 12.4183 0 8 0C3.58172 0 0 3.58172 0 8C0 12.4183 3.58172 16 8 16ZM9 4C9 3.44772 8.55229 3 8 3C7.44772 3 7 3.44772 7 4V8C7 8.26522 7.10536 8.51957 7.29289 8.70711L10.1213 11.5355C10.5118 11.9261 11.145 11.9261 11.5355 11.5355C11.9261 11.145 11.9261 10.5118 11.5355 10.1213L9 7.58579V4Z" fill="url(#paint0_linear_10496_157335)"/>
<defs>
<linearGradient id="paint0_linear_10496_157335" x1="-2.4" y1="-1.0816e-07" x2="21.9921" y2="7.2328" gradientUnits="userSpaceOnUse">
<stop stop-color="#A282E8"/>
<stop offset="0.484375" stop-color="#7E8EE7"/>
<stop offset="1" stop-color="#4499E9"/>
</linearGradient>
</defs>
</svg>
