<svg width="19" height="20" viewBox="0 0 19 20" fill="none" xmlns="http://www.w3.org/2000/svg">
<path d="M18.4845 16.0073C18.458 15.9819 18.4302 15.9577 18.4049 15.9311L11.0565 8.20095C10.8534 7.98728 10.7941 7.6776 10.8737 7.39374C11.4191 5.44924 10.9454 3.26597 9.45232 1.69538C8.02263 0.191422 5.99047 -0.298498 4.16826 0.172205C3.66171 0.303056 3.54464 0.923414 3.90511 1.3026L6.31757 3.84039C6.60075 4.13828 6.60075 4.60586 6.31757 4.90376L4.8314 6.46713C4.5296 6.78461 4.02436 6.78751 3.71893 6.47352L1.32029 4.00762C0.945346 3.62216 0.303529 3.7336 0.173007 4.25526C-0.306662 6.17235 0.219255 8.3105 1.64916 9.81468C3.12527 11.3675 5.17068 11.8722 7.00319 11.329C7.30867 11.2384 7.64622 11.3052 7.86575 11.5362L15.2199 19.2723C15.5591 19.6292 16.068 19.6292 16.4073 19.2723L18.3581 17.2202C18.7641 16.8786 18.7814 16.2916 18.4845 16.0073Z" fill="url(#paint0_linear_2585_45541)"/>
<defs>
<linearGradient id="paint0_linear_2585_45541" x1="-2.80315" y1="-1.32091e-07" x2="25.8842" y2="8.13537" gradientUnits="userSpaceOnUse">
<stop stop-color="#A282E8"/>
<stop offset="0.484375" stop-color="#7E8EE7"/>
<stop offset="1" stop-color="#4499E9"/>
</linearGradient>
</defs>
</svg>
