<svg width="17" height="17" viewBox="0 0 17 17" fill="none" xmlns="http://www.w3.org/2000/svg">
<path d="M15.9104 14.0138C15.8843 13.9879 15.8564 13.9638 15.8311 13.9372L9.76908 7.56029C9.56596 7.34662 9.50752 7.03707 9.58247 6.75194C10.0032 5.15125 9.60133 3.36879 8.37694 2.08079C7.23023 0.874512 5.61843 0.451047 4.14518 0.770703C3.6339 0.881639 3.51533 1.50214 3.87579 1.88133L5.6804 3.77968C5.96359 4.07757 5.96359 4.54515 5.6804 4.84305L4.61831 5.96031C4.31651 6.27779 3.81128 6.28069 3.50585 5.9667L1.7292 4.14023C1.35426 3.75477 0.712944 3.86795 0.602778 4.39428C0.278337 5.94433 0.727346 7.64034 1.8743 8.84687C3.08169 10.117 4.74616 10.5457 6.25128 10.133C6.55856 10.0487 6.89596 10.1144 7.11549 10.3453L13.1832 16.7282C13.466 17.0257 13.89 17.0257 14.1728 16.7282L15.7984 15.0181C16.1337 14.736 16.1509 14.2531 15.9104 14.0138Z" fill="currentColor"/>
</svg>
