<svg width="1024" height="1024" viewBox="0 0 1024 1024" fill="none" xmlns="http://www.w3.org/2000/svg">
<g clip-path="url(#clip0_22006_125179)">
<path d="M701.8 834.2C616.4 834.2 535.9 801.1 475.2 741L475.1 740.9L297.8 563.6C277.2 542.9 265.8 515.5 265.9 486.3C266 457.1 277.5 429.7 298.3 409.2C318.8 388.9 346 377.8 374.8 377.8H375.1C404.1 377.9 431.3 389.2 451.8 409.7L614.3 572.2C633.3 591.2 664.4 591.3 683.5 572.4C692.8 563.2 698 550.8 698.1 537.6C698.1 524.4 693 512.1 683.7 502.8L506.5 325.5C457.1 276.7 391.7 249.8 322.2 249.8H321.6C250.5 250 184.1 277.9 134.7 328.4C85.2003 379 58.7003 446.1 60.1003 517.2C61.5003 586.1 89.3003 650.7 138.6 699C187.9 747.4 253.1 774.1 322.3 774.1C347.6 774.1 372.7 770.5 396.7 763.4C412.6 758.7 429.3 767.8 434 783.7C438.7 799.6 429.6 816.3 413.7 821C384.1 829.7 353.4 834.2 322.3 834.2C237.4 834.2 157.2 801.4 96.6003 742C36.0003 682.5 1.70034 603.2 0.100338 518.5C-0.799662 474.4 7.10034 431.5 23.4003 391C39.2003 351.9 62.2003 316.8 91.7003 286.5C121.2 256.3 155.8 232.6 194.5 215.9C234.6 198.7 277.3 189.9 321.4 189.8H322.2C407.6 189.8 488.1 222.9 548.8 282.9L548.9 283L726.1 460.2C746.8 480.9 758.1 508.4 758 537.6C757.9 566.8 746.4 594.3 725.7 614.8C683.2 656.9 614.2 656.7 571.9 614.4L409.4 452C390.4 433 359.5 433 340.5 451.8C331.2 461 326 473.3 326 486.4C326 499.5 331 511.9 340.3 521.1L517.5 698.3C566.8 747.1 632.3 774 701.8 774C771.8 774 837.6 746.8 887.1 697.3C936.6 647.8 963.9 582.1 964 512.1C964.1 442.1 936.8 376.2 887.2 326.6C837.6 277 771.8 249.6 701.8 249.6C679.5 249.6 657.3 252.4 636 257.9C632.9 258.7 629.8 259.6 626.7 260.5C610.8 265.2 594.1 256.2 589.4 240.3C584.7 224.4 593.7 207.7 609.6 203L621 199.8C647.3 193 674.5 189.6 701.9 189.6C745.4 189.6 787.6 198.1 827.3 215C865.7 231.3 900.1 254.5 929.7 284.2C959.3 313.8 982.5 348.3 998.7 386.7C1015.5 426.5 1024 468.7 1024 512.2C1023.9 598.2 990.3 679 929.5 739.8C868.7 800.7 787.8 834.2 701.8 834.2Z" fill="#226DB4"/>
</g>
<defs>
<clipPath id="clip0_22006_125179">
<rect width="1024" height="1024" fill="white"/>
</clipPath>
</defs>
</svg>
