<svg width="24" height="24" viewBox="0 0 24 24" fill="none" xmlns="http://www.w3.org/2000/svg">
<path d="M0 2.87787C0 1.29428 1.29428 0 2.87787 0H21.6221C23.2057 0 24.5 1.29428 24.5 2.87787V21.6221C24.5 23.2057 23.2057 24.5 21.6221 24.5H2.87787C1.29428 24.5 0 23.2057 0 21.6221V2.87787V2.87787Z" fill="currentColor"/>
<path d="M14.8944 6.68457H17.6352C17.7418 6.68457 17.8332 6.77593 17.8332 6.88252V9.51677C17.8332 9.62335 17.7418 9.71471 17.6352 9.71471H16.8586C16.752 9.71471 16.6607 9.62335 16.6607 9.51677V8.69452L8.42296 16.6429H10.1131C10.2197 16.6429 10.3111 16.7343 10.3111 16.8409V17.6175C10.3111 17.724 10.2197 17.8154 10.1131 17.8154H6.86982C6.76324 17.8154 6.67188 17.724 6.67188 17.6175V16.6429L15.808 7.84181H14.8791C14.7726 7.84181 14.6812 7.75045 14.6812 7.64386V6.86729C14.6964 6.77593 14.7878 6.68457 14.8944 6.68457ZM7.84434 7.82658H13.0367C13.1433 7.82658 13.2346 7.73522 13.2346 7.62864V6.88252C13.2346 6.77593 13.1433 6.68457 13.0367 6.68457H6.86982C6.76324 6.68457 6.67188 6.77593 6.67188 6.88252V9.56244C6.67188 9.66903 6.76324 9.7604 6.86982 9.7604H7.64639C7.75298 9.7604 7.84434 9.66903 7.84434 9.56244V7.82658V7.82658ZM16.6607 16.6582H11.9556C11.849 16.6582 11.7576 16.7495 11.7576 16.8561V17.6327C11.7576 17.7393 11.849 17.8306 11.9556 17.8306H17.62C17.7266 17.8306 17.8179 17.7393 17.8179 17.6327V14.8766C17.8179 14.77 17.7266 14.6787 17.62 14.6787H16.8434C16.7368 14.6787 16.6455 14.77 16.6455 14.8766V16.6582H16.6607Z" fill="white"/>
</svg>
